<svg xmlns="http://www.w3.org/2000/svg" viewBox="0 0 537.88 405.43">
  <defs>
    <style>
      .cls-1 {
        fill: #282b6a;
      }

      .cls-2 {
        fill: #d6d6d6;
      }

      .cls-3 {
        fill: #b6b9ba;
      }

      .cls-4 {
        fill: #d8d8d8;
      }

      .cls-5 {
        fill: #eaeaea;
      }
    </style>
  </defs>
  <title>Asset 2</title>
  <g id="Layer_2" data-name="Layer 2">
    <g id="Layer_1-2" data-name="Layer 1">
      <g id="book">
        <rect class="cls-1" y="60.68" width="537.88" height="328.94" rx="54.52"/>
        <path class="cls-1" d="M269.47,405.43A54.27,54.27,0,0,0,306.66,390c9.12-9.12,16-24.08,15.4-37.18-.61-13.61-5.08-27.71-15.4-37.19s-22.94-15.41-37.19-15.41a54.25,54.25,0,0,0-37.19,15.41c-9.12,9.12-16,24.08-15.41,37.19.61,13.6,5.08,27.7,15.41,37.18s22.94,15.41,37.19,15.41Z"/>
        <path class="cls-2" d="M269.26,374.88c14.28,0,27.95-12.55,27.29-27.29s-12-27.29-27.29-27.29c-14.27,0-27.95,12.55-27.29,27.29s12,27.29,27.29,27.29Z"/>
        <rect class="cls-3" x="30.41" y="40.95" width="476.87" height="319.57" rx="26.49"/>
        <path class="cls-2" d="M245.62,360.53s22.79-7.69,23.23-30.08c-.44,21.82,24.48,30.08,24.48,30.08Z"/>
        <path class="cls-4" d="M268.85,332.62s2.95-31.4,53.76-33.11,63.94,24.55,106.76,29.12,48.52-18.86,48.52-23.41V56.31s-4-28-33.11-28c-67.5,1.74-93.42-41.8-144.71-24.08C295,5.68,271.81,17.11,268.85,45.42,268.9,59.16,268.85,332.62,268.85,332.62Z"/>
        <path class="cls-5" d="M268.85,332.62s-3-31.4-53.76-33.11-63.94,24.55-106.76,29.12S59.8,309.77,59.8,305.22V56.31s4-28,33.12-28c67.5,1.74,93.42-41.8,144.71-24.08,5.05,1.43,28.26,12.86,31.22,41.17C268.8,59.16,268.85,332.62,268.85,332.62Z"/>
      </g>
    </g>
  </g>
</svg>
