<?xml version="1.0" encoding="utf-8"?>
<!-- Generator: Adobe Illustrator 23.0.1, SVG Export Plug-In . SVG Version: 6.00 Build 0)  -->
<svg version="1.1" id="Layer_1" xmlns="http://www.w3.org/2000/svg" xmlns:xlink="http://www.w3.org/1999/xlink" x="0px" y="0px"
	 viewBox="0 0 1000 1000" style="enable-background:new 0 0 1000 1000;" xml:space="preserve">
<style type="text/css">
	.st0{fill:#6F29B2;}
	.st1{fill:#592299;}
	.st2{fill:#5BB563;}
	.st3{fill:#7E44C1;}
	.st4{fill:#4F9952;}
</style>
<path class="st0" d="M258.01,439.36c35.59,63.07,286.56,442.47,497.23,262.74c16.89-14.41,27.48-35.12,30.6-57.27
	c5.39-38.21-4.9-94.95-98.54-124.89C584.2,486.97,471.78,387.29,405.68,321.52c-69.71-69.37-185.01,1.08-156.76,95.83
	c0.44,1.47,0.9,2.96,1.38,4.46C252.25,427.92,254.86,433.78,258.01,439.36z"/>
<path class="st1" d="M258.01,439.36c35.59,63.07,286.56,442.47,497.23,262.74C772.13,687.69,575,796,242,390
	c-0.98-1.19,7.82,30.31,8.3,31.81C252.25,427.92,254.86,433.78,258.01,439.36z"/>
<path class="st2" d="M229.88,254.78c0,0-35.96,79.66-3.37,139.98c22.46,41.56,31.47,51.21,31.47,51.21s-11.24-72.83,0-96.73
	c11.24-23.9,78.67,83.08,78.67,83.08s30.35-67.14-6.74-118.36c0,0,110.14,38.69,120.26,11.38c0,0-94.41-28.45-106.77-47.8
	c-12-18.77-39.34-55.76-73.05-44.38c0,0-19.3-36.92-34.84-22.76C213.02,230.88,229.88,254.78,229.88,254.78z"/>
<path class="st3" d="M497,441c0,0,130,105,196,109c12.18,0.74,21.74,0.98,29.21,3.87C748.77,564.12,754,621,715,614
	C658.38,603.84,549.59,559.49,497,441"/>
<path class="st4" d="M239,281c0,0-14.98,122.72,19.01,158.36c0,0-72.71-54.09-32.36-173.73C225.65,265.63,242,229,239,281z"/>
</svg>
