<svg id="Layer_17" data-name="Layer 17" xmlns="http://www.w3.org/2000/svg" viewBox="0 0 560.98 584.85">
  <defs>
    <style>
      .cls-1 {
        fill: #ffe430;
      }

      .cls-2 {
        fill: #dd8e58;
      }

      .cls-3 {
        fill: #f29753;
      }

      .cls-4 {
        fill: #fcb07c;
      }

      .cls-5 {
        fill: #934a19;
      }

      .cls-6 {
        fill: #b2581b;
      }

      .cls-7 {
        fill: #ce763a;
      }
    </style>
  </defs>
  <g>
    <circle class="cls-1" cx="281.6" cy="279.38" r="279.38"/>
    <polygon class="cls-2" points="327.53 213.81 325.8 156.67 354.37 135.89 373.42 155.8 392.46 144.55 416.91 145.59 424.5 153.21 457.4 136.75 478.17 156.67 480.77 165.32 504.15 156.67 530.99 173.98 532.72 296.06 513.67 389.56 510.21 403.41 380.34 404.28 373.42 376.57 327.53 324.63 303.29 262.29 314.55 224.2 327.53 213.81"/>
    <path class="cls-2" d="M704.58,333.85a34.41,34.41,0,0,0-19.26,5.86,34.64,34.64,0,0,0-58.65-11.43,34.63,34.63,0,0,0-51.95,0,34.63,34.63,0,0,0-60.6,22.87v48.48a43.46,43.46,0,0,0-17.32,34.63A147.34,147.34,0,0,0,555.67,552a26,26,0,0,1,10.39,20.78v74.46a8.66,8.66,0,0,0,8.66,8.66H713.24a8.66,8.66,0,0,0,8.66-8.66v-73A346,346,0,0,0,739.22,466.1V368.48a34.63,34.63,0,0,0-34.63-34.63Zm0,17.32a17.31,17.31,0,0,1,17.31,17.31v57.14a17.32,17.32,0,1,1-34.63,0V368.48A17.31,17.31,0,0,1,704.58,351.17Zm-52-17.32A17.32,17.32,0,0,1,670,351.17v57.14a17.32,17.32,0,0,1-34.63,0V351.17A17.31,17.31,0,0,1,652.63,333.85Zm-51.94,0A17.31,17.31,0,0,1,618,351.17V391H583.37V351.17A17.31,17.31,0,0,1,600.69,333.85Zm-52,0a17.31,17.31,0,0,1,17.31,17.32V391h-26a43.41,43.41,0,0,0-8.66.87V351.17A17.32,17.32,0,0,1,548.74,333.85ZM583.37,638.6V598.77H704.58V638.6ZM717.68,518.75c-5.58,34.33-13.07,49.89-13.07,54v8.66H583.4V572.8a43.28,43.28,0,0,0-17.31-34.63,130,130,0,0,1-52-103.89,26,26,0,0,1,26-26h77a43.37,43.37,0,0,1-42.42,34.63H557.43a8.66,8.66,0,1,0,0,17.31h8.66a34.69,34.69,0,0,1,34,27.83,8.66,8.66,0,0,0,17-3.38A51.82,51.82,0,0,0,599.33,455a61,61,0,0,0,27.21-23.94,34.53,34.53,0,0,0,45.35,6.06A34.64,34.64,0,0,0,716,458.34a33.77,33.77,0,0,0,5.86-2.69v10.51A329.7,329.7,0,0,1,717.68,518.75Z" transform="translate(-197.88 -185.03)"/>
    <path class="cls-3" d="M583.42,581.51v57.14H704.63V581.51S641.43,552.07,583.42,581.51Z" transform="translate(-197.88 -185.03)"/>
    <path class="cls-4" d="M576.67,345.22a15.51,15.51,0,0,0-2.35-6.12c-3.61-5.53-12.26-15.84-25.32-13.23-17.63,3.52-21.51,7.75-24.68,12.69s-3.18,46.55-2.12,55.72c0,0,45.53-7.09,61.92-.28Z" transform="translate(-197.88 -185.03)"/>
    <path class="cls-2" d="M572.1,393.9l17.7,5.31s-6.73,3-19.47,0" transform="translate(-197.88 -185.03)"/>
    <path class="cls-4" d="M628.4,346.21s.07-15-11-21.25-32.94-1.38-37.12,3.91c0,0,13.7,46.22,11.07,59.52-.39,1.94-.72,5-.72,5l36.47.19S629.48,354.09,628.4,346.21Z" transform="translate(-197.88 -185.03)"/>
    <path class="cls-4" d="M681.51,348.62s-2.3-15.8-13.36-22.43-32.94-1.48-37.12,4.17c0,0,4.69,36.76,1.65,62.44a23.42,23.42,0,0,0,.36,5.43l40.64,2.37S682.59,357.05,681.51,348.62Z" transform="translate(-197.88 -185.03)"/>
    <path class="cls-4" d="M733,366.48S732.14,352,721.46,345s-24.9-6.43-29.7-1.65c0,0,5.54,34.92-3,56.87a21.58,21.58,0,0,0-.87,3.06c-.23,1-.36,1.77-.36,1.77l40.12,5.36,1.42-2S733.35,374.21,733,366.48Z" transform="translate(-197.88 -185.03)"/>
    <path class="cls-4" d="M675.5,433.94a3.58,3.58,0,0,1,.3-1.33c2-4.76,14.64-34.67,16-37.05s28.44,6.57,34.64,8.63a3.75,3.75,0,0,1,2,1.52h0a3.76,3.76,0,0,1,.49,3.11c-1.81,6.53-8.62,30.1-12.64,31.95-4.68,2.15-15,9-24.66,7.44C682.2,446.68,675.35,441.49,675.5,433.94Z" transform="translate(-197.88 -185.03)"/>
    <path class="cls-4" d="M673.86,398.85s-2.06,27.33-8.67,33.65-24.1,12.63-33.06.88S636,382.69,636,382.69Z" transform="translate(-197.88 -185.03)"/>
    <path class="cls-4" d="M578.3,645.56a4,4,0,0,1-4-4V565.42s0-11.61-11.61-19.16-38.33-32.52-47.62-58.66-12.2-51.1-10.46-61,6.39-22.06,26.14-25.55c17.74-3.13,76.73-.63,88.53-.1a4,4,0,0,1,3.47,2.38c1.28,2.92,2.28,8.7-2.81,17.44C614,430.87,604,441.92,584.14,447.25a4,4,0,0,0-.38,7.6c10.7,4.16,21.94,12.2,24.92,27.72a4,4,0,0,0,6.24,2.48c12.47-8.89,43.51-29.13,66.58-28.12,21.79.94,38.16,1,45.24,1a4,4,0,0,1,4,3.88c.3,10.05.72,37.05-2.79,52.16-4.38,18.82-10.07,46-14,54.71-3.34,7.43-1,57.47-.23,72.4a4,4,0,0,1-4,4.2Z" transform="translate(-197.88 -185.03)"/>
    <polygon class="cls-5" points="28.61 210.27 26.88 153.13 55.45 132.35 74.5 152.27 93.55 141.01 118 142.06 125.58 149.67 158.48 133.22 179.26 153.13 181.85 161.79 205.23 153.13 232.07 170.45 233.8 292.52 214.75 386.02 211.29 399.87 81.42 400.74 74.5 373.04 28.61 321.09 4.37 258.75 15.63 220.66 28.61 210.27"/>
    <path class="cls-5" d="M405.66,330.31a34.59,34.59,0,0,0-19.26,5.86,34.63,34.63,0,0,0-58.65-11.42A34.57,34.57,0,0,0,279,321.6a33.45,33.45,0,0,0-3.15,3.15,34.63,34.63,0,0,0-60.6,22.86v48.48a43.46,43.46,0,0,0-17.32,34.63,147.34,147.34,0,0,0,58.88,117.75,26,26,0,0,1,10.39,20.78V643.7a8.66,8.66,0,0,0,8.65,8.66H414.32A8.66,8.66,0,0,0,423,643.7v-73a346.14,346.14,0,0,0,17.32-108.1V364.94a34.64,34.64,0,0,0-34.63-34.63Zm0,17.32A17.31,17.31,0,0,1,423,364.94v57.14a17.32,17.32,0,1,1-34.63,0V364.94A17.32,17.32,0,0,1,405.66,347.63Zm-52-17.32A17.32,17.32,0,0,1,371,347.63v57.14a17.32,17.32,0,0,1-34.63,0V347.63A17.32,17.32,0,0,1,353.71,330.31Zm-51.94,0a17.32,17.32,0,0,1,17.31,17.32v39.82H284.45V347.63A17.32,17.32,0,0,1,301.77,330.31Zm-51.95,0a17.33,17.33,0,0,1,17.32,17.32v39.82h-26a44.92,44.92,0,0,0-8.65.87V347.63A17.32,17.32,0,0,1,249.82,330.31Zm34.63,304.75V595.24H405.66v39.82ZM418.77,515.21c-5.59,34.33-13.08,49.9-13.08,54v8.66H284.49v-8.66a43.31,43.31,0,0,0-17.32-34.63,129.93,129.93,0,0,1-51.94-103.89,26,26,0,0,1,26-26h77.05a43.37,43.37,0,0,1-42.42,34.63H258.51a8.66,8.66,0,0,0,0,17.31h8.66a34.71,34.71,0,0,1,34,27.83,8.66,8.66,0,1,0,17-3.38,51.8,51.8,0,0,0-17.7-29.68,61,61,0,0,0,27.2-24A34.55,34.55,0,0,0,373,433.59a34.61,34.61,0,0,0,50,18.53v10.5A329.6,329.6,0,0,1,418.77,515.21Z" transform="translate(-197.88 -185.03)"/>
    <path class="cls-3" d="M284.5,578v57.14H405.71V578S342.51,548.54,284.5,578Z" transform="translate(-197.88 -185.03)"/>
    <path class="cls-6" d="M277.75,341.68a15.42,15.42,0,0,0-2.35-6.12c-3.61-5.53-12.26-15.84-25.32-13.23-17.63,3.53-21.51,7.76-24.68,12.69s-3.17,46.55-2.12,55.72c0,0,45.53-7.09,61.92-.27Z" transform="translate(-197.88 -185.03)"/>
    <path class="cls-5" d="M273.19,390.36l17.69,5.31s-6.72,3-19.46,0" transform="translate(-197.88 -185.03)"/>
    <path class="cls-6" d="M329.49,342.67s.06-15-11-21.25-32.94-1.37-37.11,3.91c0,0,13.69,46.22,11.06,59.52-.39,1.95-.72,5-.72,5l36.48.19S330.57,350.55,329.49,342.67Z" transform="translate(-197.88 -185.03)"/>
    <path class="cls-6" d="M382.6,345.09s-2.31-15.8-13.37-22.44-32.94-1.48-37.12,4.18c0,0,4.7,36.76,1.65,62.44a23.31,23.31,0,0,0,.36,5.42l40.64,2.38S383.68,353.51,382.6,345.09Z" transform="translate(-197.88 -185.03)"/>
    <path class="cls-6" d="M434.11,362.94s-.88-14.52-11.56-21.45-24.91-6.43-29.7-1.65c0,0,5.53,34.92-3,56.88a22.84,22.84,0,0,0-.87,3c-.23,1-.36,1.77-.36,1.77l40.12,5.36,1.42-2S434.43,370.67,434.11,362.94Z" transform="translate(-197.88 -185.03)"/>
    <path class="cls-6" d="M376.58,430.4a3.58,3.58,0,0,1,.3-1.33c2-4.75,14.64-34.67,16-37s28.44,6.56,34.65,8.62a3.84,3.84,0,0,1,2,1.52h0a3.84,3.84,0,0,1,.49,3.11c-1.82,6.54-8.63,30.11-12.65,32-4.68,2.15-15,9-24.66,7.44C383.29,443.15,376.44,438,376.58,430.4Z" transform="translate(-197.88 -185.03)"/>
    <path class="cls-6" d="M374.94,395.32s-2.06,27.32-8.67,33.64-24.09,12.64-33.06.88S337,379.16,337,379.16Z" transform="translate(-197.88 -185.03)"/>
    <path class="cls-6" d="M279.38,642a4,4,0,0,1-4-4V561.89s0-11.62-11.61-19.17-38.33-32.52-47.62-58.65-12.2-51.11-10.46-61,6.39-22.07,26.14-25.55c17.74-3.14,76.74-.64,88.53-.1a4,4,0,0,1,3.47,2.37c1.29,2.93,2.29,8.7-2.81,17.44-5.89,10.09-15.92,21.13-35.79,26.47a4,4,0,0,0-.37,7.6c10.69,4.15,21.94,12.19,24.91,27.71a4,4,0,0,0,6.25,2.49c12.46-8.89,43.5-29.13,66.58-28.13,21.78.95,38.15,1,45.23,1a4,4,0,0,1,4,3.87c.3,10.05.72,37.05-2.79,52.17-4.38,18.81-10.07,45.95-14,54.7-3.34,7.44-1,57.48-.23,72.4a4,4,0,0,1-4,4.2Z" transform="translate(-197.88 -185.03)"/>
    <g>
      <polygon class="cls-7" points="178.11 327.79 176.38 270.65 204.94 249.87 223.99 269.79 243.04 258.53 267.49 259.58 275.07 267.19 307.97 250.74 328.75 270.65 331.35 279.31 354.72 270.65 381.56 287.97 383.29 410.04 364.25 503.54 360.78 517.39 230.92 518.26 223.99 490.56 178.11 438.61 153.87 376.27 165.12 338.18 178.11 327.79"/>
      <path class="cls-7" d="M555.15,447.83a34.46,34.46,0,0,0-19.25,5.87,34.63,34.63,0,0,0-58.66-11.43,34.52,34.52,0,0,0-51.94,0,34.63,34.63,0,0,0-60.61,22.86v48.48a43.46,43.46,0,0,0-17.31,34.64A147.32,147.32,0,0,0,406.25,666a26,26,0,0,1,10.39,20.78v74.45a8.66,8.66,0,0,0,8.66,8.66H563.82a8.66,8.66,0,0,0,8.66-8.66v-73a346.13,346.13,0,0,0,17.31-108.1V482.46a34.63,34.63,0,0,0-34.63-34.63Zm0,17.32a17.32,17.32,0,0,1,17.32,17.31v57.15a17.32,17.32,0,0,1-34.63,0V482.46A17.31,17.31,0,0,1,555.15,465.15Zm-51.94-17.32a17.32,17.32,0,0,1,17.31,17.32v57.14a17.32,17.32,0,1,1-34.63,0V465.15A17.32,17.32,0,0,1,503.21,447.83Zm-51.95,0a17.33,17.33,0,0,1,17.32,17.32V505H434V465.15A17.32,17.32,0,0,1,451.26,447.83Zm-51.95,0a17.32,17.32,0,0,1,17.32,17.32V505h-26a44.94,44.94,0,0,0-8.66.87V465.15A17.32,17.32,0,0,1,399.31,447.83ZM434,752.58V712.76h121.2v39.82ZM568.26,632.74c-5.58,34.32-13.07,49.89-13.07,54v8.66H434v-8.66a43.31,43.31,0,0,0-17.32-34.63,130,130,0,0,1-51.94-103.89,26,26,0,0,1,26-26h77.05a43.37,43.37,0,0,1-42.42,34.63H408a8.66,8.66,0,1,0,0,17.32h8.65a34.7,34.7,0,0,1,34,27.82,8.66,8.66,0,1,0,17-3.38A51.69,51.69,0,0,0,449.91,569a61,61,0,0,0,27.2-24,34.55,34.55,0,0,0,45.36,6.06,34.64,34.64,0,0,0,50,18.53v10.5A331,331,0,0,1,568.26,632.74Z" transform="translate(-197.88 -185.03)"/>
      <path class="cls-3" d="M434,695.49v57.14H555.2V695.49S492,666.06,434,695.49Z" transform="translate(-197.88 -185.03)"/>
      <path class="cls-3" d="M427.24,459.2a15.46,15.46,0,0,0-2.34-6.12c-3.62-5.53-12.27-15.84-25.32-13.23-17.63,3.53-21.51,7.76-24.69,12.7s-3.17,46.54-2.11,55.71c0,0,45.52-7.09,61.91-.27Z" transform="translate(-197.88 -185.03)"/>
      <path class="cls-7" d="M422.68,507.88l17.69,5.31s-6.72,3-19.46,0" transform="translate(-197.88 -185.03)"/>
      <path class="cls-3" d="M479,460.19s.06-15-11-21.25-32.93-1.37-37.11,3.91c0,0,13.69,46.22,11.06,59.52-.38,1.95-.72,5-.72,5l36.48.19S480.06,468.07,479,460.19Z" transform="translate(-197.88 -185.03)"/>
      <path class="cls-3" d="M532.09,462.61s-2.31-15.8-13.37-22.44-32.94-1.48-37.11,4.18c0,0,4.69,36.76,1.64,62.44a23.31,23.31,0,0,0,.36,5.42l40.64,2.38S533.17,471,532.09,462.61Z" transform="translate(-197.88 -185.03)"/>
      <path class="cls-3" d="M583.61,480.46S582.72,466,572,459s-24.91-6.43-29.7-1.65c0,0,5.53,34.92-3,56.88a22.84,22.84,0,0,0-.87,3c-.22,1-.36,1.78-.36,1.78l40.13,5.35,1.41-2S583.93,488.19,583.61,480.46Z" transform="translate(-197.88 -185.03)"/>
      <path class="cls-3" d="M526.07,547.92a3.79,3.79,0,0,1,.3-1.33c2-4.75,14.65-34.67,16-37s28.43,6.56,34.64,8.62a3.84,3.84,0,0,1,2,1.52h0a3.84,3.84,0,0,1,.49,3.11c-1.82,6.54-8.63,30.11-12.65,32-4.67,2.15-15,9-24.66,7.44C532.78,560.67,525.93,555.47,526.07,547.92Z" transform="translate(-197.88 -185.03)"/>
      <path class="cls-3" d="M524.43,512.84s-2.06,27.32-8.67,33.64-24.09,12.64-33.05.88,3.82-50.68,3.82-50.68Z" transform="translate(-197.88 -185.03)"/>
      <path class="cls-3" d="M428.87,759.54a4,4,0,0,1-4-4V679.41s0-11.62-11.62-19.17-38.33-32.52-47.62-58.65-12.19-51.11-10.45-61,6.39-22.07,26.13-25.55c17.74-3.13,76.74-.64,88.54-.1a4,4,0,0,1,3.47,2.37c1.28,2.93,2.28,8.7-2.82,17.44-5.88,10.09-15.91,21.13-35.79,26.47a4,4,0,0,0-.37,7.6C445,573,456.28,581,459.26,596.55A4,4,0,0,0,465.5,599c12.46-8.89,43.51-29.13,66.58-28.13,21.78,1,38.15,1,45.24,1a4,4,0,0,1,4,3.87c.3,10.05.72,37.05-2.8,52.17-4.38,18.82-10.07,45.95-14,54.7-3.35,7.44-1,57.48-.23,72.4a4,4,0,0,1-4,4.2Z" transform="translate(-197.88 -185.03)"/>
    </g>
  </g>
</svg>
