<svg id="Layer_19" data-name="Layer 19" xmlns="http://www.w3.org/2000/svg" viewBox="0 0 645.25 548.43">
  <defs>
    <style>
      .cls-1 {
        fill: #ff006a;
      }

      .cls-2 {
        fill: #ffa31d;
      }

      .cls-3 {
        fill: #ffe430;
      }

      .cls-4 {
        fill: #00dcd5;
      }

      .cls-5 {
        fill: #a442bc;
      }

      .cls-6 {
        fill: #1d0072;
      }
    </style>
  </defs>
  <g>
    <path class="cls-1" d="M803.48,294.65h-607A171.22,171.22,0,0,1,227.09,253a168,168,0,0,1,49.26-34.3A169.8,169.8,0,0,1,467.25,253L500,285.8,532.72,253a170,170,0,0,1,270.76,41.62Z" transform="translate(-177.37 -203.24)"/>
    <path class="cls-2" d="M822.14,386.05H177.87a170.11,170.11,0,0,1,18.62-91.4h607A170.14,170.14,0,0,1,822.14,386.05Z" transform="translate(-177.37 -203.24)"/>
    <path class="cls-3" d="M822.14,386.05a169,169,0,0,1-35.36,91.41H213.19a169.3,169.3,0,0,1-35.32-91.41Z" transform="translate(-177.37 -203.24)"/>
    <path class="cls-4" d="M786.78,477.46a164.3,164.3,0,0,1-13.9,15.73l-32.76,32.72-43,43H302.86l-51.72-51.72-24-24a163.1,163.1,0,0,1-13.9-15.73Z" transform="translate(-177.37 -203.24)"/>
    <path class="cls-5" d="M697.16,568.86,605.7,660.27H394.27l-91.41-91.41Z" transform="translate(-177.37 -203.24)"/>
    <path class="cls-6" d="M605.7,660.27l-81.21,81.21a34.55,34.55,0,0,1-49,0l-81.2-81.21Z" transform="translate(-177.37 -203.24)"/>
  </g>
</svg>
