<svg id="Layer_21" data-name="Layer 21" xmlns="http://www.w3.org/2000/svg" viewBox="0 0 718.31 568.84">
  <defs>
    <style>
      .cls-1 {
        fill: #f29f5c;
      }

      .cls-2 {
        fill: #d37d42;
      }

      .cls-3 {
        fill: #f9c295;
      }

      .cls-4 {
        fill: #e59f6a;
      }

      .cls-5 {
        fill: #1d0072;
      }

      .cls-6 {
        fill: #0f014c;
      }

      .cls-7 {
        fill: #ff006a;
      }

      .cls-8 {
        fill: #c1174c;
      }

      .cls-9 {
        fill: #ebeef2;
      }

      .cls-10 {
        stroke: #0f014c;
        stroke-linecap: round;
        stroke-linejoin: round;
        stroke-width: 10px;
      }
    </style>
  </defs>
  <g>
    <path class="cls-1" d="M727.64,544.07,709.39,395.84l-34.19,4.21v0l-66.29-37.31a39.89,39.89,0,0,0-23.26-5L481,367.44a39.92,39.92,0,0,0-30.85,19.7l-73.78,127a17.55,17.55,0,0,0,9,25.23l3,1.14a65.78,65.78,0,0,0,17.74,4l-9.35,8.14L378,568.88l-53.19,45.38a22.71,22.71,0,0,0-2.2,32.06L328,652.5a29.21,29.21,0,0,0,41.2,2.82l20.33,23.31a29.14,29.14,0,0,0,41.19,2.82l20.31,23.31a29.23,29.23,0,0,0,41.22,2.84l11,9.53A29.22,29.22,0,0,0,544.55,720l15-13.09,126.12-98.23.14-.12,49.76,0Z" transform="translate(-140.85 -201.22)"/>
    <path class="cls-2" d="M673.59,570.34l-.14.13L547.33,668.69l-15,13.09A29.22,29.22,0,0,1,491.11,679l-11-9.54a29.21,29.21,0,0,1-41.22-2.83l-20.3-23.32a29.16,29.16,0,0,1-41.2-2.81L357,617.13a29.21,29.21,0,0,1-36.17,1.72,22.72,22.72,0,0,0,1.8,27.47l5.4,6.18a29.2,29.2,0,0,0,41.19,2.82l20.33,23.31a29.15,29.15,0,0,0,41.2,2.82l20.31,23.32a29.21,29.21,0,0,0,41.22,2.83l11,9.54A29.23,29.23,0,0,0,544.55,720l15-13.09,126.12-98.22.14-.13,49.76,0-5.51-44.72Z" transform="translate(-140.85 -201.22)"/>
    <path class="cls-3" d="M696.55,634.46,629,576.19,610.19,560l-13.45-11.58-57.81-49.83,6.68-56.83a39.22,39.22,0,0,0-28.5-42.38l-126-34.87a29.17,29.17,0,0,0-33.73,14.81l-15.85,30.93-68-4.61L256.06,554l-7.57,64.46,66.22,4.4.13.13L453.18,742.19l15.07,13a29.21,29.21,0,0,0,41.2-3.06l20.18-23.4a29.22,29.22,0,0,0,41.2-3.06L591,702.24a29.15,29.15,0,0,0,41.18-3l20.2-23.43a29.2,29.2,0,0,0,41.18-3l5.36-6.21A22.71,22.71,0,0,0,696.55,634.46Z" transform="translate(-140.85 -201.22)"/>
    <g>
      <path class="cls-4" d="M696.55,634.46,676,616.71A24.12,24.12,0,0,1,675,647l-5.69,6.6a31,31,0,0,1-43.72,3.22l-21.44,24.88a30.94,30.94,0,0,1-43.71,3.22L539,709.76A31,31,0,0,1,495.25,713l-21.42,24.85a30.91,30.91,0,0,1-14.7,9.47l9.12,7.87a29.24,29.24,0,0,0,41.21-3.06l20.17-23.41a29.23,29.23,0,0,0,41.21-3.06L591,702.24a29.15,29.15,0,0,0,41.18-3l20.2-23.42a29.21,29.21,0,0,0,41.18-3l5.36-6.21A22.71,22.71,0,0,0,696.55,634.46Z" transform="translate(-140.85 -201.22)"/>
      <path class="cls-4" d="M659.23,668l-37-31.92A10.53,10.53,0,0,0,608.46,652l37,31.87,7-8.08a29,29,0,0,0,9.15,5.31A10.53,10.53,0,0,0,659.23,668Z" transform="translate(-140.85 -201.22)"/>
      <path class="cls-4" d="M600,707.54a10.51,10.51,0,0,0-2.19-13.3l-33.26-28.67a10.52,10.52,0,1,0-13.74,15.93l33.26,28.68,0,0,6.87-8A29.12,29.12,0,0,0,600,707.54Z" transform="translate(-140.85 -201.22)"/>
    </g>
    <g>
      <path class="cls-1" d="M318.16,622.68l-8,10.58a26.17,26.17,0,0,0,5.07,36.67h0a26.18,26.18,0,0,0,36.67-5.06l8-10.59a26.18,26.18,0,0,0-5.06-36.67h0A26.17,26.17,0,0,0,318.16,622.68Z" transform="translate(-140.85 -201.22)"/>
      <path class="cls-1" d="M367,644.94l-15.09,19.93a26.18,26.18,0,0,0,5.06,36.67h0a26.19,26.19,0,0,0,36.68-5.06l15.09-19.94a26.18,26.18,0,0,0-5.06-36.67h0A26.18,26.18,0,0,0,367,644.94Z" transform="translate(-140.85 -201.22)"/>
      <path class="cls-1" d="M414.19,669.31l-20.58,27.17a26.18,26.18,0,0,0,5.07,36.67h0a26.17,26.17,0,0,0,36.67-5.07l20.57-27.16a26.18,26.18,0,0,0-5.06-36.67h0A26.18,26.18,0,0,0,414.19,669.31Z" transform="translate(-140.85 -201.22)"/>
      <path class="cls-1" d="M457.12,699.34l-21.77,28.74a26.18,26.18,0,0,0,5.07,36.68h0a26.18,26.18,0,0,0,36.67-5.07L498.86,731a26.18,26.18,0,0,0-5.07-36.67h0A26.18,26.18,0,0,0,457.12,699.34Z" transform="translate(-140.85 -201.22)"/>
      <path class="cls-1" d="M675.21,400l-66.29-37.31a39.89,39.89,0,0,0-23.26-5L481,367.44a39.92,39.92,0,0,0-30.85,19.7l-73.78,127a17.55,17.55,0,0,0,9,25.23l3,1.14a65.61,65.61,0,0,0,75.2-21.4l28.26-36.78s67.94,78.66,142.75-13.2" transform="translate(-140.85 -201.22)"/>
    </g>
    <path class="cls-5" d="M859.07,628.3,824.4,346.66a10.51,10.51,0,0,0-11.72-9.16l-81.08,10a38.52,38.52,0,0,0-33.48,42.89L726,616.53a38.53,38.53,0,0,0,38.16,33.77,37.61,37.61,0,0,0,4.72-.29l81.08-10A10.52,10.52,0,0,0,859.07,628.3Z" transform="translate(-140.85 -201.22)"/>
    <path class="cls-6" d="M859.07,628.3l-3.8-30.91a11,11,0,0,1-7.76,4.74l-85,10.46a39.55,39.55,0,0,1-5,.31,40.43,40.43,0,0,1-34.44-19.42l2.84,23a38.53,38.53,0,0,0,38.16,33.78,37.61,37.61,0,0,0,4.72-.29l81.08-10A10.52,10.52,0,0,0,859.07,628.3Z" transform="translate(-140.85 -201.22)"/>
    <path class="cls-7" d="M268.4,347.48l-81.08-10a10.51,10.51,0,0,0-11.72,9.16L140.93,628.3A10.52,10.52,0,0,0,150.08,640l81.08,10a37.61,37.61,0,0,0,4.72.29A38.53,38.53,0,0,0,274,616.52l27.84-226.15A38.51,38.51,0,0,0,268.4,347.48Z" transform="translate(-140.85 -201.22)"/>
    <path class="cls-8" d="M140.93,628.3l3.8-30.91a11,11,0,0,0,7.76,4.74l85,10.46a39.55,39.55,0,0,0,5,.31,40.43,40.43,0,0,0,34.44-19.42l-2.84,23a38.53,38.53,0,0,1-38.16,33.78,37.61,37.61,0,0,1-4.72-.29l-81.08-10A10.51,10.51,0,0,1,140.93,628.3Z" transform="translate(-140.85 -201.22)"/>
    <g>
      <circle class="cls-9" cx="650.96" cy="381.98" r="20.34"/>
      <circle class="cls-9" cx="66.2" cy="381.98" r="20.34"/>
    </g>
    <line class="cls-10" x1="234.69" y1="23.15" x2="295.2" y2="116.93"/>
    <line class="cls-10" x1="416.59" y1="23.15" x2="356.09" y2="116.93"/>
    <line class="cls-10" x1="326.96" y1="5" x2="326.96" y2="113.9"/>
  </g>
</svg>
