<svg id="Layer_22" data-name="Layer 22" xmlns="http://www.w3.org/2000/svg" viewBox="0 0 723.64 573.87">
  <defs>
    <style>
      .cls-1 {
        fill: #00dcd5;
      }

      .cls-2 {
        fill: #02b2a9;
      }

      .cls-3, .cls-7 {
        fill: #ff006a;
      }

      .cls-4 {
        fill: #b4d7dc;
      }

      .cls-5 {
        fill: #965028;
      }

      .cls-6 {
        fill: #ffb69e;
      }

      .cls-7 {
        font-size: 166.13px;
        font-family: Gotham-Bold, Gotham;
        font-weight: 700;
      }
    </style>
  </defs>
  <g>
    <circle class="cls-1" cx="464.51" cy="129.84" r="95.74"/>
    <path class="cls-2" d="M285.7,555.62,178,508.26V612.38H285.22l12-27a22.54,22.54,0,0,0-11.49-29.72Z" transform="translate(-138.18 -192.63)"/>
    <path class="cls-3" d="M452.61,564.59a8.54,8.54,0,0,1-6.54-3L406,514.27A161.51,161.51,0,0,1,367.73,410V359.27a8.58,8.58,0,1,1,17.15,0V410a144.32,144.32,0,0,0,34.19,93.22l40.08,47.3a8.57,8.57,0,0,1-6.54,14.12Z" transform="translate(-138.18 -192.63)"/>
    <path class="cls-4" d="M433.65,666.88A12.86,12.86,0,0,1,420.79,654V205.5a12.87,12.87,0,1,1,25.73,0V654A12.87,12.87,0,0,1,433.65,666.88Z" transform="translate(-138.18 -192.63)"/>
    <path class="cls-5" d="M166.77,766.5a28.59,28.59,0,0,1-28.59-28.59V359.27a28.59,28.59,0,0,1,57.18,0V737.91A28.59,28.59,0,0,1,166.77,766.5Z" transform="translate(-138.18 -192.63)"/>
    <path class="cls-5" d="M833.23,766.5a28.59,28.59,0,0,1-28.59-28.59V359.27a28.59,28.59,0,0,1,57.18,0V737.91A28.59,28.59,0,0,1,833.23,766.5Z" transform="translate(-138.18 -192.63)"/>
    <path class="cls-5" d="M166.77,594.7H833.23v91.46H166.77Z" transform="translate(-138.18 -192.63)"/>
    <path class="cls-1" d="M195.36,584.69v38.75a26.78,26.78,0,0,0,26.77,26.77H777.87a26.77,26.77,0,0,0,26.77-26.77V584.69Z" transform="translate(-138.18 -192.63)"/>
    <circle class="cls-6" cx="127.15" cy="295.92" r="54.23"/>
    <path class="cls-2" d="M767.14,486.93H389a37.86,37.86,0,0,0-37.86,37.86v63.5a36.8,36.8,0,0,0,36.8,36.8H768.19A36.81,36.81,0,0,0,805,588.29v-63.5a37.86,37.86,0,0,0-37.86-37.86Z" transform="translate(-138.18 -192.63)"/>
    <path class="cls-6" d="M557,584.69H345.44a26.92,26.92,0,0,1,0-53.84H557a26.92,26.92,0,1,1,0,53.84Z" transform="translate(-138.18 -192.63)"/>
    <path class="cls-4" d="M376.31,302.91a8.58,8.58,0,0,1-8.58-8.57V266.17a20.52,20.52,0,0,1,20.49-20.5h40.09a8.58,8.58,0,0,1,0,17.16H388.22a3.35,3.35,0,0,0-3.34,3.34v28.17A8.57,8.57,0,0,1,376.31,302.91Z" transform="translate(-138.18 -192.63)"/>
    <path class="cls-4" d="M399,279.17h-45a8.62,8.62,0,0,0-8.63,8.62v25.48l31.11,17.36,31.1-17.36V287.79a8.62,8.62,0,0,0-8.62-8.62Z" transform="translate(-138.18 -192.63)"/>
    <path class="cls-3" d="M345.44,313.27v43.4a8.63,8.63,0,0,0,8.63,8.63h45a8.62,8.62,0,0,0,8.62-8.63v-43.4Z" transform="translate(-138.18 -192.63)"/>
    <text class="cls-7" transform="translate(413.43 187.71)">+</text>
    <polyline class="cls-1" points="390.53 182.69 339.45 226.72 450.42 212.63"/>
  </g>
</svg>
