<svg id="Layer_20" data-name="Layer 20" xmlns="http://www.w3.org/2000/svg" viewBox="0 0 537.13 573.5">
  <defs>
    <style>
      .cls-1 {
        fill: #2e2b41;
      }

      .cls-2 {
        fill: #140d1a;
      }

      .cls-3 {
        fill: #3f3a59;
      }

      .cls-4 {
        fill: #fff;
      }

      .cls-5 {
        fill: #ff006a;
      }

      .cls-6 {
        fill: #a06c33;
      }

      .cls-7 {
        fill: #fcb535;
      }

      .cls-8 {
        fill: none;
        stroke: #a06c33;
        stroke-miterlimit: 10;
        stroke-width: 3.48px;
      }

      .cls-9 {
        fill: #1f1828;
      }

      .cls-10 {
        fill: #c0fcf7;
        opacity: 0.8;
      }
    </style>
  </defs>
  <g>
    <rect class="cls-1" x="88.19" y="457.75" width="104.81" height="115.74" rx="26.57"/>
    <rect class="cls-1" x="352.15" y="457.75" width="104.81" height="115.74" rx="26.57"/>
    <rect class="cls-1" width="537.13" height="537.13" rx="66.55"/>
    <rect class="cls-2" x="57.71" y="55.58" width="421.45" height="421.45" rx="29.21"/>
    <rect class="cls-3" x="69.76" y="67.63" width="397.36" height="397.36" rx="29.21"/>
    <circle class="cls-4" cx="190.28" cy="268.56" r="82.29"/>
    <circle class="cls-5" cx="190.28" cy="268.56" r="52.55"/>
    <circle class="cls-4" cx="190.28" cy="268.56" r="26.27"/>
    <polygon class="cls-6" points="181.31 197.11 190.66 209.58 199.11 197.11 181.31 197.11"/>
    <path class="cls-4" d="M418.3,419.51v8.12a4.67,4.67,0,0,0,9.33,0v-8.12a4.67,4.67,0,0,0-9.33,0Z" transform="translate(-231.43 -194.44)"/>
    <path class="cls-4" d="M418.3,498.38v8.11a4.67,4.67,0,1,0,9.33,0v-8.11a4.67,4.67,0,0,0-9.33,0Z" transform="translate(-231.43 -194.44)"/>
    <path class="cls-4" d="M386.51,458.33h-8.12a4.67,4.67,0,0,0,0,9.33h8.12a4.67,4.67,0,0,0,0-9.33Z" transform="translate(-231.43 -194.44)"/>
    <path class="cls-4" d="M465.87,458.33h-8.12a4.67,4.67,0,0,0,0,9.33h8.12a4.67,4.67,0,0,0,0-9.33Z" transform="translate(-231.43 -194.44)"/>
    <path class="cls-4" d="M450.43,429.32l-5.74,5.74a4.67,4.67,0,0,0,6.6,6.59l5.73-5.73a4.67,4.67,0,0,0-6.59-6.6Z" transform="translate(-231.43 -194.44)"/>
    <path class="cls-4" d="M392.94,485.15l-5.73,5.74a4.66,4.66,0,1,0,6.35,6.82l.24-.23,5.73-5.74a4.66,4.66,0,0,0-6.59-6.59Z" transform="translate(-231.43 -194.44)"/>
    <path class="cls-4" d="M399.53,433.44l-5.73-5.75a4.67,4.67,0,1,0-6.59,6.61l5.73,5.74a4.67,4.67,0,0,0,6.83-6.36Z" transform="translate(-231.43 -194.44)"/>
    <path class="cls-4" d="M457,488.85l-5.73-5.75a4.67,4.67,0,0,0-6.6,6.61l5.74,5.73a4.66,4.66,0,0,0,6.59-6.59Z" transform="translate(-231.43 -194.44)"/>
    <path class="cls-7" d="M296.21,311.72h0A12.28,12.28,0,0,1,308.5,324v44.43a12.28,12.28,0,0,1-12.29,12.28h0a12.28,12.28,0,0,1-12.28-12.28V324A12.28,12.28,0,0,1,296.21,311.72Z" transform="translate(-231.43 -194.44)"/>
    <path class="cls-7" d="M296.21,545.3h0a12.28,12.28,0,0,1,12.29,12.28V602a12.28,12.28,0,0,1-12.29,12.28h0A12.28,12.28,0,0,1,283.93,602V557.58A12.28,12.28,0,0,1,296.21,545.3Z" transform="translate(-231.43 -194.44)"/>
    <circle class="cls-7" cx="609.2" cy="463" r="35.38" transform="translate(-176.83 795.73) rotate(-80.78)"/>
    <circle class="cls-6" cx="609.2" cy="463" r="23.05" transform="translate(-176.83 795.73) rotate(-80.78)"/>
    <rect class="cls-7" x="365.49" y="259.5" width="24.56" height="96.11" rx="12.28"/>
    <line class="cls-8" x1="52.5" y1="385.36" x2="77.06" y2="385.36"/>
    <line class="cls-8" x1="52.5" y1="151.78" x2="77.06" y2="151.78"/>
    <rect class="cls-9" x="88.19" y="537.13" width="104.81" height="7.1"/>
    <rect class="cls-9" x="352.15" y="537.13" width="104.81" height="7.1"/>
    <g>
      <path class="cls-5" d="M422,477.77s-20.8-11.61-16-19.84c2.42-4.11,5.32-4.71,7.62-4.29a7.78,7.78,0,0,1,5,3.41l1.88,2.82s4-6.8,7.26-7.74,11.13-1.45,10.16,6.77S426.34,475.84,422,477.77Z" transform="translate(-231.43 -194.44)"/>
      <path class="cls-5" d="M422,479a1.26,1.26,0,0,1-.59-.15c-.6-.34-14.91-8.4-17-16.25a6.64,6.64,0,0,1,.63-5.26c2.85-4.85,6.4-5.33,8.88-4.87a9,9,0,0,1,5.8,3.93l.84,1.26c1.48-2.21,4.28-5.91,7-6.68,2.83-.81,7-1,9.57,1.16,1.77,1.51,2.49,3.84,2.12,6.92-1.07,9.08-12.51,18-16.67,19.84A1.24,1.24,0,0,1,422,479Zm-9.55-24.24c-2.08,0-3.88,1.27-5.37,3.81a4.18,4.18,0,0,0-.37,3.4c1.65,6.09,12.76,12.93,15.35,14.45,4.34-2.24,13.85-10.34,14.71-17.64.26-2.23-.17-3.85-1.29-4.79-1.92-1.64-5.52-1.2-7.34-.68-2.05.59-5.1,4.72-6.54,7.19a1.21,1.21,0,0,1-2.05.06l-1.88-2.82a6.62,6.62,0,0,0-4.23-2.89A5.69,5.69,0,0,0,412.43,454.74Z" transform="translate(-231.43 -194.44)"/>
    </g>
    <rect class="cls-10" x="359.81" y="288.97" width="276.82" height="67.85" transform="translate(-254.13 -156.37) rotate(-4.28)"/>
    <g>
      <path class="cls-5" d="M404.19,339.75l-.86-11.54-2.91.22-.44-5.91,2.91-.21-.47-6.23,6.9-.52.47,6.23,5.73-.43.44,5.9-5.72.43L411,338.1c.12,1.59.86,2.31,2.4,2.2a7.1,7.1,0,0,0,3.34-1.12l.42,5.54a10.29,10.29,0,0,1-5.35,1.82C407.61,346.86,404.62,345.39,404.19,339.75Z" transform="translate(-231.43 -194.44)"/>
      <path class="cls-5" d="M420.46,338.44v-.09c-.4-5.31,3.46-8.07,9.23-8.51a17.47,17.47,0,0,1,6,.56l0-.41c-.22-2.86-2.11-4.32-5.56-4.06a18.13,18.13,0,0,0-6.63,1.82l-2.12-5.14a21.58,21.58,0,0,1,9.31-2.66c3.77-.29,6.57.51,8.43,2.1s3,4.31,3.21,7.58l1.06,14.13-6.67.5-.2-2.64a9.42,9.42,0,0,1-7.13,3.65C424.79,345.61,420.82,343.26,420.46,338.44Zm15.74-2.78-.1-1.23a10.76,10.76,0,0,0-4.47-.57c-2.95.22-4.68,1.54-4.52,3.72v.09c.14,1.86,1.76,2.84,4,2.67C434.34,340.1,436.38,338.16,436.2,335.66Z" transform="translate(-231.43 -194.44)"/>
      <path class="cls-5" d="M446.85,310.14l6.91-.52,1.32,17.68,7.43-9.47,8.27-.62-8.55,10.28,10.69,14.05-7.9.59-7.11-9.47-2.22,2.73.56,7.4-6.91.52Z" transform="translate(-231.43 -194.44)"/>
      <path class="cls-5" d="M473,329.42v-.09c-.52-6.95,4-13.05,11.09-13.58,8.13-.61,12.33,5.43,12.85,12.33,0,.55,0,1.19,0,1.83l-16.94,1.27a5.65,5.65,0,0,0,6.31,4.32,8,8,0,0,0,5.72-2.94l4.21,3.2a12.24,12.24,0,0,1-9.61,5.3C479.38,341.6,473.58,336.88,473,329.42Zm17-3.33c-.64-3.06-2.62-5-5.53-4.79s-4.57,2.39-4.88,5.57Z" transform="translate(-231.43 -194.44)"/>
      <path class="cls-5" d="M501.14,314.93l6.91-.52.25,3.45c1.44-2.16,3.35-4.18,6.85-4.44,5.22-.39,8.52,2.83,8.94,8.42l1.19,15.77-6.91.52-1-13.59c-.24-3.27-1.92-4.83-4.55-4.64s-4.19,2-3.95,5.28l1,13.59-6.9.51Z" transform="translate(-231.43 -194.44)"/>
      <path class="cls-5" d="M544,323.28l-.47-6.27,21.26-11.29.49,6.41-14.89,7.47,15.83,5.16.49,6.5Z" transform="translate(-231.43 -194.44)"/>
      <path class="cls-5" d="M572.26,329.1l4.47-5c2.37,2.29,4.74,3.48,8,3.24,2.64-.2,4.39-1.84,4.21-4.2v-.09c-.19-2.59-2.62-3.87-6.53-3.58l-2.91.22L578,315.37l7-8.2-12.49.94-.45-6,21.49-1.62.4,5.28-7.47,8.28c4.37.4,8.77,2.36,9.21,8.26v.09c.45,6-3.58,10.74-10.67,11.27A15.48,15.48,0,0,1,572.26,329.1Z" transform="translate(-231.43 -194.44)"/>
    </g>
    <polyline class="cls-3" points="404.27 82.19 392.25 94.47 417.83 102.4 419.62 125.17 398.13 139.49 416.3 145.63"/>
    <polyline class="cls-3" points="129.59 176.14 141.61 163.85 116.03 155.93 114.23 133.17 135.71 118.84 117.54 112.7"/>
  </g>
</svg>
