<svg id="Layer_6" data-name="Layer 6" xmlns="http://www.w3.org/2000/svg" viewBox="0 0 479.44 550.35">
  <defs>
    <style>
      .cls-1 {
        fill: #ff006a;
      }

      .cls-2, .cls-6, .cls-7 {
        fill: none;
        stroke-linecap: round;
        stroke-linejoin: round;
      }

      .cls-2, .cls-6 {
        stroke: #f998cd;
      }

      .cls-2 {
        stroke-width: 11px;
      }

      .cls-3 {
        fill: #00dcd5;
      }

      .cls-4 {
        fill: #ffe430;
      }

      .cls-5 {
        fill: #1d0072;
      }

      .cls-6 {
        stroke-width: 26px;
      }

      .cls-7 {
        stroke: #ddbd1d;
        stroke-width: 10px;
      }
    </style>
  </defs>
  <g>
    <path class="cls-1" d="M357.75,277.06h0a70.85,70.85,0,0,0-10.29,36.17c-.46,35.3,25.11,65.47,57.15,67.31,34.85,2,63.67-28.47,63.67-66.35A70.86,70.86,0,0,0,458,277.06h0l0,0h0L412.9,202.36a5.75,5.75,0,0,0-10.07,0L357.77,277h0Z" transform="translate(-260.28 -199.39)"/>
    <path class="cls-2" d="M449.76,302.72s5.49,33.92-25.06,48.89" transform="translate(-260.28 -199.39)"/>
    <path class="cls-1" d="M417.72,487h0a179.76,179.76,0,0,0-26.12,91.76c-1.14,89.53,63.7,166.06,145,170.75,88.39,5.09,161.5-72.23,161.5-168.33A179.83,179.83,0,0,0,672,487h0l0-.06h0L557.61,297.52c-6.06-10-19.48-10-25.54,0l-114.3,189.4,0,0Z" transform="translate(-260.28 -199.39)"/>
    <path class="cls-1" d="M631.42,312.27h0a69.32,69.32,0,0,0-10.09,35.44c-.44,34.58,24.6,64.14,56,66,34.14,2,62.38-27.9,62.38-65a69.36,69.36,0,0,0-10.1-36.37h0v0h0l-44.16-73.17a5.63,5.63,0,0,0-9.86,0l-44.15,73.16v0Z" transform="translate(-260.28 -199.39)"/>
    <path class="cls-3" d="M573.3,444.5A20.47,20.47,0,1,1,552.83,424,20.46,20.46,0,0,1,573.3,444.5Z" transform="translate(-260.28 -199.39)"/>
    <path class="cls-3" d="M305.12,444.5A20.47,20.47,0,1,1,284.65,424,20.46,20.46,0,0,1,305.12,444.5Z" transform="translate(-260.28 -199.39)"/>
    <path class="cls-3" d="M439.33,310.29a20.47,20.47,0,1,1-20.47-20.47A20.48,20.48,0,0,1,439.33,310.29Z" transform="translate(-260.28 -199.39)"/>
    <path class="cls-3" d="M439.33,578.7a20.47,20.47,0,1,1-20.47-20.47A20.47,20.47,0,0,1,439.33,578.7Z" transform="translate(-260.28 -199.39)"/>
    <path class="cls-3" d="M514.72,444.5a95.87,95.87,0,1,1-95.86-95.87A95.86,95.86,0,0,1,514.72,444.5Z" transform="translate(-260.28 -199.39)"/>
    <path class="cls-4" d="M494.54,444.5a75.68,75.68,0,1,1-75.68-75.69A75.67,75.67,0,0,1,494.54,444.5Z" transform="translate(-260.28 -199.39)"/>
    <path class="cls-3" d="M344.43,349.6A20.47,20.47,0,1,1,324,329.13,20.47,20.47,0,0,1,344.43,349.6Z" transform="translate(-260.28 -199.39)"/>
    <path class="cls-3" d="M534.22,539.39a20.47,20.47,0,1,1-20.47-20.47A20.47,20.47,0,0,1,534.22,539.39Z" transform="translate(-260.28 -199.39)"/>
    <path class="cls-3" d="M534.22,349.6a20.47,20.47,0,1,1-20.47-20.47A20.46,20.46,0,0,1,534.22,349.6Z" transform="translate(-260.28 -199.39)"/>
    <path class="cls-3" d="M344.43,539.39A20.47,20.47,0,1,1,324,518.92,20.48,20.48,0,0,1,344.43,539.39Z" transform="translate(-260.28 -199.39)"/>
    <path class="cls-3" d="M323.35,436.42H303.46a20.35,20.35,0,0,1,.31,15.34h19.52c-.18-2.4-.3-4.82-.3-7.26C323,441.77,323.13,439.08,323.35,436.42Z" transform="translate(-260.28 -199.39)"/>
    <path class="cls-3" d="M418.86,330.76a20.51,20.51,0,0,1-8.08-1.66V349c2.67-.22,5.35-.36,8.08-.36,2.45,0,4.87.12,7.27.3V329.4A20.41,20.41,0,0,1,418.86,330.76Z" transform="translate(-260.28 -199.39)"/>
    <path class="cls-3" d="M418.86,558.23a20.63,20.63,0,0,1,7.27,1.35V540.06c-2.4.18-4.82.3-7.27.3-2.73,0-5.41-.14-8.08-.36v19.89A20.51,20.51,0,0,1,418.86,558.23Z" transform="translate(-260.28 -199.39)"/>
    <path class="cls-3" d="M342.62,358a20.34,20.34,0,0,1-4.19,6.1,20.08,20.08,0,0,1-6.88,4.53l14.07,14.07a95.83,95.83,0,0,1,10.81-10.89Z" transform="translate(-260.28 -199.39)"/>
    <path class="cls-3" d="M499.28,524.92a20.52,20.52,0,0,1,6.1-4.19l-13.81-13.81a96.75,96.75,0,0,1-10.89,10.82l14.07,14.07A20.22,20.22,0,0,1,499.28,524.92Z" transform="translate(-260.28 -199.39)"/>
    <path class="cls-3" d="M499.28,364.07a20.49,20.49,0,0,1-4.18-6.1l-13.81,13.81a96.66,96.66,0,0,1,10.81,10.89l14.07-14.07A20.22,20.22,0,0,1,499.28,364.07Z" transform="translate(-260.28 -199.39)"/>
    <path class="cls-3" d="M338.43,524.92a20.39,20.39,0,0,1,4.54,6.89L357,517.74a96,96,0,0,1-10.9-10.82l-13.81,13.81A20.58,20.58,0,0,1,338.43,524.92Z" transform="translate(-260.28 -199.39)"/>
    <path class="cls-3" d="M514.4,452.17h19.9a20.38,20.38,0,0,1-.31-15.35H514.46c.18,2.4.31,4.82.31,7.27C514.77,446.82,514.63,449.5,514.4,452.17Z" transform="translate(-260.28 -199.39)"/>
    <path class="cls-5" d="M430.17,484.74H407.55a10.05,10.05,0,0,1-10.05-10.05V411.46a10.05,10.05,0,0,1,10.05-10h22.62a10.05,10.05,0,0,1,10.05,10v63.23A10.05,10.05,0,0,1,430.17,484.74Z" transform="translate(-260.28 -199.39)"/>
    <path class="cls-3" d="M408,465.51a3.59,3.59,0,0,1-3.59-3.59,17.75,17.75,0,0,1,3-10.23,11.66,11.66,0,0,0,0-13.06,18.75,18.75,0,0,1,0-20.44,10.7,10.7,0,0,0,2-6.52,3.59,3.59,0,1,1,7.18,0,17.71,17.71,0,0,1-3,10.22,11.64,11.64,0,0,0,0,13.05,18.77,18.77,0,0,1,0,20.45,10.73,10.73,0,0,0-2,6.53A3.59,3.59,0,0,1,408,465.51Z" transform="translate(-260.28 -199.39)"/>
    <path class="cls-3" d="M424.13,478.07a3.58,3.58,0,0,1-3.59-3.59,17.72,17.72,0,0,1,3-10.22,11.66,11.66,0,0,0,0-13.06,18.82,18.82,0,0,1,0-20.45,10.67,10.67,0,0,0,2-6.52,3.59,3.59,0,1,1,7.18,0,17.79,17.79,0,0,1-3,10.22,11.64,11.64,0,0,0,0,13.05,18.84,18.84,0,0,1,0,20.46,10.67,10.67,0,0,0-2,6.52A3.59,3.59,0,0,1,424.13,478.07Z" transform="translate(-260.28 -199.39)"/>
    <g>
      <path class="cls-3" d="M418.79,544.2a99.71,99.71,0,1,1,99.72-99.7A99.82,99.82,0,0,1,418.79,544.2Zm0-191.73a92,92,0,1,0,92,92A92.13,92.13,0,0,0,418.79,352.47Z" transform="translate(-260.28 -199.39)"/>
      <path class="cls-3" d="M552.77,468.8A24.18,24.18,0,0,1,531.37,456h-17a3.84,3.84,0,0,1-3.83-4.16c.24-2.83.36-5.37.36-7.76,0-2.12-.1-4.34-.3-7a3.85,3.85,0,0,1,3.84-4.13h17a24.31,24.31,0,1,1,21.4,35.83Zm-34.32-20.47H533.8a3.86,3.86,0,0,1,3.57,2.39,16.62,16.62,0,1,0,0-12.46,3.85,3.85,0,0,1-3.57,2.4H518.48c0,1.19.07,2.32.07,3.43C518.55,445.46,518.52,446.86,518.45,448.33Z" transform="translate(-260.28 -199.39)"/>
      <path class="cls-3" d="M410.72,352.83a3.85,3.85,0,0,1-3.85-3.84V331.48a24.34,24.34,0,1,1,23,.41v17a3.87,3.87,0,0,1-1.23,2.82,3.83,3.83,0,0,1-2.9,1c-2.65-.2-4.87-.29-7-.29-2.4,0-4.94.12-7.75.35Zm8.07-59.16a16.62,16.62,0,0,0-6.55,31.89,3.85,3.85,0,0,1,2.32,3.53v15.79c2.65-.12,5-.13,7.67,0V329.76a3.83,3.83,0,0,1,2.46-3.95,16.61,16.61,0,0,0-5.9-32.14Z" transform="translate(-260.28 -199.39)"/>
      <path class="cls-3" d="M418.79,603a24.31,24.31,0,0,1-11.92-45.49V540a3.82,3.82,0,0,1,1.25-2.83,3.75,3.75,0,0,1,2.92-1c2.81.23,5.35.35,7.76.35,2.1,0,4.38-.1,7-.29a3.85,3.85,0,0,1,4.14,3.83v17.05A24.29,24.29,0,0,1,418.79,603Zm-4.23-58.91v15.79a3.85,3.85,0,0,1-2.32,3.54,16.63,16.63,0,1,0,12.45-.26,3.83,3.83,0,0,1-2.47-3.95V544.13C419.54,544.24,417.19,544.22,414.56,544.1Z" transform="translate(-260.28 -199.39)"/>
      <path class="cls-3" d="M345.55,386.52a3.89,3.89,0,0,1-2.72-1.13L330.45,373A24.33,24.33,0,1,1,347,357l12.05,12.05a3.83,3.83,0,0,1-.21,5.63,92.34,92.34,0,0,0-10.38,10.46,3.82,3.82,0,0,1-2.78,1.36Zm-14.07-21.76a3.84,3.84,0,0,1,2.73,1.13l11.17,11.17c1.72-1.87,3.53-3.69,5.4-5.43L340,360.87a3.83,3.83,0,0,1-1-4.3l.09-.22a16.72,16.72,0,0,0-3.41-18.51,16.62,16.62,0,1,0-5.59,27.2A3.62,3.62,0,0,1,331.48,364.76Z" transform="translate(-260.28 -199.39)"/>
      <path class="cls-3" d="M513.69,563.69a24.29,24.29,0,0,1-23.41-30.85L477.9,520.46a3.85,3.85,0,0,1,.24-5.66,91.52,91.52,0,0,0,10.46-10.38,3.89,3.89,0,0,1,2.77-1.34,3.8,3.8,0,0,1,2.87,1.13l12.05,12.05a24.3,24.3,0,1,1,7.4,47.43Zm-27.46-45.78,11.18,11.18a3.87,3.87,0,0,1,.85,4.14,16.64,16.64,0,1,0,8.62-9,3.83,3.83,0,0,1-4.58-1.11l-10.63-10.62Q489,515.33,486.23,517.91Z" transform="translate(-260.28 -199.39)"/>
      <path class="cls-3" d="M284.59,468.8a24.31,24.31,0,1,1,21.19-36.23h17.51a3.83,3.83,0,0,1,2.83,1.24,3.87,3.87,0,0,1,1,2.93c-.24,2.83-.36,5.37-.36,7.76,0,2.12.09,4.34.3,7a3.9,3.9,0,0,1-1,2.91,3.86,3.86,0,0,1-2.82,1.22h-17A24.46,24.46,0,0,1,284.59,468.8Zm0-40.93a16.62,16.62,0,1,0,15.52,22.53,3.85,3.85,0,0,1,3.59-2.48h15.46c-.05-1.19-.08-2.33-.08-3.42,0-1.37,0-2.77.11-4.24h-15.8a3.84,3.84,0,0,1-3.52-2.32A16.63,16.63,0,0,0,284.59,427.87Z" transform="translate(-260.28 -199.39)"/>
      <path class="cls-3" d="M492,386.52h-.16a3.82,3.82,0,0,1-2.78-1.36,92.34,92.34,0,0,0-10.38-10.46,3.85,3.85,0,0,1-.21-5.63L490.56,357a24.46,24.46,0,0,1,5.94-24.6A24.31,24.31,0,1,1,507.14,373l-12.39,12.38A3.81,3.81,0,0,1,492,386.52Zm-5.22-14.89c1.87,1.74,3.67,3.56,5.4,5.43l11.17-11.17a3.83,3.83,0,0,1,4.14-.85,16.65,16.65,0,1,0-9-8.69,2.14,2.14,0,0,1,.1.22,3.86,3.86,0,0,1-1,4.3Z" transform="translate(-260.28 -199.39)"/>
      <path class="cls-3" d="M323.9,563.69a24.3,24.3,0,1,1,7.41-47.43l12.05-12.05a3.84,3.84,0,0,1,5.64.21,91.52,91.52,0,0,0,10.46,10.38,3.86,3.86,0,0,1,.24,5.65l-12.39,12.39a24.29,24.29,0,0,1-23.41,30.85Zm0-40.89a16.59,16.59,0,1,0,15.42,10.43,3.84,3.84,0,0,1,.85-4.14l11.17-11.18c-1.87-1.72-3.69-3.52-5.44-5.39L335.3,523.14a3.83,3.83,0,0,1-4.58,1.11A16.57,16.57,0,0,0,323.92,522.8Z" transform="translate(-260.28 -199.39)"/>
    </g>
    <path class="cls-6" d="M662.1,555.79s16.19,99.87-73.78,144" transform="translate(-260.28 -199.39)"/>
    <line class="cls-6" x1="390.11" y1="317.27" x2="387.17" y2="310.9"/>
    <path class="cls-2" d="M714.42,331.68s6.48,40-29.53,57.6" transform="translate(-260.28 -199.39)"/>
    <line class="cls-2" x1="449.45" y1="116.62" x2="448.27" y2="114.08"/>
    <path class="cls-6" d="M474.11,420.28" transform="translate(-260.28 -199.39)"/>
    <path class="cls-7" d="M479.55,448.12s-3.25,38.15-29.34,46.69" transform="translate(-260.28 -199.39)"/>
    <path class="cls-7" d="M401,382.23s-47.39,17.44-46.59,73.2" transform="translate(-260.28 -199.39)"/>
    <line class="cls-2" x1="184.91" y1="88.98" x2="183.91" y2="86.82"/>
  </g>
</svg>
