<svg id="Layer_7" data-name="Layer 7" xmlns="http://www.w3.org/2000/svg" viewBox="0 0 687.48 529.14">
  <defs>
    <style>
      .cls-1, .cls-7 {
        fill: #ff006a;
      }

      .cls-1 {
        stroke: #ff006a;
        stroke-linecap: round;
        stroke-linejoin: round;
        stroke-width: 5px;
      }

      .cls-2 {
        fill: #17d5d1;
      }

      .cls-3 {
        fill: #4671c6;
      }

      .cls-4 {
        fill: #b9befc;
      }

      .cls-5 {
        fill: #e0ebfc;
      }

      .cls-6 {
        fill: #ffe430;
      }

      .cls-8 {
        fill: #6bdddd;
      }

      .cls-13, .cls-9 {
        fill: #f7a286;
      }

      .cls-9 {
        stroke: #f7a286;
        stroke-width: 35px;
      }

      .cls-10, .cls-9 {
        stroke-miterlimit: 10;
      }

      .cls-10, .cls-11 {
        fill: #b05f3f;
      }

      .cls-10 {
        stroke: #b05f3f;
        stroke-width: 39px;
      }

      .cls-12 {
        fill: #ba6746;
      }

      .cls-14 {
        fill: #ffb69e;
      }
    </style>
  </defs>
  <g>
    <path class="cls-1" d="M534.29,387.27A150.59,150.59,0,1,1,383.7,236.68,150.59,150.59,0,0,1,534.29,387.27Z" transform="translate(-156.26 -234.18)"/>
    <path class="cls-2" d="M475.66,295.31a130.05,130.05,0,1,0,0,183.92A130.07,130.07,0,0,0,475.66,295.31Z" transform="translate(-156.26 -234.18)"/>
    <path class="cls-3" d="M309.44,445.69l-1.82-5.63a1.47,1.47,0,0,0-2.44-.58l-4.33,4.37a1.47,1.47,0,0,1-2.5-1.22l.73-6a1.47,1.47,0,0,0-2.05-1.52l-5.87,2.6a1.47,1.47,0,0,1-1.93-2l2.62-5.7a1.47,1.47,0,0,0-1.57-2.06l-6.42,1.05a1.46,1.46,0,0,1-1.41-2.32l3.83-5.14a1.47,1.47,0,0,0-1.16-2.35l-6.51-.08a1.47,1.47,0,0,1-1-2.51l4.61-4.54a1.46,1.46,0,0,0-.81-2.49l-6.45-1a1.47,1.47,0,0,1-.68-2.61l5.16-4a1.48,1.48,0,0,0-.51-2.59l-6.31-1.69a1.47,1.47,0,0,1-.39-2.67l5.56-3.4a1.46,1.46,0,0,0-.25-2.62l-6.11-2.32a1.47,1.47,0,0,1-.12-2.69l5.86-2.86a1.47,1.47,0,0,0,0-2.64l-5.86-2.86a1.47,1.47,0,0,1,.12-2.69l6.11-2.31a1.47,1.47,0,0,0,.25-2.63l-5.56-3.39a1.47,1.47,0,0,1,.39-2.67l6.3-1.7a1.47,1.47,0,0,0,.52-2.58l-5.16-3.95a1.47,1.47,0,0,1,.68-2.62l6.45-1a1.47,1.47,0,0,0,.81-2.5l-4.61-4.54a1.47,1.47,0,0,1,1-2.51l6.51-.09a1.46,1.46,0,0,0,1.16-2.34l-3.83-5.14a1.47,1.47,0,0,1,1.42-2.32l6.41,1.06a1.47,1.47,0,0,0,1.57-2.06l-2.62-5.71a1.47,1.47,0,0,1,1.93-1.95l5.88,2.59a1.46,1.46,0,0,0,2-1.52l-.73-6a1.47,1.47,0,0,1,2.5-1.21l4.33,4.36a1.47,1.47,0,0,0,2.44-.58l1.82-5.62a1.47,1.47,0,0,1,2.79,0l1.83,5.63a1.46,1.46,0,0,0,2.43.58l4.34-4.37a1.47,1.47,0,0,1,2.5,1.21l-.73,6a1.47,1.47,0,0,0,2,1.52l5.87-2.59a1.47,1.47,0,0,1,1.93,2l-2.63,5.7a1.47,1.47,0,0,0,1.57,2.06l6.42-1.05a1.46,1.46,0,0,1,1.42,2.32l-3.83,5.14a1.46,1.46,0,0,0,1.16,2.34l6.51.09a1.46,1.46,0,0,1,1,2.51l-4.61,4.54a1.46,1.46,0,0,0,.81,2.49l6.46,1a1.47,1.47,0,0,1,.67,2.62l-5.15,3.95a1.46,1.46,0,0,0,.51,2.58l6.31,1.7a1.47,1.47,0,0,1,.38,2.67l-5.55,3.4a1.46,1.46,0,0,0,.25,2.62l6.11,2.31a1.47,1.47,0,0,1,.12,2.69l-5.86,2.87a1.46,1.46,0,0,0,0,2.63l5.86,2.87a1.47,1.47,0,0,1-.12,2.69l-6.11,2.31a1.46,1.46,0,0,0-.25,2.62l5.55,3.4a1.47,1.47,0,0,1-.38,2.67l-6.31,1.69a1.47,1.47,0,0,0-.51,2.59l5.15,4a1.47,1.47,0,0,1-.67,2.62l-6.46,1a1.47,1.47,0,0,0-.81,2.5l4.61,4.53a1.46,1.46,0,0,1-1,2.51l-6.52.1a1.47,1.47,0,0,0-1.16,2.34l3.83,5.14a1.46,1.46,0,0,1-1.41,2.32L331.39,428a1.47,1.47,0,0,0-1.57,2.06l2.62,5.71a1.46,1.46,0,0,1-1.92,2l-5.88-2.59a1.47,1.47,0,0,0-2.05,1.52l.73,6a1.47,1.47,0,0,1-2.5,1.21l-4.33-4.37a1.46,1.46,0,0,0-2.43.59l-1.83,5.62A1.47,1.47,0,0,1,309.44,445.69Z" transform="translate(-156.26 -234.18)"/>
    <path class="cls-4" d="M338.9,379.93c0-30.58-12.57-55.38-28.06-55.38s-28.06,24.8-28.06,55.38,12.56,55.39,28.06,55.39S338.9,410.52,338.9,379.93Z" transform="translate(-156.26 -234.18)"/>
    <path class="cls-5" d="M315.83,415.23a5.87,5.87,0,0,1-10,0c-4-6.35-8.39-18.19-8.39-35.3s4.43-28.95,8.39-35.3a5.88,5.88,0,0,1,10,0c4,6.35,8.4,18.19,8.4,35.3S319.8,408.88,315.83,415.23Z" transform="translate(-156.26 -234.18)"/>
    <path class="cls-5" d="M462.49,313.17c0,1.68-11.78,2-12.14,3.59s10.09,7,9.38,8.51-11.47-3.32-12.5-2,6.06,10.7,4.77,11.73-8.89-8-10.38-7.25.82,12.27-.81,12.64-4.51-11.05-6.19-11.05-4.63,11.41-6.21,11.05.67-11.93-.79-12.64S418.51,336,417.23,335,423,324.51,422,323.22s-11.78,3.54-12.5,2,9.75-6.87,9.38-8.5-12.14-1.91-12.14-3.59,11.78-2,12.14-3.6-10.09-7-9.38-8.51,11.48,3.33,12.5,2-6.05-10.7-4.76-11.73,8.89,8,10.38,7.25-.83-12.27.8-12.64,4.51,11,6.2,11,4.62-11.41,6.2-11-.67,11.93.8,12.64,9.1-8.27,10.38-7.25-5.79,10.45-4.76,11.74,11.77-3.54,12.49-2-9.75,6.87-9.38,8.5S462.49,311.48,462.49,313.17Z" transform="translate(-156.26 -234.18)"/>
    <path class="cls-5" d="M439.44,460.36c0,1.68-11.78,2-12.14,3.6s10.09,7,9.38,8.5-11.47-3.32-12.49-2,6.05,10.7,4.76,11.73-8.89-8-10.38-7.24.82,12.26-.8,12.63-4.52-11-6.2-11-4.63,11.4-6.2,11,.66-11.93-.8-12.64-9.1,8.27-10.39,7.25S400,471.7,399,470.41s-11.78,3.54-12.5,2,9.75-6.88,9.38-8.5-12.14-1.92-12.14-3.6,11.78-2,12.14-3.6-10.08-7-9.38-8.5,11.48,3.32,12.5,2-6.05-10.71-4.76-11.74,8.89,8,10.38,7.25-.83-12.27.8-12.64,4.52,11.05,6.2,11.05,4.62-11.4,6.2-11.05-.67,11.93.8,12.64,9.1-8.27,10.38-7.24-5.79,10.44-4.76,11.73,11.78-3.53,12.5-2-9.75,6.88-9.38,8.5S439.44,458.67,439.44,460.36Z" transform="translate(-156.26 -234.18)"/>
    <path class="cls-6" d="M493.44,420.7c-8.74,0-13.09-5.87-16.58-10.59-3.32-4.48-5.4-7-9.51-7s-6.18,2.54-9.5,7c-3.49,4.72-7.84,10.59-16.58,10.59s-13.08-5.87-16.57-10.59c-3.33-4.48-5.41-7-9.51-7a4.4,4.4,0,0,1,0-8.8c8.74,0,13.08,5.87,16.58,10.58,3.32,4.49,5.4,7,9.5,7s6.19-2.53,9.51-7c3.49-4.71,7.84-10.58,16.57-10.58s13.09,5.87,16.58,10.58c3.32,4.49,5.4,7,9.51,7a4.41,4.41,0,0,1,0,8.81Z" transform="translate(-156.26 -234.18)"/>
    <path class="cls-7" d="M377.38,310.23a8.81,8.81,0,0,1-8.81-8.8V275a8.81,8.81,0,0,1,17.61,0v26.41A8.8,8.8,0,0,1,377.38,310.23Z" transform="translate(-156.26 -234.18)"/>
    <path class="cls-7" d="M405.57,350.06A8.8,8.8,0,0,1,418,348.89l20.35,16.83a8.8,8.8,0,1,1-11.22,13.57l-20.35-16.83A8.81,8.81,0,0,1,405.57,350.06Z" transform="translate(-156.26 -234.18)"/>
    <path class="cls-6" d="M386.4,421.53c-4.07,7.73-11.28,8.85-17.08,9.75-5.52.85-8.73,1.51-10.64,5.14s-.63,6.65,1.79,11.68c2.54,5.29,5.71,11.87,1.65,19.6s-11.29,8.85-17.09,9.74c-5.51.85-8.72,1.51-10.64,5.14a4.4,4.4,0,1,1-7.79-4.09c4.07-7.74,11.29-8.85,17.09-9.75,5.51-.85,8.73-1.51,10.63-5.14s.64-6.65-1.78-11.68c-2.55-5.29-5.72-11.87-1.65-19.6s11.28-8.85,17.08-9.74c5.52-.86,8.73-1.51,10.64-5.15a4.4,4.4,0,0,1,7.79,4.1Z" transform="translate(-156.26 -234.18)"/>
    <g>
      <path class="cls-3" d="M386.18,375.53a8.81,8.81,0,1,1-8.8-8.8A8.8,8.8,0,0,1,386.18,375.53Z" transform="translate(-156.26 -234.18)"/>
      <path class="cls-3" d="M377,494.49a8.8,8.8,0,1,1-8.8-8.8A8.8,8.8,0,0,1,377,494.49Z" transform="translate(-156.26 -234.18)"/>
      <path class="cls-3" d="M488.75,364.09a8.8,8.8,0,1,1-8.8-8.8A8.8,8.8,0,0,1,488.75,364.09Z" transform="translate(-156.26 -234.18)"/>
      <path class="cls-3" d="M344.2,293a8.81,8.81,0,1,1-8.81-8.81A8.81,8.81,0,0,1,344.2,293Z" transform="translate(-156.26 -234.18)"/>
    </g>
    <path class="cls-8" d="M446.35,313.17a11.74,11.74,0,1,1-11.73-11.74A11.73,11.73,0,0,1,446.35,313.17Z" transform="translate(-156.26 -234.18)"/>
    <path class="cls-8" d="M422.53,460.36a11.74,11.74,0,1,1-11.74-11.74A11.74,11.74,0,0,1,422.53,460.36Z" transform="translate(-156.26 -234.18)"/>
    <line class="cls-9" x1="523.81" y1="248.36" x2="499.46" y2="278.13"/>
    <line class="cls-10" x1="613.3" y1="355.66" x2="582.02" y2="394.52"/>
    <g>
      <path class="cls-11" d="M185.61,688.82c-16.21,0-29.35,14.2-29.35,31.72s13.14,31.71,29.35,31.71h357V688.82Z" transform="translate(-156.26 -234.18)"/>
      <path class="cls-11" d="M704.76,640.45l-87.57-16.17a23.27,23.27,0,0,1-12.85-7.19L521,526.83a27.25,27.25,0,0,1,0-36.42,22.59,22.59,0,0,1,33.7,0l78,84.45,80.09,14.79c13,2.39,21.69,15.7,19.47,29.72s-14.44,23.46-27.5,21.05Z" transform="translate(-156.26 -234.18)"/>
      <path class="cls-12" d="M753,636.38c-7.42-35.2-39.83-57.23-72.4-49.21l-221,54,30.33,61c7.3,34.65,39.21,56.34,71.27,48.44l146.29-36C740.06,706.6,760.45,671.57,753,636.38Z" transform="translate(-156.26 -234.18)"/>
      <path class="cls-11" d="M786.46,763.32a22.71,22.71,0,0,1-14.11-5l-84.44-67c-10.61-8.41-12.9-24.53-5.11-36s22.7-13.94,33.31-5.52L769,691.76l11-76.08c2-14,14.23-23.66,27.23-21.46s21.89,15.38,19.86,29.43L810,741.55a25.5,25.5,0,0,1-14.46,19.83,22.37,22.37,0,0,1-9.08,1.94Z" transform="translate(-156.26 -234.18)"/>
      <ellipse class="cls-12" cx="636.3" cy="327.01" rx="51.16" ry="55.29"/>
      <path class="cls-13" d="M477.86,658.71a24.88,24.88,0,0,1-2.85-.16l-143.47-15.8a26.92,26.92,0,0,1-15.72-7.5L227.72,550C216.28,539,215.3,520,225.54,507.6s27.82-13.42,39.26-2.35L346.17,584l134.47,14.82c15.28,1.68,26.4,16.43,24.84,32.93-1.46,15.48-13.53,27-27.62,27Z" transform="translate(-156.26 -234.18)"/>
      <path class="cls-14" d="M343.54,698.93H184.06c-15.35,0-27.8-13.45-27.8-30s12.45-30,27.8-30H337.4l137.1-68.77c13.93-7,30.45-.45,36.92,14.61s.41,32.91-13.51,39.9L355.24,696.14a26.06,26.06,0,0,1-11.7,2.79Z" transform="translate(-156.26 -234.18)"/>
      <path class="cls-14" d="M673.77,522.13l-1.06-1.87c-13.55-24-41.73-33-65.15-20.74l-164.88,86L451,636.1l54.4,28.75,142.83-63c14.15-5.7,25.2-17.93,30.14-33.35a58.59,58.59,0,0,0-4.63-46.35Z" transform="translate(-156.26 -234.18)"/>
      <ellipse class="cls-14" cx="535.95" cy="213.73" rx="51.15" ry="55.28"/>
      <path class="cls-13" d="M594,650.25l22.66-124.67c2.54-14,15.06-23,28-20.3s21.33,16.27,18.79,30.23l-13.57,74.7,57.27-29.16c11.9-6.07,26.1-.55,31.71,12.32s.51,28.21-11.4,34.27l-99.89,50.87c-17.5,8.91-37.33-7.43-33.54-28.26Z" transform="translate(-156.26 -234.18)"/>
      <path class="cls-12" d="M214.67,761.15c-11.73,0-22.92-7.32-28-19.65-6.89-16.71.06-36.28,15.52-43.72L382.56,611a28.6,28.6,0,0,1,25.93.51l143.08,75.61c15.2,8,21.49,27.87,14.06,44.3s-25.78,23.23-41,15.2L394.42,677.74l-167.3,80.53A28.6,28.6,0,0,1,214.67,761.15Z" transform="translate(-156.26 -234.18)"/>
    </g>
    <path class="cls-1" d="M510.85,687s-43-24-33-41c5-8.5,11-9.75,15.75-8.88A16.15,16.15,0,0,1,504,644.21l3.89,5.83s8.2-14.06,15-16c7-2,23-3,21,14S519.85,683,510.85,687Z" transform="translate(-156.26 -234.18)"/>
  </g>
</svg>
