<svg id="Layer_9" data-name="Layer 9" xmlns="http://www.w3.org/2000/svg" viewBox="0 0 590.43 546.67">
  <defs>
    <style>
      .cls-1 {
        fill: #e84941;
      }

      .cls-2 {
        fill: #db423b;
      }

      .cls-3 {
        fill: #cf3b34;
      }

      .cls-4 {
        fill: #eb5e4e;
      }

      .cls-5 {
        fill: #ff5b47;
      }

      .cls-6 {
        fill: #e53e2d;
      }

      .cls-7 {
        fill: #00dcd5;
      }

      .cls-8 {
        fill: #ffe430;
      }

      .cls-9 {
        fill: #1d0072;
      }

      .cls-10 {
        fill: #ddbd1d;
      }
    </style>
  </defs>
  <path class="cls-1" d="M643.55,748.82s158.28-36.9,168.92-152.23" transform="translate(-222.04 -202.15)"/>
  <path class="cls-1" d="M812.47,596.59v-.52a3.49,3.49,0,0,0-.74-2.16c-158-203.81-301.42-281.6-301.42-281.6L421,517.65C525.3,601,629.31,732.78,640.78,747.47a3.5,3.5,0,0,0,2.77,1.35" transform="translate(-222.04 -202.15)"/>
  <path class="cls-2" d="M665,737.41S552,584.11,432.67,490.9L421,517.65C525.3,601,629.31,732.78,640.78,747.47a3.5,3.5,0,0,0,2.77,1.35l24.69-7.69Z" transform="translate(-222.04 -202.15)"/>
  <ellipse class="cls-2" cx="241.81" cy="211.8" rx="100.77" ry="114.52"/>
  <path class="cls-3" d="M463.85,299.43c-55.65,0-100.77,51.27-100.77,114.52S408.2,528.48,463.85,528.48a89.35,89.35,0,0,0,13.56-1c-49.24-7.53-87.2-55.47-87.2-113.49s38-106,87.2-113.49a89.35,89.35,0,0,0-13.56-1Z" transform="translate(-222.04 -202.15)"/>
  <ellipse class="cls-4" cx="241.81" cy="211.8" rx="73.64" ry="87.4"/>
  <path class="cls-5" d="M441.09,348.64c19,2.72,33,14.14,31.36,25.51-1.07,7.4-8.52,13-18.83,15.18h0a52.81,52.81,0,0,1-18.43.48c-18.94-2.72-33-14.14-31.35-25.51S422.14,345.92,441.09,348.64Z" transform="translate(-222.04 -202.15)"/>
  <g>
    <path class="cls-6" d="M418.18,355.58a8.24,8.24,0,0,0-1.15,3.17c-1.06,7.35,8,14.72,20.25,16.48s23-2.78,24.06-10.12a8.52,8.52,0,0,0-.21-3.37c-3.26,5.41-12.56,8.42-22.91,6.94S419.78,361.68,418.18,355.58Z" transform="translate(-222.04 -202.15)"/>
    <path class="cls-6" d="M441.09,348.64c19,2.72,33,14.14,31.36,25.51-1.07,7.4-8.52,13-18.83,15.18,9.33-7-.63-15.54-.63-15.54l-1-5.89C459.18,360.27,441.09,348.64,441.09,348.64Z" transform="translate(-222.04 -202.15)"/>
  </g>
  <path class="cls-5" d="M391.53,401.58c.08-.36.17-.71.26-1.07,17.74,3.28,30.57,14.23,29,25.12-1.07,7.41-8.52,13-18.83,15.18h0a48.21,48.21,0,0,1-7.95,1,70.32,70.32,0,0,1-3.64-14.74c-.29-2.17-.49-4.37-.58-6.6,0-1-.06-2-.06-3A71,71,0,0,1,391.53,401.58Z" transform="translate(-222.04 -202.15)"/>
  <g>
    <path class="cls-6" d="M400.33,419.38c4.2-1.23,7.48-3.37,9.15-6.16a8.52,8.52,0,0,1,.21,3.37c-.55,3.82-3.71,6.87-8.35,8.68a29.36,29.36,0,0,1-11,1.81c-.29-2.17-.49-4.37-.58-6.6A31.6,31.6,0,0,0,400.33,419.38Z" transform="translate(-222.04 -202.15)"/>
    <path class="cls-6" d="M391.53,401.58c.08-.36.17-.71.26-1.07,17.74,3.28,30.57,14.22,29,25.12-1.07,7.41-8.52,13-18.83,15.18,9.33-7-.63-15.54-.63-15.54l-1-5.89h0C406,413.39,396.06,405,391.53,401.58Z" transform="translate(-222.04 -202.15)"/>
  </g>
  <path class="cls-5" d="M466.73,413.32c14.74-12.21,32.63-14.95,40-6.11,4.78,5.76,3.89,15-1.39,24.15h0a52.84,52.84,0,0,1-12,14c-14.74,12.22-32.62,15-39.95,6.11S452,425.54,466.73,413.32Z" transform="translate(-222.04 -202.15)"/>
  <g>
    <path class="cls-6" d="M456.49,435a8.6,8.6,0,0,0,1.58,3c4.74,5.71,16.29,3.94,25.81-3.95s13.39-18.91,8.66-24.62a8.46,8.46,0,0,0-2.64-2.11c1.82,6-2.19,15-10.24,21.64S462.1,437.87,456.49,435Z" transform="translate(-222.04 -202.15)"/>
    <path class="cls-6" d="M466.73,413.32c14.74-12.21,32.63-14.95,40-6.11,4.78,5.76,3.89,15-1.39,24.15,1.08-11.61-11.94-10-11.94-10l-5-3.21C487.5,407.73,466.73,413.32,466.73,413.32Z" transform="translate(-222.04 -202.15)"/>
  </g>
  <path class="cls-5" d="M499.94,367.83c18.65-4.3,35.86,1.29,38.44,12.48,1.68,7.29-3.26,15.16-12.08,20.95h0a52.87,52.87,0,0,1-17,7.09c-18.65,4.3-35.86-1.28-38.44-12.47S481.28,372.14,499.94,367.83Z" transform="translate(-222.04 -202.15)"/>
  <g>
    <path class="cls-6" d="M481.07,382.57a8.54,8.54,0,0,0,.07,3.38c1.67,7.23,12.79,10.83,24.83,8.06s20.46-10.89,18.79-18.12a8.25,8.25,0,0,0-1.41-3.07c-1.08,6.22-8.67,12.39-18.86,14.74S484.77,387.69,481.07,382.57Z" transform="translate(-222.04 -202.15)"/>
    <path class="cls-6" d="M499.94,367.83c18.65-4.3,35.86,1.29,38.44,12.48,1.68,7.29-3.27,15.16-12.08,20.95,6.18-9.89-6.19-14.27-6.19-14.27L517,381.86C521,372.15,499.94,367.83,499.94,367.83Z" transform="translate(-222.04 -202.15)"/>
  </g>
  <path class="cls-5" d="M414.78,466.36c19-1.95,35.43,5.74,36.59,17.16.54,5.24-2.22,10.36-7.2,14.55a70.24,70.24,0,0,1-22.56-12.37,70.85,70.85,0,0,1-15.56-17.76A56.72,56.72,0,0,1,414.78,466.36Z" transform="translate(-222.04 -202.15)"/>
  <g>
    <path class="cls-6" d="M437.39,474.22a8.61,8.61,0,0,1,1,3.22c.52,5.06-3.72,9.95-10.4,12.92a69.7,69.7,0,0,1-6.4-4.66C429.71,483.78,435.84,479.3,437.39,474.22Z" transform="translate(-222.04 -202.15)"/>
    <path class="cls-6" d="M414.78,466.36c19-1.95,35.43,5.74,36.59,17.16.54,5.24-2.22,10.36-7.2,14.55q-2.55-.82-5-1.86c-.53-5.2-6.76-8.33-6.76-8.33L430,482.41C435.14,473.27,414.78,466.36,414.78,466.36Z" transform="translate(-222.04 -202.15)"/>
  </g>
  <path class="cls-5" d="M490.5,462.33c4.77-9.68,21-11.58,37.16-4.76a70.1,70.1,0,0,1-10.54,16.67c-1.44,1.64-2.69,3.5-4.27,5-3.68,3.5-7.1,7.31-11.47,9.94C492.22,481,486.8,469.82,490.5,462.33Z" transform="translate(-222.04 -202.15)"/>
  <path class="cls-6" d="M504.18,462.62a8.53,8.53,0,0,1,2.08-2.66c-.3,5.08,3.53,11.1,10,15.67-1.44,1.64-3,3.22-4.53,4.71C504.89,474.88,501.63,467.79,504.18,462.62Z" transform="translate(-222.04 -202.15)"/>
  <path class="cls-5" d="M362.86,446.82c18.95,2.72,33,14.14,31.36,25.51-1.07,7.41-8.52,13-18.83,15.19h0A52.84,52.84,0,0,1,357,488c-18.95-2.72-33-14.14-31.36-25.51S343.92,444.1,362.86,446.82Z" transform="translate(-222.04 -202.15)"/>
  <g>
    <path class="cls-6" d="M340,453.76a8.46,8.46,0,0,0-1.15,3.18c-1.05,7.34,8,14.71,20.25,16.47s23-2.77,24.06-10.11a8.58,8.58,0,0,0-.21-3.38c-3.25,5.41-12.56,8.43-22.91,6.94S341.55,459.87,340,453.76Z" transform="translate(-222.04 -202.15)"/>
    <path class="cls-6" d="M362.86,446.82c18.95,2.72,33,14.14,31.36,25.51-1.07,7.41-8.52,13-18.83,15.18,9.33-7-.63-15.54-.63-15.54l-1-5.89C381,458.45,362.86,446.82,362.86,446.82Z" transform="translate(-222.04 -202.15)"/>
  </g>
  <path class="cls-5" d="M337.55,315.56c18.65-4.3,35.86,1.28,38.44,12.47,1.68,7.3-3.26,15.17-12.08,21h0a52.66,52.66,0,0,1-17,7.1c-18.65,4.3-35.86-1.29-38.44-12.48S318.89,319.86,337.55,315.56Z" transform="translate(-222.04 -202.15)"/>
  <g>
    <path class="cls-6" d="M318.68,330.3a8.54,8.54,0,0,0,.07,3.38c1.67,7.22,12.79,10.83,24.83,8.05s20.46-10.89,18.79-18.11a8.18,8.18,0,0,0-1.41-3.07c-1.08,6.22-8.67,12.39-18.86,14.74S322.38,335.42,318.68,330.3Z" transform="translate(-222.04 -202.15)"/>
    <path class="cls-6" d="M337.54,315.56c18.66-4.3,35.87,1.28,38.45,12.47,1.68,7.3-3.27,15.17-12.08,21,6.18-9.89-6.19-14.27-6.19-14.27l-3.07-5.13C358.61,319.88,337.55,315.56,337.54,315.56Z" transform="translate(-222.04 -202.15)"/>
  </g>
  <path class="cls-5" d="M395.76,372.1c18.32,5.54,30.48,18.94,27.16,29.94-2.17,7.16-10.38,11.53-20.9,12.17h0a52.6,52.6,0,0,1-18.29-2.31C365.4,406.36,353.25,393,356.57,382S377.44,366.56,395.76,372.1Z" transform="translate(-222.04 -202.15)"/>
  <g>
    <path class="cls-6" d="M372.06,375.5a8.6,8.6,0,0,0-1.61,3c-2.15,7.1,5.7,15.76,17.54,19.34s23.16.72,25.31-6.38a8.46,8.46,0,0,0,.3-3.36c-4,4.85-13.69,6.43-23.7,3.4S372.73,381.78,372.06,375.5Z" transform="translate(-222.04 -202.15)"/>
    <path class="cls-6" d="M395.76,372.1c18.32,5.54,30.48,18.94,27.16,29.94-2.17,7.16-10.38,11.53-20.9,12.17,10.28-5.51,1.72-15.46,1.72-15.46l-.11-6C411.89,386.32,395.76,372.1,395.76,372.1Z" transform="translate(-222.04 -202.15)"/>
  </g>
  <g>
    <path class="cls-5" d="M281.63,383.4c18.75-3.86,35.82,2.14,38.13,13.39,1.51,7.33-3.63,15.08-12.58,20.66h0A52.68,52.68,0,0,1,290,424.13c-18.75,3.85-35.82-2.14-38.13-13.39S262.88,387.25,281.63,383.4Z" transform="translate(-222.04 -202.15)"/>
    <g>
      <path class="cls-6" d="M262.41,397.68a8.5,8.5,0,0,0,0,3.37c1.49,7.27,12.51,11.14,24.62,8.66s20.72-10.4,19.23-17.66a8.41,8.41,0,0,0-1.34-3.1c-1.24,6.19-9,12.17-19.22,14.28S266,402.88,262.41,397.68Z" transform="translate(-222.04 -202.15)"/>
      <path class="cls-6" d="M281.63,383.4c18.75-3.86,35.82,2.14,38.13,13.39,1.51,7.33-3.63,15.08-12.58,20.66,6.42-9.74-5.85-14.41-5.85-14.41l-2.94-5.2C302.58,388.22,281.63,383.39,281.63,383.4Z" transform="translate(-222.04 -202.15)"/>
    </g>
  </g>
  <g>
    <path class="cls-5" d="M310,252.39c19.1,1.33,33.93,11.7,33.13,23.16-.53,7.47-7.56,13.55-17.68,16.51h0a53,53,0,0,1-18.35,1.81C288,292.54,273.16,282.17,274,270.72S290.89,251.05,310,252.39Z" transform="translate(-222.04 -202.15)"/>
    <g>
      <path class="cls-6" d="M287.63,261a8.51,8.51,0,0,0-.91,3.25c-.52,7.4,9.06,14.1,21.39,15s22.75-4.43,23.26-11.83a8.5,8.5,0,0,0-.45-3.35c-2.86,5.63-11.92,9.31-22.35,8.58S289.68,267,287.63,261Z" transform="translate(-222.04 -202.15)"/>
      <path class="cls-6" d="M310,252.39c19.1,1.33,33.93,11.7,33.13,23.16-.53,7.47-7.56,13.55-17.68,16.51,8.8-7.65-1.76-15.45-1.76-15.45l-1.43-5.8C328.86,262.67,310,252.39,310,252.39Z" transform="translate(-222.04 -202.15)"/>
    </g>
  </g>
  <g>
    <path class="cls-7" d="M462.12,259.27a7.36,7.36,0,1,1-7.36-7.36A7.36,7.36,0,0,1,462.12,259.27Z" transform="translate(-222.04 -202.15)"/>
    <path class="cls-7" d="M365.73,259.27a7.36,7.36,0,1,1-7.36-7.36A7.37,7.37,0,0,1,365.73,259.27Z" transform="translate(-222.04 -202.15)"/>
    <path class="cls-7" d="M414,211a7.36,7.36,0,1,1-7.36-7.36A7.37,7.37,0,0,1,414,211Z" transform="translate(-222.04 -202.15)"/>
    <path class="cls-7" d="M441.07,259.27a34.46,34.46,0,1,1-34.46-34.46A34.46,34.46,0,0,1,441.07,259.27Z" transform="translate(-222.04 -202.15)"/>
    <path class="cls-7" d="M379.85,225.16a7.36,7.36,0,1,1-7.35-7.36A7.36,7.36,0,0,1,379.85,225.16Z" transform="translate(-222.04 -202.15)"/>
    <path class="cls-7" d="M448.08,225.16a7.36,7.36,0,1,1-7.36-7.36A7.37,7.37,0,0,1,448.08,225.16Z" transform="translate(-222.04 -202.15)"/>
    <path class="cls-7" d="M379.85,293.38A7.36,7.36,0,1,1,372.5,286,7.36,7.36,0,0,1,379.85,293.38Z" transform="translate(-222.04 -202.15)"/>
    <path class="cls-8" d="M433.85,259.43a27.35,27.35,0,1,1-27.35-27.35A27.34,27.34,0,0,1,433.85,259.43Z" transform="translate(-222.04 -202.15)"/>
    <path class="cls-9" d="M410.59,274h-8.17a3.63,3.63,0,0,1-3.63-3.64V247.49a3.63,3.63,0,0,1,3.63-3.63h8.17a3.63,3.63,0,0,1,3.63,3.63v22.86A3.63,3.63,0,0,1,410.59,274Z" transform="translate(-222.04 -202.15)"/>
    <path class="cls-7" d="M402.57,267a1.3,1.3,0,0,1-1.3-1.3,6.43,6.43,0,0,1,1.1-3.7,4.21,4.21,0,0,0,0-4.71,6.76,6.76,0,0,1,0-7.39,3.88,3.88,0,0,0,.72-2.36,1.3,1.3,0,1,1,2.59,0,6.37,6.37,0,0,1-1.09,3.69,4.23,4.23,0,0,0,0,4.72,6.81,6.81,0,0,1,0,7.39,3.88,3.88,0,0,0-.72,2.36A1.3,1.3,0,0,1,402.57,267Z" transform="translate(-222.04 -202.15)"/>
    <path class="cls-7" d="M408.41,271.57a1.3,1.3,0,0,1-1.3-1.3,6.51,6.51,0,0,1,1.09-3.7,4.16,4.16,0,0,0,0-4.71,6.81,6.81,0,0,1,0-7.39,3.88,3.88,0,0,0,.73-2.36,1.3,1.3,0,1,1,2.59,0,6.37,6.37,0,0,1-1.09,3.69,4.23,4.23,0,0,0,0,4.72,6.81,6.81,0,0,1,0,7.39,3.88,3.88,0,0,0-.72,2.36A1.3,1.3,0,0,1,408.41,271.57Z" transform="translate(-222.04 -202.15)"/>
    <g>
      <path class="cls-7" d="M406.48,295.46a36,36,0,1,1,36-36A36.07,36.07,0,0,1,406.48,295.46Zm0-69.28a33.26,33.26,0,1,0,33.26,33.25A33.29,33.29,0,0,0,406.48,226.18Z" transform="translate(-222.04 -202.15)"/>
      <path class="cls-7" d="M454.9,268.22a8.75,8.75,0,0,1-7.74-4.62H441a1.4,1.4,0,0,1-1-.45,1.34,1.34,0,0,1-.36-1.06c.08-1,.12-1.94.12-2.8s0-1.57-.1-2.53a1.41,1.41,0,0,1,.36-1,1.42,1.42,0,0,1,1-.44h6.13a8.79,8.79,0,1,1,7.74,13Zm-12.41-7.4H448a1.39,1.39,0,0,1,1.29.86,6,6,0,1,0,0-4.5,1.38,1.38,0,0,1-1.29.87h-5.53c0,.43,0,.84,0,1.24S442.52,260.29,442.49,260.82Z" transform="translate(-222.04 -202.15)"/>
      <path class="cls-7" d="M403.56,226.31a1.4,1.4,0,0,1-1.39-1.39v-6.33a8.8,8.8,0,1,1,8.33.15v6.16a1.39,1.39,0,0,1-.44,1,1.41,1.41,0,0,1-1.05.36c-1-.07-1.76-.1-2.53-.1s-1.78,0-2.8.13Zm2.92-21.38a6,6,0,0,0-2.37,11.53,1.38,1.38,0,0,1,.84,1.27v5.71c1-.05,1.81-.05,2.77,0V218a1.39,1.39,0,0,1,.89-1.43,6,6,0,0,0-2.13-11.61Z" transform="translate(-222.04 -202.15)"/>
      <path class="cls-7" d="M406.48,316.72a8.79,8.79,0,0,1-4.31-16.44V294a1.44,1.44,0,0,1,.45-1,1.38,1.38,0,0,1,1.06-.36c1,.09,1.93.13,2.8.13s1.59,0,2.53-.11a1.42,1.42,0,0,1,1.05.37,1.39,1.39,0,0,1,.44,1v6.16a8.78,8.78,0,0,1-4,16.59ZM405,295.43v5.7a1.39,1.39,0,0,1-.84,1.28,6,6,0,1,0,4.5-.09,1.39,1.39,0,0,1-.89-1.43v-5.45C406.75,295.48,405.9,295.47,405,295.43Z" transform="translate(-222.04 -202.15)"/>
      <path class="cls-7" d="M380,238.48a1.36,1.36,0,0,1-1-.41l-4.47-4.47a8.79,8.79,0,1,1,6-5.78l4.35,4.35a1.4,1.4,0,0,1,.41,1,1.42,1.42,0,0,1-.48,1,32.73,32.73,0,0,0-3.76,3.78,1.38,1.38,0,0,1-1,.49Zm-5.08-7.86a1.36,1.36,0,0,1,1,.41l4,4c.62-.67,1.28-1.33,1.95-2L378,229.21a1.37,1.37,0,0,1-.38-1.55l0-.08a6,6,0,1,0-3.25,3.14A1.29,1.29,0,0,1,374.93,230.62Z" transform="translate(-222.04 -202.15)"/>
      <path class="cls-7" d="M440.77,302.51a8.77,8.77,0,0,1-8.45-11.15l-4.48-4.48a1.38,1.38,0,0,1-.4-1,1.34,1.34,0,0,1,.49-1,34.31,34.31,0,0,0,3.78-3.75,1.39,1.39,0,0,1,2-.08l4.36,4.36a8.78,8.78,0,1,1,2.67,17.14ZM430.85,286l4,4a1.41,1.41,0,0,1,.31,1.5,6,6,0,1,0,3.11-3.25,1.37,1.37,0,0,1-1.65-.4L432.82,284C432.18,284.69,431.53,285.34,430.85,286Z" transform="translate(-222.04 -202.15)"/>
      <path class="cls-7" d="M358,268.22a8.79,8.79,0,1,1,7.66-13.1H372a1.4,1.4,0,0,1,1.39,1.51c-.09,1-.13,1.94-.13,2.81s0,1.56.1,2.52A1.41,1.41,0,0,1,373,263a1.42,1.42,0,0,1-1,.44h-6.16A8.84,8.84,0,0,1,358,268.22Zm0-14.79a6,6,0,1,0,5.61,8.14,1.4,1.4,0,0,1,1.3-.9h5.59c0-.43,0-.84,0-1.24s0-1,0-1.53h-5.71a1.39,1.39,0,0,1-1.28-.84A6,6,0,0,0,358,253.43Z" transform="translate(-222.04 -202.15)"/>
      <path class="cls-7" d="M433,238.48h-.06a1.38,1.38,0,0,1-1-.49,33.46,33.46,0,0,0-3.75-3.78,1.4,1.4,0,0,1-.49-1,1.44,1.44,0,0,1,.41-1l4.35-4.35a8.86,8.86,0,0,1,2.15-8.89,8.79,8.79,0,1,1,3.85,14.67l-4.48,4.47A1.34,1.34,0,0,1,433,238.48Zm-1.89-5.38c.68.63,1.33,1.29,1.95,2l4-4a1.37,1.37,0,0,1,1.5-.31,6,6,0,1,0-3.26-3.14l0,.08a1.38,1.38,0,0,1-.38,1.55Z" transform="translate(-222.04 -202.15)"/>
      <path class="cls-7" d="M372.19,302.51a8.78,8.78,0,1,1,2.68-17.14l4.35-4.36a1.44,1.44,0,0,1,1-.41,1.4,1.4,0,0,1,1,.49,33.46,33.46,0,0,0,3.78,3.75,1.39,1.39,0,0,1,.09,2l-4.48,4.48a8.78,8.78,0,0,1-8.46,11.15Zm0-14.78a6,6,0,1,0,5.57,3.77,1.37,1.37,0,0,1,.31-1.5l4-4c-.67-.62-1.33-1.27-2-1.95l-3.84,3.84a1.38,1.38,0,0,1-1.66.4A6,6,0,0,0,372.2,287.73Z" transform="translate(-222.04 -202.15)"/>
    </g>
    <path class="cls-10" d="M417.83,278.85a1.23,1.23,0,0,1-.38-2.4c8.56-2.8,9.75-15.68,9.76-15.81a1.23,1.23,0,1,1,2.45.21c-.05.59-1.36,14.63-11.44,17.93A1.07,1.07,0,0,1,417.83,278.85Z" transform="translate(-222.04 -202.15)"/>
    <path class="cls-10" d="M383.21,264.61A1.22,1.22,0,0,1,382,263.4c-.29-20.78,17.46-27.56,17.64-27.62a1.22,1.22,0,0,1,1.58.73,1.24,1.24,0,0,1-.73,1.58h0c-.66.24-16.3,6.27-16,25.28a1.22,1.22,0,0,1-1.21,1.24Z" transform="translate(-222.04 -202.15)"/>
    <path class="cls-7" d="M414,307.51a7.36,7.36,0,1,1-7.36-7.36A7.36,7.36,0,0,1,414,307.51Z" transform="translate(-222.04 -202.15)"/>
    <path class="cls-7" d="M448.08,293.38a7.36,7.36,0,1,1-7.36-7.36A7.37,7.37,0,0,1,448.08,293.38Z" transform="translate(-222.04 -202.15)"/>
  </g>
  <g>
    <path class="cls-7" d="M311.58,351.24a5.84,5.84,0,1,1-5.84-5.83A5.85,5.85,0,0,1,311.58,351.24Z" transform="translate(-222.04 -202.15)"/>
    <path class="cls-7" d="M235.14,351.24a5.83,5.83,0,1,1-5.83-5.83A5.84,5.84,0,0,1,235.14,351.24Z" transform="translate(-222.04 -202.15)"/>
    <path class="cls-7" d="M273.39,313a5.83,5.83,0,1,1-5.83-5.83A5.83,5.83,0,0,1,273.39,313Z" transform="translate(-222.04 -202.15)"/>
    <path class="cls-7" d="M294.88,351.24a27.32,27.32,0,1,1-27.32-27.32A27.32,27.32,0,0,1,294.88,351.24Z" transform="translate(-222.04 -202.15)"/>
    <path class="cls-7" d="M246.35,324.2a5.84,5.84,0,1,1-5.84-5.84A5.83,5.83,0,0,1,246.35,324.2Z" transform="translate(-222.04 -202.15)"/>
    <path class="cls-7" d="M300.44,324.2a5.84,5.84,0,1,1-5.83-5.84A5.83,5.83,0,0,1,300.44,324.2Z" transform="translate(-222.04 -202.15)"/>
    <path class="cls-7" d="M246.35,378.29a5.84,5.84,0,1,1-5.84-5.83A5.83,5.83,0,0,1,246.35,378.29Z" transform="translate(-222.04 -202.15)"/>
    <path class="cls-8" d="M289.16,351.37a21.69,21.69,0,1,1-21.68-21.68A21.69,21.69,0,0,1,289.16,351.37Z" transform="translate(-222.04 -202.15)"/>
    <path class="cls-9" d="M270.72,362.9h-6.48a2.87,2.87,0,0,1-2.88-2.87V341.91a2.88,2.88,0,0,1,2.88-2.88h6.48a2.88,2.88,0,0,1,2.88,2.88V360A2.87,2.87,0,0,1,270.72,362.9Z" transform="translate(-222.04 -202.15)"/>
    <path class="cls-7" d="M264.36,357.39a1,1,0,0,1-1-1,5,5,0,0,1,.87-2.93,3.37,3.37,0,0,0,0-3.75,5.35,5.35,0,0,1,0-5.85,3.1,3.1,0,0,0,.57-1.87,1,1,0,1,1,2.06,0,5.08,5.08,0,0,1-.87,2.93,3,3,0,0,0-.57,1.86,3.11,3.11,0,0,0,.57,1.88,5,5,0,0,1,.87,2.93,5.08,5.08,0,0,1-.87,2.93,3.06,3.06,0,0,0-.57,1.87A1,1,0,0,1,264.36,357.39Z" transform="translate(-222.04 -202.15)"/>
    <path class="cls-7" d="M269,361a1,1,0,0,1-1-1,5,5,0,0,1,.87-2.93,3.37,3.37,0,0,0,0-3.75,5.35,5.35,0,0,1,0-5.85,3.1,3.1,0,0,0,.57-1.87,1,1,0,0,1,2.06,0,5.08,5.08,0,0,1-.87,2.93,3,3,0,0,0-.57,1.86,3.11,3.11,0,0,0,.57,1.88,5,5,0,0,1,.87,2.93,5.08,5.08,0,0,1-.87,2.93A3.06,3.06,0,0,0,270,360,1,1,0,0,1,269,361Z" transform="translate(-222.04 -202.15)"/>
    <g>
      <path class="cls-7" d="M267.46,379.94A28.57,28.57,0,1,1,296,351.37,28.6,28.6,0,0,1,267.46,379.94Zm0-54.93a26.37,26.37,0,1,0,26.37,26.36A26.4,26.4,0,0,0,267.46,325Z" transform="translate(-222.04 -202.15)"/>
      <path class="cls-7" d="M305.85,358.34a7,7,0,0,1-6.14-3.67h-4.87a1.07,1.07,0,0,1-.81-.35,1.09,1.09,0,0,1-.29-.84c.07-.81.1-1.54.1-2.22s0-1.25-.08-2a1.1,1.1,0,0,1,1.09-1.19h4.86a7,7,0,1,1,6.14,10.27ZM296,352.47h4.4a1.1,1.1,0,0,1,1,.69,4.77,4.77,0,1,0,0-3.57,1.11,1.11,0,0,1-1,.69H296c0,.34,0,.66,0,1S296,352.05,296,352.47Z" transform="translate(-222.04 -202.15)"/>
      <path class="cls-7" d="M265.15,325.11A1.11,1.11,0,0,1,264,324v-5a7,7,0,1,1,6.6.12V324a1.08,1.08,0,0,1-.35.81,1.1,1.1,0,0,1-.83.29c-.76-.06-1.39-.08-2-.08s-1.42,0-2.22.1Zm2.31-16.95a4.76,4.76,0,0,0-1.88,9.14,1.09,1.09,0,0,1,.67,1v4.52c.75,0,1.43,0,2.19,0V318.5a1.1,1.1,0,0,1,.71-1.13,4.76,4.76,0,0,0-1.69-9.21Z" transform="translate(-222.04 -202.15)"/>
      <path class="cls-7" d="M267.46,396.79a7,7,0,0,1-3.42-13v-5a1.11,1.11,0,0,1,1.2-1.1c.8.07,1.53.1,2.22.1s1.26,0,2-.08a1.05,1.05,0,0,1,.83.29,1.09,1.09,0,0,1,.36.81v4.88a7,7,0,0,1-3.19,13.15Zm-1.21-16.88v4.53a1.11,1.11,0,0,1-.67,1,4.77,4.77,0,1,0,3.57-.07,1.1,1.1,0,0,1-.71-1.13v-4.33C267.67,380,267,380,266.25,379.91Z" transform="translate(-222.04 -202.15)"/>
      <path class="cls-7" d="M246.47,334.76a1.06,1.06,0,0,1-.77-.32l-3.55-3.55a7,7,0,1,1-1.88-13.67,6.88,6.88,0,0,1,4.92,2,7,7,0,0,1,1.71,7.05l3.45,3.45a1.1,1.1,0,0,1-.06,1.61,28.13,28.13,0,0,0-3,3,1,1,0,0,1-.79.39Zm-4-6.23a1.1,1.1,0,0,1,.78.32l3.2,3.2c.5-.54,1-1.05,1.55-1.56l-3.08-3.08a1.11,1.11,0,0,1-.3-1.23l0-.06a4.8,4.8,0,0,0-1-5.3,4.76,4.76,0,1,0-1.6,7.79A1,1,0,0,1,242.44,328.53Z" transform="translate(-222.04 -202.15)"/>
      <path class="cls-7" d="M294.65,385.53a7,7,0,0,1-6.71-8.84l-3.55-3.55a1.1,1.1,0,0,1,.07-1.62,25.58,25.58,0,0,0,3-3,1.11,1.11,0,0,1,.79-.38,1.15,1.15,0,0,1,.83.32l3.45,3.46a7,7,0,1,1,2.12,13.59Zm-7.87-13.12,3.2,3.2a1.12,1.12,0,0,1,.25,1.19,4.76,4.76,0,1,0,2.47-2.58,1.1,1.1,0,0,1-1.32-.31l-3-3.05C287.84,371.4,287.32,371.92,286.78,372.41Z" transform="translate(-222.04 -202.15)"/>
      <path class="cls-7" d="M229,358.34A7,7,0,1,1,235.08,348h5a1.14,1.14,0,0,1,.81.35,1.08,1.08,0,0,1,.28.84c-.06.81-.1,1.54-.1,2.22s0,1.25.09,2a1.17,1.17,0,0,1-.29.84,1.14,1.14,0,0,1-.81.35h-4.89A7,7,0,0,1,229,358.34Zm0-11.73a4.76,4.76,0,1,0,4.44,6.45,1.13,1.13,0,0,1,1-.71h4.43c0-.34,0-.66,0-1s0-.79,0-1.21h-4.53a1.1,1.1,0,0,1-1-.67A4.75,4.75,0,0,0,229,346.61Z" transform="translate(-222.04 -202.15)"/>
      <path class="cls-7" d="M288.45,334.76h-.05a1.08,1.08,0,0,1-.8-.39,27.13,27.13,0,0,0-3-3,1.1,1.1,0,0,1-.06-1.61l3.45-3.45a7,7,0,0,1,1.7-7.05,7,7,0,1,1,3,11.63l-3.55,3.55A1.06,1.06,0,0,1,288.45,334.76Zm-1.5-4.27c.54.51,1.05,1,1.55,1.56l3.2-3.2a1.08,1.08,0,0,1,1.18-.24,4.77,4.77,0,1,0-2.58-2.49l0,.06a1.11,1.11,0,0,1-.3,1.23Z" transform="translate(-222.04 -202.15)"/>
      <path class="cls-7" d="M240.27,385.53a7,7,0,1,1,2.12-13.59l3.46-3.46a1.08,1.08,0,0,1,.82-.32,1.11,1.11,0,0,1,.79.38,25.58,25.58,0,0,0,3,3,1.14,1.14,0,0,1,.39.79,1.15,1.15,0,0,1-.32.83L247,376.69a7,7,0,0,1-6.71,8.84Zm0-11.72a4.76,4.76,0,1,0,4.42,3,1.12,1.12,0,0,1,.25-1.19l3.2-3.2c-.54-.49-1.06-1-1.56-1.55l-3,3.05a1.12,1.12,0,0,1-1.32.32A4.6,4.6,0,0,0,240.27,373.81Z" transform="translate(-222.04 -202.15)"/>
    </g>
    <path class="cls-10" d="M276.46,366.77a1,1,0,0,1-.3-1.91c6.78-2.22,7.73-12.43,7.74-12.53a1,1,0,0,1,1.94.16c0,.48-1.08,11.61-9.08,14.23A1,1,0,0,1,276.46,366.77Z" transform="translate(-222.04 -202.15)"/>
    <path class="cls-10" d="M249,355.48a1,1,0,0,1-1-1,23,23,0,0,1,14-21.9,1,1,0,0,1,1.25.58,1,1,0,0,1-.57,1.25h0a20.75,20.75,0,0,0-12.72,20,1,1,0,0,1-1,1Z" transform="translate(-222.04 -202.15)"/>
    <path class="cls-7" d="M273.39,389.49a5.83,5.83,0,1,1-5.83-5.83A5.83,5.83,0,0,1,273.39,389.49Z" transform="translate(-222.04 -202.15)"/>
    <path class="cls-7" d="M300.44,378.29a5.84,5.84,0,1,1-5.83-5.83A5.83,5.83,0,0,1,300.44,378.29Z" transform="translate(-222.04 -202.15)"/>
  </g>
  <g>
    <path class="cls-7" d="M532.76,436.06a5.18,5.18,0,1,1-5.18-5.18A5.18,5.18,0,0,1,532.76,436.06Z" transform="translate(-222.04 -202.15)"/>
    <path class="cls-7" d="M464.87,436.06a5.19,5.19,0,1,1-5.18-5.18A5.18,5.18,0,0,1,464.87,436.06Z" transform="translate(-222.04 -202.15)"/>
    <path class="cls-7" d="M498.85,402.09a5.19,5.19,0,1,1-5.19-5.18A5.19,5.19,0,0,1,498.85,402.09Z" transform="translate(-222.04 -202.15)"/>
    <path class="cls-7" d="M517.93,436.06a24.27,24.27,0,1,1-24.27-24.27A24.26,24.26,0,0,1,517.93,436.06Z" transform="translate(-222.04 -202.15)"/>
    <path class="cls-7" d="M474.82,412a5.18,5.18,0,1,1-5.18-5.18A5.18,5.18,0,0,1,474.82,412Z" transform="translate(-222.04 -202.15)"/>
    <path class="cls-7" d="M522.87,412a5.18,5.18,0,1,1-5.18-5.18A5.18,5.18,0,0,1,522.87,412Z" transform="translate(-222.04 -202.15)"/>
    <path class="cls-7" d="M474.82,460.09a5.18,5.18,0,1,1-5.18-5.18A5.18,5.18,0,0,1,474.82,460.09Z" transform="translate(-222.04 -202.15)"/>
    <path class="cls-8" d="M512.85,436.18a19.26,19.26,0,1,1-19.26-19.26A19.26,19.26,0,0,1,512.85,436.18Z" transform="translate(-222.04 -202.15)"/>
    <path class="cls-9" d="M496.47,446.42h-5.76a2.56,2.56,0,0,1-2.56-2.55v-16.1a2.56,2.56,0,0,1,2.56-2.56h5.76a2.56,2.56,0,0,1,2.56,2.56v16.1A2.56,2.56,0,0,1,496.47,446.42Z" transform="translate(-222.04 -202.15)"/>
    <path class="cls-7" d="M490.82,441.53a.91.91,0,0,1-.91-.92,4.47,4.47,0,0,1,.77-2.6,3,3,0,0,0,0-3.32,4.79,4.79,0,0,1,0-5.21,2.73,2.73,0,0,0,.51-1.66.91.91,0,0,1,1.82,0,4.51,4.51,0,0,1-.77,2.61,3,3,0,0,0,0,3.32,4.77,4.77,0,0,1,0,5.2,2.78,2.78,0,0,0-.51,1.66A.92.92,0,0,1,490.82,441.53Z" transform="translate(-222.04 -202.15)"/>
    <path class="cls-7" d="M494.93,444.73a.92.92,0,0,1-.91-.92,4.45,4.45,0,0,1,.77-2.6,3,3,0,0,0,0-3.32,4.51,4.51,0,0,1-.77-2.61,4.45,4.45,0,0,1,.77-2.6,2.75,2.75,0,0,0,.51-1.66.91.91,0,1,1,1.82,0,4.45,4.45,0,0,1-.77,2.6,3,3,0,0,0,0,3.33,4.77,4.77,0,0,1,0,5.2,2.75,2.75,0,0,0-.51,1.66A.91.91,0,0,1,494.93,444.73Z" transform="translate(-222.04 -202.15)"/>
    <g>
      <path class="cls-7" d="M493.57,461.56A25.38,25.38,0,1,1,519,436.18,25.41,25.41,0,0,1,493.57,461.56Zm0-48.8A23.42,23.42,0,1,0,517,436.18,23.45,23.45,0,0,0,493.57,412.76Z" transform="translate(-222.04 -202.15)"/>
      <path class="cls-7" d="M527.67,442.37a6.15,6.15,0,0,1-5.44-3.26h-4.34a1,1,0,0,1-.72-.31,1,1,0,0,1-.25-.75c.06-.72.09-1.37.09-2s0-1.11-.08-1.78a1,1,0,0,1,.26-.74,1,1,0,0,1,.72-.31h4.32a6.19,6.19,0,1,1,5.44,9.12Zm-8.73-5.21h3.91a1,1,0,0,1,.9.61,4.23,4.23,0,1,0,0-3.18,1,1,0,0,1-.9.61H519c0,.31,0,.59,0,.88S519,436.78,518.94,437.16Z" transform="translate(-222.04 -202.15)"/>
      <path class="cls-7" d="M491.52,412.85a1,1,0,0,1-.66-.26.93.93,0,0,1-.32-.72v-4.46a6.19,6.19,0,1,1,5.86.11v4.34a1,1,0,0,1-.31.71,1,1,0,0,1-.74.26c-.67-.05-1.24-.07-1.78-.07s-1.25,0-2,.09Zm2.05-15.06a4.23,4.23,0,0,0-1.66,8.12,1,1,0,0,1,.59.9v4c.67,0,1.27,0,1.95,0V407a1,1,0,0,1,.62-1,4.22,4.22,0,0,0-1.5-8.18Z" transform="translate(-222.04 -202.15)"/>
      <path class="cls-7" d="M493.57,476.53a6.19,6.19,0,0,1-3-11.58v-4.46a.93.93,0,0,1,.32-.72,1,1,0,0,1,.74-.26c.72.06,1.36.09,2,.09s1.12,0,1.78-.07a1,1,0,0,1,.74.26,1,1,0,0,1,.31.71v4.34a6.19,6.19,0,0,1-2.83,11.69Zm-1.07-15v4a1,1,0,0,1-.6.9,4.24,4.24,0,1,0,3.17-.06,1,1,0,0,1-.62-1v-3.84C493.76,461.57,493.16,461.56,492.5,461.53Z" transform="translate(-222.04 -202.15)"/>
      <path class="cls-7" d="M474.93,421.42a1,1,0,0,1-.69-.28L471.09,418a6.18,6.18,0,1,1,2.71-10.33,6.25,6.25,0,0,1,1.51,6.26l3.07,3.07a1,1,0,0,1,.28.73.94.94,0,0,1-.34.7,23.76,23.76,0,0,0-2.64,2.67,1,1,0,0,1-.71.34Zm-3.58-5.53a.94.94,0,0,1,.69.28l2.85,2.85c.44-.48.9-.94,1.37-1.39l-2.74-2.74a1,1,0,0,1-.26-1.09l0-.06A4.21,4.21,0,1,0,471,416,.92.92,0,0,1,471.35,415.89Z" transform="translate(-222.04 -202.15)"/>
      <path class="cls-7" d="M517.73,466.52a6.18,6.18,0,0,1-6-7.85l-3.15-3.16a1,1,0,0,1,.06-1.43,23.77,23.77,0,0,0,2.66-2.65,1,1,0,0,1,1.44-.05l3.06,3.07a6.18,6.18,0,1,1,1.89,12.07Zm-7-11.65,2.84,2.84a1,1,0,0,1,.22,1.06,4.23,4.23,0,1,0,2.19-2.29,1,1,0,0,1-1.16-.28l-2.71-2.71Q511.46,454.21,510.74,454.87Z" transform="translate(-222.04 -202.15)"/>
      <path class="cls-7" d="M459.42,442.37a6.19,6.19,0,1,1,5.39-9.22h4.46a1,1,0,0,1,.72.31,1,1,0,0,1,.25.75c-.06.72-.09,1.36-.09,2s0,1.11.08,1.78a1,1,0,0,1-.26.74,1,1,0,0,1-.72.31h-4.34A6.23,6.23,0,0,1,459.42,442.37Zm0-10.42a4.23,4.23,0,1,0,3.94,5.73,1,1,0,0,1,.92-.63h3.93c0-.3,0-.59,0-.87s0-.7,0-1.08h-4a1,1,0,0,1-.9-.59A4.21,4.21,0,0,0,459.42,432Z" transform="translate(-222.04 -202.15)"/>
      <path class="cls-7" d="M512.22,421.42h0a1,1,0,0,1-.71-.34,23.76,23.76,0,0,0-2.64-2.67.94.94,0,0,1-.34-.7,1,1,0,0,1,.28-.73l3.07-3.07a6.21,6.21,0,0,1,1.51-6.26A6.19,6.19,0,1,1,516.06,418l-3.15,3.16A1,1,0,0,1,512.22,421.42Zm-1.33-3.79c.47.45.93.91,1.37,1.39l2.85-2.85a1,1,0,0,1,1-.21,4.25,4.25,0,1,0-2.29-2.22l0,.06a1,1,0,0,1-.26,1.09Z" transform="translate(-222.04 -202.15)"/>
      <path class="cls-7" d="M469.42,466.52a6.18,6.18,0,1,1,1.89-12.07l3.06-3.07a1,1,0,0,1,1.44.05,23.68,23.68,0,0,0,2.66,2.64,1,1,0,0,1,.35.71,1,1,0,0,1-.29.73l-3.15,3.16a6.18,6.18,0,0,1-6,7.85Zm0-10.41a4.23,4.23,0,1,0,3.93,2.66,1,1,0,0,1,.22-1.06l2.84-2.84q-.72-.66-1.38-1.38l-2.71,2.71a1,1,0,0,1-1.16.28A4.25,4.25,0,0,0,469.42,456.11Z" transform="translate(-222.04 -202.15)"/>
    </g>
    <path class="cls-10" d="M501.57,449.85a.87.87,0,0,1-.27-1.69c6-2,6.87-11,6.88-11.13a.86.86,0,0,1,1.72.14c0,.42-1,10.31-8.06,12.64A.84.84,0,0,1,501.57,449.85Z" transform="translate(-222.04 -202.15)"/>
    <path class="cls-10" d="M477.18,439.83a.86.86,0,0,1-.86-.85,20.5,20.5,0,0,1,12.42-19.46.86.86,0,0,1,.6,1.62h0A18.45,18.45,0,0,0,478.05,439a.87.87,0,0,1-.85.88Z" transform="translate(-222.04 -202.15)"/>
    <path class="cls-7" d="M498.85,470a5.19,5.19,0,1,1-5.19-5.18A5.19,5.19,0,0,1,498.85,470Z" transform="translate(-222.04 -202.15)"/>
    <path class="cls-7" d="M522.87,460.09a5.18,5.18,0,1,1-5.18-5.18A5.18,5.18,0,0,1,522.87,460.09Z" transform="translate(-222.04 -202.15)"/>
  </g>
</svg>
