<svg xmlns="http://www.w3.org/2000/svg" viewBox="0 0 1000 1000">
  <defs>
    <style>
      .cls-1 {
        fill: #ffe430;
      }

      .cls-2 {
        fill: #d3a166;
      }

      .cls-3 {
        fill: #f9c985;
      }

      .cls-12, .cls-15, .cls-4, .cls-6 {
        fill: none;
      }

      .cls-4 {
        stroke: #000;
      }

      .cls-12, .cls-14, .cls-15, .cls-4, .cls-6 {
        stroke-linecap: round;
      }

      .cls-14, .cls-15, .cls-4, .cls-6 {
        stroke-linejoin: round;
      }

      .cls-14, .cls-4 {
        stroke-width: 5px;
      }

      .cls-5 {
        fill: #f28649;
      }

      .cls-6 {
        stroke: #d17b50;
      }

      .cls-15, .cls-6 {
        stroke-width: 7px;
      }

      .cls-7 {
        fill: #140456;
      }

      .cls-8 {
        fill: #331c08;
      }

      .cls-9 {
        fill: #1d0072;
      }

      .cls-10 {
        fill: #d67832;
      }

      .cls-11 {
        fill: #e08a44;
      }

      .cls-12 {
        stroke: #3f230e;
        stroke-miterlimit: 10;
        stroke-width: 8.83px;
      }

      .cls-13 {
        fill: #f77948;
      }

      .cls-14 {
        fill: #ff006a;
        stroke: #ff006a;
      }

      .cls-15 {
        stroke: #d67832;
      }
    </style>
  </defs>
  <g id="Layer_23" data-name="Layer 23">
    <path d="M502.39,263.65s-18,23-18.76,53.35-9.3,92,11.71,162.39,21.89,55.19,21.89,55.19,33.82-3.67,42-10.21c0,0-2.09-14.82,1.13-20.66,0,0,3.07,14.67,6.94,20.6s48-3.5,48-3.5l83.72-15s5-22.28,3.46-32.86,7.88,34.51,7.88,34.51,28.18-.73,30.7-4.32-6.59-75.69-4-93.32c0,0,8.23,65.75,13.43,81.21S749.38,311,735,280.61c-10.15-21.47-34.47-51.27-50.81-59.77S632,201.2,603.94,203,518.18,232.29,502.39,263.65Z"/>
  </g>
  <g id="man2">
    <path id="shirt" class="cls-1" d="M495.18,875v-246c14.28-63.53,75-86.74,104.45-94.38a146.7,146.7,0,0,1,16.17-3.36h89.94s129.09-3.25,134.38,89.05S821,873,821,873Z"/>
    <g id="face">
      <path class="cls-2" d="M601.75,450.86s19.88,69-1.92,86.17,72,40.49,101.88-9.6c0,0-33.61-30.59-40.46-88.46"/>
      <path class="cls-2" d="M710.79,331.36s11-26.25,21.54-3-12,45.22-12.82,47.69"/>
      <path class="cls-2" d="M523.61,363.67s-31.95-19-24.31,9.3,34.54,37.51,34.54,37.51"/>
      <path class="cls-3" d="M718.46,338.23c10,71.12-16.77,134.23-88.59,140.45-65.47,5.67-111.11-39.87-121.1-111s31-119.18,88.9-127.31S708.47,267.11,718.46,338.23Z"/>
    </g>
    <g id="eyebrows">
      <path class="cls-4" d="M537.51,331.61s12.27-19.74,37.54-18.66"/>
      <path class="cls-4" d="M679.14,319.52S662.45,302,634.72,307.24"/>
    </g>
    <g id="cheeks">
      <ellipse class="cls-5" cx="553.37" cy="383.37" rx="19.01" ry="19.72" transform="matrix(0.99, -0.14, 0.14, 0.99, -47.95, 80.71)"/>
      <ellipse class="cls-5" cx="685.08" cy="360.49" rx="19.01" ry="19.72" transform="translate(-43.49 98.82) rotate(-8)"/>
    </g>
  </g>
  <g id="cuties">
    <path class="cls-6" d="M602.46,436.39c.49,2,32.16,11.66,40-17.54"/>
  </g>
  <g id="edgy">
    <g id="eyes">
      <ellipse cx="566.53" cy="349.33" rx="8.2" ry="8.51" transform="translate(-43.09 82.21) rotate(-8)"/>
      <ellipse cx="646.01" cy="338.54" rx="8.2" ry="8.51" transform="translate(-40.82 93.17) rotate(-8)"/>
    </g>
  </g>
  <g id="Layer_9" data-name="Layer 9">
    <ellipse id="nose" class="cls-2" cx="609.94" cy="377.73" rx="7.04" ry="21.93" transform="translate(-46.62 88.53) rotate(-8)"/>
    <path d="M698.07,260.85s17.49,39.46,20.82,63.1-25.48,17.2-25.48,17.2-4-42.41-19-57.06c0,0,6.35,45.21.93,49.12s-17.3,4.53-17.3,4.53-10.36-66.67-30.62-69.06-8.24,61.94-8.24,61.94L592,335.49s-11.89-35-10.58-54.05-1.89,43.23,1.65,54.26c0,0-17.83-20.55-18.91-42.41,0,0-5.07,20.63-3.2,34S531.28,343,531.28,343s-13.89-13.77-15-43c0,0,.75,40.76,5,56.93s-10.82,15.14-10.82,15.14-19.6-40.21-13.41-59.94,27.67-58.38,45.94-63,80.91-19.75,96.43-15.65S687.11,246.67,698.07,260.85Z"/>
    <path d="M518,302.92s8,89.84,24.42,147.08-43.12-71.69-49.33-144.63"/>
    <path d="M703,309.42s10.48,62.8,7.66,105.46S737.17,356,725.77,305.17"/>
    <path class="cls-1" d="M590.11,543.05s8.64-3.23,9.65-10.44.48-25.32,2.6-24.6,22.34.9,54.46-7.66,33.39-6.71,33-9.68,10.11,1.2,10.9,9.88,11.76,36.42,16.85,36.71-48.73,34.12-58.63,35.51-66.28-19-69.24-25.62S590.11,543.05,590.11,543.05Z"/>
    <path d="M644.73,332.53s-9.85-.08-12.24-7c0,0-.37,7.35,4.37,11.06S644.73,332.53,644.73,332.53Z"/>
    <path d="M564.24,343.36s-8.66-.07-10.75-6.18c0,0-.33,6.45,3.83,9.71S564.24,343.36,564.24,343.36Z"/>
  </g>
  <g id="Layer_22" data-name="Layer 22">
    <path class="cls-3" d="M652.29,345.88c9.49,2.86-15.7,3.26-15.7,3.26a16.33,16.33,0,0,1,15.7-3.26"/>
    <path class="cls-3" d="M574.06,356.87c9.49,2.86-15.7,3.26-15.7,3.26a16.33,16.33,0,0,1,15.7-3.26"/>
    <path class="cls-7" d="M426.9,541.86s-35-19-135.47-5.44h0L320,569s105.81,5.71,106.9-27.14"/>
  </g>
  <g id="Layer_24" data-name="Layer 24">
    <path class="cls-8" d="M240.8,361.54S230.63,376,216,371.92c0,0,8.36,7.22,25.07,6.19,0,0-5.22-3.1-5.22,13.4s-5.22,29.89,3.14,43.3,24,15.46,24,29.89a156.3,156.3,0,0,1-3.13,28.87s13.58-7.22,13.58-14.44-4.18,4.13,10.45,11.34c0,0-5.22-15.46,3.13-14.43s12.54,16.5,10.45,22.68c0,0,16.72-1,16.72-10.31,0,0-4.18,0,6.27,12.37,0,0,0-8.24,6.27-8.24s9.4,15.46,9.4,15.46L356,493.57S265.6,351.16,240.8,361.54Z"/>
    <path class="cls-8" d="M461.55,308.6s16.83,5.53,26.08-6.52c0,0-2.37,10.78-16.38,20,0,0,2.33-5.61,12.2,7.61s22.08,20.82,23.4,36.56-10,26.77-1.36,38.33a156.25,156.25,0,0,0,19.78,21.26s-15.2,2.34-19.51-3.44,5.81.8-1.59,15.34c0,0-5.07-15.52-11.15-9.69s-.17,20.72,5.2,24.42c0,0-14,9.18-19.56,1.75,0,0,3.35-2.5,2.38,13.66,0,0-4.93-6.61-10-2.86s1.72,18,1.72,18l-24.55.32S435.48,315.12,461.55,308.6Z"/>
    <path class="cls-8" d="M450.88,267.6s8,12,14,8a22,22,0,0,0,8-9s6,16-2,19-12,11,8,14,10,28,10,28-3-13-10-12-1,30,6,31-1,36-1,36S437.88,280.6,450.88,267.6Z"/>
    <path id="shirt-2" data-name="shirt" class="cls-9" d="M420,567.8s89.42-10.43,126,67.38S591.45,870,591.45,870h-395S181.3,565.56,321.38,556"/>
    <path id="hair_back" class="cls-8" d="M431,245s43.09,74.77,43.09,93.7c0,.9-43.92-43.12-59.32-37.86-55.29,18.88-148.14,105.41-148.14,105.41s-26-33.48-23.49-60c3.79-39.12,18.93-56.79,18.93-56.79Z"/>
    <path class="cls-10" d="M440,475.28s-37.86,66.11-21.45,94.27-71.94,51.42-97.18,0c0,0,30.29-35.51,12.62-97.95"/>
    <path class="cls-11" d="M482.91,344.07c10.84,42.45,22.55,89.37-.93,128.91-16.58,27.93-36.72,44.72-91.55,32.59-69.43-15.35-96.19-47-122.74-109.81-28.89-68.36,15-141.41,74.48-155.69S464.61,272.36,482.91,344.07Z"/>
    <path class="cls-11" d="M308.82,392.88s-56.34-19.53-60,8.16c-4.32,32.79,75.64,50,75.64,50"/>
    <path id="nose-2" data-name="nose" class="cls-10" d="M432.26,379c6.22,13.3,19.37,19.89.23,28.84-20.38,9.52-10.07-8-16.28-21.34s-10.66-24.76-6.23-26.83S426.05,365.71,432.26,379Z"/>
    <g id="eyebrows-2" data-name="eyebrows">
      <path class="cls-12" d="M334.5,363.5s-1.57-19.27,35-31"/>
      <path class="cls-12" d="M456.5,304.5s-15.87-15.87-42,6.39"/>
    </g>
    <g id="hair_front">
      <path class="cls-8" d="M273.43,298.32s15.14,17.66,0,24c0,0,11.18,37.89-3.79,30.29,0,0,0,21.46-1.26,31.55s2.52,25.24-13.88,3.79-11.36-50.48-11.36-50.48S262.07,288.22,273.43,298.32Z"/>
    </g>
    <g id="cheeks-2" data-name="cheeks">
      <ellipse class="cls-13" cx="368.35" cy="418.66" rx="20.68" ry="21.29"/>
      <path class="cls-13" d="M464.49,380.86c0,11.76,29.45,22.08,29.51,18.14.27-16.94-3-32-8-39C479.36,350.71,464.49,369.11,464.49,380.86Z"/>
    </g>
    <path class="cls-8" d="M261,381s0,25,26,49c0,0,11-40-4-58s20-7,21,4c0,0,5-19-4-21s-6-10-1-7,23-10,23-10l-37-17-28.64,29.72-.31,39.75"/>
    <path id="Shape" class="cls-7" d="M319.77,255.61l113-10.9c29.65,4.79,58.5,7.77,71.67,11.75a4.31,4.31,0,0,1,2.94,5.15,4.62,4.62,0,0,1-5,3.46c-6.08-.7-20.87,1.45-43.53,16.42-47,31.08-16.51,40.89-69,60.57-51.12,19-104,3.14-106.64,1.71Z"/>
    <path id="Shape-2" data-name="Shape" class="cls-7" d="M283.35,203.23l-2-3c-7.69-11.81-32.79,2.06-26.9,14.36.39.81,1.54,2.05,2.43,3.89Z"/>
    <path id="Shape-3" data-name="Shape" class="cls-9" d="M227.33,249.17A164.58,164.58,0,0,1,269.27,209s65.89-31.58,110.84-11c33.32,15.27,54.21,49.92,54.21,49.92-16.69,4.78-41.21,19.75-57.68,32.37-78.2,59.92-78.91,55-109.84,72.72-24.52,14-30.8,23.36-48.89-14.38C204,309.64,206,278.81,227.33,249.17Z"/>
    <path id="Shape-4" data-name="Shape" class="cls-9" d="M269.27,209s65.89-31.58,110.87-10.89C413.47,213.37,434.35,248,434.35,248a170.91,170.91,0,0,0-41.09,20.68c-9.27-14.88-55-81-124-59.71Z"/>
    <path id="Shape-5" data-name="Shape" class="cls-9" d="M269.27,209c69-21.27,114.72,44.83,124,59.69-21.32,13.67-52.22,41.18-87.78,62.95C295,321.3,229.39,255,269.27,209Z"/>
    <path class="cls-14" d="M484.5,231.5s-43-24-33-41c5-8.5,11-9.75,15.75-8.88a16.13,16.13,0,0,1,10.36,7l3.89,5.83s8.2-14.06,15-16c7-2,23-3,21,14S493.5,227.5,484.5,231.5Z"/>
    <path class="cls-7" d="M381,605s-58.47-33.23-58.23-36.12,7.83-12,7.53-15.42S318,534,295,536s-74,30-89,60,10.35,75.27,10.35,75.27S242.15,604.58,266,582,305.5,616.5,381,605Z"/>
    <path class="cls-7" d="M377,605s38.28-7.09,41-36c0,0-6-7-3-25s66.72,31.81,66.72,31.81S442.49,609.73,377,605Z"/>
    <path class="cls-8" d="M237,387s-11,17-22,18c0,0,9,1,15,0,0,0-6,0-9,12s9,19,9,19-2-14,10-12"/>
    <path class="cls-4" d="M362.79,378.18c-.26-4.89,1.2-30.09,18-7"/>
    <path class="cls-4" d="M434.79,350.18c-.26-4.89,1.2-30.09,18-7"/>
    <path class="cls-15" d="M444.13,435.08s13.37-15.94,15.37-5.91a14.61,14.61,0,0,1-6,15s15-1.25,15,5-7,8.77-10,8.77"/>
  </g>
</svg>
