<?xml version="1.0" encoding="utf-8"?>
<!-- Generator: Adobe Illustrator 23.0.1, SVG Export Plug-In . SVG Version: 6.00 Build 0)  -->
<svg version="1.1" id="Layer_3" xmlns="http://www.w3.org/2000/svg" xmlns:xlink="http://www.w3.org/1999/xlink" x="0px" y="0px"
	 viewBox="0 0 1000 1000" style="enable-background:new 0 0 1000 1000;" xml:space="preserve">
<style type="text/css">
	.st0{fill:#160C02;}
	.st1{fill:#A05828;}
	.st2{fill:#BF6B32;}
	.st3{fill:#17D5D1;}
	.st4{fill:#E08158;}
	.st5{fill:#7F3612;}
	.st6{fill:none;stroke:#FF4676;stroke-width:8;stroke-linecap:round;stroke-linejoin:round;}
	.st7{fill:#9B5729;}
	.st8{fill:#D3824A;}
	.st9{fill:#F29753;}
	.st10{fill:#C47641;}
	.st11{fill:#E8745D;}
	.st12{fill:none;stroke:#000000;stroke-width:5;stroke-linecap:round;stroke-linejoin:round;}
	.st13{display:none;fill:#FFFFFF;stroke:#FFFFFF;stroke-width:3;stroke-linecap:round;stroke-linejoin:round;}
	.st14{fill:#E83A70;}
	.st15{fill:#FF4676;}
	.st16{fill:none;stroke:#702F0E;stroke-width:6;stroke-linecap:round;stroke-miterlimit:10;}
	.st17{fill:none;stroke:#702F0E;stroke-width:7;stroke-linecap:round;stroke-miterlimit:10;}
	.st18{fill:none;stroke:#160C02;stroke-width:5;stroke-linecap:round;stroke-linejoin:round;}
	.st19{fill:none;stroke:#0F1C70;stroke-width:3.6918;stroke-miterlimit:10;}
	.st20{fill:#8E3F13;}
	.st21{fill:#24E0D2;}
	.st22{fill:none;stroke:#FFFFFF;stroke-width:11.8799;stroke-linecap:round;stroke-miterlimit:10;}
	.st23{fill:none;stroke:#FFFFFF;stroke-width:11.6493;stroke-linecap:round;stroke-miterlimit:10;}
</style>
<title>graphic_people1</title>
<g id="Layer_9">
	<g>
		<path class="st0" d="M245,223c-0.66,3.7-6.67,30.3-6,34c2,11-1,13-4,40c-3.22,29-30,44-6,104s14,106-6,130s12,51,18,67
			s106,21,106,21l28-200l-85-181l13-49l-15-23C288,166,253.43,175.78,245,223z"/>
		<path class="st0" d="M340,159c0,0,89,82,128,87c26.1,3.35,36.46,8.62,39,34c1.26,12.54,0.32,43.1-1,55c-4,36-22,68-7,103
			s65.29,24.46,57.15,89.73S380,498,380,498S316,192,340,159z"/>
		<path class="st0" d="M270,184c0,0,43-54,97-54s95,27,112,52c8.75,12.86,29.87,71.19,28.43,115.09"/>
		<path class="st0" d="M338.49,136.69c0,0-61.49-6.69-105.49,97.31s-55,347-3,450c0,0,22,31,2,54c0,0,146.23,24.88,160-55
			c5-29-20.56-179.48-21-179C371,504,91,381.39,338.49,136.69z"/>
		<path class="st1" d="M585.05,134.17c0,0-13.89-29.93-16-37.41c-2.08-7.27,6.41-9.62,10.69-3.21s18.17,40.62,18.17,40.62
			s8.55-42.75,8.55-47c0-3.2,8.55-4.27,8.55,6.41c0,5-1,19-2,32.42c-1.12,15.14-2.33,29.57-2.33,29.57v-26.75c0,0,9.62-9.61,13.9,0
			c4.28,9.61-1.07,27.79-5.35,29.93s-29.92-13.89-29.92-13.89l35.27-7.49c0,0,2.13-10.68,8.55-6.41s1.17,27.47-5.83,34
			s-25.17-5.18-25.17-5.18L627,163c0,0,4,4,4,9s-25,1-25,1l-16-21"/>
		<path class="st2" d="M581.49,159.26c0,0-10.29-31.22,8.7-29.09s29.85,8.6,30.94,12.93c1.09,4.33-10.5,5.89-24.73,0.72
			c0,0,23.9,12.41,25.14,30.09S580.2,171,580.2,171L581.49,159.26z"/>
		<path class="st3" d="M430,460c0,0,2.94-11.77,23-38c13-17-1.88-16.06,94-17c91.16-0.89,10-240.82,31-253c0,0,19.35,13.06,37,16
			c6,1,23-5,23-5s83.46,326.2-23,333c-74.41,4.75-100.78,17.35-116,19c-37,4,9,49,18,59s46.46,318.51,46.46,318.51H305
			c0,0-83-269.51-35-404.51C293.87,420.87,383,485,430,460z"/>
		<path class="st1" d="M354.35,396.82c0,0,10.09,52.19-13.89,62.45s65.63,36.79,102.22,3.43c0,0-29-25.67-27.76-68.45"/>
		<path class="st2" d="M479.28,270.58c0,0,15.15-26.51,22.72,0c7.57,26.51-18.93,46.69-20.19,49.21"/>
		<path class="st1" d="M279.89,278.15c0,0-20.89-26.15-26.5,6.31c-5.42,31.31,30.28,45.43,30.28,45.43"/>
		<path class="st2" d="M485.59,285.71c0,72-35.28,131-107.27,127.11c-65.62-3.5-104.48-55.09-104.48-127.11s47.28-114,105.75-114
			S485.59,213.69,485.59,285.71z"/>
		<g id="cheeks_2_">
			<circle class="st4" cx="317.82" cy="322.51" r="19.01"/>
			<circle class="st4" cx="451.44" cy="318.34" r="19.01"/>
		</g>
		<path class="st5" d="M678,237c0,0,74-60,98,22s-46,213-29,250c0,0-28-54-27-90c0,0-4,66,9,99c0,0,1,5,6,16c0,0-80-62-46-167
			C689,367,699,259,678,237z"/>
		<path class="st6" d="M699.56,226.11c0,0,14.25,21.66,12.63,38.58"/>
		<path class="st0" d="M344,166c0,0-13,30,45,64s97,78,96,112s17-102,1-125S373,137,344,166z"/>
		<path class="st0" d="M346.5,178.35c0,0-57.5,203.65-44.5,251.65c0,0-56-196-22-232S369,164,346.5,178.35z"/>
		<g id="nose_2_">
			<ellipse class="st7" cx="384.63" cy="297.72" rx="7.04" ry="21.13"/>
		</g>
		<path class="st8" d="M529.35,450.93c0,0,44.49,55.08,31.13,82.29s76.81,38,96.52-11.18c0,0-33.78-28.44-22.73-86.61"/>
		<path class="st9" d="M474.32,322.65c-5.72,44.72-13.22,76.92,14.79,114.71c19.79,26.69,33.76,39.38,77.66,36.13
			c73.89-5.46,108.55-55.26,127.48-122.68c20.58-73.32-31.72-143.06-92.45-150.81S484,247.12,474.32,322.65z"/>
		<path class="st8" d="M650.48,367.08c0,0,41.66-24.79,46.91,1.13c6.21,30.69-53.84,55.87-53.84,55.87"/>
		<circle cx="587.66" cy="330.51" r="9.34"/>
		<g id="eyes_2_">
			<circle cx="429.48" cy="270.92" r="8.2"/>
			<circle cx="338.27" cy="272.03" r="8.2"/>
		</g>
		
			<ellipse id="nose-2" transform="matrix(0.3163 -0.9487 0.9487 0.3163 29.9905 750.7392)" class="st10" cx="535.84" cy="354.56" rx="20.93" ry="6.98"/>
		<g id="cheeks-2">
			
				<ellipse transform="matrix(0.9934 -0.1151 0.1151 0.9934 -38.9065 71.0192)" class="st11" cx="595.46" cy="372.38" rx="20.68" ry="21.29"/>
			<path class="st11" d="M500.6,347.93c1.35,11.68-13.19,32-20.6,22.07c-10.15-13.57-7.73-34.1-2.39-40.84
				C484.7,320.21,499.25,336.25,500.6,347.93z"/>
		</g>
		<path class="st12" d="M498.27,314.07c2.5-4.21,17.69-24.37,18.83,4.15"/>
		<path class="st13" d="M513.43,409.06c0,0,33.25,7.9,43.54,1.57s0.87,21.07-13.63,22.89S516.18,430.88,513.43,409.06z"/>
		<path class="st14" d="M563.26,519.87c0,0-14.26-28.87-38.26-20.87s-38,18-41,30s33,48,33,48s4.65,13.24,8.83,42.12
			S552,834,552,834l114-138l-68-140c0,0-17.63,2.17-33.56-7.66c0,0-4.3-3.52-5.12-7.68s1.87-9.38,1.87-9.38
			S563,532.25,563.26,519.87z"/>
		<path class="st15" d="M597,560c0,0,12-36,39-46s73.81-5.4,86,9c11,13,49,82,33,166c0,0-53,194-110,204l0,0l-135,3
			c0,0,120-187.06,118-214S584,575,597,560z"/>
		<path class="st2" d="M664,511c0,0-11-24,2-25s46-4,46,28s-8,46-8,46l-38-44l-2-3"/>
		<path d="M339,265.42c0,0,8.56-1.22,9.78-7.34c0,0,1.23,6.12-2.44,9.79S339,265.42,339,265.42z"/>
		<path d="M429,266.42c0,0,8.56-1.22,9.78-7.34c0,0,1.23,6.12-2.44,9.79S429,266.42,429,266.42z"/>
		<path d="M589.2,322.57c0,0-9.75-1.39-11.14-8.36c0,0-1.39,7,2.78,11.14S589.2,322.57,589.2,322.57z"/>
		<path d="M507,303.11c0,0-8.56-1.22-9.78-7.34c0,0-1.23,6.12,2.44,9.79S507,303.11,507,303.11z"/>
		<path class="st2" d="M416.52,280.36c0,0,21.58-7.62,25.39,0S416.52,280.36,416.52,280.36z"/>
		<path class="st2" d="M323.17,280.78c0,0,21.58-7.61,25.38,0S323.17,280.78,323.17,280.78z"/>
		<g>
			<path class="st16" d="M573,300c0,0,20.58-20.93,39.9,13.67"/>
			<path class="st17" d="M528,282c0,0-18.07-17.29-33,3.14"/>
		</g>
		<g id="eyebrows_2_">
			<path class="st18" d="M317.28,258.44c8.88-11.84,23.08-18.47,37.86-17.67"/>
			<path class="st18" d="M459.26,258.44c0,0-14.1-18.93-42.28-17.67"/>
		</g>
		<g>
			<ellipse class="st19" cx="338" cy="263.5" rx="36.62" ry="34.5"/>
			<ellipse class="st19" cx="434" cy="263.5" rx="36.62" ry="34.5"/>
			<path class="st19" d="M374.1,266.01c0,0,11.9-6.35,22.9,0.47"/>
		</g>
		<path class="st20" d="M543.36,248.39c0,0-12.36,20.96,11.64,71.24c0,0-3.3-48.77,17.56-54.12c0,0-5.21,23.54,36.51,49.22
			c0,0-9.39-43.87,5.21-50.29c0,0,5.22,48.15,20.87,81.32c0,0,12.14-36,13.85-44.59c0,0,11.18,151.58-26.37,192.23
			c0,0,33.37-12.72,37.37-81.45c0,0,11.65,20.47-7.12,64.34c0,0,40.68-84.53,55.28-147.65s-16.69-107-22.95-113.41
			S645.58,166,577.78,176.71s-90.9,57.62-90.9,57.62s-62.43,87.89-14.45,249.45c0,0-9.42-124.61,14.57-187.74c0,0,4.27-30.92,22-48
			c0,0-0.06,23.93,27.06,73.15C536.06,321.15,523.54,257,543.36,248.39z"/>
		<path class="st21" d="M378,474c0,0-24.9-39.4-70-30s-41.15,69.87-28,99s136.84,132.66,181,174s227.43-130.81,241.52-153.36
			S692,532,666,516c0,0-155,116-162.71,108.72C487.7,610,398.5,489.31,378,474z"/>
	</g>
</g>
<path id="mouth_2_" class="st22" d="M509.95,409.14c2.91,2.07,12.62,17.4,50.48,5.8"/>
<path id="mouth_3_" class="st23" d="M363.77,359.72c3.07,1.51,15.64,15.34,45.02-5.35"/>
</svg>
