<?xml version="1.0" encoding="utf-8"?>
<!-- Generator: Adobe Illustrator 23.0.1, SVG Export Plug-In . SVG Version: 6.00 Build 0)  -->
<svg version="1.1" id="Layer_1" xmlns="http://www.w3.org/2000/svg" xmlns:xlink="http://www.w3.org/1999/xlink" x="0px" y="0px"
	 viewBox="0 0 1000 1000" style="enable-background:new 0 0 1000 1000;" xml:space="preserve">
<style type="text/css">
	.st0{fill:#D38E16;}
	.st1{fill:#F4B942;}
	.st2{fill:#FF006A;}
	.st3{fill:#E2A56D;}
	.st4{fill:#565655;}
	.st5{fill:#F7BC81;}
	.st6{fill:none;stroke:#D38E16;stroke-width:9.0933;stroke-linecap:round;stroke-linejoin:round;}
	.st7{fill:#F49C76;}
	.st8{fill:none;stroke:#565655;stroke-width:5.1962;stroke-linecap:round;stroke-linejoin:round;}
	.st9{fill:#98E1E5;}
	.st10{fill:#1D0072;}
	.st11{fill:#EA965C;}
	.st12{fill:#FFA766;}
	.st13{fill:#DD8950;}
	.st14{fill:none;stroke:#66B2B2;stroke-width:10.3924;stroke-linecap:round;stroke-linejoin:round;}
	.st15{fill:#D17B50;stroke:#D17B50;stroke-width:3.8971;stroke-linecap:round;stroke-linejoin:round;}
	.st16{fill:#E88C64;}
	.st17{fill:none;stroke:#D17B50;stroke-width:6.4952;stroke-linecap:round;stroke-linejoin:round;}
	.st18{fill:#FFEA00;}
	.st19{fill:none;stroke:#E0CC0E;stroke-width:6.4952;stroke-miterlimit:10;}
	.st20{fill:#14074F;}
</style>
<title>graphic_people1</title>
<g id="edgy">
	<g>
		<path class="st0" d="M469.6,323c-2.7-14,53.6-64.3,50.9-83.9s-25.6-103.6-14.8-99.4c1.5,0,2.7,1.2,2.7,2.6c0,0.1,0,0.1,0,0.2
			c0,0,6.7-4.2,0-9.8c-6.7-5.6-28.3-26.6-32.3-35c-4-8.4-31-49-64.7-54.6s-60-4.6-64-11.7c-4-7-2-10.8-2-10.8s-5,2.6-16.9,8.1
			C311,36.8,265.8,45.9,254.4,55c0,0-43.1,25.2-55.2,63c-12.1,37.8-22.9,74.2-14.8,130.2s32.3,60.8,36.4,70.3
			c3.9,9,6.7,3.3,29.3,26.6"/>
		<path class="st1" d="M254,330.8c5.4-14-11-46.9-11-46.9l-22.9-54.6L274,99.1l109.1-29.4l67.4,44.8l36.4,67.2l2.7,79.8l-2.7,40.6"
			/>
		<path id="shirt" class="st2" d="M168.2,790.8l-64-70.1c-13.1-14.3-20.2-33.1-19.8-52.5l0.8-45.2c0.1-7.1,1.2-14.1,3.3-20.9
			C119.7,500.7,234,473.1,264.7,467.5c4.5-0.8,9.1-1.2,13.7-1.2h133.3c0,0,200.1-4.9,208.2,134.4c4.5,77.3,7.3,186.7,8.9,268.8
			c1.1,54.2-53.5,91.9-103.9,71.8L196.1,810.1C185.5,805.8,176,799.3,168.2,790.8z"/>
		<path class="st3" d="M309.4,349.5c0,0-2.1,100.8-35.9,115.6c-33.8,14.7,73.6,82.6,130.3,26.6c0,0-29.9-54.3-15.8-135.1"/>
		<path class="st3" d="M485.6,197.7c0,0,19.7-34.4,29.5,0s-24.6,60.7-26.2,63.9"/>
		<circle class="st4" cx="493" cy="255.4" r="5.2"/>
		<path class="st3" d="M226.6,207.6c0,0-39.3-32.8-34.4,8.2s39.3,59,39.3,59"/>
		<path class="st5" d="M493.8,229.2c0,101-45.8,183.7-139.3,178.3c-85.2-4.9-135.7-77.3-135.7-178.3s61.4-160,137.4-160
			S493.8,128.2,493.8,229.2z"/>
		<ellipse id="nose" class="st3" cx="354.4" cy="238.7" rx="11.5" ry="36.1"/>
		<g id="eyebrows">
			<path class="st6" d="M263.4,179.4c11.5-15.4,30-24,49.2-23"/>
			<path class="st6" d="M447.9,179.4c0,0-18.3-24.6-54.9-23"/>
		</g>
		<g id="cheeks">
			<circle class="st7" cx="275.8" cy="265.2" r="24.7"/>
			<circle class="st7" cx="453.4" cy="266" r="24.7"/>
		</g>
		<g id="eyes">
			<circle cx="309.5" cy="208.4" r="10.7"/>
			<circle cx="413.7" cy="208.9" r="10.7"/>
		</g>
		<path class="st0" d="M382.6,63.2c0,0,41.6,32.5-11.7,52c0,0,2.6-23.4-22.1-23.4c-24.7,0,14.3,37.7-33.8,42.9
			c-4.2,0.5-20.6-10.9-24.7-10.4c-42.6,4.9-65,22.1-65,22.1S269.6,32,382.6,63.2z"/>
		<path class="st0" d="M393,68.4c0,0-26.6-8.9,6.2,24.1s39.3,42.1,39.3,42.1s10.4,0,6.5-15.6c-3.9-15.6,24.7,15.6,24.7,33.8
			s-16.9,48.1-5.2,41.6c11.7-6.5,24.7-33.8,24.7-33.8l-41.6-71.4L393,68.4z"/>
		<path class="st0" d="M233.2,135.9c0,0-9.6,48.5,2.3,69.7s-3.6,13.4-10.1,6.9s-13-42.9-13-42.9L233.2,135.9z"/>
		<path class="st0" d="M211.1,124.2c0,0-37.7,6.5-32.5-10.4c0,0-5.2,24.7,14.3,29.9C212.4,148.9,211.1,124.2,211.1,124.2z"/>
		<polygon class="st2" points="390.4,985.5 129.3,984.2 118.9,578.9 399.5,724.4 		"/>
		<path class="st8" d="M257.5,173.6c0,0-9.2,4.1-2.2,12.1c5.4,6.1,12.9,3,12.9,0"/>
		<circle class="st4" cx="213.7" cy="256.7" r="5.2"/>
		<path class="st9" d="M538.6,231.8c0,0-74.1,165.3-58.5,269.2c15.6,103.9,126,40.3,126,40.3l49.4-66.3l-55.9-268.9L538.6,231.8"/>
		<path id="shirt-2" class="st10" d="M604,559.2c0,0-116.2-14.8-163.7,95.3s-59,332.2-59,332.2l471.6-5.2l44.2-37.7
			c0,0,17-387.9-165-401.4"/>
		<g id="face">
			<path class="st11" d="M578,460.4c0,0,49.2,82.1,27.9,117c-21.3,35,93.5,63.8,126.2,0c0,0-39.3-44.1-16.4-121.6"/>
			<path class="st12" d="M526.2,298.8c-14.1,52.7-37.7,101.1-7.2,150.2c21.5,34.7,30.9,46.4,103.9,43.1
				c96.1-4.3,148.3-51.1,182.8-129.1c37.5-84.9-19.5-175.6-96.8-193.3S549.9,209.7,526.2,298.8z"/>
			<path class="st12" d="M754.9,372.6c0,0,73.2-24.3,77.9,10.1c5.6,40.7-98.3,62.1-98.3,62.1"/>
		</g>
		<g id="eyes-2">
			<circle cx="672.2" cy="338.4" r="10.7"/>
			<circle cx="577.2" cy="295.8" r="10.7"/>
		</g>
		
			<ellipse id="nose-2" transform="matrix(0.4233 -0.906 0.906 0.4233 27.6994 745.9316)" class="st13" cx="599.7" cy="351.2" rx="27.4" ry="9.1"/>
		<g id="eyebrows-2">
			<path class="st14" d="M660.9,296.3c0,0,30.8-18.8,42.5,24.1"/>
			<path class="st14" d="M595.6,267.1c0,0-2.9-22.8-39-6.5"/>
		</g>
		<path id="mouth" class="st15" d="M610.5,428c-33.7,31.8-47.5-5.6-50.7-10.2C559.8,417.8,632.1,407.7,610.5,428z"/>
		<g id="cheeks-2">
			<ellipse class="st16" cx="673.7" cy="403.1" rx="26.9" ry="27.7"/>
			<path class="st16" d="M554,346.2c0,15.3-45.4,31.4-42.8,18.4c4.3-21.6,8-38.1,15.9-46C537.6,308.1,554,330.9,554,346.2z"/>
		</g>
		<path class="st12" d="M649.2,349c0,0,28-9.9,33,0C687.2,358.9,649.2,349,649.2,349z"/>
		<path class="st12" d="M553.1,307.4c0,0,28-9.9,33,0C591.1,317.3,553.1,307.4,553.1,307.4z"/>
		<path d="M674.9,328.6c0,0-11.1-1.6-12.7-9.5c0,0-1.6,8,3.2,12.7C670.1,336.6,674.9,328.6,674.9,328.6z"/>
		<path d="M578.7,285.8c0,0-11.1-1.6-12.7-9.5c0,0-1.6,8,3.2,12.7C574,293.7,578.7,285.8,578.7,285.8z"/>
		<path class="st17" d="M314.4,321c0,0,15.9,31.8,44.6,12.7"/>
		<g>
			<path class="st18" d="M578.3,665.3c0,0-8.2-26.2-9.8-32.7c-1.6-6.5-38.7,5.7-57.3,13.1c-16.4,6.5,0,40.9,0,40.9
				s1.6,8.2,11.5,19.6c0,0,52.4-8.2,57.3-18c4.9-9.8-4.8-22.3-4.8-22.3"/>
			<circle class="st19" cx="543.7" cy="668.5" r="21.4"/>
		</g>
		<path class="st20" d="M878.2,890.2c0,0-156.1-153-214.8-181.4c0,0-38.6,56.8-55.7,66.3s58.7,115.1,106.7,149.8
			s69.4,61.2,127.4,60.6S918.3,921.8,878.2,890.2z"/>
		<path class="st9" d="M742.6,265c0,0-24.8,209.9-62.5,281.4c0,0-14.3,31.2-23.4,37.7s110.4,3.9,129.9-40.3s75.3-207.8,59.8-257.2
			s-37.7-113-142.9-137.7s-141.6,10.4-157.2,31.2s-22.1,50.7-22.1,50.7c6.9-0.6,13.8-0.9,20.8-0.6c12,0.3,27.3,1.9,40.3,7.1
			c0,0,10.4-19.5,19.5-20.8c9.1-1.3,0,18.2,6.5,31.2c6.5,13,102.6,37.7,102.6,37.7S729.7,251.2,742.6,265z"/>
		<path class="st5" d="M869.9,916.4c0,0,21.7-28,24.1-41c2.3-13,31.7-5.2,34,14.8c2.3,20-18.2,82.2-41.5,80.4
			C863.3,968.7,869.9,916.4,869.9,916.4z"/>
		<path class="st5" d="M87.2,689.2l134.4-16.8c0,0,84.4,87,115.6,149.4c0,0,10.4,15.6,14.3,18.2c3.9,2.6,194.9-122.1,226-135.1
			c31.2-13,37.7,41.6,37.7,41.6s-201.4,216.9-252,214.3S161.9,920.4,87.2,689.2z"/>
		<path class="st12" d="M656.2,696.6c0,0-7.6-21.2-38.1-29.9c-30.5-8.6-54.9-2.2-72.7,4.5c-17.8,6.7,6,31.4,26.3,34.4
			c20.3,3,12.1,38.1,20.2,52.5c8.1,14.4,19,16.3,19,16.3S675.1,721.7,656.2,696.6z"/>
		<path class="st5" d="M599.5,668.5c0,0,44.2,24.7,49.4,37.7c5.2,13,5.2,14.3,14.3,9.1c14-8,15.6-40.3-3.9-55.9
			c-19.5-15.6-48.1-29.9-58.5-23.4s-19.5,22.1-18.2,26C583.9,665.9,598.2,667.2,599.5,668.5z"/>
	</g>
</g>
</svg>
