<?xml version="1.0" encoding="utf-8"?>
<!-- Generator: Adobe Illustrator 23.0.1, SVG Export Plug-In . SVG Version: 6.00 Build 0)  -->
<svg version="1.1" xmlns="http://www.w3.org/2000/svg" xmlns:xlink="http://www.w3.org/1999/xlink" x="0px" y="0px"
	 viewBox="0 0 1000 1000" style="enable-background:new 0 0 1000 1000;" xml:space="preserve">
<style type="text/css">
	.st0{fill:#FFE430;}
	.st1{fill:#3D2611;}
	.st2{fill:#D38D4F;}
	.st3{fill:#E09851;}
	.st4{fill:none;stroke:#000000;stroke-width:3.786;stroke-linecap:round;stroke-linejoin:round;stroke-miterlimit:10;}
	.st5{fill:#B2743B;}
	.st6{fill:none;stroke:#35200D;stroke-width:7.572;stroke-linecap:round;stroke-linejoin:round;stroke-miterlimit:10;}
	.st7{fill:#D17B50;}
	.st8{fill:#17D5D1;}
	.st9{fill:#331C08;}
	.st10{fill:#663E19;}
	.st11{fill:#4F2E12;}
	.st12{fill:none;stroke:#3F230E;stroke-width:8.834;stroke-linecap:round;stroke-miterlimit:10;}
	.st13{fill:none;stroke:#FFFFFF;stroke-width:11.8799;stroke-linecap:round;stroke-miterlimit:10;}
	.st14{fill:#8E5323;}
</style>
<g id="man2_1_">
	<path id="shirt_1_" class="st0" d="M190.18,892.74V606.9c22.72-98.44,143.87-113.58,143.87-113.58h107.27
		c0,0,153.96-3.79,160.27,103.48c6.31,107.27,8.2,294.68,8.2,294.68L190.18,892.74z"/>
	<path id="hair_x5F_back_1_" class="st1" d="M477.28,300.86c0,0,29.03-104.75-32.81-133.77c0,0,7.57-66.89-131.25-35.34
		c0,0-44.17,17.67-51.74-1.26s-13.88,36.6,3.79,56.79s-16.41,84.55,13.88,152.7"/>
	<g id="face_1_">
		<path class="st2" d="M352.35,398.04c0,0,10.1,76.98-13.88,92.13s65.62,54.27,102.22,5.05c0,0-29.03-37.86-27.76-100.96"/>
		<path class="st2" d="M477.28,270.58c0,0,15.14-26.5,22.72,0s-18.93,46.69-20.19,49.22"/>
		<path class="st2" d="M277.89,278.15c0,0-30.29-25.24-26.5,6.31s30.29,45.43,30.29,45.43"/>
		<g>
			<path class="st3" d="M483.59,294.83c0,77.78-35.28,141.43-107.27,137.28c-65.62-3.79-104.48-59.5-104.48-137.28
				s47.28-123.15,105.75-123.15S483.59,217.05,483.59,294.83z"/>
		</g>
	</g>
	<g id="eyes_1_">
		<path class="st4" d="M327.11,280.67c1.26-6.31,10.94-37.86,22.72-2.52"/>
		<path class="st4" d="M399.55,277.84c0,0,18.6-41.03,22.7,2.68"/>
	</g>
	<g id="nose_1_">
		<ellipse class="st5" cx="376.32" cy="302.12" rx="8.83" ry="27.76"/>
	</g>
	<path id="mouth_1_" class="st4" d="M357.39,358.91c0,0,32.81,5.05,64.36-20.19"/>
	<g id="eyebrows_1_">
		<path class="st6" d="M306.28,243.44c0,0,12.62-18.93,37.86-17.67"/>
		<path class="st6" d="M448.26,243.44c0,0-14.09-18.93-42.28-17.67"/>
	</g>
	<path id="hair_x5F_front_1_" class="st1" d="M448.26,187.28c0,0-107.27,27.76-148.92-8.83s119.89-12.62,119.89-12.62L448.26,187.28
		z"/>
	<g id="cheeks_1_">
		<circle class="st7" cx="315.82" cy="322.51" r="19.01"/>
		<circle class="st7" cx="449.44" cy="318.34" r="19.01"/>
	</g>
	<g id="arms">
		<polyline class="st2" points="747.53,576.33 562.47,526.67 568.15,615.1 689.3,618.89 		"/>
		<polygon class="st2" points="190.18,655.48 281.67,665.58 253.91,892.74 176.93,892.74 		"/>
	</g>
</g>
<g id="man2">
	<path id="shirt" class="st8" d="M589.42,614.65c0,0-89.42-9.65-126.02,62.29S417.97,894,417.97,894h395
		c0,0,15.14-281.42-124.94-290.26"/>
	<path id="hair_x5F_back" class="st9" d="M573.19,263c0,0-37.86,80.77-37.86,99.7c0,0.9,43.92-43.12,59.31-37.86
		c55.29,18.88,148.15,105.41,148.15,105.41s26.05-33.48,23.49-59.98c-3.79-39.12-18.93-56.79-18.93-56.79L573.19,263z"/>
	<g id="face">
		<path class="st10" d="M569.41,506.57c0,0,37.86,68.15,21.45,97.17c-16.41,29.03,71.93,53,97.17,0c0,0-30.29-36.6-12.62-100.96"/>
		<path class="st10" d="M529.51,372.35c-10.83,43.76-40.55,86.13-17.07,126.88c16.58,28.79,35.38,36.34,91.55,33.59
			c74-3.61,114.19-42.4,140.75-107.2c28.88-70.47-15.05-145.77-74.48-160.48C610.82,250.44,547.81,298.43,529.51,372.35z"/>
		<path class="st10" d="M705.6,433.64c0,0,56.35-20.13,59.99,8.41c4.31,33.8-75.64,51.53-75.64,51.53"/>
	</g>
	<path id="arm" class="st3" d="M711.56,582.45c0,0-34.98,14.27-79.91,122.16c-18.8,45.14-72,54.44-72,54.44s-13.3,23.9,53.21-6.64
		c0,0-64.85,33.19-53.21,39.83c11.64,6.64,48.22-26.56,48.22-26.56s-34.92,27.88-28.27,33.19c6.65,5.31,36.58-26.56,36.58-26.56
		s-26.61,30.54-19.96,33.19c6.65,2.66,31.6-31.87,31.6-31.87s-16.84,30.54-11.85,34.52c4.99,3.98,26.82-38.51,26.82-38.51
		s13.3-34.52,24.94-41.16s84.07-81,92.39-112.86C768.44,583.78,755.43,562.53,711.56,582.45z"/>
	<g id="eyes">
		<circle cx="641.97" cy="394.88" r="8.2"/>
		<circle cx="568.78" cy="362.07" r="8.2"/>
	</g>
	
		<ellipse id="nose" transform="matrix(0.4233 -0.906 0.906 0.4233 -32.8662 765.8933)" class="st11" cx="585.18" cy="408.76" rx="24.61" ry="8.2"/>
	<g id="eyebrows">
		<path class="st12" d="M645.76,364.59c0,0,26.5-12.62,32.81,26.5"/>
		<path class="st12" d="M594.02,348.19c0,0-10.59-30.8-41.89-16.66"/>
	</g>
	<path id="mouth" class="st13" d="M547.95,461.14c2.91,2.07,12.62,17.4,50.48,5.8"/>
	<g id="hair_x5F_front">
		<path class="st9" d="M550.26,230.45c0,0,21.24-40.61,40.97-19.34c0,0,47.04-21.27,51.59,15.47c0,0,77.39,7.73,59.18,32.87
			c0,0,53.11,19.34,39.45,42.54c0,0,44.01,50.28,1.52,40.61c0,0-34.9,20.16-50.08-12.16c0,0-51.59,17.31-50.83-15.24
			c0,0-34.14,25.46-37.18,0.32c0,0-34.9,0-24.28-23.2c0,0-37.94,3.87-25.8-23.2C554.81,269.13,519.91,255.59,550.26,230.45z"/>
		<path class="st9" d="M735.99,322.32c0,0-15.14,17.67,0,23.98c0,0-11.18,37.89,3.79,30.29c0,0,0,21.45,1.26,31.55
			c1.26,10.1-2.52,25.24,13.88,3.79c16.41-21.45,11.36-50.48,11.36-50.48S747.35,312.22,735.99,322.32z"/>
	</g>
	<g id="cheeks">
		<ellipse class="st14" cx="643.07" cy="444.66" rx="20.68" ry="21.29"/>
		<path class="st14" d="M546.93,406.86c0,11.76-39.67,30.86-35.57,20.2c6.08-15.81,8.81-35.4,14.9-41.49
			C534.33,377.5,546.93,395.11,546.93,406.86z"/>
	</g>
</g>
</svg>
