<?xml version="1.0" encoding="utf-8"?>
<!-- Generator: Adobe Illustrator 23.0.1, SVG Export Plug-In . SVG Version: 6.00 Build 0)  -->
<svg version="1.1" id="doctor" xmlns="http://www.w3.org/2000/svg" xmlns:xlink="http://www.w3.org/1999/xlink" x="0px" y="0px"
	 viewBox="0 0 1000 1000" style="enable-background:new 0 0 1000 1000;" xml:space="preserve">
<style type="text/css">
	.st0{fill:#FF4676;}
	.st1{fill:#603F1F;}
	.st2{fill:#6B4720;}
	.st3{fill:#CEA07A;}
	.st4{fill:#DDAC7F;}
	.st5{fill:#CC966A;}
	.st6{fill:none;stroke:#FFFFFF;stroke-width:8.9486;stroke-linecap:round;stroke-miterlimit:10;}
	.st7{fill:none;stroke:#4F3317;stroke-width:6.2235;stroke-linecap:round;stroke-miterlimit:10;}
	.st8{fill:#CC8D6D;}
	.st9{fill:#EDEDED;}
	.st10{fill:#E5E5E5;}
	.st11{fill:#F4F4F4;}
	.st12{fill:none;stroke:#0F1C70;stroke-width:7;stroke-miterlimit:10;}
	.st13{fill:#8C8C8C;}
	.st14{fill:none;stroke:#8C8C8C;stroke-width:7;stroke-miterlimit:10;}
	.st15{fill:#0F1C70;}
</style>
<polygon id="shirt" class="st0" points="522.69,405.8 479.44,400.22 434.79,403.01 377.59,439.28 455.72,638.81 536.65,442.07 "/>
<g id="hair_x5F_back">
	<path class="st1" d="M558.2,165.71c0,0,52.9,5.19,58.09-20.74s-20.74-45.64-20.74-45.64s-6.22-45.64-35.27-35.27
		c-29.04,10.37-64.84,30.29-47.98,48.34"/>
	<path class="st2" d="M499.47,134.55l62.73,130.56c0,0,26.43-2.84,35.81-44.47c16.6-73.64-39.42-90.24-39.42-90.24
		s-63.27-75.72-132.77-20.74c-60.62,47.95-46.68,110.99-46.68,110.99"/>
</g>
<path id="neck" class="st3" d="M430.94,318.48c0,0,18.67,64.31,4.15,84.02c-14.52,19.71,38.38,19.71,63.27,0
	c0,0-33.19-69.5-19.71-96.46"/>
<path id="face" class="st4" d="M567.83,255.37c-27.91,50.32-57.86,66.13-121.26,75.22c-84.74,12.15-70.63-39.95-70.53-100.61
	c0.1-65.02,74.5-127.09,126.86-113.35S599.36,198.51,567.83,255.37z"/>
<g id="eyes">
	<ellipse cx="487.3" cy="216.89" rx="7.66" ry="7.23"/>
	<ellipse cx="429.33" cy="201.94" rx="7.66" ry="7.23"/>
</g>
<path id="nose" class="st5" d="M435.78,235.68c-3.02,11.5-9.17,22.05,3.58,23.2c11.29,1.01,11.49-6.95,14.51-18.45
	s1.41-21.89-3.58-23.2C445.29,215.92,438.8,224.18,435.78,235.68z"/>
<path id="mouth" class="st6" d="M418.56,276.98c0,0,15.02,17.46,36.03,5.43"/>
<path id="ear" class="st4" d="M566.89,242.42c0,0,35.27-21.78,30.08,4.15s-47.36,36.75-47.36,36.75"/>
<g id="eyebrows">
	<path class="st7" d="M488.06,181.23c0,0,40.61-0.68,40.45,26.97"/>
	<path class="st7" d="M400.38,179.5c0,0,28.57-28.87,47.78-8.99"/>
</g>
<g id="hair_x5F_front">
	<path class="st2" d="M496.47,115.17c0,0-29.5,35.12,29.5,97.44c50.67,53.51-4.72,108.65-4.72,108.65s46.71-31.61,56.92-92.79
		c10.21-61.18-36.45-113.3-36.45-113.3S511.22,100.44,496.47,115.17z"/>
	<path class="st2" d="M496.36,114.84c0,0-80.41,62.79-101.65,73.64c-19.55,9.99-26.97,94.39-26.97,94.39s-19.02-107.55,30.17-154.11
		C469.43,61.08,487.32,88.44,496.36,114.84z"/>
</g>
<g id="cheeks">
	<ellipse class="st8" cx="504.47" cy="266.07" rx="16.78" ry="16.81"/>
	<ellipse class="st8" cx="398" cy="240.56" rx="16.78" ry="16.81"/>
</g>
<g id="coat_1_">
	<path class="st9" d="M581.3,497.89L632.92,936H465.49l-8.37-389.28l65.58-139.53c0,0,72.55-19.53,152.08,128.36l60,85.11
		l-40.46,48.83L581.3,497.89z"/>
	<path id="coat" class="st10" d="M405.58,420.88l57.11,121.65L465.49,936H334.33C334.33,936,265.96,463,405.58,420.88z"/>
	<path class="st11" d="M492,387.86c0,0,69.92,8.37,48.83,48.63c-15.35,29.3-23.72,26.51-23.72,26.51l-55.81,75.34l39.07-94.88
		C500.37,443.47,505.95,416.96,492,387.86z"/>
	<path class="st11" d="M440.41,384.08c0,0-46.08,18.93-48.87,45.44c-2.79,26.51,12.56,20.93,12.56,20.93s58.5,96.63,64.18,106.04
		l-40.48-95.16c-3.61-9.77-3.89-20.46-0.79-30.41l12.7-40.82L440.41,384.08z"/>
	<path class="st10" d="M558.71,538.35c0,0-41.6-9.77-54.16,0S555.66,552.3,558.71,538.35z"/>
	<path class="st11" d="M504.56,538.35c0,0,40.46,6.98,51.63,0c11.16-6.98,2.79,68.37-11.16,69.76c-13.95,1.4-30.7,0-30.7,0
		S490.6,594.16,504.56,538.35z"/>
</g>
<g id="hands">
	<path class="st4" d="M606.18,693.26l-32.55,21.62c0,0-77.5,15.5-55.8,18.6s43.4-6.2,43.4-6.2s-58.9,24.8-43.4,24.8
		c15.5,0,49.6-18.6,49.6-18.6s-55.8,34.1-40.3,31c15.5-3.1,46.5-24.8,46.5-24.8s-37.2,34.1-31,34.1s43.4-27.9,43.4-27.9
		s18.6-15.5,27.9-9.3s19,1.94,19,1.94"/>
	<path class="st4" d="M306.84,850.33c0,0-5.1,79.95,0,66.34c8.7-23.19,6.8-44.23,6.8-44.23s-1.7,52.73,1.7,49.33
		s6.8-51.03,6.8-51.03s-1.7,49.33,0,51.03s6.8,5.1,6.8-42.53c0-49.86-0.9,38.2,3.8,36.96c4.7-1.24,4.7-42.06,4.7-42.06
		s7.1-17.78,10.21,10.21c1.7,15.31,10.21-11.91,6.8-25.52c-3.22-12.89-10.21-34.02-10.21-34.02l-27.22-10.21L306.84,850.33z"/>
</g>
<g id="coat_x5F_sleeves">
	<path class="st9" d="M387.35,557.88l-26.51,286.03l-60,11.16c0,0,24.97-359.98,39.07-351.61
		C384.73,530.09,387.35,557.88,387.35,557.88z"/>
	<path class="st11" d="M620.66,750.43l-32.71-55.35l99.45-88.9c0,0,66.19-4.35,49.56,37.92
		C720.33,686.37,620.66,750.43,620.66,750.43z"/>
</g>
<g id="stethoscope">
	<path class="st12" d="M486.97,375.94c0,0,60.53-21.44,57.03,113.06"/>
	<path class="st12" d="M439.5,385.5c0,0-63,5-35.5,124.5c0,0-43,29,0,83"/>
	<path class="st12" d="M455.5,571.5c-0.61,6.86-6.54-72.09-50.5-60.5"/>
	<circle class="st13" cx="545" cy="491" r="14"/>
	<path class="st14" d="M403.63,592.24c0,0,20.87,38.26,33.87,19.26"/>
	<path class="st14" d="M454.58,568.35c0,0,7.92,30.15-9.08,31.15"/>
	<ellipse class="st15" cx="445.5" cy="599" rx="3" ry="5.5"/>
	<ellipse transform="matrix(0.7996 -0.6005 0.6005 0.7996 -279.4464 385.5645)" class="st15" cx="438" cy="611.5" rx="3" ry="5.5"/>
</g>
</svg>
