<svg id="Layer_2" data-name="Layer 2" xmlns="http://www.w3.org/2000/svg" viewBox="0 0 542.29 545.14">
  <defs>
    <style>
      .cls-1 {
        fill: #ba803f;
      }

      .cls-2 {
        fill: #c4055b;
      }

      .cls-3 {
        fill: #ff006a;
      }

      .cls-4 {
        fill: #fec478;
      }

      .cls-5 {
        fill: #e09f51;
      }

      .cls-6 {
        fill: #ffe430;
      }

      .cls-7 {
        fill: #17d5d1;
      }
    </style>
  </defs>
  <g>
    <path class="cls-1" d="M277.16,326.55s14.42-8.09,40.91,10.83c27,19.29,4.31,101.14,79,170.05s-28.71,58.86-28.71,58.86L253.47,447.14Z" transform="translate(-228.85 -204.42)"/>
    <path class="cls-1" d="M725.44,326.55s-14.42-8.09-40.91,10.83c-27,19.29-4.31,101.14-78.95,170.05s28.71,58.86,28.71,58.86L749.13,447.14Z" transform="translate(-228.85 -204.42)"/>
    <path class="cls-2" d="M575.62,297.68v-4.53c0-40.08-34-73-75.62-73s-75.62,32.89-75.62,73v4.53c0,19.29,8.32,38.19,22.31,51.8l25.71,24.58-42,40.45c-7.56,7.18-7.94,19.28-.75,26.47a18.29,18.29,0,0,0,26.47.75L500,400.14l43.85,41.59a18.67,18.67,0,0,0,12.86,5.3,18.12,18.12,0,0,0,13.61-6c7.19-7.19,6.81-19.29-.75-26.47l-42-40.45,25.71-24.58C567.3,335.87,575.62,317,575.62,297.68Zm-37.81,0a34.7,34.7,0,0,1-10.59,24.58L500,348l-27.22-25.71a34.7,34.7,0,0,1-10.59-24.58v-4.53c0-19.28,17-35.16,37.81-35.16s37.81,15.87,37.81,35.16Z" transform="translate(-228.85 -204.42)"/>
    <path class="cls-3" d="M575.62,281.93v-4.54c0-40.08-34-73-75.62-73s-75.62,32.89-75.62,73v4.54c0,19.28,8.32,38.18,22.31,51.79L472.4,358.3l-42,40.45c-7.56,7.19-7.94,19.28-.75,26.47a18.3,18.3,0,0,0,26.47.76L500,384.39,543.85,426a18.67,18.67,0,0,0,12.86,5.3,18.12,18.12,0,0,0,13.61-6c7.19-7.19,6.81-19.28-.75-26.47l-42-40.45,25.71-24.58C567.3,320.11,575.62,301.21,575.62,281.93Zm-37.81,0a34.69,34.69,0,0,1-10.59,24.57L500,332.21,472.78,306.5a34.69,34.69,0,0,1-10.59-24.57v-4.54c0-19.28,17-35.16,37.81-35.16s37.81,15.88,37.81,35.16Z" transform="translate(-228.85 -204.42)"/>
    <g>
      <path class="cls-4" d="M738,317.84A33.23,33.23,0,0,1,771.15,351V490.42A82.24,82.24,0,0,1,747,548.72c-10.26,10.27-36.21,35.11-46.81,45.71a101.42,101.42,0,0,0-29.48,71.21v34.23a16.4,16.4,0,0,1-16.56,16.56H505.05V563.29c0-18.22,7.95-35.11,17.89-45,.33-.66,26.83-27.16,51-51.34C594.81,446,614,427.15,614.36,426.82a32.72,32.72,0,0,1,48.69-2c11.92,9.94,12.59,33.46,4.3,42.07a4,4,0,0,1-1.65,1.66l-55.39,56.67c-6.63,6.63-9.56,6-2.93,12.67,5.63,6.29,17.55,6.29,23.18,0,37.43-37.43,24.7-24.55,56.83-56.68A49.46,49.46,0,0,0,702,446.11L704.9,351A33.22,33.22,0,0,1,738,317.84Z" transform="translate(-228.85 -204.42)"/>
      <path class="cls-5" d="M295.1,351,298,446.11a49.46,49.46,0,0,0,14.58,35.11c32.13,32.13,19.4,19.25,56.83,56.68,5.63,6.29,17.55,6.29,23.18,0,6.63-6.62,3.7-6-2.93-12.67L334.3,468.56a4,4,0,0,1-1.65-1.66c-8.29-8.61-7.62-32.13,4.3-42.07a32.72,32.72,0,0,1,48.69,2c.33.33,19.55,19.21,40.41,40.08,24.18,24.18,50.68,50.68,51,51.34,9.94,9.94,17.89,26.83,17.89,45V716.43H345.89a16.4,16.4,0,0,1-16.56-16.56V665.64a101.42,101.42,0,0,0-29.48-71.21C289.25,583.83,263.3,559,253,548.72a82.24,82.24,0,0,1-24.19-58.3V351a33.13,33.13,0,1,1,66.25,0Z" transform="translate(-228.85 -204.42)"/>
      <path class="cls-6" d="M690.23,701.75v45.93a1.88,1.88,0,0,1-1.88,1.88h-195a1.88,1.88,0,0,1-1.88-1.88V701.75a18.45,18.45,0,0,1,18.44-18.44H671.79A18.45,18.45,0,0,1,690.23,701.75Z" transform="translate(-228.85 -204.42)"/>
      <path class="cls-7" d="M321.9,683.31H488.82a15.91,15.91,0,0,1,15.91,15.91v50.34H306V699.22A15.91,15.91,0,0,1,321.9,683.31Z" transform="translate(-228.85 -204.42)"/>
    </g>
  </g>
</svg>
