<svg id="Layer_4" data-name="Layer 4" xmlns="http://www.w3.org/2000/svg" viewBox="0 0 599.86 545.93">
  <defs>
    <style>
      .cls-1 {
        fill: #1d0072;
      }

      .cls-2 {
        fill: #2608a0;
      }

      .cls-3 {
        fill: #d6d6d6;
      }

      .cls-4 {
        fill: #b6b9ba;
      }

      .cls-5 {
        fill: #d8d8d8;
      }

      .cls-6 {
        fill: #eaeaea;
      }
    </style>
  </defs>
  <g id="book">
    <path class="cls-1" d="M260.87,285.94H739.13c33.58,0,60.8,34.45,60.8,76.95V673.26c0,42.5-27.22,77-60.8,77H260.87c-33.58,0-60.8-34.45-60.8-77V362.89C200.07,320.39,227.29,285.94,260.87,285.94Z" transform="translate(-200.07 -204.28)"/>
    <path class="cls-2" d="M500.59,746.66c15.52-.23,30.37-7.19,41.48-19.43,10.17-11.48,17.84-30.32,17.17-46.81-.68-17.14-5.66-34.9-17.17-46.83s-25.59-19.41-41.48-19.41c-15.52.23-30.36,7.17-41.47,19.41-10.18,11.48-17.85,30.32-17.19,46.83.68,17.12,5.67,34.87,17.19,46.81s25.58,19.4,41.47,19.4Z" transform="translate(-200.07 -204.28)"/>
    <path class="cls-3" d="M500.36,719.77c15.92,0,31.17-19.44,30.43-42.29s-13.38-42.28-30.43-42.28c-15.92,0-31.17,19.44-30.44,42.28S483.3,719.77,500.36,719.77Z" transform="translate(-200.07 -204.28)"/>
    <path class="cls-4" d="M263.53,259.4H736.26c16.32,0,29.54,16.34,29.54,36.49V663.21c0,20.16-13.22,36.5-29.54,36.5H263.53c-16.32,0-29.55-16.34-29.55-36.5V295.89C234,275.74,247.21,259.4,263.53,259.4Z" transform="translate(-200.07 -204.28)"/>
    <path class="cls-3" d="M474,700.87s25.42-13.3,25.91-52c-.49,37.73,27.3,52,27.3,52Z" transform="translate(-200.07 -204.28)"/>
    <path class="cls-5" d="M499.9,651.77s3.29-42.24,60-44.54,71.31,33,119.07,39.17S733,621,733,614.91V280.06s-4.46-37.67-36.93-37.67c-75.28,2.34-104.18-56.23-161.38-32.39-5.66,1.95-31.52,17.32-34.82,55.41C500,283.89,499.9,651.77,499.9,651.77Z" transform="translate(-200.07 -204.28)"/>
    <path class="cls-6" d="M499.9,651.77s-3.35-42.24-60-44.54-71.3,33-119.06,39.17S266.76,621,266.76,614.91V280.06s4.46-37.67,36.94-37.67C379,244.73,407.88,186.16,465.08,210c5.63,1.92,31.52,17.3,34.82,55.38C499.84,283.89,499.9,651.77,499.9,651.77Z" transform="translate(-200.07 -204.28)"/>
  </g>
</svg>
