<?xml version="1.0" encoding="utf-8"?>
<!-- Generator: Adobe Illustrator 23.0.1, SVG Export Plug-In . SVG Version: 6.00 Build 0)  -->
<svg version="1.1" id="Layer_3" xmlns="http://www.w3.org/2000/svg" xmlns:xlink="http://www.w3.org/1999/xlink" x="0px" y="0px"
	 viewBox="0 0 543.5 543.5" style="enable-background:new 0 0 543.5 543.5;" xml:space="preserve">
<style type="text/css">
	.st0{fill:#1D0072;}
	.st1{fill:#2608A0;}
	.st2{fill:#D6D6D6;}
	.st3{fill:#B6B9BA;}
	.st4{fill:#D8D8D8;}
	.st5{fill:#EAEAEA;}
</style>
<g id="book">
	<path class="st0" d="M70.4,121h402.6c28.3,0,51.2,27.1,51.2,60.6v244.6c0,33.5-22.9,60.7-51.2,60.7H70.4
		c-28.3,0-51.2-27.1-51.2-60.7V181.6C19.2,148.1,42.2,121,70.4,121z"/>
	<path class="st1" d="M272.2,484c13.1-0.2,25.6-5.7,34.9-15.3c8.6-9,15-23.9,14.5-36.9c-0.6-13.5-4.8-27.5-14.5-36.9
		s-21.5-15.3-34.9-15.3c-13.1,0.2-25.6,5.6-34.9,15.3c-8.6,9-15,23.9-14.5,36.9c0.6,13.5,4.8,27.5,14.5,36.9
		C247,478.1,258.9,484,272.2,484L272.2,484z"/>
	<path class="st2" d="M272,462.8c13.4,0,26.2-15.3,25.6-33.3c-0.6-18-11.3-33.3-25.6-33.3c-13.4,0-26.2,15.3-25.6,33.3
		C247,447.5,257.7,462.8,272,462.8z"/>
	<path class="st3" d="M72.7,100.1h398c13.7,0,24.9,12.9,24.9,28.8v289.4c0,15.9-11.1,28.8-24.9,28.8h-398
		c-13.7,0-24.9-12.9-24.9-28.8V128.8C47.8,112.9,58.9,100.1,72.7,100.1z"/>
	<path class="st2" d="M249.9,447.9c0,0,21.4-10.5,21.8-41c-0.4,29.7,23,41,23,41H249.9z"/>
	<path class="st4" d="M271.7,409.2c0,0,2.8-33.3,50.5-35.1s60,26,100.2,30.9c40.2,4.9,45.5-20,45.5-24.8V116.3
		c0,0-3.8-29.7-31.1-29.7c-63.4,1.8-87.7-44.3-135.9-25.5c-4.8,1.5-26.5,13.6-29.3,43.7C271.7,119.4,271.7,409.2,271.7,409.2z"/>
	<path class="st5" d="M271.7,409.2c0,0-2.8-33.3-50.5-35.1s-60,26-100.2,30.9c-40.2,4.9-45.5-20-45.5-24.8V116.3
		c0,0,3.8-29.7,31.1-29.7c63.4,1.8,87.7-44.3,135.9-25.5c4.7,1.5,26.5,13.6,29.3,43.6C271.6,119.4,271.7,409.2,271.7,409.2z"/>
</g>
</svg>
