<svg id="Layer_11" data-name="Layer 11" xmlns="http://www.w3.org/2000/svg" viewBox="0 0 661.71 569.86">
  <defs>
    <style>
      .cls-1 {
        fill: #ff006a;
      }

      .cls-2 {
        fill: #00dcd5;
      }

      .cls-3 {
        fill: #ffe430;
      }

      .cls-4 {
        fill: #17d5d1;
      }

      .cls-5 {
        fill: #19b2aa;
      }

      .cls-6 {
        fill: #a1e2dc;
      }

      .cls-7 {
        fill: #74e8e0;
      }

      .cls-8 {
        fill: #a8efe8;
      }

      .cls-9 {
        fill: none;
        stroke: #19b2aa;
        stroke-miterlimit: 10;
        stroke-width: 10.54px;
      }

      .cls-10 {
        fill: #1d0072;
      }

      .cls-11 {
        fill: #836ef9;
      }

      .cls-12 {
        fill: #ff4676;
      }

      .cls-13 {
        fill: #f26ba2;
      }
    </style>
  </defs>
  <g>
    <path class="cls-1" d="M333.66,596.4a9,9,0,0,1-6.43-15.21l11.14-11.47a9,9,0,1,1,12.86,12.48l-11.14,11.47A8.91,8.91,0,0,1,333.66,596.4Z" transform="translate(-173.43 -201.76)"/>
    <path class="cls-2" d="M711.69,331.47a9,9,0,0,1-6.43-15.2l11.15-11.48a9,9,0,0,1,12.86,12.48l-11.15,11.48A8.92,8.92,0,0,1,711.69,331.47Z" transform="translate(-173.43 -201.76)"/>
    <path class="cls-3" d="M286.56,346.64a9,9,0,0,1-6.42-15.2L291.28,320a9,9,0,1,1,12.85,12.48L293,343.92A8.92,8.92,0,0,1,286.56,346.64Z" transform="translate(-173.43 -201.76)"/>
    <path class="cls-2" d="M477.07,603.27a9,9,0,0,1-9-9V454.2a9,9,0,0,1,17.92,0V594.31A9,9,0,0,1,477.07,603.27Z" transform="translate(-173.43 -201.76)"/>
    <path class="cls-2" d="M490.57,389.22h-.14a9,9,0,1,1,0-17.92h.14a9,9,0,0,1,0,17.92Z" transform="translate(-173.43 -201.76)"/>
    <path class="cls-3" d="M442,332.17h-.18a9,9,0,0,1,0-17.92H442a9,9,0,0,1,0,17.92Z" transform="translate(-173.43 -201.76)"/>
    <path class="cls-1" d="M278.56,494.13a8.94,8.94,0,0,1-6.43-2.72L176,392.33a9,9,0,0,1,12.86-12.48L285,478.93a9,9,0,0,1-6.43,15.2Z" transform="translate(-173.43 -201.76)"/>
    <path class="cls-3" d="M290.06,539.53a9,9,0,0,1-6.41-15.23l.1-.1a9,9,0,0,1,12.82,12.53l-.1.1A9,9,0,0,1,290.06,539.53Z" transform="translate(-173.43 -201.76)"/>
    <path class="cls-3" d="M730,542.82a9,9,0,0,1-6.42-15.2l96.17-99.07A9,9,0,1,1,832.61,441L736.43,540.1A8.92,8.92,0,0,1,730,542.82Z" transform="translate(-173.43 -201.76)"/>
    <path class="cls-1" d="M529.87,466.89a8.9,8.9,0,0,1-6.39-2.68l-.1-.09a9,9,0,1,1,12.78-12.57l.1.1a9,9,0,0,1-6.39,15.24Z" transform="translate(-173.43 -201.76)"/>
    <path class="cls-1" d="M730.45,604a8.94,8.94,0,0,1-6.39-2.68l-.1-.1a9,9,0,1,1,12.78-12.56l.1.1A9,9,0,0,1,730.45,604Z" transform="translate(-173.43 -201.76)"/>
    <path class="cls-3" d="M584.75,541.39a8.94,8.94,0,0,1-6.43-2.72l-.1-.1a9,9,0,1,1,12.86-12.48l.1.1a9,9,0,0,1-6.43,15.2Z" transform="translate(-173.43 -201.76)"/>
    <path class="cls-2" d="M574.54,351.22a8.95,8.95,0,0,1-7.77-13.39L635.7,217a9,9,0,0,1,15.56,8.88L582.33,346.71A9,9,0,0,1,574.54,351.22Z" transform="translate(-173.43 -201.76)"/>
    <path class="cls-3" d="M551.35,392a9,9,0,0,1-4.59-1.27l-.12-.07a9,9,0,0,1,9.2-15.38l.12.07A9,9,0,0,1,551.35,392Z" transform="translate(-173.43 -201.76)"/>
    <path class="cls-2" d="M653.16,649.8a8.92,8.92,0,0,1-4.62-1.29l-.12-.07a9,9,0,1,1,9.25-15.35l.12.07a9,9,0,0,1-4.63,16.64Z" transform="translate(-173.43 -201.76)"/>
    <path class="cls-2" d="M379.77,351.22A8.94,8.94,0,0,1,372,346.7L303.05,225.92A9,9,0,0,1,318.61,217l68.93,120.78a8.95,8.95,0,0,1-7.77,13.4Z" transform="translate(-173.43 -201.76)"/>
    <path class="cls-1" d="M403,392a9,9,0,0,1-4.63-16.64l.12-.07a9,9,0,0,1,9.23,15.36l-.12.07A9,9,0,0,1,403,392Z" transform="translate(-173.43 -201.76)"/>
    <path class="cls-1" d="M220.5,538.18a9,9,0,0,1-4.62-16.63l.12-.07a9,9,0,1,1,9.23,15.35l-.12.08A9,9,0,0,1,220.5,538.18Z" transform="translate(-173.43 -201.76)"/>
    <path class="cls-3" d="M426.17,443.86a9,9,0,0,1-4.66-16.62l.12-.08a9,9,0,0,1,9.29,15.33l-.12.07A8.9,8.9,0,0,1,426.17,443.86Z" transform="translate(-173.43 -201.76)"/>
    <path class="cls-1" d="M570.29,587.72a9,9,0,0,1-8.95-9c0-69.37,27.67-116.27,50.89-143.4,25.24-29.49,50.44-42.45,51.5-43a9,9,0,0,1,8.11,16c-.38.19-23.64,12.32-46.51,39.27-30.58,36-46.08,80.14-46.08,131.14A9,9,0,0,1,570.29,587.72Z" transform="translate(-173.43 -201.76)"/>
    <path class="cls-3" d="M393.42,584.26a9,9,0,0,1-9-9c0-36.44-8.1-69.77-24.06-99.08a9,9,0,1,1,15.73-8.57c17.41,32,26.24,68.19,26.24,107.65A9,9,0,0,1,393.42,584.26Z" transform="translate(-173.43 -201.76)"/>
    <path class="cls-3" d="M536.08,277.54c0-13.68-10.76-24.77-24-24.77s-24,11.09-24,24.77,10.76,24.77,24,24.77S536.08,291.22,536.08,277.54Z" transform="translate(-173.43 -201.76)"/>
    <path class="cls-2" d="M662.33,536.35c0-13.68-10.76-24.76-24-24.76s-24,11.08-24,24.76,10.76,24.77,24,24.77S662.33,550,662.33,536.35Z" transform="translate(-173.43 -201.76)"/>
    <path class="cls-2" d="M323.83,412.72c0-11-8.63-19.86-19.29-19.86s-19.28,8.89-19.28,19.86,8.64,19.87,19.28,19.87S323.83,423.7,323.83,412.72Z" transform="translate(-173.43 -201.76)"/>
    <path class="cls-2" d="M245.39,604.05c0-11-8.63-19.86-19.29-19.86s-19.28,8.89-19.28,19.86,8.63,19.87,19.28,19.87S245.39,615,245.39,604.05Z" transform="translate(-173.43 -201.76)"/>
    <g>
      <path class="cls-1" d="M427,221.63c0-11-8.63-19.87-19.28-19.87s-19.28,8.89-19.28,19.87,8.63,19.86,19.28,19.86S427,232.6,427,221.63Z" transform="translate(-173.43 -201.76)"/>
      <path class="cls-1" d="M667.84,330.39c0-11-8.64-19.87-19.28-19.87s-19.29,8.9-19.29,19.87,8.64,19.86,19.29,19.86S667.84,341.36,667.84,330.39Z" transform="translate(-173.43 -201.76)"/>
    </g>
    <g id="Layer_2" data-name="Layer 2">
      <g id="Layer_1-2" data-name="Layer 1-2">
        <g id="play_safe_insta" data-name="play safe insta">
          <g id="female_condom" data-name="female condom">
            <path class="cls-4" d="M691.25,541.55A79.16,79.16,0,1,1,668.8,431.88a79.16,79.16,0,0,1,22.45,109.67Z" transform="translate(-173.43 -201.76)"/>
            <path class="cls-4" d="M416.49,674.65s50.86-55.58,84.2-109.38,55.92-107.13,55.92-107.13l132.14,87.2s-36.16,38.56-79.64,101.93-62.91,113-62.91,113Z" transform="translate(-173.43 -201.76)"/>
            <path class="cls-5" d="M683.44,538.58a71,71,0,1,1-20.15-98.37h0A71,71,0,0,1,683.44,538.58Z" transform="translate(-173.43 -201.76)"/>
            <path class="cls-4" d="M677,534.33a62.93,62.93,0,1,1-17.86-87.19A62.93,62.93,0,0,1,677,534.33Z" transform="translate(-173.43 -201.76)"/>
            <path class="cls-6" d="M500.09,741.41q16.43,10.29,32.15,21.64c3.13,2.25,6.92-2.42,3.77-4.71Q520.29,747,503.87,736.71C500.62,734.68,496.8,739.34,500.09,741.41Z" transform="translate(-173.43 -201.76)"/>
            <path class="cls-7" d="M451.22,699.35c18.58-12.35,33.27-29.44,46.09-47.51,12.5-17.62,24.24-35.87,35.78-54.15,11.7-18.51,22.69-37.43,32.57-56.94,8.94-17.63,17.76-35.7,31.44-50.2,5.77-6.09,13.2-11.87,21-15a29.72,29.72,0,0,1,11.8-2.44,24.18,24.18,0,0,1,8.59,2.25c3.39,2,4.93,4.17,6.3,8.15a38.75,38.75,0,0,1,1.6,12.75c-.08,7.74-2.22,16.58-5,24-6.76,18.14-17.28,34.85-28.33,50.65-11.8,16.9-24.74,33-37.54,49.09-14.41,18.13-28.77,36.44-41.17,56.07C528,686.27,521.92,696.58,519,708.39a90.36,90.36,0,0,0-1.87,14.2,64.76,64.76,0,0,1-1,7.46c-.4,2-.27,1.37-.1.8a23.07,23.07,0,0,1-.87,2.27c-.64,1.19-.73,1.43-.26.73l15.68-1.71-63.09-45.61,1.72,15.67c52.32-57.74,84.14-129.73,127.36-193.85,5.15-7.65,10.19-16.4,16.91-22.79a15.32,15.32,0,0,1,8.23-4.44c2-.23,1.23-.24,3.59.21-.65-.12.91.67.77.5,1.48,1.88,2.06,5,1.94,8.54a72.11,72.11,0,0,1-1.95,12.32,139,139,0,0,1-7.25,23.43c-13,32.33-35.18,59.69-58.8,85.17-14.8,16-30,31.72-40.21,51.12-9.56,18.15-11.61,39.19-21.64,57.12l17.22-4.11A103.21,103.21,0,0,1,495,697.58c-1.39-1.62-2.82-4.24-4.47-5.58l-.46-.64a16,16,0,0,1-.54,5.67,14.91,14.91,0,0,0,1.67-2.27c2.93-3.83,5.93-7.61,8.87-11.44,11.8-15.42,20.89-32.09,29.31-49.54,8.05-16.68,16.73-32.49,27.43-47.65,11-15.57,22.79-30.42,33.76-45.94,6.08-8.62,11.52-17.65,17.58-26.26,5.64-8.12,11.93-15.83,21.51-19.19l-15-9.38c1,14.91-9,29.77-17.3,42.38-10.31,15.75-21.45,30.93-32.69,46-22.82,30.61-46.15,61-64.26,94.78a287.65,287.65,0,0,0-13.24,28c-2.46,6.17-4,13.14.3,19,4.57,6.1,13.58,7.83,19.69,3a11.37,11.37,0,0,0,2.51-15.56c-3.42-4.75-10.79-6.24-15.56-2.51l-.74.53,5.45-2.06,6.2,2.64,2.06,5.45c-.74-3.4-.31,1.23-.54,1s1.1-2.78,1.26-3.17q1.29-3,2.61-6.11,2.66-6.08,5.62-12c3.81-7.69,8-15.21,12.32-22.59,8.67-14.63,18.47-28.63,28.42-42.37,20.63-28.46,42.67-56,61.53-85.67,10.24-16.1,19.77-33.14,18.49-52.88-.48-7.33-8.42-11.67-15-9.37-21,7.37-31.6,27.19-43.31,44.55S553.77,552,541.64,568.9a363.86,363.86,0,0,0-31.71,53.73c-4.37,9-8.7,18.15-13.7,26.88s-11.32,16.89-17.55,24.91c-3.67,4.77-8.77,9.82-10.1,15.87-1.46,6.76,1.67,12.08,5.76,17.22a124.35,124.35,0,0,0,27,25.25c6.31,4.33,13.48,2.42,17.17-4.19,9.43-16.87,11.64-36.49,20-53.81,8.51-17.66,22.59-32,35.82-46.23,25.54-27.38,50-57.12,64.34-92.1A180,180,0,0,0,647.4,509c2.35-9.93,4.06-20.36,1.41-30.38A26.25,26.25,0,0,0,626.48,459c-11.38-1.3-21.53,3.87-29.45,11.67-7.42,7.3-13,16.48-18.76,25s-11.16,17.09-16.52,25.77c-11.11,18-21.72,36.29-32.41,54.53-23,39.31-46.87,78.41-77.58,112.3-3.91,4.3-2.95,12.3,1.72,15.69l63.1,45.6c4.44,3.23,12.31,3.59,15.67-1.72,5.88-9.29,6.2-18.64,7.47-29.21,1.12-9.43,5.47-17.89,10.39-25.95,10.93-17.93,24-34.85,37-51.38,13.73-17.41,27.8-34.56,40.66-52.63,12.26-17.18,24.11-35.39,32.27-54.93,7.72-18.6,13.35-43,3.92-62.07-10.66-21.7-37.34-25.17-57.57-15.26-40.83,20-55.72,67.87-77,104.62-12.85,22.21-27.1,43.64-41.39,64.94-13.89,20.74-28.8,41.3-49.88,55.27-5,3.32-5.94,10.82-2.51,15.56a11.33,11.33,0,0,0,15.56,2.52Z" transform="translate(-173.43 -201.76)"/>
            <path class="cls-8" d="M466.43,712.37c7.21-4.42,14.21-9.21,21.1-14.1,10.75-7.76,22.6-16.21,30.41-27.12,6.37-8.91,12-18.52,17.89-27.73l19-29.38,37.9-58.73c13.47-20.89,26.08-44.9,47.47-58.78l-10.09-3.06c1.84,5.8-5.19,13.47-8.15,17.83q-7.56,11.13-15.54,22c-10.61,14.49-21.64,28.63-32.75,42.78-22.28,28.41-44.77,56.78-64.07,87.35-5.34,8.44-10.29,17.09-15.29,25.7-4.93,8.43-10.41,16.82-18,23.1-6.53,5.42,1.17,16.19,7.75,10.75,14.6-12.1,22.48-29.37,32.14-45.23,9.86-16.19,20.75-31.76,32-47,22.63-30.44,47-59.67,69.44-90.38,6.22-8.53,12.3-17.16,18.12-26,5.13-7.77,9.72-16,6.7-25.49-1.37-4.3-6.66-5.28-10.09-3.06-19,12.34-31.07,31.82-43.09,50.46l-38.38,59.45L513,654.48c-3.9,6.06-7.63,11.73-12.88,16.71a176,176,0,0,1-15.85,13c-8.25,6.15-16.83,12-25.64,17.41-7.28,4.45.52,15.17,7.76,10.74Z" transform="translate(-173.43 -201.76)"/>
            <path class="cls-8" d="M477.26,714.83l21.21-14.39c7.07-4.79-.69-15.53-7.75-10.74l-21.19,14.42c-7.07,4.79.7,15.54,7.75,10.74Z" transform="translate(-173.43 -201.76)"/>
            <path class="cls-8" d="M493,727.82q56.67-81.52,109-165.93,15-24.14,29.53-48.46c1.83-3.06-.39-7.44-3.38-8.74-3.63-1.61-6.88.28-8.74,3.37q-50.41,84-105.19,165.37-15.6,23.18-31.56,46.13c-4.83,7,5.45,15.33,10.33,8.31Z" transform="translate(-173.43 -201.76)"/>
            <rect class="cls-5" x="469.93" y="635.34" width="12.36" height="172.16" rx="6.17" transform="translate(-561.68 519.55) rotate(-56.57)"/>
            <circle class="cls-9" cx="451.03" cy="297.9" r="66.91"/>
          </g>
        </g>
      </g>
    </g>
    <g id="teal_condom" data-name="teal condom">
      <path class="cls-10" d="M414.33,492.46,274.66,589.3l17.4,25.1c7.22-2,11.85,6.8,8.34,12l13,18.71a10.4,10.4,0,0,1,1.2-.61c8.61-3.36,14.05,8.58,7.66,13.38l12.71,18.33a8,8,0,0,1,1.6-.81c8.78-3.43,14.26,9,7.31,13.64l12.79,18.46a7.18,7.18,0,0,1,2.19-1.38c9-3.54,14.6,9.85,6.59,14.06L371.5,729l139.71-96.86Z" transform="translate(-173.43 -201.76)"/>
      <circle class="cls-11" cx="219.48" cy="408.95" r="62.03"/>
      <circle class="cls-10" cx="219.48" cy="408.95" r="48.41"/>
      <path class="cls-10" d="M503.88,637.44c-3.7-5.44-3.11-10.1-2.69-13.51.36-2.85.56-4.41-1.07-6.81s-3.16-2.79-5.95-3.51c-3.34-.85-7.91-2-11.6-7.46s-3.11-10.11-2.67-13.52c.36-2.84.56-4.41-1.06-6.8s-3.17-2.79-6-3.51c-3.33-.85-7.9-2-11.6-7.46s-3.1-10.11-2.67-13.52c.37-2.84.57-4.41-1.06-6.8s-3.16-2.79-5.95-3.51c-3.34-.86-7.91-2-11.6-7.46s-3.1-10.11-2.66-13.52c.36-2.84.56-4.41-1.07-6.8s-3.17-2.8-6-3.51c-3.33-.86-7.89-2-11.59-7.46s-3.13-10.13-2.69-13.56c.36-2.83.56-4.39-1-6.74l8.12-5.54c3.7,5.44,3.11,10.11,2.67,13.53-.36,2.84-.56,4.4,1.06,6.77s3.14,2.76,5.92,3.48c3.34.85,7.91,2,11.63,7.49s3.14,10.17,2.7,13.59c-.36,2.83-.57,4.38,1,6.74s3.13,2.75,5.91,3.47c3.35.86,7.93,2,11.64,7.51s3.12,10.15,2.69,13.56c-.36,2.83-.56,4.39,1,6.75s3.14,2.76,5.91,3.47c3.35.86,7.94,2,11.65,7.51s3.12,10.15,2.68,13.57c-.36,2.82-.56,4.38,1.05,6.74s3.13,2.76,5.91,3.47c3.35.86,7.93,2,11.65,7.51s3.12,10.14,2.69,13.56c-.36,2.83-.55,4.39,1.06,6.75Z" transform="translate(-173.43 -201.76)"/>
      <path class="cls-10" d="M415.89,496.13a2.2,2.2,0,1,0-2.2-2.2A2.2,2.2,0,0,0,415.89,496.13Z" transform="translate(-173.43 -201.76)"/>
      <path class="cls-10" d="M431.91,523.34a78.54,78.54,0,0,1,6.58,7.3,2.14,2.14,0,0,0,3.09,0,2.05,2.05,0,0,0,.64-1.53,2.56,2.56,0,0,0-.64-1.56,74.75,74.75,0,0,0-6.58-7.31,2.2,2.2,0,0,0-3.09,3.1Z" transform="translate(-173.43 -201.76)"/>
    </g>
    <g id="pink_condom" data-name="pink condom">
      <path class="cls-12" d="M511.08,543.83,380.43,558,383,581.44c5.62,1.34,5.53,9,1.23,11.24l1.89,17.55a6.14,6.14,0,0,1,1.05,0c7.07.9,6.36,11,.24,11.92l1.87,17.16a5.31,5.31,0,0,1,1.38,0c7.2.92,6.34,11.41,0,12l1.87,17.25a6.35,6.35,0,0,1,2,0c7.46.94,6.27,12.09-.75,12l.88,8.18,130.65-14.15Z" transform="translate(-173.43 -201.76)"/>
      <circle class="cls-13" cx="279.41" cy="414.53" r="47.97"/>
      <circle class="cls-12" cx="279.7" cy="415.3" r="35.13"/>
      <path class="cls-12" d="M518.25,675.24a29.56,29.56,0,0,1,2.11-15.12,24.64,24.64,0,0,0-2.27-22.85,32.2,32.2,0,0,1-2.93-29.49,24.62,24.62,0,0,0-2.27-22.84,29.64,29.64,0,0,1-5.06-14.38A29.31,29.31,0,0,1,510,555.49a22.2,22.2,0,0,0,1.7-11.73l7.55-.74a29.47,29.47,0,0,1-2.14,15.14,21.86,21.86,0,0,0-1.68,11.65,22.26,22.26,0,0,0,4,11.13,32.2,32.2,0,0,1,2.93,29.49,24.62,24.62,0,0,0,2.27,22.84,32.24,32.24,0,0,1,2.94,29.49,22.21,22.21,0,0,0-1.67,11.72Z" transform="translate(-173.43 -201.76)"/>
      <path class="cls-12" d="M388,689.42a29.57,29.57,0,0,1,2-15.15,24.57,24.57,0,0,0-2.56-22.74A32.26,32.26,0,0,1,384.11,622a24.48,24.48,0,0,0-2.56-22.7,32.22,32.22,0,0,1-3.32-29.49,22.09,22.09,0,0,0,1.55-11.72l7.74-.85a29.63,29.63,0,0,1-2,15.22A21.87,21.87,0,0,0,384,584.08a22.13,22.13,0,0,0,4.09,11,32.26,32.26,0,0,1,3.32,29.52A24.49,24.49,0,0,0,394,647.34a32.36,32.36,0,0,1,3.32,29.57,22,22,0,0,0-1.55,11.65Z" transform="translate(-173.43 -201.76)"/>
      <path class="cls-12" d="M514.33,594v4.87a2.2,2.2,0,0,0,.63,1.54,2.19,2.19,0,0,0,3.76-1.54V594a2.24,2.24,0,0,0-.64-1.56,2.21,2.21,0,0,0-3.75,1.56Z" transform="translate(-173.43 -201.76)"/>
      <path class="cls-12" d="M509.5,546a29.84,29.84,0,0,1,.17,3.13,2,2,0,0,0,.2.86,1.65,1.65,0,0,0,.46.7,1.48,1.48,0,0,0,.7.46,1.54,1.54,0,0,0,.84.18,2.24,2.24,0,0,0,1.56-.64l.35-.44a2.17,2.17,0,0,0,.28-1.12,29.84,29.84,0,0,0-.17-3.13,2.22,2.22,0,0,0-.66-1.54,1.48,1.48,0,0,0-.7-.46,1.89,1.89,0,0,0-.84-.2,2.19,2.19,0,0,0-2.19,2.2Z" transform="translate(-173.43 -201.76)"/>
      <path class="cls-12" d="M382.88,580.78a16.79,16.79,0,0,0,1.39,11.15,2.2,2.2,0,0,0,4-1.69.89.89,0,0,0-.11-.52h0a13.47,13.47,0,0,1,0-2.2v-.7h-4.23l1.64,4.39a2.2,2.2,0,0,0,4.24-1.18h0l-1.67-4.39a2.31,2.31,0,0,0-4.39,0,15.77,15.77,0,0,0,0,5.73l4-1.69c0-.2-.2-.39-.29-.59s.16.44,0,0-.26-.73-.37-1.1-.2-.72-.29-1.12a1.17,1.17,0,0,1,0-.55v-.15a20,20,0,0,1,0-2.19v-.73c.06-.38.13-.76.22-1.14a2.19,2.19,0,1,0-4.23-1.16Z" transform="translate(-173.43 -201.76)"/>
      <path class="cls-12" d="M389.58,641.66l2.85,7.28a2.23,2.23,0,0,0,1,1.32,2.31,2.31,0,0,0,1.71.22,2.19,2.19,0,0,0,1.51-2.7l-2-6-4,1.71,2.77,5a2.19,2.19,0,0,0,4.08-1.18v-3.45a2.2,2.2,0,0,0-4.39,0v3.45l4.08-1.1-2.74-5a2.2,2.2,0,0,0-4,1.69l2,6,4.21-1.17-2.83-7.28a2.42,2.42,0,0,0-1-1.32,2.19,2.19,0,0,0-3.22,2.48h0Z" transform="translate(-173.43 -201.76)"/>
      <path class="cls-12" d="M398.6,670.2l-.4.62h0l-.22.26-1,1.1a10.38,10.38,0,0,0-1.8,2.37,5.44,5.44,0,0,0,.51,6.34l-.35-2.65h0l-.33.39c-.2.26-.44.51-.66.77s-.92,1-1.43,1.43a2.2,2.2,0,0,0,3.11,3.1h0a30.93,30.93,0,0,0,3.18-3.58,2.19,2.19,0,0,0-.33-2.65c-.31-.33.2.39,0,0v.17a1.13,1.13,0,0,1,0-.26h0a.81.81,0,0,1,0-.22v-.26c0-.11.24-.64,0-.33s.15-.27.18-.31l.26-.39c.33-.49-.29.3.11-.14s.24-.26.35-.41l.88-.92a11.92,11.92,0,0,0,1.67-2.2,2.19,2.19,0,0,0-3.55-2.58,1.9,1.9,0,0,0-.23.39Z" transform="translate(-173.43 -201.76)"/>
      <path class="cls-12" d="M397.24,677.86h0a1.64,1.64,0,0,0,.39.75,2,2,0,0,0,.61.57,3,3,0,0,0,1.69.24l.53-.22a2.14,2.14,0,0,0,.79-.79l.22-.52a2.32,2.32,0,0,0,0-1.17h0a1.61,1.61,0,0,0-.39-.74,1.5,1.5,0,0,0-.62-.55,1.41,1.41,0,0,0-.81-.27,1.87,1.87,0,0,0-.88,0l-.53.25a2.06,2.06,0,0,0-.79.76l-.21.53A2.53,2.53,0,0,0,397.24,677.86Z" transform="translate(-173.43 -201.76)"/>
      <path class="cls-10" d="M362.83,734.75c-3.72-5.45-3.12-10.12-2.69-13.54.36-2.84.56-4.4-1.06-6.78s-3.18-2.79-6-3.51c-3.33-.86-7.89-2-11.6-7.47s-3.12-10.11-2.69-13.52c.37-2.84.57-4.41-1.06-6.8s-3.18-2.79-6-3.51c-3.33-.85-7.9-2-11.59-7.47s-3.11-10.09-2.68-13.49c.36-2.84.56-4.4-1.07-6.8s-3.18-2.79-6-3.51c-3.33-.85-7.89-2-11.59-7.47s-3.1-10.09-2.66-13.5c.36-2.83.56-4.4-1.07-6.79s-3.17-2.79-6-3.51c-3.34-.85-7.9-2-11.6-7.46s-3.1-10.12-2.67-13.53c.36-2.84.56-4.4-1.06-6.77l8.13-5.53c3.7,5.45,3.11,10.12,2.68,13.53-.36,2.84-.56,4.4,1.05,6.77s3.14,2.76,5.91,3.47c3.34.86,7.92,2,11.65,7.5s3.13,10.16,2.69,13.58c-.36,2.81-.56,4.36,1,6.72s3.14,2.76,5.91,3.47c3.34.86,7.92,2,11.64,7.5s3.14,10.15,2.71,13.57c-.36,2.81-.56,4.37,1,6.73s3.13,2.76,5.9,3.47c3.35.86,7.93,2,11.65,7.5s3.13,10.15,2.7,13.57c-.36,2.83-.56,4.38,1.05,6.74s3.15,2.78,5.93,3.49c3.34.86,7.9,2,11.62,7.48s3.14,10.15,2.7,13.57c-.36,2.83-.55,4.39,1.06,6.76Z" transform="translate(-173.43 -201.76)"/>
    </g>
  </g>
</svg>
