<svg id="Layer_12" data-name="Layer 12" xmlns="http://www.w3.org/2000/svg" viewBox="0 0 629.57 600.92">
  <defs>
    <style>
      .cls-1 {
        fill: #ffe430;
      }

      .cls-2 {
        fill: #ea9c68;
      }

      .cls-3 {
        fill: #a56e00;
      }

      .cls-4 {
        fill: #c67c4a;
      }

      .cls-5 {
        fill: #e08158;
      }

      .cls-19, .cls-6 {
        fill: #7c5003;
      }

      .cls-7 {
        fill: #fff;
      }

      .cls-16, .cls-8 {
        fill: #1d0072;
      }

      .cls-9 {
        fill: #1e0489;
      }

      .cls-10, .cls-14, .cls-16 {
        font-size: 25px;
        font-family: Gotham-Bold, Gotham;
        font-weight: 700;
      }

      .cls-10 {
        fill: #00dcd5;
      }

      .cls-11 {
        letter-spacing: -0.03em;
      }

      .cls-12 {
        letter-spacing: 0em;
      }

      .cls-13 {
        letter-spacing: -0.02em;
      }

      .cls-14 {
        fill: #ff006a;
      }

      .cls-15 {
        letter-spacing: -0.01em;
      }

      .cls-17 {
        letter-spacing: -0.01em;
      }

      .cls-18 {
        letter-spacing: -0.03em;
      }

      .cls-19, .cls-20 {
        stroke: #fff;
        stroke-linecap: round;
        stroke-linejoin: round;
        stroke-width: 5px;
      }

      .cls-20 {
        fill: none;
      }
    </style>
  </defs>
  <g>
    <rect class="cls-1" x="209.62" width="419.95" height="142.4" rx="47.67"/>
    <path class="cls-2" d="M186.63,749.91s-15.07,12.34-25.11,17.57-21.76,10.47.63,18.42,58.38-27.2,58.38-27.2" transform="translate(-149.33 -186.15)"/>
    <path class="cls-3" d="M297.8,388c-.41,2.25-10,18.06-9.6,20.31,1.22,6.69,1.83,8.17,0,24.58-2,17.61-14.72,26.83-.13,63.3s8.51,64.43-3.65,79,7.3,31,10.94,40.72,64.43,12.77,64.43,12.77l17-121.56-51.66-110,7.9-29.78-9.12-14S302.92,359.28,297.8,388Z" transform="translate(-149.33 -186.15)"/>
    <path class="cls-3" d="M355.54,349.09s54.09,49.83,77.79,52.87c15.87,2,22.16,5.24,23.71,20.67.76,7.62.19,26.19-.61,33.43-2.43,21.88-13.37,41.33-4.26,62.6s16.29,52,11.34,91.64-83.66-55.17-83.66-55.17S341,369.14,355.54,349.09Z" transform="translate(-149.33 -186.15)"/>
    <path class="cls-3" d="M313,364.28s26.14-32.82,59-32.82,57.74,16.41,68.07,31.6c5.31,7.82,18.15,43.27,17.28,70" transform="translate(-149.33 -186.15)"/>
    <path class="cls-3" d="M354.62,335.52s-37.38-3.29-64.12,47.75-33.43,170.29-1.82,220.84c0,0,13.37,15.21,1.21,26.5,0,0,88.88,12.21,97.25-27,3-14.23-12.5-88.08-12.76-87.85C374.38,515.77,204.18,455.6,354.62,335.52Z" transform="translate(-149.33 -186.15)"/>
    <path class="cls-4" d="M364.25,493.63s6.14,31.72-8.43,38,38.35,16.31,53.61-4.56c0,0-9.13-9-8.36-35" transform="translate(-149.33 -186.15)"/>
    <path class="cls-4" d="M319,421.5s-12.7-15.89-16.11,3.84C299.6,444.37,321.3,453,321.3,453" transform="translate(-149.33 -186.15)"/>
    <path class="cls-2" d="M444,426.1c0,43.77-21.45,79.59-65.2,77.26-39.89-2.14-63.5-33.49-63.5-77.26s28.73-69.31,64.27-69.31S444,382.33,444,426.1Z" transform="translate(-149.33 -186.15)"/>
    <g id="cheeks">
      <circle class="cls-5" cx="192.72" cy="262.31" r="11.55"/>
      <circle class="cls-5" cx="273.93" cy="259.78" r="11.55"/>
    </g>
    <path class="cls-3" d="M358,353.34s-7.9,18.23,27.35,38.9,58.95,47.41,58.34,68.07,10.34-62,.61-76S375.59,335.71,358,353.34Z" transform="translate(-149.33 -186.15)"/>
    <path class="cls-3" d="M359.49,360.85S324.54,484.62,332.44,513.8c0,0-34-119.13-13.37-141S373.16,352.12,359.49,360.85Z" transform="translate(-149.33 -186.15)"/>
    <g id="nose">
      <ellipse class="cls-4" cx="233.32" cy="247.24" rx="4.28" ry="12.84"/>
    </g>
    <g id="eyes">
      <circle cx="260.56" cy="228.64" r="4.99"/>
      <circle cx="205.23" cy="232.08" r="4.99"/>
    </g>
    <path d="M354.93,413.77s5.2-.74,5.94-4.46c0,0,.75,3.72-1.48,5.95S354.93,413.77,354.93,413.77Z" transform="translate(-149.33 -186.15)"/>
    <path d="M409.39,410.71s5.16-1,5.72-4.75c0,0,.92,3.67-1.19,6S409.39,410.71,409.39,410.71Z" transform="translate(-149.33 -186.15)"/>
    <path class="cls-2" d="M402.32,420.92s12.87-5.28,15.41-.77S402.32,420.92,402.32,420.92Z" transform="translate(-149.33 -186.15)"/>
    <path class="cls-2" d="M345.66,424s12.87-5.27,15.41-.77S345.66,424,345.66,424Z" transform="translate(-149.33 -186.15)"/>
    <g id="eyebrows">
      <path class="cls-6" d="M341.73,411a1.56,1.56,0,0,1-.85-.25,1.54,1.54,0,0,1-.42-2.11,28.26,28.26,0,0,1,24.35-11.41,1.52,1.52,0,1,1-.15,3A25.23,25.23,0,0,0,343,410.37,1.5,1.5,0,0,1,341.73,411Z" transform="translate(-149.33 -186.15)"/>
      <path class="cls-6" d="M428,411a1.52,1.52,0,0,1-1.22-.61h0c-.08-.1-8.33-10.84-24.41-10.13a1.52,1.52,0,1,1-.14-3c17.74-.79,26.62,10.85,27,11.35A1.52,1.52,0,0,1,428,411Z" transform="translate(-149.33 -186.15)"/>
    </g>
    <path class="cls-7" d="M385.35,476.63a18.87,18.87,0,0,1-11.76-3.75l-.3-.22a3.61,3.61,0,0,1-1.27-5.1,3.68,3.68,0,0,1,4.84-1.18,10.89,10.89,0,0,1,1,.67c1.85,1.37,6.79,5,20.89-1a3.61,3.61,0,0,1,4.84,2.21,3.75,3.75,0,0,1-2.22,4.52C394.68,475.62,389.47,476.63,385.35,476.63Zm-12-3.95,0,0Z" transform="translate(-149.33 -186.15)"/>
    <g>
      <path class="cls-2" d="M547.54,386.15,564,377.42s2.88,6.69.65,11.88-20.51,23.3-20.51,23.3l-6.22-5.11Z" transform="translate(-149.33 -186.15)"/>
      <path class="cls-2" d="M544.78,370.15s-6.36,9.26-7.14,11.38-.89,5.83,3.88,4.75,10.53-15.47,10.93-17.73-.78-4.13-3.79-5.26-5.89,3.15-5.89,3.15c6.44-6.54,10.57-21.25,12.09-26s-1.09-7.6-2.13-8.12c-1.51-.76-5.44-.13-6.92,5.35S531.12,364,531.12,364l-2.76,3.31" transform="translate(-149.33 -186.15)"/>
      <path class="cls-2" d="M553.12,367.85s9.3-5.22,8.2,2.6-11.93,18.66-11.93,18.66-5.08,3.84-6-3.84" transform="translate(-149.33 -186.15)"/>
      <path class="cls-4" d="M560.09,373.75s3.43-4.81,4.8-.55-3.84,16.05-8.37,17.42-3.29-7.54-3.29-7.54" transform="translate(-149.33 -186.15)"/>
      <path class="cls-4" d="M517.43,396.16s-1.3-20.6,3.27-25.5,18-8.18,24.2-6.21,9.33,9.32,10.13,10.75-.8,3.66-2.86,4-8.75-1.59-14.79-5.72c0,0,13.26,6.21,10.92,20.12S542.37,409,542.37,409l-5.5,4.54s-21.49-12.12-19.42-16.94" transform="translate(-149.33 -186.15)"/>
    </g>
    <path class="cls-8" d="M402.48,533.09s9-6,21.74-22.33c8-10.25,37-51.36,56.68-78.13,10-13.57,22.88-30.68,30.38-42.72a156.69,156.69,0,0,0,19.44,10.61c3.39,1.47,21.3,11.17,21.3,11.17s-9.71,31.65-46,77.77C482,520.08,467.93,542,462.69,550.77c-11.56,19.44-13.16,57.16-12.27,67.06,1.68,18.88,7.26,149.93,7.26,149.93l-160.34,3.06s-13.52-137.9,15.65-220C327.5,510.07,373.91,548.28,402.48,533.09Z" transform="translate(-149.33 -186.15)"/>
    <path class="cls-9" d="M358.74,551.31s-9.15-20-24.83-20-25.32,3.28-33.76,19S189.82,745,176.56,754.06l29.54,24.11S358.74,627.27,358.74,551.31Z" transform="translate(-149.33 -186.15)"/>
    <path class="cls-2" d="M200.35,749" transform="translate(-149.33 -186.15)"/>
    <text class="cls-10" transform="translate(258.08 80.88)">kn<tspan class="cls-11" x="30.37" y="0">o</tspan><tspan class="cls-12" x="46.34" y="0">wledge = p</tspan><tspan class="cls-13" x="187.68" y="0">r</tspan><tspan x="197.75" y="0">o</tspan><tspan class="cls-13" x="214.35" y="0">t</tspan><tspan x="224.35" y="0">ection</tspan></text>
    <text class="cls-14" transform="translate(274.59 112.19)"><tspan class="cls-13">c</tspan><tspan x="13.9" y="0">ommunic</tspan><tspan class="cls-15" x="130.96" y="0">a</tspan><tspan x="145.63" y="0">tion = </tspan><tspan class="cls-13" x="226.72" y="0">r</tspan><tspan x="236.79" y="0">espect</tspan></text>
    <text class="cls-16" transform="translate(242.93 50.19)">sa<tspan class="cls-17" x="27.35" y="0">f</tspan><tspan x="36.64" y="0">e s</tspan><tspan class="cls-18" x="72.01" y="0">e</tspan><tspan x="86.59" y="0">x = </tspan><tspan class="cls-13" x="132.18" y="0">r</tspan><tspan x="142.25" y="0">edu</tspan><tspan class="cls-13" x="190.02" y="0">c</tspan><tspan x="203.92" y="0">e risks</tspan></text>
    <polyline class="cls-1" points="319.09 141.52 301.65 175.92 401.45 135.71"/>
    <line class="cls-19" x1="483.22" y1="13.18" x2="565.55" y2="13.18"/>
    <path class="cls-20" d="M730.23,200.2s21.41-1.43,30,18.56" transform="translate(-149.33 -186.15)"/>
    <path class="cls-20" d="M373.06,290.17s6.3,24,33.07,25.59" transform="translate(-149.33 -186.15)"/>
    <line class="cls-20" x1="221.08" y1="89.3" x2="221.08" y2="70.06"/>
  </g>
</svg>
