<svg xmlns="http://www.w3.org/2000/svg" viewBox="0 0 798.18 1023.2">
  <defs>
    <style>
      .cls-1 {
        fill: #17d5d1;
      }

      .cls-2 {
        fill: #ffea00;
      }

      .cls-3 {
        fill: #1d0072;
      }

      .cls-4 {
        fill: #ff006a;
      }

      .cls-13, .cls-15, .cls-20, .cls-23, .cls-24, .cls-5, .cls-6, .cls-7 {
        fill: none;
      }

      .cls-5, .cls-6, .cls-7 {
        stroke: #ffea00;
      }

      .cls-13, .cls-15, .cls-20, .cls-21, .cls-23, .cls-5, .cls-6, .cls-7 {
        stroke-linecap: round;
        stroke-linejoin: round;
      }

      .cls-20, .cls-5, .cls-6, .cls-7 {
        stroke-width: 8px;
      }

      .cls-6 {
        stroke-dasharray: 20.94 20.94;
      }

      .cls-7 {
        stroke-dasharray: 21;
      }

      .cls-8 {
        fill: #d38e16;
      }

      .cls-9 {
        fill: #f4b942;
      }

      .cls-10 {
        fill: #e2a56d;
      }

      .cls-11 {
        fill: #565655;
      }

      .cls-12 {
        fill: #f7bc81;
      }

      .cls-13 {
        stroke: #d38e16;
        stroke-width: 7px;
      }

      .cls-14 {
        fill: #f49c76;
      }

      .cls-15 {
        stroke: #565655;
        stroke-width: 4px;
      }

      .cls-16 {
        fill: #98e1e5;
      }

      .cls-17 {
        fill: #ea965c;
      }

      .cls-18 {
        fill: #ffa766;
      }

      .cls-19 {
        fill: #dd8950;
      }

      .cls-20 {
        stroke: #66b2b2;
      }

      .cls-21 {
        fill: #d17b50;
        stroke-width: 3px;
      }

      .cls-21, .cls-23 {
        stroke: #d17b50;
      }

      .cls-22 {
        fill: #e88c64;
      }

      .cls-23, .cls-24 {
        stroke-width: 5px;
      }

      .cls-24 {
        stroke: #e0cc0e;
        stroke-miterlimit: 10;
      }

      .cls-25 {
        fill: #14074f;
      }
    </style>
  </defs>
  <g id="Layer_1" data-name="Layer 1">
    <g>
      <g>
        <path class="cls-1" d="M899,701.35a.65.65,0,0,0-.06-.85l-3.23-3.16,1.17-4.14c.2-.23,0-.43-.26-.62a1,1,0,0,0-.65-.17l-4.14,1.6-3.58-2.28a.64.64,0,0,0-.85.06,1.11,1.11,0,0,0-.36.88l.29,3.82-3.42,2.6c-.2.23-.39.46-.16.65s.26.62.68.59l4.34.95,1.59,4.14.23.19.23.2c.42,0,.42,0,.62-.26l2.28-3.59,4.47-.13A1.12,1.12,0,0,0,899,701.35Z" transform="translate(-100.91 -300.3)"/>
        <path class="cls-2" d="M768.39,629.72,767,625.78l2.28-3.59a.63.63,0,0,0-.06-.84,1.11,1.11,0,0,0-.88-.36l-4.44.55-2.8-3.19c-.23-.2-.45-.4-.65-.17a.57.57,0,0,0-.59.69l-.78,3.68L755,624.14l-.59.69c-.19.23.26.62.26.62l3.78,2,.33,4.24a1,1,0,0,0,.26.62l.23.2a.64.64,0,0,0,.84-.07l3.2-2.8,4.33.95c.23.19.43,0,.62-.27A1,1,0,0,0,768.39,629.72Z" transform="translate(-100.91 -300.3)"/>
        <path class="cls-2" d="M817,842.08l-1.17-4.17,2.71-3.62a1.07,1.07,0,0,0,.16-.65l-.68-.58-4.27-.1-2.41-3.65a1.08,1.08,0,0,0-.88-.36.56.56,0,0,0-.59.68l-1.4,3.94-4.17,1.18a.56.56,0,0,0-.59.68c-.2.23,0,.42.26.62l3.62,2.71-.1,4.27c-.2.22,0,.42.26.62l.22.19a.65.65,0,0,0,.85-.06l3.65-2.41,4.17,1.59a.64.64,0,0,0,.85-.06C817.07,842.51,817.26,842.28,817,842.08Z" transform="translate(-100.91 -300.3)"/>
        <path class="cls-3" d="M700.86,699.67c.2-.22.39-.45.16-.65l-1.17-4.17,2.71-3.62a1.07,1.07,0,0,0,.16-.65L702,690l-4.27-.1-2.61-3.43a1.12,1.12,0,0,0-.88-.36.57.57,0,0,0-.59.69l-1.4,3.94-4.17,1.17a.57.57,0,0,0-.59.69c-.19.23,0,.42.26.62l3.62,2.7-.1,4.27c-.19.23,0,.43.26.62l.23.2a.65.65,0,0,0,.85-.07l3.65-2.41,4.17,1.6Z" transform="translate(-100.91 -300.3)"/>
        <path class="cls-4" d="M677.27,761.79c-.45-.39-.26-.62-.49-.82L674,757.35l1.17-4.13c.2-.23,0-.43-.26-.62a1,1,0,0,0-.65-.17l-4.14,1.6-3.58-2.28a.64.64,0,0,0-.85.06,1.14,1.14,0,0,0-.36.88l.33,4.24-3.43,2.6c-.19.23-.39.46-.16.66a.55.55,0,0,0,.68.58l4.34,1,1.59,4.14.23.2.23.19c.42,0,.42,0,.62-.26l2.28-3.58,4.47-.13A1.11,1.11,0,0,0,677.27,761.79Z" transform="translate(-100.91 -300.3)"/>
        <path class="cls-4" d="M850.06,652.67a2.84,2.84,0,0,0-4.24.32l-55,64.09a3,3,0,0,0,.33,4.24,2.83,2.83,0,0,0,4.23-.33l55-64.09A2.84,2.84,0,0,0,850.06,652.67Z" transform="translate(-100.91 -300.3)"/>
        <path class="cls-1" d="M763.58,753.48a2.84,2.84,0,0,0-4.24.32l-44,51.32a3,3,0,1,0,4.56,3.91l44-51.32A2.83,2.83,0,0,0,763.58,753.48Z" transform="translate(-100.91 -300.3)"/>
        <path class="cls-3" d="M794.89,705.9,808.2,671a3.13,3.13,0,0,0-1.79-3.91,3,3,0,0,0-3.69,2L789.41,704a2.89,2.89,0,0,0,.69,3.36,1.09,1.09,0,0,0,.88.35A3.12,3.12,0,0,0,794.89,705.9Z" transform="translate(-100.91 -300.3)"/>
        <path class="cls-3" d="M811.66,660.51l3.62-11.15a3,3,0,0,0-5.7-2.12l-3.82,11.37a2.88,2.88,0,0,0,.88,3.13,2.32,2.32,0,0,0,1.11.56A3.13,3.13,0,0,0,811.66,660.51Z" transform="translate(-100.91 -300.3)"/>
        <path class="cls-2" d="M759.43,796.63,777,751.17a3,3,0,1,0-5.7-2.12L754,794.7a2.89,2.89,0,0,0,.69,3.36,1.07,1.07,0,0,0,.87.36A3.14,3.14,0,0,0,759.43,796.63Z" transform="translate(-100.91 -300.3)"/>
        <path class="cls-2" d="M784.06,723.14,785.85,638a3,3,0,1,0-6,0l-1.6,84.93a3.76,3.76,0,0,0,1,2.48,4.42,4.42,0,0,0,1.76.72A2.92,2.92,0,0,0,784.06,723.14Z" transform="translate(-100.91 -300.3)"/>
        <path class="cls-4" d="M780,830.86l1.72-66.62a3,3,0,0,0-6,0l-1.52,66.39a3.71,3.71,0,0,0,1,2.48,4.42,4.42,0,0,0,1.76.72A2.93,2.93,0,0,0,780,830.86Z" transform="translate(-100.91 -300.3)"/>
        <path class="cls-1" d="M773.87,701.33,758.63,655.4a3.23,3.23,0,0,0-3.78-2c-1.86.78-2.8,2.34-2.25,4l15.24,45.93a2.77,2.77,0,0,0,.94,1.2,3.59,3.59,0,0,0,3,.62A3.23,3.23,0,0,0,773.87,701.33Z" transform="translate(-100.91 -300.3)"/>
        <path class="cls-2" d="M810.14,813.2,785,738.62a3,3,0,1,0-5.83,1.73l24.87,74.38a2.69,2.69,0,0,0,.95,1.21,3.57,3.57,0,0,0,3,.62A2.43,2.43,0,0,0,810.14,813.2Z" transform="translate(-100.91 -300.3)"/>
        <path class="cls-4" d="M766,709.18l-42.26-53.66a3,3,0,0,0-4.3-.52,2.9,2.9,0,0,0-.52,4.3L761.12,713l.46.39a2.92,2.92,0,0,0,3.84.14A3.05,3.05,0,0,0,766,709.18Z" transform="translate(-100.91 -300.3)"/>
        <path class="cls-3" d="M838.53,802.72,801.71,756.1a2.9,2.9,0,0,0-4.3-.52,3,3,0,0,0-.52,4.3L833.7,806.5l.46.39A2.91,2.91,0,0,0,838,807,3,3,0,0,0,838.53,802.72Z" transform="translate(-100.91 -300.3)"/>
        <path class="cls-1" d="M833.33,762.63l-34.93-22a3,3,0,0,0-4,.95,3.2,3.2,0,0,0,.52,4l.23.19,34.93,22a3.91,3.91,0,0,0,4.17-1.17A3,3,0,0,0,833.33,762.63Z" transform="translate(-100.91 -300.3)"/>
        <path class="cls-3" d="M770.7,726.72a3,3,0,0,0-1-4l-41-26a3,3,0,0,0-4,.94,3.2,3.2,0,0,0,.52,4l.23.2,41.19,25.82A3,3,0,0,0,770.7,726.72Z" transform="translate(-100.91 -300.3)"/>
        <path class="cls-1" d="M847,774.79a3,3,0,0,0-.94-4L843,768.92a3,3,0,0,0-4,1,3.2,3.2,0,0,0,.52,4c.19-.23.19-.23.42,0l3.13,1.89A3,3,0,0,0,847,774.79Z" transform="translate(-100.91 -300.3)"/>
        <path class="cls-3" d="M720.78,695.38a3,3,0,0,0-.95-4l-2.93-2.12a3,3,0,0,0-4,1,3.2,3.2,0,0,0,.52,4l.23.19,3.13,1.89A3,3,0,0,0,720.78,695.38Z" transform="translate(-100.91 -300.3)"/>
        <path class="cls-4" d="M877.43,754.14a3,3,0,0,0-2.41-3.65l-62.41-13.55a3,3,0,0,0-3.65,2.41,3.16,3.16,0,0,0,1.07,2.9,2.73,2.73,0,0,0,1.34.75l62.41,13.55A3,3,0,0,0,877.43,754.14Z" transform="translate(-100.91 -300.3)"/>
        <path class="cls-1" d="M755.9,728.28a3,3,0,0,0-2.41-3.65l-62.41-13.55a3,3,0,0,0-3.65,2.41,3.16,3.16,0,0,0,1.07,2.9,2.73,2.73,0,0,0,1.34.75l62.41,13.55A3,3,0,0,0,755.9,728.28Z" transform="translate(-100.91 -300.3)"/>
        <path class="cls-2" d="M866,722.19a2.92,2.92,0,0,0-3.39-2.51l-72.58,9.39a2.92,2.92,0,0,0-2.51,3.39,4.39,4.39,0,0,0,1.2,1.83,2.7,2.7,0,0,0,2.18.68l72.59-9.39A2.92,2.92,0,0,0,866,722.19Z" transform="translate(-100.91 -300.3)"/>
        <path class="cls-2" d="M777.41,733.67a2.92,2.92,0,0,0-3.39-2.52l-72.62,9a2.92,2.92,0,0,0-2.51,3.39,2.9,2.9,0,0,0,3.19,2.74l72.59-9.39A2.91,2.91,0,0,0,777.41,733.67Z" transform="translate(-100.91 -300.3)"/>
        <path class="cls-2" d="M695.14,744.65c.07-1.92-1.5-2.87-3.19-2.74l-8,1a2.92,2.92,0,0,0-2.51,3.39,2.67,2.67,0,0,0,1,2,2.72,2.72,0,0,0,2.18.69l8-1A2.92,2.92,0,0,0,695.14,744.65Z" transform="translate(-100.91 -300.3)"/>
        <path class="cls-2" d="M886.08,719.59a2.92,2.92,0,0,0-3.39-2.51l-7.82.81a2.92,2.92,0,0,0-2.51,3.39,2.9,2.9,0,0,0,3.19,2.74l8-1A2.92,2.92,0,0,0,886.08,719.59Z" transform="translate(-100.91 -300.3)"/>
        <path class="cls-1" d="M868.78,688.53a3,3,0,0,0-3.94-1.41l-47.37,24.3a2.68,2.68,0,0,0-1.4,3.94c0,.43.49.82.72,1a2.62,2.62,0,0,0,3.22.4l47.37-24.3A3,3,0,0,0,868.78,688.53Z" transform="translate(-100.91 -300.3)"/>
        <path class="cls-4" d="M765.54,742.88a3,3,0,0,0-3.94-1.4L704.16,770.6a3,3,0,0,0-1.4,3.94,1.74,1.74,0,0,0,.71,1,2.62,2.62,0,0,0,3.23.39l57.44-29.11C765.8,746.27,766.1,744.55,765.54,742.88Z" transform="translate(-100.91 -300.3)"/>
        <path class="cls-3" d="M689.42,852.87a1.5,1.5,0,0,0,0-3,1.5,1.5,0,0,0,0,3Z" transform="translate(-100.91 -300.3)"/>
      </g>
      <g>
        <path class="cls-1" d="M678.74,613.82a1.11,1.11,0,0,0,1.16-.86l1.65-7.52,7-2.05c.51.08.59-.43.66-.93a1.76,1.76,0,0,0-.35-1.09l-6-4.54.06-7.24a1.11,1.11,0,0,0-.86-1.16,1.87,1.87,0,0,0-1.6.27l-5.24,3.87L668.35,590c-.51-.08-1-.16-1.09.35s-.66.94-.23,1.52l2.55,7.12-4.53,6-.08.51-.07.51c.43.58.43.58.93.65l7.24.06,4.23,6.33A1.87,1.87,0,0,0,678.74,613.82Z" transform="translate(-100.91 -300.3)"/>
        <path class="cls-2" d="M664.11,360.49l4.46-5.54,7.24.05a1.1,1.1,0,0,0,1.17-.86,1.9,1.9,0,0,0-.28-1.59l-4.81-5.91,2.08-6.93c.08-.51.16-1-.35-1.09a1,1,0,0,0-1.52-.23l-6,2.2-6-4.54-1.52-.23c-.51-.07-.66.94-.66.94l.45,7.32-5.83,4.3a1.81,1.81,0,0,0-.66.93l-.07.51a1.1,1.1,0,0,0,.86,1.17l6.93,2.08,2.55,7.11c-.07.51.43.58.94.66A1.76,1.76,0,0,0,664.11,360.49Z" transform="translate(-100.91 -300.3)"/>
        <path class="cls-2" d="M401.41,622.76l5-5.47,7.67.64a1.79,1.79,0,0,0,1.09-.35l.23-1.52-3.72-6.26,3.09-6.78a1.88,1.88,0,0,0-.27-1.6,1,1,0,0,0-1.52-.23l-7,1.54-5.46-5a1,1,0,0,0-1.52-.23c-.51-.08-.58.43-.66.94l-.64,7.67-6.25,3.71c-.51-.07-.59.43-.66.94l-.08.51a1.1,1.1,0,0,0,.86,1.16l6.78,3.09,1.47,7.47a1.1,1.1,0,0,0,.86,1.17C400.83,623.19,401.34,623.26,401.41,622.76Z" transform="translate(-100.91 -300.3)"/>
        <path class="cls-3" d="M502,326.22c.51.07,1,.15,1.09-.36l5-5.46,7.67.64a1.84,1.84,0,0,0,1.09-.36l.22-1.52-3.71-6.25,2.58-6.86a1.88,1.88,0,0,0-.27-1.6,1,1,0,0,0-1.52-.22l-7,1.54-5.47-5a1,1,0,0,0-1.52-.23c-.5-.08-.58.43-.66.94l-.64,7.67-6.25,3.71c-.51-.07-.58.43-.66.94l-.08.51a1.11,1.11,0,0,0,.86,1.16l6.79,3.1,1.46,7.47Z" transform="translate(-100.91 -300.3)"/>
        <path class="cls-4" d="M391,348.32c.15-1,.66-.94.74-1.45l2.66-7.36,7-2.05c.51.08.58-.43.66-.93a1.83,1.83,0,0,0-.35-1.09l-6.05-4.54.05-7.24a1.08,1.08,0,0,0-.86-1.16,1.85,1.85,0,0,0-1.59.27l-5.83,4.3-6.86-2.58c-.5-.08-1-.16-1.09.35a1,1,0,0,0-.22,1.52l2.55,7.11-4.54,6-.07.51-.08.5c.43.59.43.59.94.66l7.24.06,4.22,6.33A1.91,1.91,0,0,0,391,348.32Z" transform="translate(-100.91 -300.3)"/>
        <path class="cls-4" d="M704.82,499.18a4.84,4.84,0,0,0-4.3-5.83L558.26,471.91a5.13,5.13,0,0,0-5.83,4.3,4.83,4.83,0,0,0,4.3,5.82L699,503.48A4.85,4.85,0,0,0,704.82,499.18Z" transform="translate(-100.91 -300.3)"/>
        <path class="cls-1" d="M481,465.45a4.84,4.84,0,0,0-4.29-5.83L362.83,442.45a5.12,5.12,0,0,0-1.52,10.12l113.91,17.18A4.84,4.84,0,0,0,481,465.45Z" transform="translate(-100.91 -300.3)"/>
        <path class="cls-3" d="M578.06,467.64l62.44-12.33a5.33,5.33,0,0,0,4-6.13,5.08,5.08,0,0,0-6.2-3.52L575.89,458a4.93,4.93,0,0,0-4.23,4,1.85,1.85,0,0,0,.27,1.59A5.32,5.32,0,0,0,578.06,467.64Z" transform="translate(-100.91 -300.3)"/>
        <path class="cls-3" d="M658.78,450.81,678.15,446a5.19,5.19,0,0,0-2.09-10.16l-19.88,4.77a4.94,4.94,0,0,0-3.73,4.1,3.89,3.89,0,0,0,.21,2.1A5.32,5.32,0,0,0,658.78,450.81Z" transform="translate(-100.91 -300.3)"/>
        <path class="cls-2" d="M415,498.46l81.58-15.66a5.18,5.18,0,1,0-2.09-10.15L412.8,488.81a4.93,4.93,0,0,0-4.23,4,1.86,1.86,0,0,0,.28,1.59A5.32,5.32,0,0,0,415,498.46Z" transform="translate(-100.91 -300.3)"/>
        <path class="cls-2" d="M543.37,467.59,668,393.17c2.33-1.72,3.29-4.68,1.57-7s-4.68-3.29-7-1.57L538.44,459.08a6.35,6.35,0,0,0-2.63,3.75,7.22,7.22,0,0,0,.55,3.19C538.08,468.35,541,469.31,543.37,467.59Z" transform="translate(-100.91 -300.3)"/>
        <path class="cls-4" d="M384.09,559.05l97.76-57.76c2.33-1.72,3.3-4.68,1.58-7s-4.68-3.29-7-1.57l-97.26,57.83a6.3,6.3,0,0,0-2.64,3.74,7.24,7.24,0,0,0,.56,3.19C378.8,559.8,381.76,560.77,384.09,559.05Z" transform="translate(-100.91 -300.3)"/>
        <path class="cls-1" d="M565.65,433.15l52.55-63.53a5.51,5.51,0,0,0-.45-7.32c-2.81-2-5.92-1.93-7.82.38l-52.55,63.53a4.59,4.59,0,0,0-.89,2.45,6.12,6.12,0,0,0,1.84,4.94A5.51,5.51,0,0,0,565.65,433.15Z" transform="translate(-100.91 -300.3)"/>
        <path class="cls-2" d="M436.88,586.68l85-103.69a5.18,5.18,0,0,0-7.76-6.86L429.19,579.31a4.56,4.56,0,0,0-.89,2.45,6.1,6.1,0,0,0,1.85,4.94C431.87,589,435,589,436.88,586.68Z" transform="translate(-100.91 -300.3)"/>
        <path class="cls-4" d="M547.15,428.81l39.29-109.54a5.18,5.18,0,0,0-3.13-6.69c-3-1-5.72.17-6.69,3.13L537.33,425.26l-.16,1a5,5,0,0,0,3.29,5.67A5.18,5.18,0,0,0,547.15,428.81Z" transform="translate(-100.91 -300.3)"/>
        <path class="cls-3" d="M477.69,618.2l34.05-95.31c1-3-.18-5.73-3.14-6.69a5.17,5.17,0,0,0-6.68,3.13l-34.05,95.32-.15,1a5,5,0,0,0,3.29,5.68A5.18,5.18,0,0,0,477.69,618.2Z" transform="translate(-100.91 -300.3)"/>
        <path class="cls-1" d="M530.89,574.44l.25-70.38a5.08,5.08,0,0,0-4.95-4.89,5.45,5.45,0,0,0-5.32,4.38l-.08.51-.25,70.38a6.64,6.64,0,0,0,5.46,5C528.61,579.28,531,577.05,530.89,574.44Z" transform="translate(-100.91 -300.3)"/>
        <path class="cls-3" d="M526.12,451.53a5.08,5.08,0,0,0,4.89-5l.56-82.76a5.07,5.07,0,0,0-5-4.89,5.43,5.43,0,0,0-5.32,4.38l-.08.5-.06,82.84A5.07,5.07,0,0,0,526.12,451.53Z" transform="translate(-100.91 -300.3)"/>
        <path class="cls-1" d="M525.73,605.25a5.07,5.07,0,0,0,4.89-5l-.1-6.22c-.12-2.61-2.35-5-5-4.89a5.45,5.45,0,0,0-5.32,4.37c.51.08.51.08.43.58l.1,6.23C520.9,603,523.12,605.38,525.73,605.25Z" transform="translate(-100.91 -300.3)"/>
        <path class="cls-3" d="M526.24,351.1c2.61-.13,5-2.35,4.89-5l.41-6.15c-.12-2.61-2.35-5-5-4.89a5.43,5.43,0,0,0-5.32,4.37l-.07.51.09,6.23C521.41,348.81,523.63,351.22,526.24,351.1Z" transform="translate(-100.91 -300.3)"/>
        <path class="cls-4" d="M583,630.46a5.18,5.18,0,0,0,3.09-6.78L549.26,521.29a5.18,5.18,0,0,0-6.78-3.09,5.35,5.35,0,0,0-3.22,4.17,4.68,4.68,0,0,0,.12,2.61l36.87,102.38A5.18,5.18,0,0,0,583,630.46Z" transform="translate(-100.91 -300.3)"/>
        <path class="cls-1" d="M510.49,431.57a5.18,5.18,0,0,0,3.09-6.79L476.72,322.4a5.18,5.18,0,0,0-6.79-3.09,5.35,5.35,0,0,0-3.21,4.17,4.59,4.59,0,0,0,.12,2.61L503.7,428.47A5.2,5.2,0,0,0,510.49,431.57Z" transform="translate(-100.91 -300.3)"/>
        <path class="cls-2" d="M618.86,585.12c2.33-1.72,2.28-4.84.56-7.17l-79.2-96.34c-1.72-2.33-4.83-2.28-7.16-.56a7.46,7.46,0,0,0-1.55,3.39,4.67,4.67,0,0,0,1,3.78l79.19,96.33C613.41,586.88,616.53,586.83,618.86,585.12Z" transform="translate(-100.91 -300.3)"/>
        <path class="cls-2" d="M522.16,467.5c2.33-1.72,2.28-4.83.56-7.16l-78.61-96.77c-1.72-2.33-4.84-2.28-7.17-.56a5,5,0,0,0-1.07,7.09l79.2,96.33A5,5,0,0,0,522.16,467.5Z" transform="translate(-100.91 -300.3)"/>
        <path class="cls-2" d="M431.91,358.62c2.83-1.64,2.78-4.75,1.06-7.08l-8.75-10.64c-1.72-2.33-4.83-2.29-7.16-.57a5,5,0,0,0-1.07,7.09l8.75,10.64C426.46,360.39,429.58,360.34,431.91,358.62Z" transform="translate(-100.91 -300.3)"/>
        <path class="cls-2" d="M640.74,611.71c2.33-1.72,2.28-4.83.56-7.16L633.06,594c-1.72-2.33-4.84-2.28-7.17-.57a5,5,0,0,0-1.07,7.09l8.75,10.64C635.29,613.48,638.41,613.43,640.74,611.71Z" transform="translate(-100.91 -300.3)"/>
        <path class="cls-1" d="M670,558.65a5.09,5.09,0,0,0-1.54-7l-77.92-46.43a4.56,4.56,0,0,0-7,1.54,3,3,0,0,0-.81,1.94c-.31,2,.4,4.21,2.35,5L663,560.19A5.1,5.1,0,0,0,670,558.65Z" transform="translate(-100.91 -300.3)"/>
        <path class="cls-4" d="M498.11,458.7a5.08,5.08,0,0,0-1.54-7l-94-56.62a5.09,5.09,0,0,0-7,1.54,3.11,3.11,0,0,0-.81,2c-.3,2,.41,4.2,2.35,5l94,56.63C493.45,462.14,496.21,461,498.11,458.7Z" transform="translate(-100.91 -300.3)"/>
        <path class="cls-3" d="M272.6,448.35a1.5,1.5,0,0,0,0-3,1.5,1.5,0,0,0,0,3Z" transform="translate(-100.91 -300.3)"/>
      </g>
      <g>
        <path class="cls-1" d="M276.47,443.23a.69.69,0,0,0-.64-.63l-4.75-.32-1.9-4.11c0-.32-.32-.32-.63-.32a1.12,1.12,0,0,0-.64.32l-2.21,4.11-4.44.64a.67.67,0,0,0-.63.63,1.18,1.18,0,0,0,.31.95l2.85,2.85-1,4.44c0,.31,0,.63.32.63s.63.32.95,0l4.12-2.22,4.12,2.22H273c.32-.32.32-.32.32-.63l-.64-4.44,3.49-3.17A1.15,1.15,0,0,0,276.47,443.23Z" transform="translate(-100.91 -300.3)"/>
        <path class="cls-2" d="M122.83,475.54l-3.8-2.21-.64-4.44a.68.68,0,0,0-.63-.63,1.16,1.16,0,0,0-1,.32l-3.17,3.48-4.43-.63c-.32,0-.64,0-.64.31a.6.6,0,0,0,0,.95l1.9,3.49-2.21,4.12v.95c0,.31.63.31.63.31l4.44-.95,3.16,3.17a1.12,1.12,0,0,0,.64.32h.31a.69.69,0,0,0,.64-.64l.63-4.43,4.12-2.22c.32,0,.32-.31.32-.63A1.12,1.12,0,0,0,122.83,475.54Z" transform="translate(-100.91 -300.3)"/>
        <path class="cls-2" d="M307.51,612.08l-3.8-2.54-.32-4.75a1.08,1.08,0,0,0-.32-.63h-.95L298.64,607l-4.44-1.27a1.17,1.17,0,0,0-.95.32.6.6,0,0,0,0,1l1.59,4.12-2.54,3.8a.6.6,0,0,0,0,1c0,.31.32.31.64.31l4.75-.31,2.85,3.48c0,.32.32.32.63.32h.32a.68.68,0,0,0,.63-.64l1.27-4.43,4.44-1.58a.69.69,0,0,0,.63-.64C307.83,612.39,307.83,612.08,307.51,612.08Z" transform="translate(-100.91 -300.3)"/>
        <path class="cls-3" d="M116.81,577.86c0-.31,0-.63-.32-.63l-3.8-2.53-.32-4.76a1.13,1.13,0,0,0-.31-.63h-1l-3.49,2.85-4.43-.95a1.15,1.15,0,0,0-1,.32.59.59,0,0,0,0,1l1.58,4.12-2.53,3.8a.59.59,0,0,0,0,1c0,.31.31.31.63.31l4.75-.31,2.85,3.48c0,.32.32.32.64.32h.31a.69.69,0,0,0,.64-.63l1.27-4.44,4.43-1.58Z" transform="translate(-100.91 -300.3)"/>
        <path class="cls-4" d="M140.57,643.75c-.64,0-.64-.31-.95-.31l-4.75-1-1.9-4.12c0-.32-.32-.32-.64-.32a1.11,1.11,0,0,0-.63.32l-2.22,4.12-4.43.63a.69.69,0,0,0-.64.63,1.15,1.15,0,0,0,.32,1l3.17,3.17-1,4.44c0,.31,0,.63.31.63a.59.59,0,0,0,1,0l4.12-2.22,4.12,2.22h.63c.32-.32.32-.32.32-.63l-.63-4.44,3.48-3.17A1.15,1.15,0,0,0,140.57,643.75Z" transform="translate(-100.91 -300.3)"/>
        <path class="cls-4" d="M203.92,437.85a3,3,0,0,0-3.16,3.17v89a3.17,3.17,0,0,0,3.16,3.17,3,3,0,0,0,3.17-3.17V441A3,3,0,0,0,203.92,437.85Z" transform="translate(-100.91 -300.3)"/>
        <path class="cls-1" d="M203.92,577.86a3,3,0,0,0-3.16,3.17v71.28a3.17,3.17,0,0,0,6.33,0V581A3,3,0,0,0,203.92,577.86Z" transform="translate(-100.91 -300.3)"/>
        <path class="cls-3" d="M196.32,518.31,183,481.25a3.29,3.29,0,0,0-4.12-1.9,3.13,3.13,0,0,0-1.59,4.11l13.31,37.07a3,3,0,0,0,2.85,2.21,1.18,1.18,0,0,0,.95-.31A3.31,3.31,0,0,0,196.32,518.31Z" transform="translate(-100.91 -300.3)"/>
        <path class="cls-3" d="M178.58,470.48l-4.75-11.41a3.21,3.21,0,0,0-6,2.22L172.56,473a3.05,3.05,0,0,0,2.85,1.9,2.37,2.37,0,0,0,1.27-.32A3.28,3.28,0,0,0,178.58,470.48Z" transform="translate(-100.91 -300.3)"/>
        <path class="cls-2" d="M230.22,615.24l-17.11-48.46a3.21,3.21,0,0,0-6,2.21l17.42,48.47a3.05,3.05,0,0,0,2.86,2.22,1.17,1.17,0,0,0,.95-.32A3.3,3.3,0,0,0,230.22,615.24Z" transform="translate(-100.91 -300.3)"/>
        <path class="cls-2" d="M199.49,539.53l-57-69.37a3.14,3.14,0,1,0-4.75,4.12l57,69.06a3.9,3.9,0,0,0,2.53,1.26,4.4,4.4,0,0,0,1.9-.63A3.08,3.08,0,0,0,199.49,539.53Z" transform="translate(-100.91 -300.3)"/>
        <path class="cls-4" d="M270.13,628.55l-44.35-54.49c-1.27-1.26-3.17-1.58-4.43-.31a3.07,3.07,0,0,0-.32,4.43l44.35,54.17a3.91,3.91,0,0,0,2.53,1.27,4.42,4.42,0,0,0,1.9-.64A3.07,3.07,0,0,0,270.13,628.55Z" transform="translate(-100.91 -300.3)"/>
        <path class="cls-1" d="M176.36,529.08l-43.71-26.29a3.41,3.41,0,0,0-4.44.95c-1,1.9-.63,3.8.95,4.75l43.72,26.29a2.82,2.82,0,0,0,1.58.32,3.75,3.75,0,0,0,2.85-1.59A3.4,3.4,0,0,0,176.36,529.08Z" transform="translate(-100.91 -300.3)"/>
        <path class="cls-2" d="M282.17,593.7l-71.28-42.45a3.21,3.21,0,0,0-3.48,5.39l71,42.45a2.9,2.9,0,0,0,1.58.31,3.77,3.77,0,0,0,2.85-1.58A2.56,2.56,0,0,0,282.17,593.7Z" transform="translate(-100.91 -300.3)"/>
        <path class="cls-4" d="M175.41,540.8l-70.64-13.94a3.22,3.22,0,0,0-3.8,2.54,3.06,3.06,0,0,0,2.54,3.8l70.64,13.94h.63A3.09,3.09,0,0,0,178,544.6,3.22,3.22,0,0,0,175.41,540.8Z" transform="translate(-100.91 -300.3)"/>
        <path class="cls-3" d="M297.69,565.83l-61.46-12a3.06,3.06,0,0,0-3.8,2.53,3.21,3.21,0,0,0,2.54,3.8l61.45,12h.64a3.07,3.07,0,0,0,3.16-2.53A3.19,3.19,0,0,0,297.69,565.83Z" transform="translate(-100.91 -300.3)"/>
        <path class="cls-1" d="M266,537.32l-43.08,6.33a3.14,3.14,0,0,0-2.53,3.49,3.36,3.36,0,0,0,3.16,2.85h.32L267,543.65a4.11,4.11,0,0,0,2.54-3.8A3.14,3.14,0,0,0,266,537.32Z" transform="translate(-100.91 -300.3)"/>
        <path class="cls-3" d="M191.25,551.57a3.13,3.13,0,0,0-3.48-2.53l-50.69,7.28a3.14,3.14,0,0,0-2.53,3.49,3.37,3.37,0,0,0,3.17,2.85H138l50.69-7.6A3.14,3.14,0,0,0,191.25,551.57Z" transform="translate(-100.91 -300.3)"/>
        <path class="cls-1" d="M285.34,537.63a3.15,3.15,0,0,0-3.49-2.53l-3.8.63a3.14,3.14,0,0,0-2.53,3.49,3.36,3.36,0,0,0,3.16,2.85c0-.32,0-.32.32-.32l3.8-.63A3.16,3.16,0,0,0,285.34,537.63Z" transform="translate(-100.91 -300.3)"/>
        <path class="cls-3" d="M129.8,560.76a3.15,3.15,0,0,0-3.49-2.54l-3.8.32A3.14,3.14,0,0,0,120,562a3.36,3.36,0,0,0,3.17,2.86h.31l3.8-.64A3.14,3.14,0,0,0,129.8,560.76Z" transform="translate(-100.91 -300.3)"/>
        <path class="cls-4" d="M295.47,500.25A3.2,3.2,0,0,0,291,499L231.8,531a3.21,3.21,0,0,0-1.27,4.44,3.34,3.34,0,0,0,2.85,1.58,2.85,2.85,0,0,0,1.59-.32l59.24-32A3.21,3.21,0,0,0,295.47,500.25Z" transform="translate(-100.91 -300.3)"/>
        <path class="cls-1" d="M180.48,563a3.2,3.2,0,0,0-4.43-1.27l-59.24,32a3.21,3.21,0,0,0-1.27,4.44,3.34,3.34,0,0,0,2.85,1.58,2.85,2.85,0,0,0,1.59-.32l59.23-32A3.2,3.2,0,0,0,180.48,563Z" transform="translate(-100.91 -300.3)"/>
        <path class="cls-2" d="M264.43,482.51a3.09,3.09,0,0,0-4.44.32l-51.63,57.34a3.07,3.07,0,0,0,.32,4.43,4.5,4.5,0,0,0,2.21.64,2.89,2.89,0,0,0,2.22-1L264.74,487A3.09,3.09,0,0,0,264.43,482.51Z" transform="translate(-100.91 -300.3)"/>
        <path class="cls-2" d="M201.39,552.52a3.08,3.08,0,0,0-4.44.32l-51.95,57a3.08,3.08,0,0,0,.32,4.43,3.07,3.07,0,0,0,4.44,0L201.39,557A3.06,3.06,0,0,0,201.39,552.52Z" transform="translate(-100.91 -300.3)"/>
        <path class="cls-2" d="M143.1,617.78c-1.26-1.59-3.17-1.27-4.43,0l-5.7,6.33a3.09,3.09,0,0,0,.31,4.44,3.07,3.07,0,0,0,4.44,0l5.7-6.34A3.07,3.07,0,0,0,143.1,617.78Z" transform="translate(-100.91 -300.3)"/>
        <path class="cls-2" d="M278.68,466.68a3.07,3.07,0,0,0-4.43.31l-5.7,6a3.09,3.09,0,0,0,.31,4.44,3.07,3.07,0,0,0,4.44,0l5.7-6.34A3.07,3.07,0,0,0,278.68,466.68Z" transform="translate(-100.91 -300.3)"/>
        <path class="cls-1" d="M243.52,453.69a3.15,3.15,0,0,0-4.12,1.58l-21.22,52a2.83,2.83,0,0,0,1.58,4.12,1.9,1.9,0,0,0,1.27.32,2.78,2.78,0,0,0,2.85-1.9l21.22-51.95A3.14,3.14,0,0,0,243.52,453.69Z" transform="translate(-100.91 -300.3)"/>
        <path class="cls-4" d="M198.22,568a3.15,3.15,0,0,0-4.12,1.59l-26,62.72a3.15,3.15,0,0,0,1.58,4.12,1.94,1.94,0,0,0,1.27.31,2.77,2.77,0,0,0,2.85-1.9l26-62.72C200.76,570.58,199.81,569,198.22,568Z" transform="translate(-100.91 -300.3)"/>
        <path class="cls-3" d="M211.77,708.6a1.5,1.5,0,0,0,0-3,1.5,1.5,0,0,0,0,3Z" transform="translate(-100.91 -300.3)"/>
      </g>
      <g>
        <path class="cls-5" d="M819,864a89.32,89.32,0,0,1,1.5,10.39" transform="translate(-100.91 -300.3)"/>
        <path class="cls-6" d="M821,895.33c-2.15,48.78-28.43,141.61-188.71,182.78" transform="translate(-100.91 -300.3)"/>
        <path class="cls-5" d="M622.09,1080.61q-5,1.19-10.25,2.3" transform="translate(-100.91 -300.3)"/>
      </g>
      <path class="cls-7" d="M353.51,926.53s-170.37,1-169.42-249.87" transform="translate(-100.91 -300.3)"/>
      <line class="cls-7" x1="425.5" y1="321.95" x2="425.5" y2="642.72"/>
      <g>
        <path class="cls-8" d="M448.28,812.5c-2.08-10.78,41.24-49.53,39.16-64.61s-19.7-79.75-11.41-76.51a2.06,2.06,0,0,1,2.08,2.15s5.18-3.23,0-7.54-21.78-20.48-24.89-26.94-23.86-37.72-49.78-42-46.16-3.56-49.27-8.94-1.55-8.3-1.55-8.3-3.83,2-13,6.22c-13.48,6.22-48.23,13.18-57,20.18,0,0-33.19,19.4-42.52,48.49s-17.63,57.12-11.41,100.22,24.89,46.84,28,54.1c3,6.93,5.15,2.53,22.6,20.51" transform="translate(-100.91 -300.3)"/>
        <path class="cls-9" d="M282.28,818.5c4.14-10.78-8.49-36.13-8.49-36.13l-17.63-42,41.49-100.22,84-22.62L433.51,652l28,51.72,2.08,61.43-2.08,31.25" transform="translate(-100.91 -300.3)"/>
        <path id="shirt" class="cls-4" d="M216.25,1172.63l-49.29-54a58.38,58.38,0,0,1-15.26-40.42l.63-34.82a58.45,58.45,0,0,1,2.55-16.08c24-78,112-99.23,135.58-103.58a58,58,0,0,1,10.51-.95H403.59s154-3.79,160.27,103.48c3.51,59.53,5.65,143.73,6.86,206.9.8,41.74-41.21,70.78-80,55.3l-253-101A58.41,58.41,0,0,1,216.25,1172.63Z" transform="translate(-100.91 -300.3)"/>
        <path class="cls-10" d="M324.91,832.88s-1.67,77.63-27.66,89,56.66,63.57,100.28,20.45c0,0-23-41.81-12.17-104" transform="translate(-100.91 -300.3)"/>
        <path class="cls-10" d="M460.56,716.08s15.14-26.51,22.71,0-18.93,46.69-20.19,49.21" transform="translate(-100.91 -300.3)"/>
        <circle class="cls-11" cx="365.36" cy="460.2" r="4"/>
        <path class="cls-10" d="M261.16,723.65s-30.29-25.24-26.5,6.31S265,775.39,265,775.39" transform="translate(-100.91 -300.3)"/>
        <path class="cls-12" d="M466.87,740.33c0,77.78-35.28,141.43-107.27,137.28-65.63-3.79-104.48-59.5-104.48-137.28S302.4,617.19,360.87,617.19,466.87,662.55,466.87,740.33Z" transform="translate(-100.91 -300.3)"/>
        <ellipse id="nose" class="cls-10" cx="258.69" cy="447.33" rx="8.83" ry="27.76"/>
        <g id="eyebrows">
          <path class="cls-13" d="M289.56,701.94a44.34,44.34,0,0,1,37.86-17.67" transform="translate(-100.91 -300.3)"/>
          <path class="cls-13" d="M431.53,701.94S417.44,683,389.25,684.27" transform="translate(-100.91 -300.3)"/>
        </g>
        <g id="cheeks">
          <circle class="cls-14" cx="198.19" cy="467.71" r="19.01"/>
          <circle class="cls-14" cx="334.85" cy="468.32" r="19.01"/>
        </g>
        <g id="eyes">
          <circle cx="224.13" cy="423.98" r="8.2"/>
          <circle cx="304.35" cy="424.34" r="8.2"/>
        </g>
        <path class="cls-8" d="M381.28,612.5s32,25-9,40c0,0,2-18-17-18s11,29-26,33c-3.25.35-15.85-8.36-19-8-32.77,3.77-50,17-50,17S294.28,588.5,381.28,612.5Z" transform="translate(-100.91 -300.3)"/>
        <path class="cls-8" d="M389.28,616.5s-20.46-6.88,4.77,18.56,30.23,32.44,30.23,32.44,8,0,5-12,19,12,19,26-13,37-4,32,19-26,19-26l-32-55Z" transform="translate(-100.91 -300.3)"/>
        <path class="cls-8" d="M266.28,668.5s-7.41,37.32,1.79,53.66-2.79,10.34-7.79,5.34-10-33-10-33Z" transform="translate(-100.91 -300.3)"/>
        <path class="cls-8" d="M249.28,659.5s-29,5-25-8c0,0-4,19,11,23S249.28,659.5,249.28,659.5Z" transform="translate(-100.91 -300.3)"/>
        <polygon class="cls-4" points="286.36 1022.2 85.36 1021.2 77.36 709.2 293.36 821.2 286.36 1022.2"/>
        <path class="cls-15" d="M285,697.5s-7.11,3.17-1.65,9.31c4.14,4.66,9.94,2.33,9.94,0" transform="translate(-100.91 -300.3)"/>
        <circle class="cls-11" cx="150.36" cy="461.2" r="4"/>
        <path class="cls-16" d="M501.34,742.29S444.28,869.5,456.28,949.5s97,31,97,31l38-51-43-207-46.94,19.79" transform="translate(-100.91 -300.3)"/>
        <path id="shirt-2" data-name="shirt" class="cls-3" d="M551.7,994.35s-89.43-11.36-126,73.39-45.44,255.76-45.44,255.76l363-4,34-29s13.11-298.59-127-309" transform="translate(-100.91 -300.3)"/>
        <g id="face">
          <path class="cls-17" d="M531.68,918.3s37.86,63.18,21.46,90.09,71.93,49.15,97.17,0c0,0-30.29-33.93-12.62-93.6" transform="translate(-100.91 -300.3)"/>
          <path class="cls-18" d="M491.78,793.85c-10.83,40.58-29,77.86-5.5,115.65,16.58,26.69,23.81,35.69,80,33.14,74-3.34,114.19-39.31,140.75-99.39,28.88-65.33-15-135.15-74.48-148.79S510.08,725.32,491.78,793.85Z" transform="translate(-100.91 -300.3)"/>
          <path class="cls-18" d="M667.87,850.68s56.35-18.67,60,7.8c4.31,31.33-75.65,47.77-75.65,47.77" transform="translate(-100.91 -300.3)"/>
        </g>
        <g id="eyes-2" data-name="eyes">
          <circle cx="503.34" cy="524.08" r="8.2"/>
          <circle cx="430.14" cy="491.27" r="8.2"/>
        </g>
        <ellipse id="nose-2" data-name="nose" class="cls-19" cx="548.46" cy="834.26" rx="21.13" ry="7.04" transform="translate(-540.45 677.7) rotate(-64.96)"/>
        <g id="eyebrows-2" data-name="eyebrows">
          <path class="cls-20" d="M595.53,792s23.75-14.47,32.75,18.53" transform="translate(-100.91 -300.3)"/>
          <path class="cls-20" d="M545.28,769.5s-2.21-17.55-30-5" transform="translate(-100.91 -300.3)"/>
        </g>
        <path id="mouth" class="cls-21" d="M556.72,893.34c-25.92,24.45-36.58-4.3-39-7.89C517.68,885.45,573.33,877.67,556.72,893.34Z" transform="translate(-100.91 -300.3)"/>
        <g id="cheeks-2" data-name="cheeks">
          <ellipse class="cls-22" cx="504.43" cy="573.86" rx="20.68" ry="21.29"/>
          <path class="cls-22" d="M513.21,830.36c0,11.76-34.93,24.14-32.93,14.14,3.32-16.61,6.17-29.34,12.25-35.42C500.6,801,513.21,818.61,513.21,830.36Z" transform="translate(-100.91 -300.3)"/>
        </g>
        <path class="cls-18" d="M586.54,832.5s21.58-7.62,25.39,0S586.54,832.5,586.54,832.5Z" transform="translate(-100.91 -300.3)"/>
        <path class="cls-18" d="M512.54,800.5s21.58-7.62,25.39,0S512.54,800.5,512.54,800.5Z" transform="translate(-100.91 -300.3)"/>
        <path d="M606.28,816.84s-8.57-1.22-9.79-7.34c0,0-1.22,6.12,2.45,9.79S606.28,816.84,606.28,816.84Z" transform="translate(-100.91 -300.3)"/>
        <path d="M532.28,783.84s-8.57-1.22-9.79-7.34c0,0-1.22,6.12,2.45,9.79S532.28,783.84,532.28,783.84Z" transform="translate(-100.91 -300.3)"/>
        <path class="cls-23" d="M328.78,811s12.25,24.5,34.3,9.8" transform="translate(-100.91 -300.3)"/>
        <g>
          <path class="cls-2" d="M531.94,1076s-6.3-20.16-7.56-25.2-29.82,4.36-44.1,10.08c-12.6,5,0,31.5,0,31.5s1.26,6.3,8.82,15.12c0,0,40.32-6.3,44.1-13.86s-3.71-17.11-3.71-17.11" transform="translate(-100.91 -300.3)"/>
          <circle class="cls-24" cx="404.36" cy="778.2" r="16.5"/>
        </g>
        <path class="cls-25" d="M762.75,1249.14S642.58,1131.36,597.36,1109.5c0,0-29.74,43.71-42.83,51s45.21,88.64,82.1,115.35S690,1323,734.71,1322.49,793.69,1273.43,762.75,1249.14Z" transform="translate(-100.91 -300.3)"/>
        <path class="cls-16" d="M658.39,767.89S639.28,929.5,610.28,984.5c0,0-11,24-18,29s85,3,100-31,58-160,46-198-29-87-110-106-109,8-121,24-17,39-17,39a129,129,0,0,1,16-.5c9.25.25,21,1.5,31,5.5,0,0,8-15,15-16s0,14,5,24,79,29,79,29S648.51,757.27,658.39,767.89Z" transform="translate(-100.91 -300.3)"/>
        <path class="cls-12" d="M756.42,1269.27s16.74-21.56,18.52-31.59,24.39-4,26.2,11.37-14,63.29-31.93,61.89S756.42,1269.27,756.42,1269.27Z" transform="translate(-100.91 -300.3)"/>
        <path class="cls-12" d="M153.85,1094.43l103.43-12.93s65,67,89,115c0,0,8,12,11,14s150-94,174-104,29,32,29,32-155,167-194,165S211.42,1272.35,153.85,1094.43Z" transform="translate(-100.91 -300.3)"/>
        <path class="cls-18" d="M591.91,1100.07s-5.83-16.35-29.3-23-42.26-1.71-56,3.45,4.62,24.2,20.27,26.48,9.31,29.33,15.53,40.41S557.1,1160,557.1,1160,606.47,1119.42,591.91,1100.07Z" transform="translate(-100.91 -300.3)"/>
        <path class="cls-12" d="M548.28,1078.5s34,19,38,29,4,11,11,7c10.73-6.14,12-31-3-43s-37-23-45-18-15,17-14,20S547.28,1077.5,548.28,1078.5Z" transform="translate(-100.91 -300.3)"/>
      </g>
    </g>
  </g>
</svg>
