<svg id="Layer_13" data-name="Layer 13" xmlns="http://www.w3.org/2000/svg" viewBox="0 0 493.54 541.25">
  <defs>
    <style>
      .cls-1 {
        fill: #1d0072;
      }

      .cls-2 {
        fill: #ff006a;
      }

      .cls-13, .cls-3 {
        fill: #fff;
      }

      .cls-4 {
        fill: #f59b45;
      }

      .cls-5 {
        fill: #3614c6;
      }

      .cls-6 {
        fill: #ffe430;
      }

      .cls-7 {
        fill: #d3a166;
      }

      .cls-8 {
        fill: #f9c985;
      }

      .cls-9 {
        fill: #f28649;
      }

      .cls-10 {
        fill: #d17b50;
      }

      .cls-11 {
        fill: #00dcd5;
      }

      .cls-12 {
        fill: #b2f2f7;
      }

      .cls-13 {
        stroke: #f766a8;
        stroke-linecap: round;
        stroke-linejoin: round;
        stroke-width: 5px;
      }
    </style>
  </defs>
  <g>
    <path class="cls-1" d="M567,456.88a5,5,0,0,1,5,4.94V580.71h36.2V461.82a4.94,4.94,0,0,1,4.94-4.94V447H567v9.88Z" transform="translate(-253.23 -229.38)"/>
    <path class="cls-1" d="M608.18,446.1V579.5H572V446.1c0-3.06-2.22-5.54-5-5.54s-4.94,2.48-4.94,5.54V579.5H513.83c-2.73,0-4.94,2.49-4.94,5.55s2.21,5.54,4.94,5.54h152.5c2.72,0,4.94-2.48,4.94-5.54s-2.22-5.55-4.94-5.55H618.06V446.1c0-3.06-2.21-5.54-4.94-5.54S608.18,443,608.18,446.1Z" transform="translate(-253.23 -229.38)"/>
    <path class="cls-1" d="M618.1,366.64V349.81c0-7.28-5.22-13.2-11.63-13.2H573.69c-6.41,0-11.63,5.92-11.63,13.2v16.83Z" transform="translate(-253.23 -229.38)"/>
    <g>
      <polyline class="cls-2" points="455.54 211.2 491.01 172.63 427.75 103.83 427.75 241.42 449.34 217.95"/>
      <path class="cls-2" d="M704.43,449l-21.59,23.48a2.55,2.55,0,0,1-1.87.82,2.66,2.66,0,0,1-.91-.17,2.53,2.53,0,0,1-1.62-2.36V333.2a2.53,2.53,0,0,1,4.4-1.71l63.26,68.8a2.52,2.52,0,0,1,0,3.42l-35.47,38.58m-27.12-102.6V464.31L699.7,446.7l-2.65-8.18a2.53,2.53,0,0,1,3.15-3.21l7.78,2.38L740.8,402Z" transform="translate(-253.23 -229.38)"/>
    </g>
    <g>
      <polygon class="cls-2" points="203.21 128.43 429.24 128.43 429.24 216.16 201.85 216.16 201.85 164.98 210.67 156.86 202.87 147.51 203.21 128.43"/>
      <path class="cls-2" d="M682.47,448.07H455.08a2.53,2.53,0,0,1-2.53-2.53V394.36a2.5,2.5,0,0,1,.81-1.86l7.05-6.49-6.26-7.5a2.52,2.52,0,0,1-.59-1.66l.34-19.09a2.54,2.54,0,0,1,2.53-2.49h226A2.53,2.53,0,0,1,685,357.8v87.74A2.54,2.54,0,0,1,682.47,448.07ZM457.61,443H679.94V360.33h-221L458.64,376l7.2,8.62a2.54,2.54,0,0,1-.22,3.49l-8,7.37Z" transform="translate(-253.23 -229.38)"/>
    </g>
    <g>
      <path class="cls-3" d="M500.35,378.39h-5.93v-4h16.15v4h-5.93v15.53h-4.29Z" transform="translate(-253.23 -229.38)"/>
      <path class="cls-3" d="M513.85,374.43h4.29v7.72H526v-7.72h4.29v19.49H526V386.1h-7.9v7.82h-4.29Z" transform="translate(-253.23 -229.38)"/>
      <path class="cls-3" d="M535.2,374.43h4.29v19.49H535.2Z" transform="translate(-253.23 -229.38)"/>
      <path class="cls-3" d="M543,391.08l2.53-3a9,9,0,0,0,5.82,2.36c1.76,0,2.81-.69,2.81-1.83v-.06c0-1.08-.66-1.64-3.92-2.48-3.93-1-6.46-2.08-6.46-6V380c0-3.54,2.84-5.87,6.82-5.87a11.32,11.32,0,0,1,7.24,2.47l-2.23,3.23a9.17,9.17,0,0,0-5.06-1.92c-1.65,0-2.51.75-2.51,1.7v.06c0,1.28.83,1.69,4.2,2.56,4,1,6.18,2.45,6.18,5.84v.06c0,3.87-3,6-7.15,6A12.4,12.4,0,0,1,543,391.08Z" transform="translate(-253.23 -229.38)"/>
      <path class="cls-3" d="M569,374.43h4.59l4,13.2L582,374.38h3.68l4.37,13.25,4-13.2h4.49l-6.66,19.63H588.2l-4.4-12.75-4.4,12.75h-3.73Z" transform="translate(-253.23 -229.38)"/>
      <path class="cls-3" d="M605.93,374.3h4l8.36,19.62h-4.49L612,389.55h-8.24L602,393.92h-4.37Zm4.51,11.47-2.59-6.32-2.59,6.32Z" transform="translate(-253.23 -229.38)"/>
      <path class="cls-3" d="M623.66,386.24l-7.49-11.81h5l4.65,7.83,4.74-7.83h4.87L628,386.16v7.76h-4.29Z" transform="translate(-253.23 -229.38)"/>
      <path class="cls-3" d="M651,378.39h-5.93v-4h16.14v4h-5.93v15.53H651Z" transform="translate(-253.23 -229.38)"/>
      <path class="cls-3" d="M662.8,384.23v-.05a10.36,10.36,0,0,1,20.71-.06v.06a10.36,10.36,0,0,1-20.71.05Zm16.23,0v-.05a5.93,5.93,0,0,0-5.9-6.13,5.83,5.83,0,0,0-5.85,6.07v.06a5.92,5.92,0,0,0,5.9,6.12A5.82,5.82,0,0,0,679,384.23Z" transform="translate(-253.23 -229.38)"/>
      <path class="cls-3" d="M532.37,407.84h8c4.65,0,7.46,2.75,7.46,6.74v.05c0,4.51-3.5,6.85-7.88,6.85h-3.25v5.85h-4.29Zm7.68,9.83c2.15,0,3.4-1.28,3.4-3v0c0-1.92-1.34-3-3.48-3h-3.31v6Z" transform="translate(-253.23 -229.38)"/>
      <path class="cls-3" d="M551,407.84h4.29v15.59H565v3.9H551Z" transform="translate(-253.23 -229.38)"/>
      <path class="cls-3" d="M568.19,407.84h14.7v3.81H572.45v4h9.19v3.81h-9.19v4.09H583v3.82H568.19Z" transform="translate(-253.23 -229.38)"/>
      <path class="cls-3" d="M593.53,407.7h4l8.35,19.63h-4.48L599.57,423h-8.24l-1.78,4.37h-4.38ZM598,419.17l-2.59-6.32-2.59,6.32Z" transform="translate(-253.23 -229.38)"/>
      <path class="cls-3" d="M607.22,424.49l2.53-3a9,9,0,0,0,5.82,2.37c1.76,0,2.81-.7,2.81-1.84v-.05c0-1.09-.66-1.65-3.92-2.48-3.93-1-6.46-2.09-6.46-6v-.06c0-3.53,2.84-5.87,6.82-5.87a11.28,11.28,0,0,1,7.24,2.48l-2.23,3.23a9.09,9.09,0,0,0-5.06-1.92c-1.65,0-2.51.75-2.51,1.69v.06c0,1.28.83,1.7,4.2,2.56,4,1,6.18,2.45,6.18,5.85v.05c0,3.87-2.95,6-7.15,6A12.44,12.44,0,0,1,607.22,424.49Z" transform="translate(-253.23 -229.38)"/>
      <path class="cls-3" d="M626.07,419V407.84h4.28v11c0,3.18,1.59,4.82,4.21,4.82s4.2-1.59,4.2-4.68V407.84h4.29v11c0,5.9-3.31,8.79-8.55,8.79S626.07,424.71,626.07,419Z" transform="translate(-253.23 -229.38)"/>
      <path class="cls-3" d="M647.42,407.84h8.91a7.76,7.76,0,0,1,5.68,2,6.11,6.11,0,0,1,1.66,4.45v.06a6,6,0,0,1-4.17,6l4.76,7h-5l-4.18-6.24H651.7v6.24h-4.28Zm8.63,9.46c2.09,0,3.28-1.11,3.28-2.75v-.06c0-1.84-1.28-2.78-3.37-2.78H651.7v5.59Z" transform="translate(-253.23 -229.38)"/>
      <path class="cls-3" d="M667.54,407.84h14.7v3.81H671.8v4H681v3.81H671.8v4.09h10.58v3.82H667.54Z" transform="translate(-253.23 -229.38)"/>
    </g>
    <g>
      <line class="cls-4" x1="354.95" y1="237.5" x2="354.95" y2="338.69"/>
      <path class="cls-5" d="M608.18,570.84a2.77,2.77,0,0,1-2.77-2.77V466.88a2.78,2.78,0,1,1,5.55,0V568.07A2.78,2.78,0,0,1,608.18,570.84Z" transform="translate(-253.23 -229.38)"/>
    </g>
    <g>
      <line class="cls-4" x1="354.87" y1="226.76" x2="354.87" y2="223.91"/>
      <path class="cls-5" d="M608.1,458.91a2.78,2.78,0,0,1-2.78-2.77v-2.86a2.78,2.78,0,0,1,5.55,0v2.86A2.77,2.77,0,0,1,608.1,458.91Z" transform="translate(-253.23 -229.38)"/>
    </g>
    <path class="cls-3" d="M501.61,429.94a2.78,2.78,0,0,1-1.78-4.91l7.48-6.22c-10.22-.5-17.87-3.47-22.8-8.88-7.1-7.78-5.69-17.59-5.63-18a2.78,2.78,0,0,1,5.49.83c0,.16-1,7.73,4.28,13.49,4,4.33,10.48,6.68,19.35,7l-8.28-7.71a2.77,2.77,0,0,1,3.76-4.08L517,413.84a2.77,2.77,0,0,1-.1,4.18L503.38,429.3A2.74,2.74,0,0,1,501.61,429.94Z" transform="translate(-253.23 -229.38)"/>
    <path d="M284,350.45s-15.29,16.87-20.32,39.23c-5.17,23-14,68-5,122.82S269.79,556,269.79,556s25.7.5,32.45-3.62c0,0-.13-11.31,2.84-15.38,0,0,.89,11.29,3.22,16.11s36.29,2,36.29,2l64.19-3.19s5.85-16.22,5.76-24.3,2.58,26.62,2.58,26.62,21.19,2.17,23.42-.28,2.34-57.36,6-70.33c0,0-.15,50.07,2.26,62.15s16.51-135,8.67-159.18c-5.55-17.06-18.45-38.47-32.34-49.68a92.81,92.81,0,0,0-58.44-21.1C345.44,315.55,298.85,328.47,284,350.45Z" transform="translate(-253.23 -229.38)"/>
    <path id="shirt" class="cls-6" d="M268.59,770.23l-15-132.4a48.87,48.87,0,0,1,12.16-38.46c18.5-20.29,48.47-29,65.17-32.46,7.42-1.53,12.21-2,12.21-2h68s97.54-2,101.54,53.61-14.45,152.12-14.45,152.12Z" transform="translate(-253.23 -229.38)"/>
    <g id="face">
      <path class="cls-7" d="M341.18,501.36s8.28,53.61-9.71,64.39,50,37.26,77.27,2.6c0,0-22.25-26.15-21.82-70.19" transform="translate(-253.23 -229.38)"/>
      <path class="cls-7" d="M434.4,422.28s10.73-18.62,16.42-.2-13.29,32.74-14.19,34.52" transform="translate(-253.23 -229.38)"/>
      <path class="cls-7" d="M291,428.5s-22.11-17.34-19.11,4.63,22.29,31.44,22.29,31.44" transform="translate(-253.23 -229.38)"/>
      <path class="cls-8" d="M439.48,428.17c.65,54.26-25.47,99-79.89,96.74-49.62-2-79.44-40.56-80.09-94.82s34.69-86.34,78.86-86.87S438.83,373.91,439.48,428.17Z" transform="translate(-253.23 -229.38)"/>
    </g>
    <g id="eyebrows">
      <path d="M304.5,408.58a2.78,2.78,0,0,1-2.15-4.52,35.42,35.42,0,0,1,32.56-11.36,2.78,2.78,0,0,1-.94,5.47,29.81,29.81,0,0,0-27.32,9.4A2.8,2.8,0,0,1,304.5,408.58Z" transform="translate(-253.23 -229.38)"/>
      <path d="M411.81,413.14a2.75,2.75,0,0,1-2.23-1.13c-.42-.56-10.3-13.49-29.71-12.35a2.77,2.77,0,1,1-.33-5.54c22.53-1.32,34,13.95,34.51,14.6a2.79,2.79,0,0,1-.59,3.88A2.83,2.83,0,0,1,411.81,413.14Z" transform="translate(-253.23 -229.38)"/>
    </g>
    <g id="cheeks">
      <ellipse class="cls-9" cx="311.41" cy="446.12" rx="14.36" ry="14.9" transform="translate(-258.56 -225.61) rotate(-0.69)"/>
      <ellipse class="cls-9" cx="412.33" cy="441.64" rx="14.36" ry="14.9" transform="translate(-258.5 -224.4) rotate(-0.69)"/>
    </g>
    <path class="cls-8" d="M392.93,427.49" transform="translate(-253.23 -229.38)"/>
    <path class="cls-10" d="M356.21,498.33a30.39,30.39,0,0,1-4.09-.29c-.51-.07-12.28-1.77-12.87-7a3.89,3.89,0,0,1,6.9-2.86A21.47,21.47,0,0,0,360.73,490c4.68-1.28,8.18-4.7,10.43-10.18a3.89,3.89,0,1,1,7.19,2.95C374.23,492.81,366.28,498.33,356.21,498.33ZM347,490.14Z" transform="translate(-253.23 -229.38)"/>
    <g id="eyes">
      <ellipse cx="324.55" cy="421.87" rx="6.2" ry="6.43" transform="translate(-258.27 -225.45) rotate(-0.69)"/>
      <ellipse cx="385.16" cy="421.43" rx="6.2" ry="6.43" transform="matrix(1, -0.01, 0.01, 1, -258.26, -224.72)"/>
    </g>
    <ellipse id="nose" class="cls-7" cx="354.35" cy="447.34" rx="5.32" ry="16.57" transform="translate(-258.57 -225.09) rotate(-0.69)"/>
    <path d="M431.64,368.22s9.32,31.25,9.53,49.28S420.42,428,420.42,428s1.11-32.17-8.73-44.6c0,0,.41,34.5-4,36.91s-13.4,1.73-13.4,1.73-1.35-51-16.31-54.7-12.12,45.63-12.12,45.63L345,414s-5.55-27.38-2.74-41.52-5.58,32.21-4,40.82c0,0-11.39-17.12-10.1-33.6,0,0-5.78,15-5.66,25.16s-23.75,8.91-23.75,8.91-9.08-11.65-7.11-33.63c0,0-3.36,30.62-1.72,43.15s-9.56,10.31-9.56,10.31-10.83-32-4.29-46.22,26.35-41.09,40.49-42.83,62.53-7,73.77-2.45S424.79,356.53,431.64,368.22Z" transform="translate(-253.23 -229.38)"/>
    <path d="M430.63,405.08s1.82,48.07-4.39,79.78,25.56-41.61,21.9-80.77" transform="translate(-253.23 -229.38)"/>
    <path class="cls-6" d="M323.6,569.33s6.79-1.6,8.23-6.9,2.8-18.93,4.32-18.19,16.66,2.82,41.55-.5,25.67-1.82,25.65-4.08,7.46,1.87,7.22,8.45,5.31,28.42,9.1,29.13-39.8,20.88-47.36,21-47.85-20.58-49.43-25.85S323.6,569.33,323.6,569.33Z" transform="translate(-253.23 -229.38)"/>
    <path d="M384.77,416.8s-7.37-1-8.49-6.45c0,0-1,5.48,2.21,8.71S384.77,416.8,384.77,416.8Z" transform="translate(-253.23 -229.38)"/>
    <path class="cls-8" d="M389.15,427.54c6.84,3-12.08.93-12.08.93a12.34,12.34,0,0,1,12.08-.93" transform="translate(-253.23 -229.38)"/>
    <path class="cls-8" d="M329.47,428.25c6.83,3.06-12.08.93-12.08.93a12.36,12.36,0,0,1,12.08-.93" transform="translate(-253.23 -229.38)"/>
    <path d="M274.89,378.32,268,431.93l12.74,103.5,24.41-14.34,17.52,29.73,9.45,4.43,1.11.49s2.91-12.48,4-13.37c0,0-.24,10.62,1.21,13.61s22.93,2.42,22.93,2.42l21.24-.1s8.94-24.27,7.67-46.63c0,0,1.27,42.8,2.55,46.63s20.44.64,20.44.64l5.32-57,17.45-14.68,2.55-59.15-11.06-51.92L386.28,353Z" transform="translate(-253.23 -229.38)"/>
    <g>
      <path class="cls-11" d="M394,394.58h0a23.61,23.61,0,0,0-3.41,12c-.15,11.7,8.32,21.7,18.95,22.31,11.55.67,21.11-9.44,21.11-22a23.49,23.49,0,0,0-3.42-12.31h0l-14.94-24.75a1.9,1.9,0,0,0-3.33,0L394,394.57h0Z" transform="translate(-253.23 -229.38)"/>
      <path class="cls-12" d="M416.19,421.52a2.23,2.23,0,0,1-1-4.22c8.48-4.15,7.15-13.47,7.09-13.86a2.22,2.22,0,0,1,4.39-.7c.72,4.45-.34,14.05-9.52,18.55A2.17,2.17,0,0,1,416.19,421.52Z" transform="translate(-253.23 -229.38)"/>
      <path class="cls-12" d="M423,400.55a2.19,2.19,0,0,1-2-1.29l-.33-.71a2.22,2.22,0,1,1,4-1.86l.33.72a2.22,2.22,0,0,1-1.09,2.94A2.2,2.2,0,0,1,423,400.55Z" transform="translate(-253.23 -229.38)"/>
    </g>
    <g>
      <path class="cls-11" d="M366.88,364.91h0a14.17,14.17,0,0,0-2.06,7.25c-.09,7.06,5,13.11,11.44,13.48,7,.4,12.75-5.71,12.75-13.29a14.21,14.21,0,0,0-2.06-7.44h0l-9-15a1.15,1.15,0,0,0-2,0l-9,15Z" transform="translate(-253.23 -229.38)"/>
      <path class="cls-12" d="M380.29,382.06a2.22,2.22,0,0,1-1-4.21c4.52-2.22,3.83-7.24,3.8-7.46a2.22,2.22,0,0,1,4.39-.69c.47,2.91-.23,9.19-6.24,12.13A2.1,2.1,0,0,1,380.29,382.06Z" transform="translate(-253.23 -229.38)"/>
      <path class="cls-12" d="M384.39,369.4a2.22,2.22,0,0,1-2-1.29l-.2-.43a2.22,2.22,0,1,1,4-1.87l.2.44a2.21,2.21,0,0,1-1.09,2.94A2.18,2.18,0,0,1,384.39,369.4Z" transform="translate(-253.23 -229.38)"/>
    </g>
    <g>
      <path class="cls-11" d="M322.15,242.08l-.36-1.76,15.66-3.25.37,1.76,3.95,39.75-7.39,1.54Zm10.23,45.62,14.25-3,2.93,14.09-14.26,3Z" transform="translate(-253.23 -229.38)"/>
      <path class="cls-11" d="M364.68,259l.35-.54c11-2.74,14.71-6.54,13.74-11.21l0-.17c-.82-4-4.29-5.63-9.4-4.57-4.93,1-8.73,3.93-11.94,8.82l-9.94-7.2a28.35,28.35,0,0,1,19.58-14c12.68-2.64,22.66,2.08,25.09,13.78l0,.18c2.32,11.18-4.47,17.36-13.66,21.3l.15,5.57-9,1.86Zm3.51,21.3,14.26-3,2.93,14.09-14.26,3Z" transform="translate(-253.23 -229.38)"/>
    </g>
    <line class="cls-13" x1="467.53" y1="186.44" x2="434.12" y2="222.6"/>
    <line class="cls-13" x1="475.16" y1="178.31" x2="479.33" y2="174.14"/>
    <line class="cls-13" x1="209.51" y1="134.79" x2="310.12" y2="134.79"/>
    <line class="cls-13" x1="318.39" y1="134.63" x2="323.95" y2="134.63"/>
  </g>
</svg>
