<?xml version="1.0" encoding="utf-8"?>
<!-- Generator: Adobe Illustrator 23.0.1, SVG Export Plug-In . SVG Version: 6.00 Build 0)  -->
<svg version="1.1" id="Layer_1" xmlns="http://www.w3.org/2000/svg" xmlns:xlink="http://www.w3.org/1999/xlink" x="0px" y="0px"
	 viewBox="0 0 1000 1000" style="enable-background:new 0 0 1000 1000;" xml:space="preserve">
<style type="text/css">
	.st0{fill:#FFFFFF;}
	.st1{fill:#6F29B2;}
	.st2{fill:#592299;}
	.st3{fill:#5BB563;}
	.st4{fill:#7E44C1;}
	.st5{fill:#4F9952;}
	.st6{fill:#17D5D1;}
	.st7{fill:#15BAB1;}
	.st8{fill:none;stroke:#17D5D1;stroke-width:19.4677;stroke-miterlimit:10;}
	.st9{fill:#FF4676;}
	.st10{fill:#BC3566;}
	.st11{fill:none;stroke:#FF4676;stroke-width:15.0353;stroke-miterlimit:10;}
	.st12{fill:none;stroke:#FF4676;stroke-width:15.4264;stroke-miterlimit:10;}
</style>
<g id="speech_x5F_bubble">
	<g id="logo_ideas">
		<g id="logo_v1_yellow">
			<g id="speech_bubble">
				<circle id="circle" class="st0" cx="499.51" cy="499.51" r="419.49"/>
				<path id="dash" class="st0" d="M716.53,840.04l146.99,55.09c0,0,50.06,21.65,33.07-27.55c-16.99-49.2-66.14-157.98-66.14-157.98
					L716.53,840.04z"/>
			</g>
		</g>
	</g>
</g>
<g id="eggplant">
	<path class="st1" d="M273,350.51C313.73,431.26,604.74,919.14,878,707.18c21.91-16.99,36.32-42.21,41.5-69.66
		c8.95-47.35-0.59-118.73-115.66-161.52C677.14,428.87,542.7,297.99,464.07,212.1c-82.93-90.59-230.85-9.41-201.12,110.43
		c0.46,1.86,0.95,3.74,1.46,5.64C266.48,335.91,269.4,343.37,273,350.51z"/>
	<path class="st2" d="M273,350.51C313.73,431.26,604.74,919.14,878,707.18c21.91-16.99-230.3,106.65-622.09-419.17
		c-1.15-1.54,7.99,38.26,8.5,40.16C266.48,335.91,269.4,343.37,273,350.51z"/>
	<path class="st3" d="M248.65,118.62c0,0-49.49,97.28-12.34,174.42c25.6,53.15,36.28,65.71,36.28,65.71s-9.79-91.51,5.62-120.67
		c15.41-29.16,93.31,108.21,93.31,108.21s41.76-81.99-1.53-148.04c0,0,135.14,54.67,149.36,21.19c0,0-116.12-40.98-130.41-65.84
		c-13.88-24.11-45.83-71.85-88.55-59.61c0,0-21.93-47.18-42.14-30.42C229,87.83,248.65,118.62,248.65,118.62z"/>
	<path class="st4" d="M571.04,366.46c0,0,156.06,138.54,238.16,147.37c15.15,1.63,27.06,2.49,36.21,6.53
		c32.54,14.33,35.75,85.59-12.49,74.59C762.88,578.98,629.75,517.32,571.04,366.46"/>
	<path class="st5" d="M258.5,151.86c0,0-25.82,152.22,14.51,198.65c0,0-87.56-71.7-30.26-218.6
		C242.74,131.91,265.27,87.17,258.5,151.86z"/>
</g>
<g id="condoms">
	<g id="Layer_1-2">
		<g id="safe_sex_poster1">
			<g id="chat">
				<g>
					<g id="teal_condom">
						<path class="st6" d="M435.87,456.69L159.28,648.46l34.46,49.71c14.3-3.91,23.47,13.47,16.51,23.77l25.68,37.07
							c0.77-0.46,1.57-0.86,2.39-1.22c17.03-6.65,27.81,16.99,15.17,26.51l25.16,36.28c1-0.65,2.06-1.19,3.17-1.61
							c17.38-6.78,28.25,17.9,14.47,27.03l25.33,36.55c1.28-1.16,2.75-2.09,4.35-2.74c17.9-7,28.9,19.51,13.04,27.85l12.04,17.38
							l276.68-191.81L435.87,456.69z"/>
						<circle class="st7" cx="393.45" cy="690.87" r="122.85"/>
						<circle class="st6" cx="393.45" cy="690.87" r="95.86"/>
						<path class="st8" d="M445.21,450.26c10.52,15.43-3.17,24.73,7.39,40.2c10.56,15.47,24.16,6.17,34.76,21.73
							s-3.13,24.77,7.39,40.24c10.52,15.47,24.2,6.17,34.76,21.73c10.56,15.56-3.13,24.77,7.39,40.24
							c10.52,15.47,24.2,6.17,34.76,21.73c10.56,15.56-3.13,24.77,7.39,40.24c10.52,15.47,24.2,6.17,34.76,21.73
							c10.56,15.56-3.09,24.77,7.43,40.24"/>
						<path class="st6" d="M438.95,463.95c2.4,0,4.35-1.95,4.35-4.35c0-2.4-1.95-4.35-4.35-4.35c-2.4,0-4.35,1.95-4.35,4.35
							C434.61,462,436.55,463.95,438.95,463.95z"/>
						<path class="st6" d="M470.67,517.83c4.64,4.55,9,9.38,13.04,14.47c0.8,0.82,1.9,1.29,3.04,1.3c1.16,0,2.27-0.47,3.09-1.3
							c0.83-0.79,1.29-1.9,1.26-3.04c-0.06-1.14-0.51-2.23-1.26-3.09c-4.03-5.1-8.38-9.93-13.04-14.47
							c-1.82-1.56-4.57-1.35-6.13,0.48C469.28,513.81,469.28,516.21,470.67,517.83L470.67,517.83z"/>
					</g>
					<g id="pink_condom">
						<path class="st9" d="M627.46,558.42L368.73,586.4l5.04,46.5c11.12,2.65,10.95,17.82,2.43,22.25l3.74,34.76
							c0.69-0.06,1.39-0.06,2.09,0c13.99,1.78,12.6,21.73,0.48,23.6l3.69,33.98c0.91-0.11,1.83-0.11,2.74,0
							c14.25,1.83,12.56,22.6,0,23.73l3.69,34.16c1.34-0.22,2.7-0.22,4.04,0c14.77,1.87,12.43,23.94-1.48,23.73l1.74,16.21
							l258.73-28.03L627.46,558.42z"/>
						<circle class="st10" cx="512.13" cy="701.91" r="94.99"/>
						<circle class="st9" cx="512.69" cy="703.43" r="69.57"/>
						<path class="st11" d="M636.06,557.55c2.56,26.07-10.17,27.16-7.56,53.06c2.61,25.9,15.3,24.64,17.86,50.54
							c2.56,25.9-10.13,27.16-7.56,53.06c2.56,25.9,15.3,24.68,17.86,50.58c2.56,25.9-10.13,27.2-7.52,53.1"/>
						<path class="st12" d="M375.12,585.84c2.87,26.07-9.82,27.29-6.91,53.15c2.91,25.86,15.6,24.42,18.51,50.28
							c2.91,25.86-9.78,27.29-6.87,53.15s15.6,24.42,18.51,50.32c2.91,25.9-9.78,27.29-6.91,53.15"/>
						<path class="st9" d="M633.89,657.71v9.65c0,1.14,0.46,2.23,1.26,3.04c0.81,0.83,1.92,1.3,3.09,1.3c2.4,0,4.35-1.95,4.35-4.35
							v-9.65c0.01-1.16-0.45-2.27-1.26-3.09c-0.82-0.81-1.93-1.27-3.09-1.26C635.83,653.37,633.89,655.31,633.89,657.71z"/>
						<path class="st9" d="M624.33,562.76c0.22,2.06,0.34,4.14,0.35,6.21c0,0.59,0.13,1.17,0.39,1.69c0.18,0.53,0.49,1.01,0.91,1.39
							c0.37,0.43,0.85,0.75,1.39,0.91c0.51,0.26,1.08,0.38,1.65,0.35c1.16,0.01,2.27-0.45,3.09-1.26l0.7-0.87
							c0.38-0.67,0.58-1.44,0.56-2.22c-0.01-2.08-0.12-4.15-0.35-6.21c-0.02-1.15-0.48-2.24-1.3-3.04
							c-0.37-0.43-0.85-0.75-1.39-0.91c-0.51-0.26-1.08-0.39-1.65-0.39C626.27,558.42,624.33,560.36,624.33,562.76L624.33,562.76z"
							/>
						<path class="st9" d="M373.59,631.6c-1.66,7.45-0.69,15.25,2.74,22.08c1.11,1.87,3.43,2.63,5.43,1.78
							c2-0.84,3.08-3.03,2.52-5.13c0-0.35,0-0.7-0.22-1.04c0-1.13,0,0.91,0,0c-0.13-1.45-0.13-2.9,0-4.35c0-0.3,0-0.61,0-0.87
							c0-0.26,0-0.35,0-0.52c0,0.56,0,0.61,0,0h-8.39l3.26,8.69c0.65,2.3,3.04,3.64,5.34,3c2.31-0.63,3.68-3.02,3.04-5.34
							c0,0,0,0,0-0.01l-3.3-8.69c-0.54-1.93-2.34-3.25-4.35-3.17c-2.01-0.07-3.8,1.24-4.35,3.17c-0.69,3.75-0.69,7.59,0,11.34
							l7.95-3.35c0-0.39-0.39-0.78-0.56-1.17s0.3,0.87,0,0c-0.3-0.87-0.52-1.43-0.74-2.17s-0.39-1.43-0.56-2.22
							c-0.17-0.78,0-0.74,0-1.09c0-1.17,0,0.61,0-0.3c-0.08-1.45-0.08-2.9,0-4.35c0-0.3,0-0.65,0-0.96c0-0.3,0-1.74,0-0.48
							c0.1-0.76,0.25-1.52,0.43-2.26c0.64-2.32-0.73-4.71-3.04-5.34c-2.32-0.64-4.71,0.73-5.34,3.04L373.59,631.6z"/>
						<path class="st9" d="M386.85,752.14l5.65,14.43c0.29,1.09,0.99,2.02,1.96,2.61c1.03,0.57,2.25,0.73,3.39,0.43
							c2.3-0.65,3.64-3.04,3-5.34l-3.91-11.91l-7.95,3.39l5.48,9.95c0.99,1.7,3.01,2.52,4.91,2c1.93-0.54,3.25-2.34,3.17-4.35v-6.82
							c0-2.4-1.95-4.35-4.35-4.35s-4.35,1.95-4.35,4.35v6.82l8.08-2.17l-5.43-9.95c-1.11-1.87-3.43-2.63-5.43-1.78
							c-2,0.84-3.08,3.03-2.52,5.13l3.95,11.86l8.34-2.3l-5.61-14.43c-0.34-1.08-1.05-2-2-2.61c-1.01-0.59-2.22-0.75-3.35-0.43
							c-2.31,0.63-3.68,3.02-3.04,5.34c0,0,0,0,0,0.01L386.85,752.14z"/>
						<path class="st9" d="M404.71,808.68l-0.78,1.22l0,0l-0.43,0.52l-2,2.17c-1.41,1.38-2.61,2.96-3.56,4.69
							c-2.4,3.97-2,9.02,1,12.56l-0.7-5.26l0,0l-0.65,0.78c-0.39,0.52-0.87,1-1.3,1.52s-1.83,1.91-2.82,2.82
							c-1.68,1.69-1.68,4.43,0,6.13c1.69,1.7,4.44,1.72,6.15,0.03c0.01-0.01,0.02-0.02,0.03-0.03c2.28-2.19,4.39-4.56,6.3-7.08
							c1-1.7,0.73-3.86-0.65-5.26c-0.61-0.65,0.39,0.78,0,0v0.35c-0.02-0.17-0.02-0.35,0-0.52c0,0,0,1.13,0,0
							c-0.02-0.14-0.02-0.29,0-0.43c0-0.35,0-0.22,0,0.39c0,0,0-0.7,0-0.91c0-0.22,0.48-1.26,0-0.65c-0.48,0.61,0.3-0.52,0.35-0.61
							l0.52-0.78c0.65-0.96-0.56,0.61,0.22-0.26c0.78-0.87,0.48-0.52,0.7-0.83l1.74-1.83c1.27-1.31,2.38-2.77,3.3-4.35
							c1.41-1.94,0.98-4.66-0.96-6.07c-1.94-1.41-4.66-0.98-6.07,0.96c-0.17,0.24-0.32,0.5-0.45,0.77L404.71,808.68z"/>
						<path class="st9" d="M402.01,823.84L402.01,823.84c0.13,0.55,0.4,1.06,0.78,1.48c0.32,0.46,0.73,0.85,1.22,1.13
							c0.48,0.3,1.04,0.47,1.61,0.48c0.57,0.15,1.17,0.15,1.74,0l1.04-0.43c0.65-0.38,1.19-0.92,1.56-1.56l0.43-1.04
							c0.21-0.75,0.21-1.55,0-2.3l0,0c-0.13-0.55-0.4-1.06-0.78-1.48c-0.3-0.47-0.72-0.85-1.22-1.09c-0.47-0.34-1.03-0.52-1.61-0.52
							c-0.57-0.15-1.17-0.15-1.74,0l-1.04,0.48c-0.65,0.35-1.19,0.88-1.56,1.52l-0.43,1.04
							C401.84,822.3,401.84,823.08,402.01,823.84z"/>
						<path class="st8" d="M165.79,643.03c10.52,15.47-3.13,24.73,7.39,40.2c10.52,15.47,24.16,6.17,34.76,21.73
							c10.6,15.56-3.13,24.73,7.39,40.2s24.16,6.17,34.76,21.73c10.6,15.56-3.09,24.73,7.43,40.2
							c10.52,15.47,24.16,6.17,34.76,21.73s-3.13,24.77,7.43,40.24c10.56,15.47,24.16,6.21,34.76,21.73s-3.13,24.77,7.43,40.24"/>
					</g>
				</g>
			</g>
		</g>
	</g>
</g>
</svg>
