<svg id="Layer_15" data-name="Layer 15" xmlns="http://www.w3.org/2000/svg" viewBox="0 0 658.35 587.15">
  <defs>
    <style>
      .cls-1 {
        fill: #ffe430;
      }

      .cls-2 {
        fill: #ffe97d;
      }

      .cls-3 {
        fill: #d6d6d6;
      }

      .cls-4 {
        fill: #b6b9ba;
      }

      .cls-5 {
        fill: #d8d8d8;
      }

      .cls-6 {
        fill: #eaeaea;
      }

      .cls-7 {
        fill: #ff006a;
      }

      .cls-8 {
        fill: #f998cd;
      }

      .cls-9 {
        fill: #00dcd5;
      }

      .cls-10 {
        fill: #1d0072;
      }

      .cls-11 {
        fill: none;
        stroke: #f998cd;
        stroke-linecap: round;
        stroke-linejoin: round;
        stroke-width: 26px;
      }

      .cls-12 {
        fill: #ddbd1d;
      }

      .cls-13 {
        fill: #275468;
      }

      .cls-14 {
        fill: #95bbc5;
      }

      .cls-15 {
        fill: #a5d4e5;
      }

      .cls-16 {
        fill: #c1e1e8;
      }

      .cls-17 {
        fill: #0f1c70;
      }

      .cls-18 {
        fill: #e2e2e2;
      }

      .cls-19 {
        fill: #ff4676;
      }

      .cls-20 {
        fill: #17d5d1;
      }
    </style>
  </defs>
  <g>
    <path class="cls-1" d="M260.36,390.37H765c35.43,0,64.15,27.87,64.15,62.25V703.68c0,34.38-28.72,62.25-64.15,62.25H260.36c-35.44,0-64.16-27.87-64.16-62.25V452.62C196.2,418.24,224.92,390.37,260.36,390.37Z" transform="translate(-170.83 -196.83)"/>
    <path class="cls-2" d="M513.31,784a64.88,64.88,0,0,0,43.77-17.62c10.73-10.41,18.82-27.49,18.12-42.45-.72-15.54-6-31.64-18.12-42.46s-27-17.59-43.77-17.59a64.85,64.85,0,0,0-43.76,17.59c-10.74,10.41-18.83,27.49-18.14,42.46.72,15.53,6,31.63,18.14,42.45s27,17.59,43.76,17.59Z" transform="translate(-170.83 -196.83)"/>
    <path class="cls-3" d="M513.06,749.1c16.81,0,32.89-14.33,32.12-31.16s-14.12-31.16-32.12-31.16c-16.79,0-32.89,14.33-32.11,31.16S495.07,749.1,513.06,749.1Z" transform="translate(-170.83 -196.83)"/>
    <path class="cls-4" d="M263.16,367.85H762c17.22,0,31.17,13.54,31.17,30.24V702.46c0,16.7-13.95,30.24-31.17,30.24H263.16c-17.22,0-31.18-13.54-31.18-30.24V398.09C232,381.39,245.94,367.85,263.16,367.85Z" transform="translate(-170.83 -196.83)"/>
    <path class="cls-3" d="M485.24,732.71s26.82-8.78,27.34-34.34c-.52,24.91,28.81,34.34,28.81,34.34Z" transform="translate(-170.83 -196.83)"/>
    <path class="cls-5" d="M512.58,700.85s3.47-35.85,63.27-37.8,75.24,28,125.63,33.24,57.1-21.53,57.1-26.72V385.38s-4.71-32-39-32c-79.43,2-109.93-47.72-170.29-27.49-6,1.66-33.26,14.71-36.74,47C512.64,388.64,512.58,700.85,512.58,700.85Z" transform="translate(-170.83 -196.83)"/>
    <path class="cls-6" d="M512.58,700.85s-3.53-35.85-63.26-37.8-75.25,28-125.64,33.24-57.11-21.53-57.11-26.72V385.38s4.71-32,39-32c79.43,2,109.93-47.72,170.29-27.49,5.94,1.64,33.26,14.68,36.74,47C512.52,388.64,512.58,700.85,512.58,700.85Z" transform="translate(-170.83 -196.83)"/>
    <path class="cls-7" d="M416.79,388.82h0a36.65,36.65,0,0,0-5.33,18.75c-.24,18.29,13,33.92,29.62,34.88,18.06,1,33-14.75,33-34.39a36.72,36.72,0,0,0-5.33-19.24h0l-23.36-38.7a3,3,0,0,0-5.21,0L416.8,388.8h0Z" transform="translate(-170.83 -196.83)"/>
    <path class="cls-8" d="M451.49,430.31a2.85,2.85,0,0,1-1.25-5.41c13.68-6.71,11.52-21.7,11.42-22.33a2.85,2.85,0,0,1,5.63-.91c1.1,6.81-.52,21.48-14.54,28.36A3,3,0,0,1,451.49,430.31Z" transform="translate(-170.83 -196.83)"/>
    <path class="cls-7" d="M447.87,497.63h0a93,93,0,0,0-13.53,47.55c-.6,46.41,33,86.07,75.14,88.5,45.81,2.64,83.7-37.44,83.7-87.24a93.18,93.18,0,0,0-13.54-48.81h0l0,0h0l-59.25-98.17a7.56,7.56,0,0,0-13.23,0L447.9,497.59v0Z" transform="translate(-170.83 -196.83)"/>
    <path class="cls-7" d="M558.63,407.07h0a35.93,35.93,0,0,0-5.23,18.37c-.23,17.92,12.75,33.24,29,34.18,17.69,1,32.33-14.46,32.33-33.7a35.93,35.93,0,0,0-5.24-18.85h0v0h0l-22.89-37.92a2.92,2.92,0,0,0-5.11,0l-22.88,37.92h0Z" transform="translate(-170.83 -196.83)"/>
    <path class="cls-9" d="M528.5,475.6A10.61,10.61,0,1,1,517.9,465,10.6,10.6,0,0,1,528.5,475.6Z" transform="translate(-170.83 -196.83)"/>
    <path class="cls-9" d="M389.51,475.6A10.61,10.61,0,1,1,378.91,465,10.6,10.6,0,0,1,389.51,475.6Z" transform="translate(-170.83 -196.83)"/>
    <path class="cls-9" d="M459.07,406a10.61,10.61,0,1,1-10.61-10.61A10.61,10.61,0,0,1,459.07,406Z" transform="translate(-170.83 -196.83)"/>
    <path class="cls-9" d="M459.07,545.15a10.61,10.61,0,1,1-10.61-10.6A10.61,10.61,0,0,1,459.07,545.15Z" transform="translate(-170.83 -196.83)"/>
    <path class="cls-9" d="M498.15,475.6a49.69,49.69,0,1,1-49.69-49.69A49.69,49.69,0,0,1,498.15,475.6Z" transform="translate(-170.83 -196.83)"/>
    <path class="cls-1" d="M487.69,475.6a39.23,39.23,0,1,1-39.23-39.23A39.23,39.23,0,0,1,487.69,475.6Z" transform="translate(-170.83 -196.83)"/>
    <path class="cls-9" d="M409.89,426.41a10.61,10.61,0,1,1-10.61-10.6A10.61,10.61,0,0,1,409.89,426.41Z" transform="translate(-170.83 -196.83)"/>
    <path class="cls-9" d="M508.25,524.78a10.61,10.61,0,1,1-10.61-10.61A10.61,10.61,0,0,1,508.25,524.78Z" transform="translate(-170.83 -196.83)"/>
    <path class="cls-9" d="M508.25,426.41a10.61,10.61,0,1,1-10.61-10.6A10.61,10.61,0,0,1,508.25,426.41Z" transform="translate(-170.83 -196.83)"/>
    <path class="cls-9" d="M409.89,524.78a10.61,10.61,0,1,1-10.61-10.61A10.61,10.61,0,0,1,409.89,524.78Z" transform="translate(-170.83 -196.83)"/>
    <path class="cls-9" d="M399,471.41H388.65a10.55,10.55,0,0,1,.16,7.95h10.12c-.09-1.24-.15-2.49-.15-3.76C398.78,474.18,398.85,472.79,399,471.41Z" transform="translate(-170.83 -196.83)"/>
    <path class="cls-9" d="M448.46,416.65a10.59,10.59,0,0,1-4.18-.86V426.1c1.38-.12,2.77-.19,4.18-.19s2.53.06,3.77.16V416A10.7,10.7,0,0,1,448.46,416.65Z" transform="translate(-170.83 -196.83)"/>
    <path class="cls-9" d="M448.46,534.55a10.48,10.48,0,0,1,3.77.7V525.13c-1.24.09-2.5.15-3.77.15s-2.8-.07-4.18-.19v10.32A10.42,10.42,0,0,1,448.46,534.55Z" transform="translate(-170.83 -196.83)"/>
    <path class="cls-9" d="M409,430.75a10.43,10.43,0,0,1-2.17,3.16,10.31,10.31,0,0,1-3.57,2.35l7.29,7.3a49.89,49.89,0,0,1,5.61-5.65Z" transform="translate(-170.83 -196.83)"/>
    <path class="cls-9" d="M490.14,517.28a10.6,10.6,0,0,1,3.17-2.17L486.15,508a49.89,49.89,0,0,1-5.65,5.61l7.29,7.29A10.6,10.6,0,0,1,490.14,517.28Z" transform="translate(-170.83 -196.83)"/>
    <path class="cls-9" d="M490.14,433.91a10.4,10.4,0,0,1-2.16-3.16l-7.16,7.16a49.8,49.8,0,0,1,5.6,5.65l7.29-7.3A10.4,10.4,0,0,1,490.14,433.91Z" transform="translate(-170.83 -196.83)"/>
    <path class="cls-9" d="M406.78,517.28a10.6,10.6,0,0,1,2.35,3.57l7.29-7.29a50.73,50.73,0,0,1-5.65-5.61l-7.15,7.16A10.56,10.56,0,0,1,406.78,517.28Z" transform="translate(-170.83 -196.83)"/>
    <path class="cls-9" d="M498,479.57h10.31a10.59,10.59,0,0,1-.86-4.18,10.48,10.48,0,0,1,.71-3.77H498c.1,1.24.16,2.5.16,3.77S498.1,478.19,498,479.57Z" transform="translate(-170.83 -196.83)"/>
    <path class="cls-10" d="M454.32,496.46H442.6a5.22,5.22,0,0,1-5.21-5.21V458.47a5.22,5.22,0,0,1,5.21-5.21h11.72a5.21,5.21,0,0,1,5.21,5.21v32.78A5.21,5.21,0,0,1,454.32,496.46Z" transform="translate(-170.83 -196.83)"/>
    <path class="cls-9" d="M442.82,486.49a1.86,1.86,0,0,1-1.86-1.86,9.16,9.16,0,0,1,1.57-5.3,6,6,0,0,0,0-6.77,9.73,9.73,0,0,1,0-10.6,5.53,5.53,0,0,0,1-3.38,1.86,1.86,0,0,1,3.72,0,9.16,9.16,0,0,1-1.57,5.3,6,6,0,0,0,0,6.76,9.73,9.73,0,0,1,0,10.6,5.58,5.58,0,0,0-1,3.39A1.86,1.86,0,0,1,442.82,486.49Z" transform="translate(-170.83 -196.83)"/>
    <path class="cls-9" d="M451.19,493a1.86,1.86,0,0,1-1.86-1.86,9.18,9.18,0,0,1,1.57-5.3,6,6,0,0,0,0-6.77,9.71,9.71,0,0,1,0-10.59,5.58,5.58,0,0,0,1-3.39,1.86,1.86,0,0,1,3.72,0,9.16,9.16,0,0,1-1.57,5.3,6,6,0,0,0,0,6.77,9.73,9.73,0,0,1,0,10.6,5.53,5.53,0,0,0-1,3.38A1.86,1.86,0,0,1,451.19,493Z" transform="translate(-170.83 -196.83)"/>
    <g>
      <path class="cls-9" d="M448.43,527.27a51.68,51.68,0,1,1,51.68-51.67A51.73,51.73,0,0,1,448.43,527.27Zm0-99.37a47.7,47.7,0,1,0,47.69,47.7A47.75,47.75,0,0,0,448.43,427.9Z" transform="translate(-170.83 -196.83)"/>
      <path class="cls-9" d="M517.87,488.19a12.55,12.55,0,0,1-11.1-6.62H498a2,2,0,0,1-1.47-.65,2,2,0,0,1-.52-1.51c.13-1.47.19-2.79.19-4s0-2.25-.15-3.62a2,2,0,0,1,.52-1.51,2,2,0,0,1,1.46-.64h8.79a12.6,12.6,0,1,1,11.1,18.57Zm-17.79-10.61h8a2,2,0,0,1,1.84,1.25,8.62,8.62,0,1,0,0-6.46,2,2,0,0,1-1.84,1.24H500.1c0,.62,0,1.2,0,1.78S500.11,476.82,500.08,477.58Z" transform="translate(-170.83 -196.83)"/>
      <path class="cls-9" d="M444.24,428.09a2,2,0,0,1-1.34-.52,2,2,0,0,1-.65-1.47V417a12.61,12.61,0,1,1,11.94.21v8.84a2,2,0,0,1-.64,1.46,2,2,0,0,1-1.5.52c-1.38-.1-2.53-.15-3.62-.15-1.25,0-2.56.06-4,.19Zm4.19-30.66A8.62,8.62,0,0,0,445,414a2,2,0,0,1,1.21,1.83V424c1.37-.06,2.59-.07,4,0v-7.82a2,2,0,0,1,1.27-2,8.61,8.61,0,0,0-3.05-16.66Z" transform="translate(-170.83 -196.83)"/>
      <path class="cls-9" d="M448.43,557.75a12.6,12.6,0,0,1-6.18-23.58V525.1a2,2,0,0,1,.65-1.47,1.93,1.93,0,0,1,1.51-.52c1.46.12,2.77.18,4,.18,1.09,0,2.27,0,3.62-.15a2,2,0,0,1,2.14,2V534a12.59,12.59,0,0,1-5.76,23.79Zm-2.19-30.53v8.19a2,2,0,0,1-1.21,1.83,8.62,8.62,0,1,0,6.45-.13,2,2,0,0,1-1.27-2.05v-7.82C448.82,527.29,447.6,527.28,446.24,527.22Z" transform="translate(-170.83 -196.83)"/>
      <path class="cls-9" d="M410.47,445.55a2,2,0,0,1-1.41-.59l-6.42-6.41a12.6,12.6,0,1,1,5.52-21.05,12.71,12.71,0,0,1,3.08,12.76l6.24,6.24a2,2,0,0,1-.11,2.92,48.29,48.29,0,0,0-5.38,5.42,2,2,0,0,1-1.44.71Zm-7.29-11.28a2,2,0,0,1,1.41.59l5.79,5.79c.89-1,1.83-1.91,2.8-2.82l-5.58-5.58a2,2,0,0,1-.54-2.22l.05-.12a8.6,8.6,0,0,0-7.86-12.11,8.62,8.62,0,1,0,3.19,16.62A1.92,1.92,0,0,1,403.18,434.27Z" transform="translate(-170.83 -196.83)"/>
      <path class="cls-9" d="M497.61,537.37a12.58,12.58,0,0,1-12.13-16L479.06,515a2,2,0,0,1-.58-1.5,2,2,0,0,1,.71-1.43,49.16,49.16,0,0,0,5.42-5.38,2,2,0,0,1,2.92-.11l6.25,6.24a12.59,12.59,0,1,1,3.83,24.58Zm-14.23-23.72,5.79,5.79a2,2,0,0,1,.44,2.15,8.63,8.63,0,1,0,4.47-4.66,2,2,0,0,1-2.37-.57l-5.51-5.51C485.29,511.82,484.35,512.76,483.38,513.65Z" transform="translate(-170.83 -196.83)"/>
      <path class="cls-9" d="M378.88,488.19a12.6,12.6,0,1,1,11-18.77h9.07a2,2,0,0,1,1.47.64,2,2,0,0,1,.52,1.52c-.12,1.46-.18,2.78-.18,4s0,2.25.15,3.62a2,2,0,0,1-2,2.14h-8.83A12.67,12.67,0,0,1,378.88,488.19Zm0-21.21a8.62,8.62,0,1,0,8,11.68,2,2,0,0,1,1.86-1.29h8c0-.62,0-1.21,0-1.77,0-.71,0-1.44.06-2.2h-8.19a2,2,0,0,1-1.83-1.2A8.61,8.61,0,0,0,378.88,467Z" transform="translate(-170.83 -196.83)"/>
      <path class="cls-9" d="M486.39,445.55h-.08a2,2,0,0,1-1.44-.71,48.29,48.29,0,0,0-5.38-5.42,2,2,0,0,1-.69-1.44,2,2,0,0,1,.58-1.48l6.24-6.24a12.71,12.71,0,0,1,3.08-12.76,12.6,12.6,0,1,1,5.52,21.05L487.8,445A2,2,0,0,1,486.39,445.55Zm-2.71-7.72c1,.91,1.91,1.85,2.8,2.82l5.79-5.79a2,2,0,0,1,2.15-.44,8.64,8.64,0,1,0-4.67-4.51.61.61,0,0,1,.05.12,2,2,0,0,1-.54,2.22Z" transform="translate(-170.83 -196.83)"/>
      <path class="cls-9" d="M399.25,537.37a12.59,12.59,0,1,1,3.84-24.58l6.24-6.25a2.08,2.08,0,0,1,1.49-.58,2,2,0,0,1,1.43.7,49.15,49.15,0,0,0,5.43,5.37,2,2,0,0,1,.7,1.44,2,2,0,0,1-.58,1.49l-6.42,6.42a12.58,12.58,0,0,1-12.13,16Zm0-21.19a8.6,8.6,0,1,0,8,5.41,2,2,0,0,1,.44-2.15l5.79-5.79c-1-.89-1.91-1.83-2.82-2.8l-5.5,5.51a2,2,0,0,1-2.38.57A8.7,8.7,0,0,0,399.26,516.18Z" transform="translate(-170.83 -196.83)"/>
    </g>
    <path class="cls-8" d="M536.3,614.63a6.74,6.74,0,0,1-3-12.79c17.29-8.48,28.36-22.24,32.9-40.92a76,76,0,0,0,1.65-26.58,6.74,6.74,0,0,1,13.3-2.14,88,88,0,0,1-1.73,31.36c-5.36,22.7-19.26,40.12-40.19,50.38A6.71,6.71,0,0,1,536.3,614.63Z" transform="translate(-170.83 -196.83)"/>
    <path class="cls-8" d="M568.46,519.74a6.74,6.74,0,0,1-6.12-3.92l-1.52-3.3a6.74,6.74,0,1,1,12.23-5.65l1.53,3.31a6.74,6.74,0,0,1-6.12,9.56Z" transform="translate(-170.83 -196.83)"/>
    <path class="cls-8" d="M586.35,449.83a2.85,2.85,0,0,1-1.26-5.41c16.57-8.12,13.77-26.65,13.74-26.84a2.85,2.85,0,0,1,5.63-.91,35.57,35.57,0,0,1-.7,12.61,29.42,29.42,0,0,1-16.16,20.26A2.82,2.82,0,0,1,586.35,449.83Z" transform="translate(-170.83 -196.83)"/>
    <path class="cls-8" d="M599.22,411.86a2.85,2.85,0,0,1-2.59-1.65l-.61-1.33a2.85,2.85,0,1,1,5.17-2.39l.61,1.33a2.85,2.85,0,0,1-1.39,3.78A2.81,2.81,0,0,1,599.22,411.86Z" transform="translate(-170.83 -196.83)"/>
    <path class="cls-11" d="M477.1,463" transform="translate(-170.83 -196.83)"/>
    <path class="cls-12" d="M464.71,504.27a2.59,2.59,0,0,1-.8-5.06c11.71-3.83,13.41-21.78,13.43-22a2.59,2.59,0,1,1,5.16.44c-.07.88-2,21.54-17,26.45A2.54,2.54,0,0,1,464.71,504.27Z" transform="translate(-170.83 -196.83)"/>
    <path class="cls-12" d="M415.06,483.86a2.59,2.59,0,0,1-2.59-2.56c-.23-15.85,6.78-26,12.7-31.71a41.58,41.58,0,0,1,13.14-8.7,2.59,2.59,0,0,1,1.79,4.87,37.16,37.16,0,0,0-11.48,7.71c-7.44,7.26-11.13,16.6-11,27.76a2.59,2.59,0,0,1-2.56,2.63Z" transform="translate(-170.83 -196.83)"/>
    <path class="cls-8" d="M462.11,397.53a2.86,2.86,0,0,1-2.59-1.65l-.51-1.12a2.85,2.85,0,1,1,5.17-2.39l.52,1.12a2.84,2.84,0,0,1-2.59,4Z" transform="translate(-170.83 -196.83)"/>
    <g id="Layer_2" data-name="Layer 2">
      <g id="Layer_1-2" data-name="Layer 1-2">
        <g id="needle">
          <rect class="cls-13" x="190.5" y="215.78" width="30.88" height="34.41" rx="4.15" transform="translate(-275.25 17.03) rotate(-45)"/>
          <rect class="cls-13" x="164.73" y="213.79" width="57.59" height="11.46" rx="4.15" transform="translate(-269.37 4.31) rotate(-45)"/>
          <rect class="cls-14" x="178.92" y="232.51" width="77.99" height="21.5" rx="4.15" transform="translate(-279.01 28.51) rotate(-45)"/>
          <rect class="cls-15" x="250.81" y="222.91" width="80.51" height="190.59" transform="translate(-310.58 102.19) rotate(-45)"/>
          <polygon class="cls-15" points="216.09 160.29 220.06 220.34 159.16 217.22 216.09 160.29"/>
          <rect class="cls-15" x="161.92" y="243.33" width="115.28" height="11.17" rx="4.15" transform="translate(-282.53 31.33) rotate(-45)"/>
          <path class="cls-13" d="M432.25,455.44q-13-12.46-25.58-25.34a1.68,1.68,0,0,0-2.37,2.38q12.57,12.87,25.57,25.33C431.43,459.3,433.81,456.94,432.25,455.44Z" transform="translate(-170.83 -196.83)"/>
          <path class="cls-15" d="M406.81,426.45,389,408.64c-4.28-4.28-10.93,2.36-6.65,6.65l17.81,17.8C404.45,437.37,411.1,430.73,406.81,426.45Z" transform="translate(-170.83 -196.83)"/>
          <path class="cls-16" d="M366,344l9.45,55.85a3.88,3.88,0,0,1,0,2c-.63,1.67-3,1.68-4.72,1.4-9.65-1.56-19.36-3.14-28.56-6.45s-17.94-8.5-24-16.18a72.41,72.41,0,0,1-7.32-12.13,390.31,390.31,0,0,1-16.08-36c-4.23-11-8-22.1-12-33.13A629.25,629.25,0,0,0,253,230.88c11.66,6.38,21.48,15.59,31.16,24.7,27.94,26.3,56,52.68,80.32,82.34,1.24,1.5,2.35,4,.72,5.1-35.48-28.9-66.59-62.7-97.57-96.38,22.51,25.5,46.26,49.88,70.88,73.34,7.87,7.5,16,15.18,20.49,25.09,3.12,6.93,4.23,14.58,5.32,22.1l4.05,27.95c-8,0-16.16,0-23.68-2.67-11-3.94-19.21-13.07-26.83-21.91-6.77-7.86-13.56-15.91-17.78-25.38-4.91-11-6.08-23.27-9.37-34.85C285.24,291.22,274,274,269.94,254.6Q293.7,280.37,316.5,307c9.89,11.53,19.65,23.18,28.95,35.19,3.87,5,7.7,10.14,9.95,16,2,5.16,2.66,10.73,3.33,16.23l1.8,15c-8.26.81-16.16-3.64-22.48-9-17.3-14.77-26.62-36.58-35.35-57.59l-21.8-52.51c8.45,17.88,14,37,18.63,56.23,2.54,10.41,5,21.24,11.59,29.71a36.86,36.86,0,0,1-6.89-15l31.23,31-4.23-11.19a63.21,63.21,0,0,1,19.18,14l-6.78-5.46,6.59,4.4-28.77-52.42a115.61,115.61,0,0,1,22.07,22.88L306.94,308a261.19,261.19,0,0,0,25.91,31.49q-14.46-19.27-29.76-37.89l15.4,22.16q-5.94-9.75-11.06-20a10.58,10.58,0,0,1,2.06,4.08l-15.95-19.31,15.13,22.57-3.62-2.61,17.42,31a15.53,15.53,0,0,1-6.78-5.95l16.74,21.61a21.89,21.89,0,0,1-5.75-5.19l29,36.86a139.24,139.24,0,0,0-21.8-50.5" transform="translate(-170.83 -196.83)"/>
          <path class="cls-16" d="M360.41,353.29c4.2-5.37,4.25-12.29.51-18-3.7-5.59-9.34-10.05-14.21-14.57q-15-13.95-30.8-27a5.83,5.83,0,0,0-6.73-.92c-2,1.16-3.49,4-2.65,6.29L324,345.84l9.37-5.37c-12.11-12.28-21.75-26.51-30.66-41.21L293.84,306q13.41,11.37,25.82,23.81a5.59,5.59,0,0,0,7.35.45c2.37-1.86,2.61-4.5,1.5-7.17l-8.87-21.67c-2.94-7.19-5.89-13.8-11.18-19.64-10.41-11.51-21.55-22.47-32.29-33.64L257.77,229c-4.48-4.65-11.68,1.22-8.83,6.72a710.88,710.88,0,0,0,63.92,101.81q10.58,14,21.87,27.35c2,2.31,5.9,2,7.91,0,2.29-2.29,2-5.6,0-7.92a661.88,661.88,0,0,1-67.88-97.35q-8.37-14.52-16.08-29.42l-8.83,6.72,31.9,33.16,15.94,16.58a45.18,45.18,0,0,1,6.69,8.11,74,74,0,0,1,4.52,9.72l9.88,24.12,8.82-6.72q-12.41-12.45-25.82-23.82c-2.12-1.79-5-2.26-7.32-.45a5.56,5.56,0,0,0-1.49,7.19c9.37,15.52,19.68,30.64,32.45,43.59,3.68,3.72,11.4,0,9.38-5.38l-17.44-46.77L308,301.61Q321.7,313,334.85,325q6.39,5.85,12.64,11.85c1.76,1.69,3.7,3.43,4.68,5.72a6.35,6.35,0,0,1,.36,1.73c0,.42,0,.21-.07.82,0,.39-.4.83,0,.28-1.86,2.38-2.32,5.59,0,7.92,1.94,1.93,6,2.39,7.92,0Z" transform="translate(-170.83 -196.83)"/>
          <rect class="cls-15" x="307.53" y="197.34" width="8.75" height="181.9" transform="translate(-283.32 108.16) rotate(-45)"/>
          <g>
            <path class="cls-16" d="M245.19,234.39c4.56,8.2,9,17.25,13.57,25.46,20.16,36.3,40.47,72.82,66.69,105" transform="translate(-170.83 -196.83)"/>
            <path class="cls-16" d="M241.11,236.72c4.8,8.67,9.18,17.56,14,26.22,4.9,8.83,9.81,17.66,14.82,26.44,9.93,17.41,20.23,34.63,31.58,51.15q9.76,14.24,20.64,27.67c1.6,2,5,1.66,6.65,0,1.95-1.95,1.6-4.67,0-6.65-25.06-30.84-44.6-65.63-63.84-100.24-5.38-9.66-10.31-19.57-15.67-29.24-2.93-5.3-11.1-.66-8.18,4.64Z" transform="translate(-170.83 -196.83)"/>
          </g>
          <path class="cls-16" d="M330.87,380.06c-15.17-14.58-26.1-32.66-35.64-51.27-10-19.4-19.07-39.27-28.49-59l-16.12-33.65c-1.09-2.28-4.31-2.95-6.41-1.76a4.8,4.8,0,0,0-1.76,6.41l29.16,60.89c9.2,19.21,18.06,38.76,29.68,56.67a158.57,158.57,0,0,0,22.94,28.31c4.35,4.19,11-2.44,6.64-6.65Z" transform="translate(-170.83 -196.83)"/>
          <rect class="cls-13" x="344.07" y="351.45" width="32.5" height="4.48" transform="translate(-315.39 161.55) rotate(-45)"/>
          <rect class="cls-13" x="329.65" y="323.4" width="21.41" height="4.48" transform="translate(-301.4 139.18) rotate(-45)"/>
          <rect class="cls-13" x="296.05" y="303.44" width="32.5" height="4.48" transform="translate(-295.5 113.53) rotate(-45)"/>
          <rect class="cls-13" x="281.37" y="275.64" width="21.41" height="4.48" transform="translate(-281.77 91.09) rotate(-45)"/>
          <rect class="cls-13" x="248.03" y="255.42" width="32.5" height="4.48" transform="translate(-275.61 65.51) rotate(-45)"/>
        </g>
      </g>
    </g>
    <g id="Layer_2-2" data-name="Layer 2">
      <g id="project_play_stickers" data-name="project play stickers">
        <g id="play_smart_sticker1" data-name="play smart sticker1">
          <g id="test_tube" data-name="test tube">
            <path class="cls-1" d="M587.28,257.3l11.52,24.75,21.19-.74,14.21-15.72-11.52-24.78Z" transform="translate(-170.83 -196.83)"/>
            <path class="cls-17" d="M642.32,283.08l-21.55-.1-13.83,16.57,18.4,39.56,21.39-.32,14-16.14Z" transform="translate(-170.83 -196.83)"/>
            <path class="cls-1" d="M669.47,341.38,647.31,340l-13.25,17.81,14.52,31.2.15.33A19.52,19.52,0,0,0,684,372.58Z" transform="translate(-170.83 -196.83)"/>
            <path class="cls-18" d="M634.08,357.85l-8.74-18.74,35.4-16.46,8.74,18.73Z" transform="translate(-170.83 -196.83)"/>
            <path class="cls-18" d="M607,299.55l-8.16-17.47,35.4-16.46,8.16,17.47Z" transform="translate(-170.83 -196.83)"/>
            <path class="cls-19" d="M564.6,232.05,618,207.21,633.73,241l-53.4,24.84Z" transform="translate(-170.83 -196.83)"/>
          </g>
          <g id="test_tube-2" data-name="test tube-2">
            <path class="cls-19" d="M733.84,252.82,718.45,280l14.73,19.22,24,2.79,15.41-27.13Z" transform="translate(-170.83 -196.83)"/>
            <path class="cls-20" d="M746.33,321.12,732.12,301l-24.57-1.87L683,342.47l14.47,19.67,24.29,2.33Z" transform="translate(-170.83 -196.83)"/>
            <path class="cls-19" d="M710.09,385l-13.43-21.49L671.32,363l-19.39,34.16a22.29,22.29,0,0,0,38.77,22Z" transform="translate(-170.83 -196.83)"/>
            <path class="cls-18" d="M671.34,363,683,342.46l38.76,22L710.1,385Z" transform="translate(-170.83 -196.83)"/>
            <path class="cls-18" d="M707.55,299.14,718.44,280l38.76,22-10.87,19.15Z" transform="translate(-170.83 -196.83)"/>
            <path class="cls-17" d="M742.26,215l58.48,33.19-21,37-58.47-33.2Z" transform="translate(-170.83 -196.83)"/>
          </g>
        </g>
      </g>
    </g>
  </g>
</svg>
