<svg xmlns="http://www.w3.org/2000/svg" viewBox="0 0 405.45 383.25"><defs><style>.cls-1{fill:#ffe430;}.cls-2{fill:#0f1c70;}.cls-3{fill:#e2e2e2;}.cls-4{fill:#ff4676;}.cls-5{fill:#17d5d1;}</style></defs><title>Asset 3</title><g id="Layer_2" data-name="Layer 2"><g id="project_play_stickers"><g id="play_smart_sticker1"><g id="test_tube"><path class="cls-1" d="M305.73,57.68l-19.79,42.55,24.4,27,36.38,1.26L366.51,86Z"/><path class="cls-2" d="M240.36,198.2l24.07,27.72,36.72.55,31.6-67.93L309,130.1l-37,.16Z"/><path class="cls-1" d="M200.48,283.93a33.52,33.52,0,1,0,60.78,28.28l24.92-53.56-22.74-30.58-38.05,2.3Z"/><path class="cls-3" d="M225.37,230.37l15-32.17,60.78,28.27-15,32.18Z"/><path class="cls-3" d="M271.94,130.28l14-30,60.78,28.27-14,30Z"/><path class="cls-4" d="M378.44,100.73,286.75,58.08,313.77,0l91.68,42.65Z"/></g><g id="test_tube-2" data-name="test_tube"><path class="cls-4" d="M48.3,116.09l26.45,46.59L116,157.89l25.29-33L114.87,78.31Z"/><path class="cls-5" d="M135.65,270l41.72-4,24.84-33.77L160,157.79,117.81,161,93.42,195.57Z"/><path class="cls-4" d="M188.94,363.86a38.27,38.27,0,0,0,66.56-37.78l-33.29-58.65-43.5.87-23.06,36.91Z"/><path class="cls-3" d="M155.63,305.23l-20-35.23,66.55-37.78,20,35.24Z"/><path class="cls-3" d="M93.42,195.6,74.75,162.72l66.56-37.78L160,157.83Z"/><path class="cls-2" d="M136.5,77,36.1,134,0,70.4l100.4-57Z"/></g></g></g></g></svg>