<svg id="Layer_16" data-name="Layer 16" xmlns="http://www.w3.org/2000/svg" xmlns:xlink="http://www.w3.org/1999/xlink" viewBox="0 0 604.59 553.56">
  <defs>
    <style>
      .cls-1 {
        fill: #1d0072;
      }

      .cls-2 {
        fill: #00dcd5;
      }

      .cls-3 {
        fill: #059b93;
      }

      .cls-4 {
        clip-path: url(#clip-path);
      }

      .cls-5 {
        fill: #ff4676;
      }

      .cls-6 {
        fill: #603f1f;
      }

      .cls-7 {
        fill: #6b4720;
      }

      .cls-8 {
        fill: #cea07a;
      }

      .cls-9 {
        fill: #ddac7f;
      }

      .cls-10 {
        fill: #cc966a;
      }

      .cls-11, .cls-20 {
        fill: #fff;
      }

      .cls-12 {
        fill: #4f3317;
      }

      .cls-13 {
        fill: #cc8d6d;
      }

      .cls-14 {
        fill: #ededed;
      }

      .cls-15 {
        fill: #e5e5e5;
      }

      .cls-16 {
        fill: #f4f4f4;
      }

      .cls-17 {
        fill: #0f1c70;
      }

      .cls-18 {
        fill: #8c8c8c;
      }

      .cls-19 {
        fill: #ff006a;
      }

      .cls-20 {
        font-size: 94.61px;
        font-family: Gotham-Bold, Gotham;
        font-weight: 700;
      }

      .cls-21 {
        fill: #c1055a;
      }

      .cls-22 {
        fill: #723d03;
      }

      .cls-23 {
        fill: #633404;
      }

      .cls-24 {
        fill: #a3590f;
      }

      .cls-25 {
        fill: #ffe430;
      }
    </style>
    <clipPath id="clip-path" transform="translate(-197.7 -217.7)">
      <circle class="cls-1" cx="503.46" cy="325.61" r="107.91"/>
    </clipPath>
  </defs>
  <g>
    <circle class="cls-2" cx="107.91" cy="166.02" r="107.91"/>
    <circle class="cls-3" cx="107.91" cy="152.19" r="63.36"/>
    <g>
      <circle class="cls-1" cx="305.75" cy="107.91" r="107.91"/>
      <g class="cls-4">
        <g>
          <polygon id="shirt" class="cls-5" points="319.62 127.11 305.75 125.32 291.44 126.22 273.1 137.84 298.14 201.82 324.09 138.74 319.62 127.11"/>
          <g id="hair_back">
            <path class="cls-6" d="M528.71,267.83s17,1.67,18.62-6.65-6.65-14.63-6.65-14.63-2-14.63-11.31-11.31S508.58,245,514,250.74" transform="translate(-197.7 -217.7)"/>
            <path class="cls-7" d="M509.88,257.84,530,299.7s8.47-.91,11.48-14.26c5.32-23.61-12.64-28.93-12.64-28.93s-20.28-24.28-42.57-6.65c-19.43,15.38-15,35.59-15,35.59" transform="translate(-197.7 -217.7)"/>
          </g>
          <path id="neck" class="cls-8" d="M487.9,316.81s6,20.62,1.34,26.94,12.3,6.32,20.28,0c0,0-10.64-22.28-6.32-30.92" transform="translate(-197.7 -217.7)"/>
          <path id="face" class="cls-9" d="M531.79,296.58c-8.94,16.13-18.55,21.2-38.87,24.12-27.17,3.89-22.65-12.81-22.62-32.26,0-20.85,23.89-40.75,40.68-36.34S541.9,278.35,531.79,296.58Z" transform="translate(-197.7 -217.7)"/>
          <g id="eyes">
            <ellipse cx="308.27" cy="66.54" rx="2.46" ry="2.32"/>
            <ellipse cx="289.68" cy="61.75" rx="2.46" ry="2.32"/>
          </g>
          <path id="nose" class="cls-10" d="M489.46,290.27c-1,3.68-2.94,7.07,1.14,7.44,3.62.32,3.69-2.23,4.66-5.92s.45-7-1.15-7.44S490.42,286.58,489.46,290.27Z" transform="translate(-197.7 -217.7)"/>
          <path class="cls-11" d="M490.74,308.05a10.88,10.88,0,0,1-7.91-3.59,1.46,1.46,0,0,1,2.2-1.91,7.72,7.72,0,0,0,9.73,1.44,1.45,1.45,0,1,1,1.45,2.52A10.86,10.86,0,0,1,490.74,308.05Z" transform="translate(-197.7 -217.7)"/>
          <path id="ear" class="cls-9" d="M531.49,292.43s11.31-7,9.65,1.33S526,305.54,526,305.54" transform="translate(-197.7 -217.7)"/>
          <g id="eyebrows">
            <path class="cls-12" d="M519.19,282.55h0a1.09,1.09,0,0,1-1.08-1.1,5.77,5.77,0,0,0-1.74-4.36c-3.28-3.25-10-3.2-10.12-3.19h0a1.09,1.09,0,0,1,0-2.18c.32,0,7.75-.08,11.69,3.81a8,8,0,0,1,2.39,5.93A1.09,1.09,0,0,1,519.19,282.55Z" transform="translate(-197.7 -217.7)"/>
            <path class="cls-12" d="M478.11,273.35a1.1,1.1,0,0,1-.78-1.86c.22-.23,5.45-5.45,11-5.45h.05a8,8,0,0,1,5.85,2.57,1.09,1.09,0,1,1-1.57,1.52,5.83,5.83,0,0,0-4.29-1.91h0c-4.61,0-9.38,4.75-9.43,4.8A1.06,1.06,0,0,1,478.11,273.35Z" transform="translate(-197.7 -217.7)"/>
          </g>
          <g id="hair_front">
            <path class="cls-7" d="M508.91,251.63s-9.45,11.26,9.46,31.24c16.25,17.16-1.51,34.84-1.51,34.84A47.76,47.76,0,0,0,535.11,288c3.27-19.62-11.69-36.33-11.69-36.33S513.64,246.91,508.91,251.63Z" transform="translate(-197.7 -217.7)"/>
            <path class="cls-7" d="M508.88,251.52s-25.78,20.13-32.59,23.61c-6.27,3.21-8.65,30.27-8.65,30.27s-6.1-34.49,9.67-49.41C500.25,234.29,506,243.06,508.88,251.52Z" transform="translate(-197.7 -217.7)"/>
          </g>
          <g id="cheeks">
            <ellipse class="cls-13" cx="313.78" cy="82.31" rx="5.38" ry="5.39"/>
            <ellipse class="cls-13" cx="279.64" cy="74.13" rx="5.38" ry="5.39"/>
          </g>
          <g id="coat">
            <path class="cls-14" d="M536.11,374.34,552.66,514.8H499L496.3,390l21-44.73s23.27-6.27,48.76,41.15l19.24,27.29-13,15.65Z" transform="translate(-197.7 -217.7)"/>
            <path id="coat-2" data-name="coat" class="cls-15" d="M479.77,349.65l18.31,39L499,514.8H456.93S435,363.15,479.77,349.65Z" transform="translate(-197.7 -217.7)"/>
            <path class="cls-16" d="M507.48,339.06s22.42,2.68,15.66,15.59c-4.92,9.39-7.61,8.5-7.61,8.5l-17.89,24.16,12.53-30.42A30.53,30.53,0,0,0,507.48,339.06Z" transform="translate(-197.7 -217.7)"/>
            <path class="cls-16" d="M490.94,337.85s-14.77,6.07-15.67,14.57,4,6.71,4,6.71l20.58,34-13-30.51a15.15,15.15,0,0,1-.26-9.75l4.08-13.08Z" transform="translate(-197.7 -217.7)"/>
            <path class="cls-15" d="M528.87,387.31s-13.34-3.13-17.36,0S527.89,391.78,528.87,387.31Z" transform="translate(-197.7 -217.7)"/>
            <path class="cls-16" d="M511.51,387.31s13,2.24,16.55,0,.9,21.92-3.58,22.37a64.94,64.94,0,0,1-9.84,0S507,405.2,511.51,387.31Z" transform="translate(-197.7 -217.7)"/>
          </g>
          <g id="hands">
            <path class="cls-9" d="M544.09,437l-10.44,6.93s-24.84,5-17.89,6,13.92-2,13.92-2-18.89,7.95-13.92,7.95,15.91-6,15.91-6-17.89,10.93-12.92,9.94,14.9-7.95,14.9-7.95-11.92,10.93-9.94,10.93,13.92-8.94,13.92-8.94,6-5,8.94-3a6.8,6.8,0,0,0,6.1.62" transform="translate(-197.7 -217.7)"/>
            <path class="cls-9" d="M448.12,487.34s-1.64,25.63,0,21.27a35.66,35.66,0,0,0,2.18-14.19s-.55,16.91.54,15.82S453,493.88,453,493.88s-.54,15.82,0,16.36,2.18,1.64,2.18-13.64c0-16-.29,12.25,1.22,11.85S457.93,495,457.93,495s2.27-5.7,3.27,3.27c.55,4.91,3.27-3.82,2.18-8.18-1-4.13-3.27-10.91-3.27-10.91l-8.73-3.27Z" transform="translate(-197.7 -217.7)"/>
          </g>
          <g id="coat_sleeves">
            <path class="cls-14" d="M473.93,393.57l-8.5,91.71-19.24,3.58s8-115.42,12.53-112.74C473.09,384.66,473.93,393.57,473.93,393.57Z" transform="translate(-197.7 -217.7)"/>
            <path class="cls-16" d="M548.73,455.31l-10.48-17.75,31.88-28.5s21.22-1.4,15.89,12.15S548.73,455.31,548.73,455.31Z" transform="translate(-197.7 -217.7)"/>
          </g>
          <g id="stethoscope">
            <path class="cls-17" d="M526.7,371.55l-5.09-.13c.56-21.46-4-29.44-7.92-32.35a8,8,0,0,0-7-1.42L505,332.84a13.17,13.17,0,0,1,11.58,2C523.8,340.11,527.2,352.45,526.7,371.55Z" transform="translate(-197.7 -217.7)"/>
            <path class="cls-17" d="M477.27,406.42c-5.21-6.55-7.39-12.88-6.48-18.81a17.87,17.87,0,0,1,5.65-10.36c-3.38-15.67-2.38-27.32,3-34.62a16.36,16.36,0,0,1,11-6.87l.4,5.08-.2-2.54.23,2.54a11.35,11.35,0,0,0-7.44,4.92c-3.12,4.35-5.94,13.41-1.69,31.89l.39,1.7-1.45,1a13,13,0,0,0-4.87,8.13c-.66,4.45,1.17,9.42,5.44,14.78Z" transform="translate(-197.7 -217.7)"/>
            <path class="cls-17" d="M495.7,400.62c-2.1,0-2.49-2-2.72-3.19-1.65-8.41-4.14-13.73-7.42-15.78a6.47,6.47,0,0,0-5.32-.65l-1.3-4.92a11.44,11.44,0,0,1,9.32,1.25c6.82,4.27,9,15.45,9.72,19.13a7.9,7.9,0,0,0,.17.81,2.53,2.53,0,0,0-4.91.44l5.08.45a2.6,2.6,0,0,1-2.44,2.46Z" transform="translate(-197.7 -217.7)"/>
            <circle class="cls-18" cx="326.77" cy="154.43" r="4.49"/>
            <path class="cls-18" d="M487.3,415H487c-1.23-.06-5.59-.91-10.11-9.19l4.47-2.44c1.67,3,4.54,6.47,5.9,6.54h0c.16,0,.42-.29.63-.59l4.2,2.88A5.71,5.71,0,0,1,487.3,415Z" transform="translate(-197.7 -217.7)"/>
            <path class="cls-18" d="M492.72,409.46l-.3-5.09c.43,0,.52-.15.6-.26.82-1.12.52-4.52,0-6.54l4.93-1.29c.31,1.19,1.74,7.31-.81,10.82A5.69,5.69,0,0,1,492.72,409.46Z" transform="translate(-197.7 -217.7)"/>
            <ellipse class="cls-17" cx="294.87" cy="189.05" rx="0.96" ry="1.76"/>
            <ellipse class="cls-17" cx="490.16" cy="410.76" rx="0.96" ry="1.76" transform="translate(-346.15 158.96) rotate(-36.91)"/>
          </g>
        </g>
      </g>
    </g>
    <circle class="cls-19" cx="496.68" cy="166.83" r="107.91"/>
    <text class="cls-20" transform="translate(71.42 182.86)">H</text>
    <polygon class="cls-3" points="105.93 204.21 150.61 229.81 153.53 170.08 105.93 204.21"/>
    <circle class="cls-21" cx="497.94" cy="152.19" r="63.36"/>
    <polygon class="cls-21" points="459.01 181.33 460.47 232.81 512.95 204.14 459.01 181.33"/>
    <path class="cls-11" d="M739.49,335.14a1.69,1.69,0,0,0-1.47-.31l-8.09,2.06a16.2,16.2,0,0,1-4,.5H714.06a7.69,7.69,0,0,0-7.65,6.57,4.32,4.32,0,0,1-4.29,3.69h-.44v-3.56a10,10,0,1,0-10.21,0v3.56H691a4.31,4.31,0,0,1-4.29-3.69,7.7,7.7,0,0,0-7.66-6.57H667.21a16.2,16.2,0,0,1-4-.5l-8.09-2.06a1.7,1.7,0,0,0-2.12,1.65,13.71,13.71,0,0,0,3.64,9.32,13.18,13.18,0,0,0,5,10.19l1.6,2.14a19.52,19.52,0,0,0,15.56,7.79,19.28,19.28,0,0,0,12.62-4.65v6.07H690a11,11,0,0,0-9.65,16.3,1.7,1.7,0,0,0,1.5.88,1.64,1.64,0,0,0,.82-.21,1.69,1.69,0,0,0,.66-2.31A7.61,7.61,0,0,1,690,370.74h1.52v15.2h-4a8.14,8.14,0,1,0,0,16.28h4.73a43.78,43.78,0,0,0,2.83,9.35,1.68,1.68,0,0,0,1.56,1h0a1.7,1.7,0,0,0,1.57-1l0-.08a44,44,0,0,0,2.77-9.26h1.93a3.49,3.49,0,1,1,0,7h-.11a1.7,1.7,0,1,0,0,3.4h.11a6.89,6.89,0,1,0,0-13.78h-1.45a42.49,42.49,0,0,0,.23-4.52v-5h1.14a11,11,0,0,0,0-22h-1.14v-6.07a19.44,19.44,0,0,0,28.18-3.14l1.6-2.14a13.15,13.15,0,0,0,5-10.19,13.67,13.67,0,0,0,3.65-9.32A1.69,1.69,0,0,0,739.49,335.14Zm-49.36,22.74a16,16,0,0,1-21.58.88,11.2,11.2,0,0,0,1.3.07h2.85a1.71,1.71,0,0,0,0-3.41h-2.85a9.78,9.78,0,0,1-9.27-6.67,13.55,13.55,0,0,0,6.19,1.48h3.52a1.7,1.7,0,1,0,0-3.4h-3.52a10.37,10.37,0,0,1-10.1-8.1l5.72,1.46a19.64,19.64,0,0,0,4.82.6h11.88a4.31,4.31,0,0,1,4.29,3.69,7.71,7.71,0,0,0,7.66,6.57h.43v5.5Zm-2.65,40.94a4.74,4.74,0,0,1,0-9.48h4v4.86c0,1.55.09,3.09.24,4.62Zm10.8-4.52a40.56,40.56,0,0,1-1.69,11.61,40.52,40.52,0,0,1-1.71-11.71v-4.86h3.4v5Zm0-8.36h-3.4V345.35a9.71,9.71,0,0,0,3.4,0Zm4.54-15.2a7.6,7.6,0,0,1,0,15.2h-1.14v-15.2Zm-6.24-28.65a6.61,6.61,0,1,1,6.61-6.6A6.62,6.62,0,0,1,696.58,342.09Zm29.81,4.74h-3.52a1.7,1.7,0,1,0,0,3.4h3.52a13.55,13.55,0,0,0,6.19-1.48,9.79,9.79,0,0,1-9.27,6.67h-2.85a1.71,1.71,0,0,0,0,3.41h2.85a11,11,0,0,0,1.29-.07,16,16,0,0,1-21.57-.87l-1.35-1.34v-5.5h.44a7.69,7.69,0,0,0,7.65-6.57,4.32,4.32,0,0,1,4.29-3.69H726a19.5,19.5,0,0,0,4.81-.6l5.73-1.46A10.37,10.37,0,0,1,726.39,346.83Z" transform="translate(-197.7 -217.7)"/>
    <path class="cls-11" d="M691.21,410.11a2,2,0,0,0-3.36,1.39,2,2,0,1,0,3.93,0A2,2,0,0,0,691.21,410.11Z" transform="translate(-197.7 -217.7)"/>
  </g>
  <g>
    <path id="hair_back-2" data-name="hair_back" d="M410.75,581.38s-24.36-75.61,22.7-98c0,0-7.12-48.51,100.38-28.38,0,0,34.35,12,39.82-2s11.39,26.34-1.83,41.39,14.26,61.18-7.75,111.38" transform="translate(-197.7 -217.7)"/>
    <path class="cls-22" d="M471.28,649.13s6.16,44.91-11.52,53.25,46.91,32.78,74.29,4.9c0,0-20.53-22.55-18.65-59.19" transform="translate(-197.7 -217.7)"/>
    <path class="cls-23" d="M564.6,559.36s11.53-19,16.53.43-14.67,33.61-15.64,35.42" transform="translate(-197.7 -217.7)"/>
    <path class="cls-23" d="M419.4,561s-21.55-18.95-19.41,4.08,21.17,33.63,21.17,33.63" transform="translate(-197.7 -217.7)"/>
    <path class="cls-22" d="M568.92,569.66c-1.37,51.87-28.15,93.64-80.45,89.48-47.68-3.78-75-41.68-73.59-93.55s36.56-81.21,79.1-80.09S570.29,517.79,568.92,569.66Z" transform="translate(-197.7 -217.7)"/>
    <ellipse id="nose-2" data-name="nose" class="cls-23" cx="495.49" cy="567.45" rx="20.21" ry="6.43" transform="translate(-282.54 830.1) rotate(-88.49)"/>
    <g id="eyebrows-2" data-name="eyebrows">
      <path d="M441.72,532.42a2.18,2.18,0,0,1-1.78-3.44,34.2,34.2,0,0,1,29.83-13,2.18,2.18,0,1,1-.33,4.35A29.86,29.86,0,0,0,443.5,531.5,2.19,2.19,0,0,1,441.72,532.42Z" transform="translate(-197.7 -217.7)"/>
      <path d="M542.62,537.15A2.17,2.17,0,0,1,541,536c-.32-.61-7.67-14.29-26.57-16.55a2.18,2.18,0,0,1,.52-4.33l.86.11c20.66,2.86,28.73,18.11,29.07,18.77a2.18,2.18,0,0,1-.94,2.94A2.13,2.13,0,0,1,542.62,537.15Z" transform="translate(-197.7 -217.7)"/>
    </g>
    <path id="hair_front-2" data-name="hair_front" d="M545.09,498.2s-78.58,18.14-108.17-9.28S524.38,482,524.38,482Z" transform="translate(-197.7 -217.7)"/>
    <g id="cheeks-2" data-name="cheeks">
      <circle class="cls-24" cx="248.44" cy="364.69" r="13.83"/>
      <circle class="cls-24" cx="345.73" cy="364.23" r="13.83"/>
    </g>
    <g id="eyes-2" data-name="eyes">
      <circle cx="266.52" cy="315.24" r="5.97"/>
      <circle cx="324.87" cy="317.05" r="5.97"/>
    </g>
    <g>
      <ellipse class="cls-11" cx="495.75" cy="617.89" rx="7.69" ry="9.68" transform="translate(-332.7 879.46) rotate(-88.49)"/>
      <path class="cls-11" d="M495.88,628.86h-.42a14.28,14.28,0,0,1-8.8-3.2,10.3,10.3,0,0,1-3.86-8.11c.16-6,6.07-10.8,13.24-10.62a14.26,14.26,0,0,1,8.8,3.2,9.9,9.9,0,0,1-.42,16A14.21,14.21,0,0,1,495.88,628.86Zm-.25-15.39c-3.36,0-6.22,1.91-6.28,4.25a3.85,3.85,0,0,0,1.52,2.91,7.82,7.82,0,0,0,4.77,1.67,7.74,7.74,0,0,0,4.84-1.41,3.38,3.38,0,0,0,.15-5.75,7.77,7.77,0,0,0-4.76-1.67Z" transform="translate(-197.7 -217.7)"/>
    </g>
    <g>
      <path d="M459.79,564.16c-15.1,0-27.38-11.79-27.38-26.28s12.28-26.27,27.38-26.27,27.37,11.79,27.37,26.27S474.88,564.16,459.79,564.16Zm0-51.09c-14.3,0-25.92,11.13-25.92,24.81s11.62,24.82,25.92,24.82,25.92-11.13,25.92-24.82S474.08,513.07,459.79,513.07Z" transform="translate(-197.7 -217.7)"/>
      <path d="M529.65,564.16c-15.09,0-27.38-11.79-27.38-26.28s12.29-26.27,27.38-26.27S557,523.4,557,537.88,544.74,564.16,529.65,564.16Zm0-51.09c-14.29,0-25.92,11.13-25.92,24.81s11.63,24.82,25.92,24.82,25.92-11.13,25.92-24.82S543.94,513.07,529.65,513.07Z" transform="translate(-197.7 -217.7)"/>
      <path d="M502.34,540.71c-7.54-4.75-15.86-.37-15.94-.32l-.69-1.28c.37-.2,9.13-4.85,17.4.37Z" transform="translate(-197.7 -217.7)"/>
    </g>
    <path id="shirt-2" data-name="shirt" class="cls-22" d="M348.32,771.26l.74-4c18.54-75.89,107.56-67.7,107.56-67.7l78,2.07S652,676.92,651.37,760.24c0,6.21.1,11,.1,11Z" transform="translate(-197.7 -217.7)"/>
    <path class="cls-25" d="M450.33,695.6s46.37,137.4,88.42,2.78c1.4-4.47.46-1.76.46-1.76s40.86-3.38,50.25,2.63,9,72,9,72h-198l2.25-64.58S426.59,698.08,450.33,695.6Z" transform="translate(-197.7 -217.7)"/>
  </g>
</svg>
