<svg id="Layer_14" data-name="Layer 14" xmlns="http://www.w3.org/2000/svg" viewBox="0 0 555.92 565.5">
  <defs>
    <style>
      .cls-1 {
        fill: #ff006a;
      }

      .cls-2 {
        fill: #00dcd5;
      }

      .cls-3 {
        fill: #2df7ec;
      }

      .cls-4 {
        fill: #1d0072;
      }

      .cls-5, .cls-6 {
        fill: #3f5c6c;
      }

      .cls-6 {
        font-size: 152.42px;
        font-family: Gotham-Bold, Gotham;
        font-weight: 700;
      }

      .cls-7 {
        letter-spacing: -0.01em;
      }

      .cls-8 {
        fill: #ffe430;
      }

      .cls-9 {
        fill: #f29c1f;
      }
    </style>
  </defs>
  <g>
    <path id="Shape" class="cls-1" d="M730,432.65H701.28l-39.49-39.49a28.88,28.88,0,0,0-20.32-8.43H358.53a28.89,28.89,0,0,0-20.32,8.43l-39.49,39.49H270a47.92,47.92,0,0,0-47.92,47.93V672.27A47.9,47.9,0,0,0,270,720.19l6.52,32.5a19.17,19.17,0,0,0,18.78,15.43h93.17a19.17,19.17,0,0,0,18.78-15.43l6.52-32.5H586.27l6.51,32.5a19.19,19.19,0,0,0,18.79,15.43h93.16a19.18,19.18,0,0,0,18.79-15.43l6.52-32.5A47.92,47.92,0,0,0,778,672.27V480.58A47.93,47.93,0,0,0,730,432.65Z" transform="translate(-222.04 -202.62)"/>
    <path id="Shape-2" data-name="Shape" class="cls-2" d="M736.84,473.77a10.11,10.11,0,0,0-4.89-2.59h-.09A11.13,11.13,0,0,0,730,471H270a9.58,9.58,0,0,0-9.58,9.59V672.27a7.37,7.37,0,0,0,.38,2.59,9.59,9.59,0,0,0,7,6.71,8.15,8.15,0,0,0,2.2.28H730a9.58,9.58,0,0,0,9.58-9.58V480.58a9.73,9.73,0,0,0-2.78-6.81Z" transform="translate(-222.04 -202.62)"/>
    <path id="Shape-3" data-name="Shape" class="cls-3" d="M731.86,471.18c-71.7,1.73-457.58,19.75-471.09,203.68a7.37,7.37,0,0,1-.38-2.59V480.58A9.58,9.58,0,0,1,270,471H730a11.13,11.13,0,0,1,1.82.19Z" transform="translate(-222.04 -202.62)"/>
    <path id="Shape-4" data-name="Shape" class="cls-4" d="M413.74,720.19l-6.52,32.5a19.17,19.17,0,0,1-18.78,15.43H295.27a19.17,19.17,0,0,1-18.78-15.43L270,720.19Z" transform="translate(-222.04 -202.62)"/>
    <path id="Shape-5" data-name="Shape" class="cls-4" d="M730,720.19l-6.52,32.5a19.18,19.18,0,0,1-18.79,15.43H611.57a19.19,19.19,0,0,1-18.79-15.43l-6.51-32.5Z" transform="translate(-222.04 -202.62)"/>
    <g>
      <circle id="Oval" class="cls-5" cx="277.96" cy="345.05" r="9.58"/>
      <circle id="Oval-2" data-name="Oval" class="cls-5" cx="277.96" cy="412.14" r="9.58"/>
      <text class="cls-6" transform="translate(46.78 429.12)">TE</text>
      <text class="cls-6" transform="translate(301.17 429.12)"><tspan class="cls-7">S</tspan><tspan x="95.26" y="0">T</tspan></text>
    </g>
    <path id="Shape-6" data-name="Shape" class="cls-1" d="M701.28,432.65H298.72l39.49-39.49a28.89,28.89,0,0,1,20.32-8.43H641.47a28.88,28.88,0,0,1,20.32,8.43Z" transform="translate(-222.04 -202.62)"/>
    <path id="Shape-7" data-name="Shape" class="cls-8" d="M385,365.56a9.6,9.6,0,0,1-7.58-3.7l-61.12-78.59L276,315.54a9.61,9.61,0,0,1-14.31-2.74l-38.34-67.1A9.59,9.59,0,0,1,240,236.17l32.78,57.36,39.17-31.34a9.59,9.59,0,0,1,13.57,1.6l67.09,86.26A9.58,9.58,0,0,1,385,365.56Z" transform="translate(-222.04 -202.62)"/>
    <path id="Shape-8" data-name="Shape" class="cls-8" d="M615,365.56a9.58,9.58,0,0,1-7.57-15.47l67.09-86.26a9.59,9.59,0,0,1,13.55-1.6l39.18,31.34,32.79-57.4a9.58,9.58,0,0,1,16.63,9.5l-38.33,67.1a9.6,9.6,0,0,1-14.31,2.74l-40.34-32.24-61.12,78.59a9.58,9.58,0,0,1-7.57,3.7Z" transform="translate(-222.04 -202.62)"/>
    <path id="Shape-9" data-name="Shape" class="cls-9" d="M432.91,346.39a9.59,9.59,0,0,1-8.63-5.3l-57.5-115a9.59,9.59,0,1,1,17.15-8.57l57.51,115a9.58,9.58,0,0,1-8.53,13.87Z" transform="translate(-222.04 -202.62)"/>
    <path id="Shape-10" data-name="Shape" class="cls-9" d="M567.1,346.39a9.59,9.59,0,0,1-8.57-13.87L616,217.5a9.59,9.59,0,0,1,17.15,8.57l-57.51,115a9.57,9.57,0,0,1-8.58,5.3Z" transform="translate(-222.04 -202.62)"/>
    <path id="Shape-11" data-name="Shape" class="cls-8" d="M500,336.81a9.59,9.59,0,0,1-9.58-9.59v-115a9.59,9.59,0,0,1,19.17,0v115A9.59,9.59,0,0,1,500,336.81Z" transform="translate(-222.04 -202.62)"/>
  </g>
</svg>
