<?xml version="1.0" encoding="utf-8"?>
<!-- Generator: Adobe Illustrator 23.0.1, SVG Export Plug-In . SVG Version: 6.00 Build 0)  -->
<svg version="1.1" id="Layer_1" xmlns="http://www.w3.org/2000/svg" xmlns:xlink="http://www.w3.org/1999/xlink" x="0px" y="0px"
	 viewBox="0 0 1000 1000" style="enable-background:new 0 0 1000 1000;" xml:space="preserve">
<style type="text/css">
	.st0{fill:#FFFFFF;}
	.st1{fill:#00DCD5;}
	.st2{fill:#1D0072;}
	.st3{fill:#FF006A;}
	.st4{fill:#F29753;}
	.st5{fill:#D67832;}
</style>
<g id="speech_x5F_bubble">
	<g id="logo_ideas">
		<g id="logo_v1_yellow">
			<g id="speech_bubble">
				<circle id="circle" class="st0" cx="499.5" cy="499.5" r="419.5"/>
				<path id="dash" class="st0" d="M716.5,840l147,55.1c0,0,50.1,21.6,33.1-27.5c-17-49.2-66.1-158-66.1-158L716.5,840z"/>
			</g>
		</g>
	</g>
</g>
<g>
	<g>
		<path class="st1" d="M439.4,20.8L344.9,166c-7.1,11-4,25.6,6.9,32.8c3.8,2.5,8.3,3.8,12.9,3.8h189.1c13.1,0,23.7-10.6,23.7-23.7
			c0-4.6-1.3-9.1-3.8-12.9L479.1,20.8c-7.1-11-21.8-14.1-32.8-7C443.6,15.6,441.2,18,439.4,20.8z"/>
		<path class="st1" d="M411,189.3h96.5c8.6,0,15.7,7,15.7,15.7v436.8c0,8.6-7,15.7-15.7,15.7H411c-8.6,0-15.7-7-15.7-15.7V205
			C395.4,196.3,402.4,189.3,411,189.3z"/>
	</g>
	<g>
		<path class="st2" d="M540.5,107.9l-94.6,145.2c-7.2,10.9-4.1,25.6,6.8,32.8c3.9,2.5,8.4,3.9,13.1,3.9h189.1
			c13.1,0,23.7-10.6,23.7-23.7c0-4.6-1.3-9.1-3.8-12.9l-94.6-145.2c-7.1-11-21.8-14.1-32.8-6.9C544.6,102.8,542.3,105.2,540.5,107.9
			z"/>
		<path class="st2" d="M512.1,276.5h96.5c8.6,0,15.7,7,15.7,15.7v436.8c0,8.6-7,15.7-15.7,15.7h-96.5c-8.6,0-15.7-7-15.7-15.7V292.1
			C496.4,283.5,503.4,276.5,512.1,276.5z"/>
	</g>
	<g>
		<path class="st3" d="M636.9,184.6l-94.6,145.2c-7.1,11-4,25.6,6.9,32.8c3.8,2.5,8.3,3.8,12.9,3.8h189.1
			c13.1,0,23.7-10.6,23.7-23.6c0-4.6-1.3-9.1-3.8-13l-94.5-145.2c-7.1-11-21.8-14.1-32.8-6.9C641,179.5,638.7,181.8,636.9,184.6z"/>
		<path class="st3" d="M608.5,353.1H705c8.6,0,15.7,7,15.7,15.7v436.8c0,8.6-7,15.7-15.7,15.7h-96.5c-8.6,0-15.7-7-15.7-15.7V368.8
			C592.8,360.1,599.8,353.1,608.5,353.1z"/>
	</g>
</g>
<polygon class="st4" points="218.8,461.7 216.2,375.6 259.2,344.2 287.9,374.3 316.6,357.3 353.5,358.9 364.9,370.3 414.5,345.5 
	445.8,375.6 449.7,388.6 484.9,375.6 525.4,401.7 528,585.6 499.3,726.5 494.1,747.4 298.3,748.7 287.9,707 218.8,628.7 
	182.2,534.7 199.2,477.3 "/>
<path class="st5" d="M488.8,363.7c-10.3,0-20.4,3.1-29,8.8c-9.5-27.2-39.3-41.5-66.5-32c-8.4,3-16,8-21.9,14.7
	c-19-21.6-51.9-23.7-73.5-4.7c-1.7,1.5-3.3,3.1-4.7,4.7c-19.1-21.6-52-23.7-73.7-4.6c-11.2,9.9-17.7,24.1-17.7,39.1v73.1
	c-16.4,12.3-26.1,31.7-26.1,52.2c0,69.8,32.9,135.5,88.7,177.4c9.9,7.4,15.7,19,15.7,31.3V836c0,7.2,5.8,13,13,13h208.8
	c7.2,0,13-5.8,13-13V725.9C532.2,673.4,541,618.4,541,563V415.9C541,387.1,517.6,363.7,488.8,363.7
	C488.8,363.7,488.8,363.7,488.8,363.7z M488.8,389.8c14.4,0,26.1,11.7,26.1,26.1V502c0,14.4-11.7,26.1-26.1,26.1
	s-26.1-11.7-26.1-26.1v-86.1C462.7,401.5,474.4,389.8,488.8,389.8z M410.5,363.7c14.4,0,26.1,11.7,26.1,26.1v86.1
	c0,14.4-11.7,26.1-26.1,26.1s-26.1-11.7-26.1-26.1v-86.1C384.4,375.4,396.1,363.7,410.5,363.7z M332.2,363.7
	c14.4,0,26.1,11.7,26.1,26.1v60h-52.2v-60C306.1,375.4,317.8,363.7,332.2,363.7z M253.9,363.7c14.4,0,26.1,11.7,26.1,26.1v60h-39.1
	c-4.4,0-8.8,0.4-13,1.3v-61.3C227.8,375.4,239.5,363.7,253.9,363.7z M306.1,823v-60h182.7v60H306.1z M508.5,642.4
	c-8.4,51.7-19.7,75.2-19.7,81.5v13H306.2v-13c0-20.5-9.7-39.9-26.1-52.2c-49.3-37-78.3-95-78.3-156.6c0-21.6,17.5-39.1,39.1-39.1
	H357c-6.2,30.4-32.9,52.1-63.9,52.2H267c-7.2,0-13,5.8-13,13c0,7.2,5.8,13,13,13h13c24.9,0,46.3,17.6,51.2,41.9
	c1.4,7.1,8.3,11.7,15.3,10.3c7.1-1.4,11.7-8.3,10.3-15.3c-3.5-17.5-12.9-33.3-26.7-44.7c17-7.6,31.3-20.2,41-36.1
	c17.2,19.9,46.5,23.8,68.4,9.1c9.5,27.2,39.3,41.5,66.5,32c3.1-1.1,6-2.4,8.8-4.1v15.8C514.9,589.7,512.7,616.2,508.5,642.4z"/>
<path class="st4" d="M306.2,737v86.1h182.7V737C488.8,737,393.6,692.6,306.2,737z"/>
</svg>
