<?xml version="1.0" encoding="utf-8"?>
<!-- Generator: Adobe Illustrator 23.0.1, SVG Export Plug-In . SVG Version: 6.00 Build 0)  -->
<svg version="1.1" id="Layer_1" xmlns="http://www.w3.org/2000/svg" xmlns:xlink="http://www.w3.org/1999/xlink" x="0px" y="0px"
	 viewBox="0 0 1000 1000" style="enable-background:new 0 0 1000 1000;" xml:space="preserve">
<style type="text/css">
	.st0{fill:#FFFFFF;}
	.st1{fill:#F29753;}
	.st2{fill:#00DCD5;}
	.st3{fill:#1D0072;}
	.st4{fill:#FF006A;}
	.st5{fill:#CE763A;}
</style>
<g id="speech_x5F_bubble">
	<g id="logo_ideas">
		<g id="logo_v1_yellow">
			<g id="speech_bubble">
				<circle id="circle" class="st0" cx="499.5" cy="499.5" r="419.5"/>
				<path id="dash" class="st0" d="M716.5,840l147,55.1c0,0,50.1,21.6,33.1-27.5c-17-49.2-66.1-158-66.1-158L716.5,840z"/>
			</g>
		</g>
	</g>
</g>
<path class="st1" d="M306.2,737v86.1h182.7V737C488.8,737,393.6,692.6,306.2,737z"/>
<g>
	<g>
		<path class="st2" d="M426.9,24l-95.4,146.6c-7.2,11.1-4.1,25.9,6.9,33.1c3.9,2.5,8.4,3.9,13.1,3.9h190.9
			c13.2,0,23.9-10.7,23.9-23.9c0-4.7-1.4-9.2-3.9-13.1L467,24c-7.2-11.1-22-14.3-33-7.1C431.1,18.8,428.7,21.2,426.9,24L426.9,24z"
			/>
		<path class="st2" d="M398.3,194.2h97.4c8.7,0,15.8,7.1,15.8,15.8v441.1c0,8.7-7.1,15.8-15.8,15.8h-97.4c-8.7,0-15.8-7.1-15.8-15.8
			V210C382.4,201.3,389.5,194.2,398.3,194.2z"/>
	</g>
	<g>
		<path class="st3" d="M528.9,112l-95.5,146.6c-7.2,11-4.2,25.9,6.9,33.1c3.9,2.6,8.5,3.9,13.2,3.9h191c13.2,0,23.9-10.7,23.9-23.9
			c0-4.7-1.4-9.2-3.9-13.1L569,112c-7.2-11.1-22-14.2-33.1-7C533.2,106.8,530.8,109.2,528.9,112L528.9,112z"/>
		<path class="st3" d="M500.3,282.1h97.4c8.7,0,15.8,7.1,15.8,15.8V739c0,8.7-7.1,15.8-15.8,15.8h-97.4c-8.7,0-15.8-7.1-15.8-15.8
			V298C484.5,289.2,491.6,282.1,500.3,282.1z"/>
	</g>
	<g>
		<path class="st4" d="M626.3,189.4L530.8,336c-7.2,11.1-4.1,25.9,6.9,33.1c3.9,2.5,8.4,3.9,13.1,3.9h191
			c13.2,0,23.9-10.7,23.9-23.9c0-4.7-1.4-9.2-3.9-13.1l-95.4-146.6c-7.2-11.1-22-14.2-33.1-7C630.5,184.2,628.1,186.6,626.3,189.4
			L626.3,189.4z"/>
		<path class="st4" d="M597.7,359.6h97.4c8.7,0,15.8,7.1,15.8,15.8v441.1c0,8.7-7.1,15.8-15.8,15.8h-97.4c-8.7,0-15.8-7.1-15.8-15.8
			V375.4C581.9,366.6,588.9,359.6,597.7,359.6z"/>
	</g>
</g>
<g>
	<polygon class="st5" points="256.4,495.1 254.2,419.8 291.8,392.4 316.9,418.6 342,403.8 374.2,405.2 384.2,415.2 427.5,393.5 
		454.9,419.8 458.3,431.2 489.1,419.8 524.5,442.6 526.8,603.4 501.7,726.6 497.1,744.9 326,746 316.9,709.5 256.4,641.1 
		224.5,558.9 239.3,508.8 	"/>
	<path class="st5" d="M492.5,409.4c-9,0-17.9,2.7-25.4,7.7c-8.4-23.8-34.4-36.3-58.2-27.9c-7.4,2.6-13.9,7-19.1,12.9
		c-16.6-18.9-45.4-20.8-64.3-4.2c0,0,0,0,0,0c-1.5,1.3-2.9,2.7-4.1,4.1c-16.7-18.9-45.5-20.7-64.4-4.1c-9.8,8.6-15.4,21.1-15.5,34.2
		v63.9c-14.3,10.8-22.8,27.7-22.8,45.6c0,61,28.8,118.5,77.6,155.1c8.6,6.5,13.7,16.6,13.7,27.4v98.1c0,6.3,5.1,11.4,11.4,11.4
		c0,0,0,0,0,0h182.5c6.3,0,11.4-5.1,11.4-11.4c0,0,0,0,0,0v-96.2c15.1-46,22.8-94,22.8-142.4V455.1
		C538.1,429.9,517.7,409.4,492.5,409.4L492.5,409.4L492.5,409.4z M492.5,432.3c12.6,0,22.8,10.2,22.8,22.8c0,0,0,0,0,0v75.3
		C515,543,504.6,553,492,552.7c-12.2-0.3-22.1-10.1-22.3-22.3v-75.3C469.7,442.5,479.9,432.3,492.5,432.3z M424,409.4
		c12.6,0,22.8,10.2,22.8,22.8v75.3c-0.3,12.6-10.7,22.6-23.3,22.3c-12.2-0.3-22.1-10.1-22.3-22.3v-75.3
		C401.2,419.7,411.4,409.5,424,409.4z M355.6,409.4c12.6,0,22.8,10.2,22.8,22.8v52.5h-45.6v-52.5C332.8,419.7,343,409.4,355.6,409.4
		z M287.2,409.4c12.6,0,22.8,10.2,22.8,22.8v52.5h-34.2c-3.8,0-7.6,0.4-11.4,1.1v-53.6C264.4,419.7,274.6,409.4,287.2,409.4z
		 M332.8,810.9v-52.5h159.7v52.5L332.8,810.9z M509.8,653.1c-7.4,45.2-17.2,65.7-17.2,71.2v11.5H332.8v-11.4
		c0-18-8.4-34.9-22.8-45.6c-43.1-32.3-68.4-83.1-68.4-137c0-18.9,15.3-34.2,34.2-34.2h101.5c-5.5,26.5-28.8,45.6-55.9,45.6h-22.8
		c-6.3-0.2-11.6,4.8-11.7,11.1c-0.2,6.3,4.8,11.6,11.1,11.7c0.2,0,0.5,0,0.7,0H310c21.7,0,40.4,15.4,44.7,36.7
		c1.1,6.2,7,10.3,13.2,9.2s10.3-7,9.2-13.2c0-0.1-0.1-0.3-0.1-0.4c-3.1-15.3-11.3-29.1-23.3-39.1c14.9-6.6,27.4-17.6,35.8-31.5
		c15,17.4,40.7,20.8,59.8,8c8.4,23.8,34.4,36.3,58.2,27.9c2.7-0.9,5.2-2.1,7.7-3.5v13.8C515.3,606.9,513.4,630.1,509.8,653.1
		L509.8,653.1z"/>
	<path class="st1" d="M332.9,735.7V811h159.7v-75.3C492.5,735.7,409.3,697,332.9,735.7z"/>
	<path class="st1" d="M323.9,424.4c-0.4-2.9-1.5-5.6-3.1-8.1c-4.8-7.3-16.2-20.9-33.4-17.4c-23.2,4.6-28.3,10.2-32.5,16.7
		s-4.2,61.3-2.8,73.4c0,0,60-9.3,81.6-0.4L323.9,424.4z"/>
	<path class="st5" d="M317.9,488.6l23.3,7c0,0-8.9,4-25.6,0"/>
	<path class="st1" d="M392.1,425.7c0,0,0.1-19.8-14.5-28s-43.4-1.8-48.9,5.1c0,0,18,60.9,14.6,78.4c-0.5,2.6-0.9,6.6-0.9,6.6
		l48.1,0.3C390.4,488.2,393.5,436.1,392.1,425.7z"/>
	<path class="st1" d="M462.1,428.9c0,0-3-20.8-17.6-29.6s-43.4-1.9-48.9,5.5c0,0,6.2,48.4,2.2,82.3c-0.1,2.4,0,4.8,0.5,7.1l53.5,3.1
		C451.8,497.4,463.5,440,462.1,428.9z"/>
	<path class="st1" d="M529.9,452.4c0,0-1.2-19.1-15.2-28.3s-32.8-8.5-39.1-2.2c0,0,7.3,46-4,74.9c-0.5,1.3-0.9,2.6-1.1,4
		c-0.3,1.3-0.5,2.3-0.5,2.3l52.9,7.1l1.9-2.7C524.7,507.7,530.4,462.6,529.9,452.4z"/>
	<path class="st1" d="M454.2,541.3c0-0.6,0.2-1.2,0.4-1.7c2.6-6.3,19.3-45.7,21.1-48.8s37.5,8.6,45.6,11.4c1.1,0.4,2,1.1,2.6,2l0,0
		c0.8,1.2,1,2.7,0.6,4.1c-2.4,8.6-11.4,39.7-16.7,42.1c-6.2,2.8-19.8,11.9-32.5,9.8C463,558.1,454,551.3,454.2,541.3z"/>
	<path class="st1" d="M452,495.1c0,0-2.7,36-11.4,44.3s-31.8,16.7-43.5,1.2s5-66.8,5-66.8L452,495.1z"/>
	<path class="st1" d="M326.1,820.1c-2.9,0-5.3-2.4-5.3-5.3V714.5c0,0,0-15.3-15.3-25.3S255,646.4,242.8,612s-16.1-67.3-13.8-80.3
		s8.4-29.1,34.4-33.7c23.4-4.1,101.1-0.8,116.6-0.1c2,0.1,3.8,1.3,4.6,3.1c1.7,3.9,3,11.5-3.7,23c-7.8,13.3-21,27.8-47.1,34.9
		c-2.8,0.8-4.5,3.6-3.7,6.4c0.4,1.6,1.6,3,3.2,3.6c14.1,5.5,28.9,16.1,32.8,36.5c0.6,2.9,3.3,4.7,6.2,4.2c0.7-0.1,1.4-0.4,2.1-0.9
		c16.4-11.7,57.3-38.4,87.7-37c28.7,1.2,50.3,1.3,59.6,1.3c2.9,0,5.2,2.3,5.3,5.1c0.4,13.2,0.9,48.8-3.7,68.7
		c-5.8,24.8-13.3,60.5-18.5,72.1c-4.4,9.8-1.3,75.7-0.3,95.4c0.1,2.9-2.1,5.4-5,5.5c-0.1,0-0.2,0-0.3,0L326.1,820.1z"/>
</g>
</svg>
