<svg xmlns="http://www.w3.org/2000/svg" viewBox="0 0 1000 1000">
  <defs>
    <style>
      .cls-1 {
        fill: #fff;
      }

      .cls-2 {
        fill: #00dcd5;
      }

      .cls-3 {
        fill: #1d0072;
      }

      .cls-4 {
        fill: #ff006a;
      }

      .cls-5 {
        fill: #f29753;
      }

      .cls-6 {
        fill: #c47641;
      }
    </style>
  </defs>
  <g id="Layer_20" data-name="Layer 20">
    <g id="Layer_2" data-name="Layer 2">
      <g id="logo_ideas" data-name="logo ideas">
        <g id="logo_v1_yellow" data-name="logo v1 yellow">
          <g id="speech_bubble" data-name="speech bubble">
            <circle id="circle" class="cls-1" cx="462.27" cy="470.04" r="318.96"/>
            <path id="dash" class="cls-1" d="M627.29,729l111.77,41.89s38.06,16.46,25.14-20.94-50.29-120.12-50.29-120.12Z"/>
          </g>
        </g>
      </g>
    </g>
  </g>
  <g id="Layer_16" data-name="Layer 16">
    <g>
      <g>
        <path class="cls-2" d="M409.11,86.1,336.65,197.37a18.15,18.15,0,0,0,15.21,28.06H496.79A18.15,18.15,0,0,0,512,197.37L439.53,86.1A18.15,18.15,0,0,0,409.11,86.1Z"/>
        <rect class="cls-2" x="375.36" y="215.27" width="97.93" height="358.79" rx="12"/>
      </g>
      <g>
        <path class="cls-3" d="M486.57,152.87,414.11,264.14a18.15,18.15,0,0,0,15.21,28.06H574.25a18.16,18.16,0,0,0,15.21-28.06L517,152.87A18.15,18.15,0,0,0,486.57,152.87Z"/>
        <rect class="cls-3" x="452.81" y="282.04" width="97.93" height="358.79" rx="12"/>
      </g>
      <g>
        <path class="cls-4" d="M560.47,211.63,488,322.9A18.15,18.15,0,0,0,503.21,351H648.14a18.15,18.15,0,0,0,15.21-28.06L590.89,211.63A18.15,18.15,0,0,0,560.47,211.63Z"/>
        <rect class="cls-4" x="526.71" y="340.8" width="97.93" height="358.79" rx="12"/>
      </g>
    </g>
  </g>
  <g id="Layer_14" data-name="Layer 14">
    <polygon class="cls-5" points="240 424 238 358 271 334 293 357 315 344 343.24 345.21 352 354 390 335 414 358 417 368 444 358 475 378 477 519 455 627 451 643 301 644 293 612 240 552 212 480 225 436 240 424"/>
    <path class="cls-6" d="M446.94,348.94a39.69,39.69,0,0,0-22.24,6.77A40,40,0,0,0,357,342.51a39.95,39.95,0,0,0-60,0,40,40,0,0,0-70,26.42v56a50.17,50.17,0,0,0-20,40,170.14,170.14,0,0,0,68,136,30,30,0,0,1,12,24v86a10,10,0,0,0,10,10h160a10,10,0,0,0,10-10V626.55a403.61,403.61,0,0,0,14.84-60.83,402,402,0,0,0,5.16-64V388.94A40,40,0,0,0,446.94,348.94Zm0,20a20,20,0,0,1,20,20v66a20,20,0,0,1-40,0v-66A20,20,0,0,1,446.94,368.94Zm-60-20a20,20,0,0,1,20,20v66a20,20,0,0,1-40,0v-66A20,20,0,0,1,386.94,348.94Zm-60,0a20,20,0,0,1,20,20v46h-40v-46A20,20,0,0,1,326.94,348.94Zm-60,0a20,20,0,0,1,20,20v46h-30a50.71,50.71,0,0,0-10,1v-47A20,20,0,0,1,266.94,348.94Zm40,352v-46h140v46ZM462,562.51c-6.45,39.65-15.1,57.63-15.1,62.43v10h-140v-10a50,50,0,0,0-20-40,150.12,150.12,0,0,1-60-120,30,30,0,0,1,30-30h89a50.09,50.09,0,0,1-49,40h-20a10,10,0,0,0,0,20h10a40.08,40.08,0,0,1,39.23,32.14,10,10,0,0,0,19.61-3.9,59.71,59.71,0,0,0-20.44-34.29,70.47,70.47,0,0,0,31.46-27.7,39.9,39.9,0,0,0,52.39,7,40,40,0,0,0,57.75,21.4v12.13A381.53,381.53,0,0,1,462,562.51Z"/>
    <path class="cls-5" d="M307,635v66H447V635S374,601,307,635Z"/>
  </g>
</svg>
