<?xml version="1.0" encoding="utf-8"?>
<!-- Generator: Adobe Illustrator 23.0.1, SVG Export Plug-In . SVG Version: 6.00 Build 0)  -->
<svg version="1.1" id="testingconvo" xmlns="http://www.w3.org/2000/svg" xmlns:xlink="http://www.w3.org/1999/xlink" x="0px"
	 y="0px" viewBox="0 0 1000 1000" style="enable-background:new 0 0 1000 1000;" xml:space="preserve">
<style type="text/css">
	.st0{fill:#FFFFFF;}
	.st1{fill:#00DCD5;}
	.st2{fill:#1D0072;}
	.st3{fill:none;stroke:#00DCD5;stroke-width:34.024;stroke-miterlimit:10;}
	.st4{fill:#FF006A;}
	.st5{fill:none;stroke:#FF006A;stroke-width:34.024;stroke-linecap:round;stroke-linejoin:round;}
	.st6{fill:none;stroke:#1D0072;stroke-width:34.024;stroke-linecap:round;stroke-linejoin:round;}
	.st7{fill:none;stroke:#00DCD5;stroke-width:34.024;stroke-linecap:round;stroke-linejoin:round;}
</style>
<title>standupstigma</title>
<g id="Layer_19">
	<g>
		<g id="logo_ideas_2_">
			<g id="logo_v1_yellow_2_">
				<g id="speech_bubble_2_">
					<circle id="circle_2_" class="st0" cx="497.41" cy="526.09" r="417.4"/>
					<path id="dash_2_" class="st0" d="M713.36,864.97l146.26,54.82c0,0,49.81,21.54,32.9-27.4
						c-16.91-48.94-65.81-157.19-65.81-157.19L713.36,864.97z"/>
				</g>
			</g>
		</g>
	</g>
</g>
<g id="Layer_21">
	<g>
		<path class="st1" d="M287.41,60.17L175.49,232.05c-7.16,10.99-4.06,25.7,6.93,32.87c3.86,2.52,8.37,3.85,12.97,3.85h223.77
			c13.12,0,23.75-10.63,23.76-23.75c0-4.61-1.34-9.11-3.85-12.97L327.21,60.17c-7.16-10.99-21.87-14.1-32.86-6.94
			C291.58,55.03,289.21,57.39,287.41,60.17z"/>
		<path class="st1" d="M251.04,253.84h112.54c8.67,0,15.7,7.03,15.7,15.7v495.97c0,8.67-7.03,15.7-15.7,15.7H251.04
			c-8.67,0-15.7-7.03-15.7-15.7V269.55C235.34,260.87,242.37,253.84,251.04,253.84z"/>
	</g>
</g>
<g id="Layer_20">
	<g>
		<path class="st2" d="M401.26,158.31L289.34,330.2c-7.16,10.99-4.06,25.7,6.93,32.87c3.86,2.52,8.37,3.85,12.97,3.85h223.77
			c13.12,0,23.75-10.63,23.76-23.75c0-4.61-1.34-9.11-3.85-12.97L441.06,158.31c-7.16-10.99-21.87-14.1-32.86-6.94
			C405.43,153.17,403.06,155.54,401.26,158.31z"/>
		<path class="st2" d="M364.89,351.99h112.54c8.67,0,15.7,7.03,15.7,15.7v495.97c0,8.67-7.03,15.7-15.7,15.7H364.89
			c-8.67,0-15.7-7.03-15.7-15.7V367.69C349.19,359.02,356.22,351.99,364.89,351.99z"/>
	</g>
</g>
<g id="Layer_16">
	<circle class="st3" cx="565.11" cy="499.86" r="201.53"/>
</g>
<g id="Layer_14_1_">
	<g>
		<path class="st4" d="M509.87,244.68L397.96,416.57c-7.16,10.99-4.06,25.7,6.93,32.87c3.86,2.52,8.37,3.85,12.97,3.85h223.77
			c13.12,0,23.75-10.63,23.76-23.75c0-4.61-1.34-9.11-3.85-12.97L549.68,244.68c-7.16-10.99-21.87-14.1-32.86-6.94
			C514.04,239.54,511.68,241.91,509.87,244.68z"/>
		<path class="st4" d="M473.5,438.36h112.54c8.67,0,15.7,7.03,15.7,15.7v495.97c0,8.67-7.03,15.7-15.7,15.7H473.5
			c-8.67,0-15.7-7.03-15.7-15.7V454.06C457.8,445.39,464.83,438.36,473.5,438.36z"/>
	</g>
	<line class="st5" x1="638.39" y1="188.41" x2="771.87" y2="21"/>
	<line class="st6" x1="756.82" y1="270.2" x2="890.3" y2="102.79"/>
	<line class="st7" x1="444.05" y1="658.2" x2="688.12" y2="352.08"/>
	<line class="st7" x1="825.52" y1="412.18" x2="959" y2="244.77"/>
</g>
</svg>
