<?xml version="1.0" encoding="utf-8"?>
<!-- Generator: Adobe Illustrator 23.0.1, SVG Export Plug-In . SVG Version: 6.00 Build 0)  -->
<svg version="1.1" id="testingconvo" xmlns="http://www.w3.org/2000/svg" xmlns:xlink="http://www.w3.org/1999/xlink" x="0px"
	 y="0px" viewBox="0 0 1000 1000" style="enable-background:new 0 0 1000 1000;" xml:space="preserve">
<style type="text/css">
	.st0{fill:#FFFFFF;}
	.st1{fill:#282B6A;}
	.st2{fill:#D6D6D6;}
	.st3{fill:#B6B9BA;}
	.st4{fill:#D8D8D8;}
	.st5{fill:#EAEAEA;}
	.st6{fill:#FF4676;}
	.st7{fill:#F55D85;}
	.st8{fill:#F3D4DC;}
	.st9{fill:none;stroke:#282B6A;stroke-width:3.9728;stroke-linecap:round;stroke-linejoin:round;}
	.st10{fill:#275468;}
	.st11{fill:#95BBC5;}
	.st12{fill:#A5D4E5;}
	.st13{fill:#C1E1E8;}
	.st14{fill:none;stroke:#275468;stroke-width:13.2426;stroke-miterlimit:10;}
</style>
<g id="speech_x5F_bubble">
	<g>
		<g id="logo_ideas_1_">
			<g id="logo_v1_yellow_1_">
				<g id="speech_bubble_1_">
					<circle id="circle_1_" class="st0" cx="491.09" cy="502.62" r="422.38"/>
					<path id="dash_1_" class="st0" d="M709.62,845.54l148.01,55.47c0,0,50.4,21.8,33.29-27.73
						c-17.11-49.53-66.6-159.07-66.6-159.07L709.62,845.54z"/>
				</g>
			</g>
		</g>
	</g>
</g>
<g id="book_1_">
	<g id="Layer_1-2_1_">
		<g id="book">
			<path class="st1" d="M184.47,429.52h475.61c33.39,0,60.47,27.07,60.47,60.47v243.87c0,33.39-27.07,60.47-60.47,60.47H184.47
				c-33.39,0-60.47-27.07-60.47-60.47V489.98C124.01,456.59,151.08,429.52,184.47,429.52z"/>
			<path class="st1" d="M422.86,811.86c15.43-0.2,30.19-6.33,41.24-17.11c10.12-10.12,17.74-26.71,17.08-41.24
				c-0.68-15.1-5.64-30.74-17.08-41.25c-11.44-10.51-25.44-17.08-41.24-17.08c-15.43,0.2-30.2,6.31-41.25,17.08
				c-10.06,10.13-17.74,26.71-17.1,41.25c0.68,15.08,5.64,30.72,17.1,41.24s25.44,17.08,41.25,17.08V811.86z"/>
			<path class="st2" d="M422.63,778.01c15.89,0,31-13.92,30.26-30.26s-13.24-30.27-30.26-30.27c-15.82,0-31,13.92-30.27,30.27
				C393.08,764.1,405.66,778.01,422.63,778.01z"/>
			<path class="st3" d="M187.12,407.63h470.1c16.23,0,29.39,13.16,29.39,29.39v295.65c0,16.23-13.16,29.39-29.39,29.39h-470.1
				c-16.23,0-29.39-13.16-29.39-29.39V437.01C157.73,420.78,170.89,407.63,187.12,407.63z"/>
			<path class="st2" d="M396.41,762.12c0,0,25.28-8.53,25.77-33.36c-0.49,24.09,27.15,33.36,27.15,33.36H396.41z"/>
			<path class="st4" d="M422.18,731.1c0,0,3.27-34.81,59.59-36.72s70.91,27.23,118.4,32.3c47.49,5.07,53.82-20.91,53.82-25.96
				V424.67c0,0-4.44-31.05-36.72-31.05c-74.86,1.92-103.61-46.35-160.5-26.71c-5.61,1.6-31.33,14.29-34.62,45.69
				C422.23,427.82,422.18,731.1,422.18,731.1z"/>
			<path class="st5" d="M422.18,731.1c0,0-3.34-34.81-59.59-36.72s-70.91,27.23-118.4,32.3c-47.49,5.07-53.82-20.91-53.82-25.96
				V424.67c0,0,4.44-31.05,36.73-31.05c74.86,1.92,103.61-46.35,160.49-26.71c5.6,1.59,31.35,14.26,34.63,45.66
				C422.11,427.82,422.18,731.1,422.18,731.1z"/>
		</g>
	</g>
</g>
<g id="brain_1_">
	<g id="Layer_1-2-2">
		<g id="brain">
			<g id="Flat">
				<path class="st6" d="M877.08,314.61c0.16-22.43-14.06-42.45-35.29-49.69c4.06-7.68,6.17-16.23,6.16-24.91
					c0-28.85-22.83-52.19-50.98-52.19c-2.44,0-4.87,0.18-7.29,0.54v-0.54c0.02-7.47-1.53-14.86-4.55-21.7
					c-8.07-17.99-25.83-30.55-46.42-30.55c-12.09,0-23.77,4.38-32.88,12.32c-16.82-22.06-48.35-26.31-70.41-9.48
					c-3.57,2.72-6.76,5.91-9.48,9.48c-9.11-7.94-20.79-12.32-32.88-12.32c-28.15,0-50.98,23.37-50.98,52.19v0.54
					c-2.41-0.36-4.84-0.54-7.28-0.54c-28.16,0-50.99,23.38-50.99,52.19c-0.02,8.69,2.1,17.24,6.17,24.91
					c-21.23,7.24-35.45,27.26-35.3,49.69c0,27.09,20.13,49.35,45.9,52c-0.2,0.66-0.38,1.33-0.54,2c-1.11,4.32-1.67,8.77-1.67,13.23
					c0,28.86,22.83,52.19,50.98,52.19c15.73-0.04,30.54-7.42,40.06-19.94c16.71,22.11,48.18,26.5,70.29,9.79
					c2.21-1.67,4.28-3.52,6.18-5.53c19.06,20.12,50.82,20.98,70.94,1.92c2.01-1.9,3.86-3.97,5.53-6.18
					c9.51,12.52,24.32,19.89,40.04,19.94c28.15,0,50.98-23.38,50.98-52.19c-0.01-5.12-0.75-10.22-2.19-15.14
					C856.95,363.96,877.08,341.69,877.08,314.61z"/>
				<path class="st7" d="M831.2,366.61c1.45,4.93,2.19,10.04,2.19,15.18c0,28.86-22.83,52.19-50.98,52.19
					c-15.73-0.04-30.55-7.41-40.06-19.94c-16.69,22.11-48.14,26.5-70.25,9.81c-2.23-1.67-4.31-3.53-6.22-5.56
					c-19.03,20.14-50.79,21.03-70.92,2c-0.01-0.01-0.03-0.02-0.04-0.04c-2.02-1.91-3.88-3.99-5.55-6.21
					c-9.51,12.51-24.3,19.88-40.02,19.94c-28.15,0-50.98-23.38-50.98-52.19c0-4.44,0.55-8.86,1.65-13.17
					c114.64-21.15,224.13-79.36,285.12-202.5c3.02,6.83,4.57,14.23,4.55,21.7v0.54c2.41-0.36,4.85-0.54,7.29-0.54
					c28.15,0,50.98,23.38,50.98,52.19c0.02,8.68-2.1,17.24-6.16,24.91c21.23,7.24,35.45,27.26,35.29,49.69
					c0,27.09-20.13,49.35-45.89,51.97L831.2,366.61z"/>
				<g>
					<path class="st8" d="M588.62,339.3c-11.23,11.28-17.51,26.57-17.43,42.49c0,9.36,3.95,21.3,8.01,29.52
						c1.74,3.63,6.1,5.15,9.72,3.41c0,0,0,0,0,0l0,0c0.32-0.15,0.62-0.33,0.92-0.52c3.01-2.06,4.04-6.03,2.4-9.29
						c-3.08-6.25-6.52-15.98-6.52-23.09c-0.07-12.05,4.68-23.62,13.18-32.16L588.62,339.3z"/>
					<path class="st8" d="M706.14,148.28c-2.63-3.04-7.22-3.38-10.26-0.75c0,0,0,0-0.01,0.01l0,0c-0.25,0.23-0.49,0.47-0.71,0.72
						c-9.51,10.97-14.74,25-14.71,39.52h14.59c-0.03-10.97,3.9-21.57,11.06-29.88c2.4-2.73,2.43-6.82,0.07-9.59L706.14,148.28z"/>
					<path class="st8" d="M833.27,365.59c-0.53-3.5-3.56-6.08-7.1-6.03h-0.11c-11.47,0-22.47-4.6-30.52-12.78l-10.32,10.25
						c10.78,10.92,25.49,17.06,40.84,17.04h0.35c3.89-0.05,7.01-3.24,6.97-7.14c0-0.32,0-0.64-0.07-0.96L833.27,365.59z"/>
					<path class="st8" d="M789.77,188.87L789.77,188.87c-0.61-3.97-4.31-6.7-8.28-6.1c-0.36,0.05-0.72,0.13-1.07,0.23
						c-9.57,2.92-18.24,8.25-25.16,15.48l10.52,10.07c5.15-5.41,11.59-9.42,18.73-11.64c3.49-1.01,5.7-4.43,5.19-8.02L789.77,188.87
						z"/>
					<path class="st8" d="M577.45,199.47c-6.94-7.71-15.53-13.75-25.14-17.67c-4.09-1.62-8.72,0.38-10.34,4.47
						c-1.62,4.09,0.38,8.72,4.47,10.34l0,0c0.24,0.1,0.5,0.18,0.76,0.26c7.1,2.16,13.53,6.12,18.64,11.5
						c-8.29,8.21-13.99,18.67-16.38,30.09l14.25,3c1.85-8.96,6.4-17.13,13.03-23.43c8.5-8.17,19.99-12.46,31.76-11.87l0.7-14.57
						c-11.12-0.56-22.16,2.17-31.75,7.83V199.47z"/>
					<path class="st8" d="M738.72,259.29c-5.06,0.22-10.05,1.27-14.76,3.12c-1.17-15.2-9.54-28.92-22.52-36.91l-7.65,12.39
						c9.9,6.14,15.87,17,15.75,28.64c0,18.37-14.52,33.34-32.37,33.34c-3.12-0.01-6.22-0.47-9.2-1.37l-4.26,13.93
						c4.36,1.33,8.89,2,13.44,2c21.39,0,39.41-14.68,45.1-34.67c12.44-8.94,29.5-7.68,40.48,3l10.09-10.52
						C763.72,263.41,751.38,258.73,738.72,259.29z"/>
					<path class="st8" d="M578.11,292.13c-10.93-4.75-19.47-13.73-23.67-24.89l-13.59,5.22c3.25,8.55,8.44,16.22,15.15,22.43
						c-0.89,6.22-3.58,12.05-7.73,16.78c-6.61,7.46-16.38,11.13-27.59,10.43l-0.92,14.56c1.24,0.07,2.45,0.12,3.64,0.12
						c14.24,0,26.83-5.39,35.75-15.39c4.48-5.05,7.8-11.03,9.71-17.5c1.13,0.58,2.28,1.14,3.45,1.65
						c10.96,4.78,23.14,5.99,34.82,3.44l-3.07-14.28c-8.71,1.89-17.79,0.99-25.96-2.58V292.13z"/>
					<path class="st8" d="M716.14,344.08c-8.85,17.3-29.27,26.4-48.55,21.69l-3.44,14.15c4.6,1.12,9.31,1.69,14.04,1.7
						c21.42,0.08,41.09-11.85,50.91-30.89l1.52-2.96l-12.96-6.66L716.14,344.08z"/>
				</g>
			</g>
		</g>
	</g>
</g>
<g id="writing_1_">
	<path class="st9" d="M399.36,429.42c0,0-17.92-12.28-24.54-6.98c-3.92,3.12-7.48,6.67-10.59,10.59l-9.27-6.62l-11.92,5.3
		l-1.32,6.62l-21.19-10.59c0,0-15.89,6.62-19.86,10.59c-3.97,3.97-17.22-11.92-17.22-11.92l-18.54,11.92l-13.84-8.42l-3.38,9.75
		l-27.45-9.27l-6.98,11.92"/>
	<path id="writing" class="st9" d="M217.27,479.39c0,0,5.3-10.59,10.59-6.62c5.3,3.97,11.92,9.27,11.92,9.27l11.92-6.62l9.68,6.86"
		/>
</g>
<g id="syringe">
	<g id="Layer_1-2-3">
		<g id="needle">
			<path class="st10" d="M70.9,168.13l21.57-12.02c2.19-1.22,4.96-0.43,6.18,1.76l13.9,24.94c1.22,2.19,0.43,4.96-1.76,6.18
				L89.22,201c-2.19,1.22-4.96,0.43-6.18-1.76l-13.9-24.94C67.92,172.12,68.71,169.35,70.9,168.13z"/>
			<path class="st10" d="M55.21,168.32l47.09-26.24c2.19-1.22,4.96-0.43,6.18,1.76l1.68,3.02c1.22,2.19,0.43,4.96-1.76,6.18
				l-47.09,26.24c-2.19,1.22-4.96,0.43-6.18-1.76l-1.68-3.02C52.23,172.31,53.01,169.54,55.21,168.32z"/>
			<path class="st11" d="M61.35,201.24l66.58-37.11c2.19-1.22,4.96-0.43,6.18,1.76l7.03,12.61c1.22,2.19,0.43,4.96-1.76,6.18
				L72.8,221.79c-2.19,1.22-4.96,0.43-6.18-1.76l-7.03-12.61C58.37,205.23,59.16,202.47,61.35,201.24z"/>
			
				<rect x="110.9" y="189.46" transform="matrix(0.8735 -0.4868 0.4868 0.8735 -123.3768 112.5737)" class="st12" width="88.08" height="208.49"/>
			<polygon class="st12" points="244.17,363.28 230.38,427.66 167.24,406.16 			"/>
			<path class="st12" d="M46.33,222.55l102.22-56.97c2.19-1.22,4.96-0.43,6.18,1.76l1.53,2.74c1.22,2.19,0.43,4.96-1.76,6.18
				L52.28,233.22c-2.19,1.22-4.96,0.43-6.18-1.76l-1.53-2.74C43.35,226.54,44.14,223.77,46.33,222.55z"/>
			<path class="st10" d="M262.46,480.29c-6.62-11.32-13.07-22.75-19.33-34.3c-0.56-0.85-1.71-1.07-2.55-0.51
				c-0.75,0.5-1.03,1.47-0.65,2.3c6.25,11.53,12.7,22.96,19.33,34.3C260.44,484.12,263.66,482.34,262.46,480.29z"/>
			<path class="st12" d="M244.42,442.18l-13.41-24.06c-3.22-5.77-12.2-0.78-8.98,5.01l13.41,24.06
				C238.61,452.97,247.6,447.98,244.42,442.18z"/>
			<path class="st13" d="M226.08,343.18l-6.75,61.6c-0.01,0.75-0.22,1.48-0.61,2.12c-1.17,1.58-3.62,0.9-5.39,0.07
				c-9.68-4.52-19.43-9.08-28.11-15.32c-8.69-6.24-16.28-14.32-20.41-24.15c-1.85-4.84-3.21-9.85-4.07-14.95
				c-2.78-14.12-4.83-28.37-6.16-42.69c-1.18-12.81-1.77-25.64-2.73-38.4c-2.02-27.18-5.66-54.21-10.89-80.95
				c10.36,10.21,17.94,22.83,25.4,35.32c21.53,36.02,43.14,72.17,59.9,110.65c0.85,1.96,1.26,4.95-0.78,5.59
				c-28.68-41.05-51.31-85.89-73.84-130.6c16.06,33.56,33.76,66.32,52.65,98.37c6.04,10.25,12.33,20.76,14.05,32.54
				c1.22,8.22,0.11,16.59-0.99,24.84l-4.11,30.62c-8.41-2.37-17-4.82-24.11-9.89c-10.41-7.43-16.31-19.49-21.69-31.08
				c-4.77-10.29-9.49-20.79-11.11-32.02c-1.87-13.06,0.56-26.3,0.56-39.48c0-21.7-6.62-43.16-5.15-64.81
				c11.53,22.8,22.64,45.8,33.34,68.99c6.95,15.1,13.73,30.27,19.93,45.7c2.58,6.41,5.07,12.96,5.68,19.86
				c0.56,6.03-0.42,12.09-1.32,18.08l-2.58,16.33c-8.93-1.62-15.89-8.66-20.95-16.22c-13.8-20.71-17.08-46.45-19.97-71.18
				l-7.24-61.76c3.54,21.35,3.63,43.1,2.79,64.74c-0.45,11.71-1.07,23.84,3.3,34.72c-2.26-5.67-3.2-11.78-2.75-17.86l23.57,42.01
				l-1.1-13.04c6.57,5.77,11.99,12.72,15.98,20.5l-5.54-7.88l5.61,6.62l-14.57-63.76c6.84,9.42,12.34,19.73,16.35,30.66
				l-27.58-49.32c4.87,14.07,10.84,27.75,17.84,40.89c-6.29-16.46-12.95-32.72-19.98-48.79l9.63,27.93
				c-2.22-8.02-4.11-16.13-5.65-24.31c0.67,1.55,0.99,3.22,0.95,4.9l-11.02-25.16l9.1,28.35l-3.03-3.84l9.07,37.78
				c-2.54-2.18-4.38-5.06-5.3-8.28l11.18,27.78c-1.92-2.1-3.44-4.54-4.5-7.18l19.47,47.43c1.38-20.21-1.29-40.5-7.84-59.67"/>
			<path class="st13" d="M217.42,351.33c5.9-4.28,8.31-11.93,5.92-18.82c-2.21-6.99-6.81-13.37-10.59-19.6
				c-7.75-12.77-15.86-25.31-24.34-37.62c-1.4-2.35-4.14-3.54-6.81-2.97c-2.46,0.61-4.87,3.17-4.66,5.83l4.33,54.43l11.47-2.85
				c-9.06-16.54-14.96-34.43-19.86-52.53l-11.3,4.44c7.13,10.65,13.82,21.57,20.05,32.78c1.51,2.66,4.76,3.79,7.6,2.65
				c3.05-1.26,4.09-3.97,3.72-7.1l-2.85-25.45c-0.95-8.45-2.08-16.29-5.89-24.01c-7.52-15.23-15.96-30.09-23.93-45.02l-13.63-25.62
				c-3.32-6.24-12.66-2.21-11.3,4.44c8.68,43.04,20.99,85.28,36.8,126.24c4.65,11.89,9.6,23.66,14.83,35.3
				c1.32,3.02,5.61,3.88,8.33,2.37c2.9-1.69,3.94-5.37,2.37-8.33c-17.77-39.56-31.95-80.64-42.38-122.73
				c-2.97-11.87-5.67-23.78-8.12-35.75l-11.3,4.44l23.64,44.42l11.83,22.22c1.95,3.34,3.5,6.89,4.61,10.59
				c0.9,3.81,1.52,7.68,1.85,11.57l3.18,28.34l11.3-4.44c-6.18-11.2-12.86-22.13-20.05-32.79c-1.53-2.62-4.74-3.75-7.57-2.65
				c-2.78,1.11-4.34,4.07-3.68,6.99c5.22,19.14,11.53,38.14,21.11,55.62c2.75,5.02,12,3.42,11.47-2.85l-4.36-54.44l-11.47,2.86
				c7.37,10.68,14.46,21.56,21.25,32.63c3.31,5.38,6.56,10.79,9.75,16.25c1.56,2.23,2.65,4.75,3.22,7.4c0.04,0.65,0,1.31-0.13,1.95
				c-0.12,0.44-0.12,0.2-0.33,0.83c-0.13,0.41-0.66,0.75,0,0.3c-2.65,1.95-4.12,5.18-2.37,8.33c1.46,2.65,5.64,4.33,8.33,2.36
				L217.42,351.33z"/>
			
				<rect x="181.01" y="168.96" transform="matrix(0.8735 -0.4868 0.4868 0.8735 -107.1808 124.3995)" class="st12" width="9.57" height="198.98"/>
			<g>
				<path class="st13" d="M131.74,191.76c2.34,9.98,4.34,20.84,6.62,30.84c10.37,44.23,20.8,88.73,38.77,130.45"/>
				<path class="st13" d="M126.76,192.99c2.45,10.59,4.4,21.19,6.87,31.78c2.52,10.77,5.05,21.52,7.68,32.26
					c5.3,21.28,10.94,42.48,17.93,63.26c4.03,11.93,8.51,23.69,13.45,35.29c1.09,2.56,4.74,3.23,6.99,1.99
					c2.41-1.44,3.28-4.5,1.99-6.99c-17.22-39.94-27.31-82.4-37.2-124.57c-2.77-11.77-4.99-23.68-7.73-35.45
					c-1.51-6.46-11.49-3.97-10,2.44L126.76,192.99z"/>
			</g>
			<path class="st13" d="M178.34,370.67c-11.6-19.86-17.71-42.18-22.18-64.61c-4.67-23.4-8.32-47.02-12.34-70.54l-6.9-40.18
				c-0.7-2.73-3.46-4.41-6.21-3.77c-2.71,0.74-4.37,3.46-3.79,6.21c4.16,24.27,8.32,48.55,12.49,72.83
				c3.97,22.96,7.4,46.19,14.28,68.5c3.8,12.78,9.06,25.08,15.67,36.66c3.34,5.71,12.33,0.73,8.99-5.01V370.67z"/>
			<line class="st14" x1="232.73" y1="343.07" x2="201.67" y2="360.38"/>
			<line class="st14" x1="214.82" y1="310.53" x2="194.36" y2="321.93"/>
			<line class="st14" x1="196.56" y1="278.18" x2="165.51" y2="295.49"/>
			<line class="st14" x1="178.3" y1="245.84" x2="157.84" y2="257.24"/>
			<line class="st14" x1="160.4" y1="213.29" x2="129.34" y2="230.6"/>
		</g>
	</g>
</g>
</svg>
