<svg id="Layer_5" data-name="Layer 5" xmlns="http://www.w3.org/2000/svg" viewBox="0 0 551.87 545.5">
  <defs>
    <style>
      .cls-1 {
        fill: #ffe430;
      }

      .cls-2 {
        fill: #fec108;
      }

      .cls-3 {
        fill: #fec478;
      }

      .cls-4 {
        fill: #ba803f;
      }

      .cls-5 {
        fill: #ff006a;
      }

      .cls-6 {
        fill: #c4055b;
      }
    </style>
  </defs>
  <path id="Shape" class="cls-1" d="M618,702.63v28a18.59,18.59,0,0,1-18.39,18.66H360.49a18.59,18.59,0,0,1-18.4-18.66v-28c0-55.75,32.65-106.17,83.06-128.38a100,100,0,0,0,109.82,0,135.78,135.78,0,0,1,42.59,29.48A140.22,140.22,0,0,1,618,702.63Z" transform="translate(-204.13 -204.13)"/>
  <path id="Shape-2" data-name="Shape" class="cls-2" d="M577.56,603.79A135.63,135.63,0,0,0,535,574.25a101,101,0,0,1-13.41,7.38c42.59,25,68.84,71.25,68.88,121.26v28a18.6,18.6,0,0,1-18.4,18.7h27.6A18.6,18.6,0,0,0,618,730.93v-28a140.65,140.65,0,0,0-40.47-99.1Z" transform="translate(-204.13 -204.13)"/>
  <path id="Shape-3" data-name="Shape" class="cls-3" d="M584.64,485.26a104.34,104.34,0,1,1-30.56-74A104.59,104.59,0,0,1,584.64,485.26Z" transform="translate(-204.13 -204.13)"/>
  <path id="Shape-4" data-name="Shape" class="cls-4" d="M480.06,380.68a104.69,104.69,0,0,0-14.26,1.08,104.5,104.5,0,0,1,0,207.08,104.58,104.58,0,1,0,14.26-208.16Z" transform="translate(-204.13 -204.13)"/>
  <path id="Shape-5" data-name="Shape" class="cls-1" d="M415.68,240.92V314.5a27.6,27.6,0,0,1-27.6,27.59H372l6.9,55.19-63.1-55.19H240.92a27.6,27.6,0,0,1-27.6-27.59V240.92a27.6,27.6,0,0,1,27.6-27.6H388.08A27.6,27.6,0,0,1,415.68,240.92Z" transform="translate(-204.13 -204.13)"/>
  <path id="Shape-6" data-name="Shape" class="cls-5" d="M544.45,240.92V314.5A27.59,27.59,0,0,0,572,342.09h16.1l-6.9,55.19,63.1-55.19h74.87A27.59,27.59,0,0,0,746.8,314.5V240.92a27.6,27.6,0,0,0-27.59-27.6H572A27.6,27.6,0,0,0,544.45,240.92Z" transform="translate(-204.13 -204.13)"/>
  <path id="Shape-7" data-name="Shape" class="cls-2" d="M415.68,748.85c-5.08,0-9.2-3.66-9.2-8.17V699.79c0-4.51,4.12-8.18,9.2-8.18s9.2,3.67,9.2,8.18v40.89C424.88,745.19,420.76,748.85,415.68,748.85Z" transform="translate(-204.13 -204.13)"/>
  <path id="Shape-8" data-name="Shape" class="cls-2" d="M544.45,749.22c-5.08,0-9.2-3.69-9.2-8.23V699.84c0-4.54,4.12-8.23,9.2-8.23s9.2,3.69,9.2,8.23V741C553.65,745.53,549.53,749.22,544.45,749.22Z" transform="translate(-204.13 -204.13)"/>
  <path id="Shape-9" data-name="Shape" class="cls-1" d="M378.89,406.48a9.24,9.24,0,0,1-6.06-2.27l-60.49-52.92H240.92a36.79,36.79,0,0,1-36.79-36.79V240.92a36.79,36.79,0,0,1,36.79-36.79H388.08a36.8,36.8,0,0,1,36.8,36.79V314.5a36.8,36.8,0,0,1-36.8,36.79h-5.67l5.6,44.85a9.2,9.2,0,0,1-9.12,10.34Zm-138-184a18.4,18.4,0,0,0-18.4,18.4V314.5a18.4,18.4,0,0,0,18.4,18.4h74.87a9.18,9.18,0,0,1,6,2.27l44.92,39.29-3.9-31.22A9.2,9.2,0,0,1,372,332.9h16.09a18.4,18.4,0,0,0,18.4-18.4V240.92a18.4,18.4,0,0,0-18.4-18.4Z" transform="translate(-204.13 -204.13)"/>
  <path id="Shape-10" data-name="Shape" class="cls-2" d="M268.51,268.51H250.12a9.2,9.2,0,1,1,0-18.39h18.39a9.2,9.2,0,1,1,0,18.39Z" transform="translate(-204.13 -204.13)"/>
  <path id="Shape-11" data-name="Shape" class="cls-2" d="M378.89,268.51H305.3a9.2,9.2,0,0,1,0-18.39h73.59a9.2,9.2,0,0,1,0,18.39Z" transform="translate(-204.13 -204.13)"/>
  <path id="Shape-12" data-name="Shape" class="cls-2" d="M378.89,305.3h-18.4a9.2,9.2,0,1,1,0-18.39h18.4a9.2,9.2,0,0,1,0,18.39Z" transform="translate(-204.13 -204.13)"/>
  <path id="Shape-13" data-name="Shape" class="cls-2" d="M323.7,305.3H250.12a9.2,9.2,0,1,1,0-18.39H323.7a9.2,9.2,0,1,1,0,18.39Z" transform="translate(-204.13 -204.13)"/>
  <path id="Shape-14" data-name="Shape" class="cls-5" d="M581.24,406.48a9.2,9.2,0,0,1-9.12-10.34l5.6-44.85H572a36.79,36.79,0,0,1-36.79-36.79V240.92A36.79,36.79,0,0,1,572,204.13H719.21A36.79,36.79,0,0,1,756,240.92V314.5a36.79,36.79,0,0,1-36.79,36.79H647.79l-60.5,52.92a9.19,9.19,0,0,1-6,2.27Zm-9.2-184a18.39,18.39,0,0,0-18.39,18.4V314.5A18.39,18.39,0,0,0,572,332.9h16.1a9.2,9.2,0,0,1,9.12,10.34l-3.9,31.22,44.91-39.29a9.16,9.16,0,0,1,6.07-2.27h74.87a18.39,18.39,0,0,0,18.39-18.4V240.92a18.39,18.39,0,0,0-18.39-18.4Z" transform="translate(-204.13 -204.13)"/>
  <path id="Shape-15" data-name="Shape" class="cls-6" d="M710,268.51h-18.4a9.2,9.2,0,0,1,0-18.39H710a9.2,9.2,0,1,1,0,18.39Z" transform="translate(-204.13 -204.13)"/>
  <path id="Shape-16" data-name="Shape" class="cls-6" d="M654.82,268.51H581.24a9.2,9.2,0,1,1,0-18.39h73.58a9.2,9.2,0,1,1,0,18.39Z" transform="translate(-204.13 -204.13)"/>
  <path id="Shape-17" data-name="Shape" class="cls-6" d="M599.64,305.3h-18.4a9.2,9.2,0,1,1,0-18.39h18.4a9.2,9.2,0,0,1,0,18.39Z" transform="translate(-204.13 -204.13)"/>
  <path id="Shape-18" data-name="Shape" class="cls-6" d="M710,305.3H636.43a9.2,9.2,0,1,1,0-18.39H710a9.2,9.2,0,1,1,0,18.39Z" transform="translate(-204.13 -204.13)"/>
</svg>
